<?xml version="1.0" encoding="UTF-8" standalone="no"?>
<!DOCTYPE svg PUBLIC "-//W3C//DTD SVG 1.1//EN" "http://www.w3.org/Graphics/SVG/1.1/DTD/svg11.dtd">
<!-- Generated by Microsoft Visio, SVG Export cloud_module_state_diagram.svg Page-1 -->
<svg xmlns="http://www.w3.org/2000/svg" xmlns:xlink="http://www.w3.org/1999/xlink" xmlns:ev="http://www.w3.org/2001/xml-events"
		xmlns:v="http://schemas.microsoft.com/visio/2003/SVGExtensions/" width="7.70494in" height="7.36045in"
		viewBox="0 0 554.756 529.953" xml:space="preserve" color-interpolation-filters="sRGB" class="st17">
	<v:documentProperties v:langID="1035" v:viewMarkup="false"/>

	<style type="text/css">
	<![CDATA[
		.st1 {fill:#d9e1e2;stroke:none;stroke-width:1}
		.st2 {fill:#333f48;stroke:#333f48;stroke-width:1}
		.st3 {marker-end:url(#mrkr4-10);stroke:#333f48;stroke-linecap:butt;stroke-width:1}
		.st4 {fill:#333f48;fill-opacity:1;stroke:#333f48;stroke-opacity:1;stroke-width:0.28409090909091}
		.st5 {fill:none;stroke:none;stroke-width:1}
		.st6 {fill:#000000;font-family:Arial;font-size:0.666664em}
		.st7 {fill:#00a2c6;stroke:none;stroke-width:1}
		.st8 {fill:#ffffff;font-family:Arial;font-size:0.666664em}
		.st9 {font-size:1em}
		.st10 {marker-end:url(#mrkr4-23);stroke:#333f48;stroke-linecap:butt;stroke-width:1}
		.st11 {marker-start:url(#mrkr4-34);stroke:#333f48;stroke-linecap:butt;stroke-width:1}
		.st12 {fill:#000000;font-family:Arial;font-size:0.499992em}
		.st13 {fill:#768692;stroke:none;stroke-width:1}
		.st14 {marker-end:url(#mrkr4-62);stroke:#000000;stroke-linecap:butt;stroke-width:1}
		.st15 {fill:#000000;fill-opacity:1;stroke:#000000;stroke-opacity:1;stroke-width:0.28409090909091}
		.st16 {fill:#ffffff;font-family:Arial;font-size:0.499992em}
		.st17 {fill:none;fill-rule:evenodd;font-size:12px;overflow:visible;stroke-linecap:square;stroke-miterlimit:3}
	]]>
	</style>

	<defs id="Markers">
		<g id="lend4">
			<path d="M 2 1 L 0 0 L 2 -1 L 2 1 " style="stroke:none"/>
		</g>
		<marker id="mrkr4-10" class="st4" v:arrowType="4" v:arrowSize="2" v:setback="7.04" refX="-7.04" orient="auto"
				markerUnits="strokeWidth" overflow="visible">
			<use xlink:href="#lend4" transform="scale(-3.52,-3.52) "/>
		</marker>
		<marker id="mrkr4-23" class="st4" v:arrowType="4" v:arrowSize="2" v:setback="6.68" refX="-6.68" orient="auto"
				markerUnits="strokeWidth" overflow="visible">
			<use xlink:href="#lend4" transform="scale(-3.52,-3.52) "/>
		</marker>
		<marker id="mrkr4-34" class="st4" v:arrowType="4" v:arrowSize="2" v:setback="6.68" refX="6.68" orient="auto"
				markerUnits="strokeWidth" overflow="visible">
			<use xlink:href="#lend4" transform="scale(3.52) "/>
		</marker>
		<marker id="mrkr4-62" class="st15" v:arrowType="4" v:arrowSize="2" v:setback="6.68" refX="-6.68" orient="auto"
				markerUnits="strokeWidth" overflow="visible">
			<use xlink:href="#lend4" transform="scale(-3.52,-3.52) "/>
		</marker>
	</defs>
	<g v:mID="0" v:index="1" v:groupContext="foregroundPage">
		<title>Page-1</title>
		<v:pageProperties v:drawingScale="0.0393701" v:pageScale="0.0393701" v:drawingUnits="24" v:shadowOffsetX="8.50394"
				v:shadowOffsetY="-8.50394"/>
		<v:layer v:name="Connector" v:index="0"/>
		<g id="shape5-1" v:mID="5" v:groupContext="shape" transform="translate(1,-1)">
			<title>Ellipse.1002</title>
			<v:userDefs>
				<v:ud v:nameU="visVersion" v:val="VT0(15):26"/>
			</v:userDefs>
			<path d="M0 280.34 A276.378 249.613 0 0 1 552.76 280.34 A276.378 249.613 0 0 1 0 280.34 Z" class="st1"/>
		</g>
		<g id="shape6-3" v:mID="6" v:groupContext="shape" transform="translate(273.95,-521.866)">
			<title>Sheet.6</title>
			<ellipse cx="3.42799" cy="526.409" rx="3.42799" ry="3.54331" class="st2"/>
		</g>
		<g id="shape7-5" v:mID="7" v:groupContext="shape" v:layerMember="0" transform="translate(284.465,-521.866)">
			<title>Dynamic connector.58</title>
			<path d="M-7.09 529.95 L-7.09 544.55" class="st3"/>
		</g>
		<g id="shape9-11" v:mID="9" v:groupContext="shape" transform="translate(232.024,-480.055)">
			<title>Sheet.9</title>
			<desc>STATE_RUNNING</desc>
			<v:textBlock v:margins="rect(4,4,4,4)"/>
			<v:textRect cx="52.4409" cy="522.866" width="104.89" height="14.1732"/>
			<rect x="0" y="515.78" width="104.882" height="14.1732" class="st5"/>
			<text x="18.66" y="520.47" class="st6" v:langID="1044"><v:paragraph v:horizAlign="1" v:bulletSize="0.166667"/><v:tabList/>STATE_RUNNING<v:newlineChar/></text>		</g>
		<g id="shape10-14" v:mID="10" v:groupContext="shape" transform="translate(16.4564,-176.748)">
			<title>Ellipse.72</title>
			<desc>STATE_CONNECTING</desc>
			<v:userDefs>
				<v:ud v:nameU="visVersion" v:val="VT0(15):26"/>
			</v:userDefs>
			<v:textBlock v:margins="rect(4,4,4,4)" v:verticalAlign="0"/>
			<v:textRect cx="134.713" cy="433.947" width="235.75" height="168.011"/>
			<path d="M0 433.95 A134.713 96.0062 0 1 1 269.43 433.95 A134.713 96.0062 0 1 1 0 433.95 Z" class="st7"/>
			<text x="92.71" y="361.14" class="st8" v:langID="1035"><v:paragraph v:horizAlign="1" v:bulletSize="0.166667"/><v:tabList/>STATE_CONNECT<tspan
						class="st9" v:langID="1044">ING</tspan></text>		</g>
		<g id="shape30-18" v:mID="30" v:groupContext="shape" v:layerMember="0" transform="translate(464.33,-434.453)">
			<title>Dynamic connector.1196</title>
			<path d="M0 529.95 C-0 534.85 0 541.43 -7.65 545.06 C-15.51 548.79 -31.45 549.42 -43.92 549.53 L-44.28 549.53"
					class="st10"/>
		</g>
		<g id="shape47-24" v:mID="47" v:groupContext="shape" transform="translate(212.25,-378.739)">
			<title>Ellipse.47</title>
			<desc>STATE_DISCONNECTED</desc>
			<v:userDefs>
				<v:ud v:nameU="visVersion" v:val="VT0(15):26"/>
			</v:userDefs>
			<v:textBlock v:margins="rect(4,4,4,4)"/>
			<v:textRect cx="100.561" cy="493.834" width="175.99" height="63.2084"/>
			<path d="M0 493.83 A100.561 36.1191 0 0 1 201.12 493.83 A100.561 36.1191 0 1 1 0 493.83 Z" class="st7"/>
			<text x="53.44" y="496.23" class="st8" v:langID="1035"><v:paragraph v:horizAlign="1" v:bulletSize="0.166667"/><v:tabList/>STATE_<tspan
						class="st9" v:langID="1044">DIS</tspan>CONNECTE<tspan class="st9" v:langID="1044">D</tspan></text>		</g>
		<g id="shape48-29" v:mID="48" v:groupContext="shape" v:layerMember="0" transform="translate(312.811,-450.977)">
			<title>Dynamic connector.48</title>
			<path d="M-0.12 523.27 L-0.13 522.91 C-0.43 516.76 -1.49 510.08 -5.16 506.21 C-10.21 500.87 -20.2 500.87 -26.93 500.87"
					class="st11"/>
		</g>
		<g id="shape49-35" v:mID="49" v:groupContext="shape" transform="translate(279.026,-476.512)">
			<title>Sheet.49</title>
			<ellipse cx="3.42799" cy="526.409" rx="3.42799" ry="3.54331" class="st2"/>
		</g>
		<g id="shape50-37" v:mID="50" v:groupContext="shape" transform="translate(404.937,-397.85)">
			<title>Sheet.50</title>
			<desc>NETWORK_DISCONNECTED</desc>
			<v:textBlock v:margins="rect(4,4,4,4)" v:tabSpace="42.5197"/>
			<v:textRect cx="46.063" cy="525.607" width="92.13" height="8.69242"/>
			<rect x="0" y="521.26" width="92.126" height="8.69242" class="st5"/>
			<text x="5.06" y="527.41" class="st12" v:langID="1044"><v:paragraph v:horizAlign="1"/><v:tabList/>NETWORK_DISCONNECTED</text>		</g>
		<g id="shape54-40" v:mID="54" v:groupContext="shape" transform="translate(62.0837,-277.378)">
			<title>Ellipse.194</title>
			<desc>STATE_CONNECTING_ATTEMPT</desc>
			<v:userDefs>
				<v:ud v:nameU="visVersion" v:val="VT0(15):26"/>
			</v:userDefs>
			<v:textBlock v:margins="rect(4,4,4,4)"/>
			<v:textRect cx="77.6533" cy="509.402" width="135.9" height="35.9646"/>
			<path d="M0 509.4 A77.6533 20.5512 0 0 1 155.31 509.4 A77.6533 20.5512 0 0 1 0 509.4 Z" class="st13"/>
			<text x="14.76" y="511.8" class="st8" v:langID="1035"><v:paragraph v:horizAlign="1" v:bulletSize="0.166667"/><v:tabList/>STATE_CONNECT<tspan
						class="st9" v:langID="1044">ING</tspan>_<tspan class="st9" v:langID="1044">ATTEMPT</tspan></text>		</g>
		<g id="shape56-45" v:mID="56" v:groupContext="shape" transform="translate(135.646,-334.071)">
			<title>Sheet.56</title>
			<ellipse cx="3.42799" cy="526.409" rx="3.42799" ry="3.54331" class="st2"/>
		</g>
		<g id="shape57-47" v:mID="57" v:groupContext="shape" v:layerMember="0" transform="translate(146.16,-334.071)">
			<title>Dynamic connector.57</title>
			<path d="M-7.09 529.95 L-7.09 539.23" class="st3"/>
		</g>
		<g id="shape58-52" v:mID="58" v:groupContext="shape" transform="translate(65.3784,-195.368)">
			<title>Ellipse.58</title>
			<desc>STATE_CONNECTING_BACKOFF</desc>
			<v:userDefs>
				<v:ud v:nameU="visVersion" v:val="VT0(15):26"/>
			</v:userDefs>
			<v:textBlock v:margins="rect(4,4,4,4)"/>
			<v:textRect cx="77.6533" cy="509.402" width="135.9" height="35.9646"/>
			<path d="M0 509.4 A77.6533 20.5512 0 0 1 155.31 509.4 A77.6533 20.5512 0 0 1 0 509.4 Z" class="st13"/>
			<text x="14.53" y="511.8" class="st8" v:langID="1035"><v:paragraph v:horizAlign="1" v:bulletSize="0.166667"/><v:tabList/>STATE_CONNECT<tspan
						class="st9" v:langID="1044">ING</tspan>_<tspan class="st9" v:langID="1044">BACKOFF</tspan></text>		</g>
		<g id="shape62-57" v:mID="62" v:groupContext="shape" v:layerMember="0" transform="translate(171.787,-236.471)">
			<title>Dynamic connector.62</title>
			<path d="M-6.38 529.95 C25.29 524.86 27.48 499.93 -0.98 490.8 L-1.33 490.71" class="st14"/>
		</g>
		<g id="shape64-63" v:mID="64" v:groupContext="shape" transform="translate(231.957,-57.6929)">
			<title>Ellipse.64</title>
			<desc>STATE_CONNECTED</desc>
			<v:userDefs>
				<v:ud v:nameU="visVersion" v:val="VT0(15):26"/>
			</v:userDefs>
			<v:textBlock v:margins="rect(4,4,4,4)" v:verticalAlign="0"/>
			<v:textRect cx="134.713" cy="433.947" width="235.75" height="168.011"/>
			<path d="M0 433.95 A134.713 96.0062 0 0 1 269.43 433.95 A134.713 96.0062 0 1 1 0 433.95 Z" class="st7"/>
			<text x="94.26" y="363.84" class="st8" v:langID="1035"><v:paragraph v:horizAlign="1" v:bulletSize="0.166667"/><v:tabList/>STATE_CONNECT<tspan
						class="st9" v:langID="1044">ED</tspan></text>		</g>
		<g id="shape65-67" v:mID="65" v:groupContext="shape" v:layerMember="0" transform="translate(122.181,-236.471)">
			<title>Dynamic connector.65</title>
			<path d="M-6.38 529.95 C-6.73 529.95 -18.6 528.1 -26.11 518.9 C-32.33 511.28 -35.55 498.61 -14.54 491.07 L-14.19 490.96"
					class="st14"/>
		</g>
		<g id="shape66-72" v:mID="66" v:groupContext="shape" transform="translate(288.855,-151.847)">
			<title>Ellipse.66</title>
			<desc>STATE_CONNECTED_READY</desc>
			<v:userDefs>
				<v:ud v:nameU="visVersion" v:val="VT0(15):26"/>
			</v:userDefs>
			<v:textBlock v:margins="rect(4,4,4,4)"/>
			<v:textRect cx="77.6533" cy="509.402" width="135.9" height="35.9646"/>
			<path d="M0 509.4 A77.6533 20.5512 0 0 1 155.31 509.4 A77.6533 20.5512 0 0 1 0 509.4 Z" class="st13"/>
			<text x="21.2" y="511.8" class="st8" v:langID="1035"><v:paragraph v:horizAlign="1" v:bulletSize="0.166667"/><v:tabList/>STATE_CONNECT<tspan
						class="st9" v:langID="1044">ED_READY</tspan></text>		</g>
		<g id="shape67-76" v:mID="67" v:groupContext="shape" transform="translate(362.417,-208.54)">
			<title>Sheet.67</title>
			<ellipse cx="3.42799" cy="526.409" rx="3.42799" ry="3.54331" class="st2"/>
		</g>
		<g id="shape68-78" v:mID="68" v:groupContext="shape" v:layerMember="0" transform="translate(372.932,-208.54)">
			<title>Dynamic connector.68</title>
			<path d="M-7.09 529.95 L-7.09 539.23" class="st3"/>
		</g>
		<g id="shape69-83" v:mID="69" v:groupContext="shape" transform="translate(292.15,-69.8376)">
			<title>Ellipse.69</title>
			<desc>STATE_CONNECTED_PAUSED</desc>
			<v:userDefs>
				<v:ud v:nameU="visVersion" v:val="VT0(15):26"/>
			</v:userDefs>
			<v:textBlock v:margins="rect(4,4,4,4)"/>
			<v:textRect cx="77.6533" cy="509.402" width="135.9" height="35.9646"/>
			<path d="M0 509.4 A77.6533 20.5512 0 0 1 155.31 509.4 A77.6533 20.5512 0 0 1 0 509.4 Z" class="st13"/>
			<text x="18.53" y="511.8" class="st8" v:langID="1035"><v:paragraph v:horizAlign="1" v:bulletSize="0.166667"/><v:tabList/>STATE_CONNECT<tspan
						class="st9" v:langID="1044">ED_PAUSED</tspan></text>		</g>
		<g id="shape70-87" v:mID="70" v:groupContext="shape" v:layerMember="0" transform="translate(398.559,-110.94)">
			<title>Dynamic connector.70</title>
			<path d="M-6.38 529.95 C25.29 524.86 27.48 499.93 -0.98 490.8 L-1.33 490.71" class="st14"/>
		</g>
		<g id="shape71-92" v:mID="71" v:groupContext="shape" v:layerMember="0" transform="translate(348.953,-110.94)">
			<title>Dynamic connector.71</title>
			<path d="M-6.38 529.95 C-6.73 529.95 -18.6 528.1 -26.11 518.9 C-32.33 511.28 -35.55 498.61 -14.54 491.07 L-14.19 490.96"
					class="st14"/>
		</g>
		<g id="shape72-97" v:mID="72" v:groupContext="shape" v:layerMember="0" transform="translate(217.39,-297.929)">
			<title>Dynamic connector</title>
			<path d="M0 529.95 C44.38 500.31 94.22 513.79 120.83 531.91 C139.43 544.59 146.68 559.55 148.66 571.16 L148.7 571.52"
					class="st14"/>
		</g>
		<g id="shape73-102" v:mID="73" v:groupContext="shape" transform="translate(305.724,-304.119)">
			<title>Sheet.73</title>
			<desc>Sucessfull connection</desc>
			<v:textBlock v:margins="rect(4,4,4,4)" v:tabSpace="42.5197"/>
			<v:textRect cx="46.063" cy="525.607" width="92.13" height="8.69242"/>
			<rect x="0" y="521.26" width="92.126" height="8.69242" class="st5"/>
			<text x="17.05" y="527.41" class="st12" v:langID="1044"><v:paragraph v:horizAlign="1"/><v:tabList/>Sucessfull connection</text>		</g>
		<g id="shape74-105" v:mID="74" v:groupContext="shape" v:layerMember="0" transform="translate(312.811,-378.739)">
			<title>Dynamic connector.74</title>
			<path d="M0 529.95 C-0 537.64 0 547.98 -11.75 553.69 C-24.58 559.91 -51.41 560.62 -70.91 560.7 L-71.27 560.7"
					class="st14"/>
		</g>
		<g id="shape75-110" v:mID="75" v:groupContext="shape" transform="translate(278.795,-341.157)">
			<title>Sheet.75</title>
			<desc>NETWORK_CONNECTED</desc>
			<v:textBlock v:margins="rect(4,4,4,4)" v:tabSpace="42.5197"/>
			<v:textRect cx="46.063" cy="525.607" width="92.13" height="8.69242"/>
			<rect x="0" y="521.26" width="92.126" height="8.69242" class="st5"/>
			<text x="10.06" y="527.41" class="st12" v:langID="1044"><v:paragraph v:horizAlign="1"/><v:tabList/>NETWORK_CONNECTED</text>		</g>
		<g id="shape76-113" v:mID="76" v:groupContext="shape" transform="translate(15.0391,-249.529)">
			<title>Sheet.76</title>
			<desc>CLOUD_CONN_FAILED</desc>
			<v:textBlock v:margins="rect(4,4,4,4)" v:tabSpace="42.5197"/>
			<v:textRect cx="41.8781" cy="525.607" width="83.76" height="8.69242"/>
			<rect x="0" y="521.26" width="83.7562" height="8.69242" class="st5"/>
			<text x="8.7" y="527.41" class="st16" v:langID="1044"><v:paragraph v:horizAlign="1"/><v:tabList/>CLOUD_CONN_FAILED</text>		</g>
		<g id="shape77-116" v:mID="77" v:groupContext="shape" transform="translate(188.087,-249.529)">
			<title>Sheet.77</title>
			<desc>CLOUD_BACKOFF_EXPIRED</desc>
			<v:textBlock v:margins="rect(4,4,4,4)" v:tabSpace="42.5197"/>
			<v:textRect cx="46.7717" cy="525.607" width="93.55" height="8.69242"/>
			<rect x="0" y="521.26" width="93.5433" height="8.69242" class="st5"/>
			<text x="5.6" y="527.41" class="st16" v:langID="1044"><v:paragraph v:horizAlign="1"/><v:tabList/>CLOUD_BACKOFF_EXPIRED</text>		</g>
		<g id="shape80-119" v:mID="80" v:groupContext="shape" transform="translate(404.937,-110.94)">
			<title>Sheet.80</title>
			<desc>NETWORK_CONNECTED</desc>
			<v:textBlock v:margins="rect(4,4,4,4)" v:tabSpace="42.5197"/>
			<v:textRect cx="46.063" cy="525.607" width="92.13" height="8.69242"/>
			<rect x="0" y="521.26" width="92.126" height="8.69242" class="st5"/>
			<text x="10.06" y="527.41" class="st16" v:langID="1044"><v:paragraph v:horizAlign="1"/><v:tabList/>NETWORK_CONNECTED</text>		</g>
		<g id="shape81-122" v:mID="81" v:groupContext="shape" transform="translate(239.819,-110.04)">
			<title>Sheet.81</title>
			<desc>NETWORK_DISCONNECTED</desc>
			<v:textBlock v:margins="rect(4,4,4,4)" v:tabSpace="42.5197"/>
			<v:textRect cx="46.063" cy="525.607" width="92.13" height="8.69242"/>
			<rect x="0" y="521.26" width="92.126" height="8.69242" class="st5"/>
			<text x="5.06" y="527.41" class="st16" v:langID="1044"><v:paragraph v:horizAlign="1"/><v:tabList/>NETWORK_DISCONNECTED</text>		</g>
	</g>
</svg>
