<?xml version="1.0" encoding="UTF-8" standalone="no"?>
<!DOCTYPE svg PUBLIC "-//W3C//DTD SVG 1.1//EN" "http://www.w3.org/Graphics/SVG/1.1/DTD/svg11.dtd">
<!-- Generated by Microsoft Visio, SVG Export cloud_mqtt_module_state_diagram.svg Page-1 -->
<svg xmlns="http://www.w3.org/2000/svg" xmlns:xlink="http://www.w3.org/1999/xlink" xmlns:ev="http://www.w3.org/2001/xml-events"
		width="7.89612in" height="6.71722in" viewBox="0 0 568.521 483.64" xml:space="preserve" color-interpolation-filters="sRGB"
		class="st13">
	<style type="text/css">
	<![CDATA[
		.st1 {fill:#ffffff;stroke:#000000;stroke-width:1}
		.st2 {fill:none;stroke:none;stroke-linecap:butt;stroke-width:0.75}
		.st3 {fill:#000000;font-family:Arial;font-size:0.833336em}
		.st4 {fill:#000000;stroke:none;stroke-linecap:butt;stroke-width:0.75}
		.st5 {fill:#ffffff;stroke:none;stroke-linecap:butt;stroke-width:0.75}
		.st6 {fill:#000000;font-family:Arial;font-size:0.666664em}
		.st7 {stroke:#000000;stroke-linecap:butt;stroke-width:1.5}
		.st8 {marker-end:url(#mrkr4-60);stroke:#000000;stroke-linecap:butt;stroke-width:1}
		.st9 {fill:#000000;fill-opacity:1;stroke:#000000;stroke-opacity:1;stroke-width:0.28409090909091}
		.st10 {marker-start:url(#mrkr4-78);stroke:#000000;stroke-linecap:butt;stroke-width:1}
		.st11 {fill:#000000;fill-opacity:1;stroke:#000000;stroke-opacity:1;stroke-width:0.35714285714286}
		.st12 {font-size:1em}
		.st13 {fill:none;fill-rule:evenodd;font-size:12px;overflow:visible;stroke-linecap:square;stroke-miterlimit:3}
	]]>
	</style>

	<defs id="Markers">
		<g id="lend4">
			<path d="M 2 1 L 0 0 L 2 -1 L 2 1 " style="stroke:none"/>
		</g>
		<marker id="mrkr4-60" class="st9" refX="-7.04" orient="auto" markerUnits="strokeWidth" overflow="visible">
			<use xlink:href="#lend4" transform="scale(-3.52,-3.52) "/>
		</marker>
		<marker id="mrkr4-78" class="st11" refX="5.24" orient="auto" markerUnits="strokeWidth" overflow="visible">
			<use xlink:href="#lend4" transform="scale(2.8) "/>
		</marker>
	</defs>
	<g>
		<title>Page-1</title>
		<g id="shape5-1" transform="translate(6.26099,-1)">
			<title>Sheet.5</title>
			<path d="M0 477.55 A6.33695 6.08521 -180 0 0 6.34 483.64 L554.92 483.64 A6.33695 6.08521 -180 0 0 561.26 477.55 L561.26
						 46.38 A6.33695 6.08521 -180 0 0 554.92 40.3 L6.34 40.3 A6.33695 6.08521 -180 0 0 0 46.38 L0 477.55 Z"
					class="st1"/>
		</g>
		<g id="shape6-3" transform="translate(6.26099,-426.693)">
			<title>Sheet.6</title>
			<path d="M0 477.76 A5.43167 5.88289 -180 0 0 5.43 483.64 L555.83 483.64 A5.43167 5.88289 -180 0 0 561.26 477.76 L561.26
						 471.87 A5.43167 5.88289 -180 0 0 555.83 465.99 L5.43 465.99 A5.43167 5.88289 -180 0 0 0 471.87 L0 477.76
						 Z" class="st1"/>
		</g>
		<g id="shape7-5" transform="translate(34.3194,-429.634)">
			<title>Sheet.7</title>
			<desc>STATE_RUNNING</desc>
			<rect x="0" y="471.874" width="107.012" height="11.7655" class="st2"/>
			<text x="0" y="480.76" class="st3">STATE_RUNNING</text>		</g>
		<g id="shape8-8" transform="translate(234.587,-464.43)">
			<title>Sheet.8</title>
			<ellipse cx="4.11481" cy="478.737" rx="4.11481" ry="4.90229" class="st4"/>
		</g>
		<g id="shape9-10" transform="translate(190.696,-357.39)">
			<title>Sheet.9</title>
			<path d="M0 477.76 A4.93788 5.88289 -180 0 0 3.52 483.39 A4.25197 4.25197 -180 0 0 4.95 483.64 L143.18 483.64 A4.25197
						 4.25197 -180 0 0 144.61 483.39 A4.93788 5.88289 -180 0 0 148.13 477.76 L148.13 445.4 A4.93788 5.88289 -180
						 0 0 144.61 439.77 A4.25197 4.25197 -180 0 0 143.18 439.52 L4.95 439.52 A4.25197 4.25197 -180 0 0 3.52 439.77
						 A4.93788 5.88289 -180 0 0 0 445.4 L0 477.76 Z" class="st1"/>
		</g>
		<g id="shape10-12" transform="translate(190.696,-386.512)">
			<title>Sheet.10</title>
			<path d="M0 477.76 A4.93788 5.88289 -180 0 0 3.52 483.39 A4.25197 4.25197 -180 0 0 4.95 483.64 L143.18 483.64 A4.25197
						 4.25197 -180 0 0 144.61 483.39 A4.93788 5.88289 -180 0 0 148.13 477.76 L148.13 472.85 A4.93788 5.88289 -180
						 0 0 144.61 467.22 A4.25197 4.25197 -180 0 0 143.18 466.97 L4.95 466.97 A4.25197 4.25197 -180 0 0 3.52 467.22
						 A4.93788 5.88289 -180 0 0 -0 472.85 L0 477.76 Z" class="st1"/>
		</g>
		<g id="shape11-14" transform="translate(195.62,-388.078)">
			<title>Sheet.11</title>
			<desc>STATE_DISCONNECTED</desc>
			<rect x="0" y="473.051" width="133.347" height="10.5889" class="st5"/>
			<text x="0" y="481.35" class="st3">STATE_DISCONNECTED</text>		</g>
		<g id="shape12-17" transform="translate(274.761,-335.756)">
			<title>Sheet.12</title>
			<desc>NETWORK_CONNECTED</desc>
			<rect x="0" y="475.404" width="97.9599" height="8.23585" class="st2"/>
			<text x="0" y="481.92" class="st6">NETWORK_CONNECTED</text>		</g>
		<g id="shape13-20" transform="translate(40.2767,-197.578)">
			<title>Sheet.13</title>
			<path d="M-0 476.86 A7.69624 6.77502 -180 0 0 7.7 483.64 L505.37 483.64 A7.69624 6.77502 -180 0 0 513.07 476.86 L513.07
						 366.21 A7.69624 6.77502 -180 0 0 505.37 359.43 L7.7 359.43 A7.69624 6.77502 -180 0 0 0 366.21 L0 476.86
						 Z" class="st1"/>
		</g>
		<g id="shape14-22" transform="translate(40.2767,-306.096)">
			<title>Sheet.14</title>
			<path d="M0 477.76 A7.69624 5.88289 -180 0 0 7.7 483.64 L505.37 483.64 A7.69624 5.88289 -180 0 0 513.07 477.76 L513.07
						 473.84 A7.69624 5.88289 -180 0 0 505.37 467.95 L7.7 467.95 A7.69624 5.88289 -180 0 0 -0 473.84 L0 477.76
						 Z" class="st1"/>
		</g>
		<g id="shape15-24" transform="translate(45.946,-308.351)">
			<title>Sheet.15</title>
			<desc>STATE_CONNECTING</desc>
			<rect x="0" y="473.051" width="118.534" height="10.5889" class="st2"/>
			<text x="0" y="482.05" class="st3">STATE_CONNECTING</text>		</g>
		<g id="shape16-27" transform="translate(52.324,-214.982)">
			<title>Sheet.16</title>
			<path d="M0 477.76 A5.80156 5.88289 -180 0 0 5.8 483.64 L168.24 483.64 A5.80156 5.88289 -180 0 0 174.04 477.76 L174.04
						 435.6 A5.80156 5.88289 -180 0 0 168.24 429.71 L5.8 429.71 A5.80156 5.88289 -180 0 0 0 435.6 L0 477.76 Z"
					class="st1"/>
		</g>
		<g id="shape17-29" transform="translate(52.612,-253.283)">
			<title>Sheet.17</title>
			<path d="M0 477.76 A5.80156 5.88289 -180 0 0 5.8 483.64 L168.24 483.64 A5.80156 5.88289 -180 0 0 174.04 477.76 L174.04
						 472.85 A5.80156 5.88289 -180 0 0 168.24 466.97 L5.8 466.97 A5.80156 5.88289 -180 0 0 0 472.85 L0 477.76
						 Z" class="st1"/>
		</g>
		<g id="shape18-31" transform="translate(55.1586,-254.701)">
			<title>Sheet.18</title>
			<desc>STATE_CONNECTING_ATTEMPT</desc>
			<rect x="0" y="473.051" width="162.992" height="10.5889" class="st5"/>
			<text x="0" y="481.35" class="st3">STATE_CONNECTING_ATTEMPT</text>		</g>
		<g id="shape19-34" transform="translate(58.423,-237.693)">
			<title>Sheet.19</title>
			<desc>entry / connect_to_cloud()</desc>
			<rect x="0" y="475.404" width="149.806" height="8.23585" class="st2"/>
			<text x="0" y="481.92" class="st6">entry / connect_to_cloud()</text>		</g>
		<g id="shape20-37" transform="translate(436.916,-260.505)">
			<title>Sheet.20</title>
			<path d="M0 483.64 L8.23 483.64" class="st7"/>
		</g>
		<g id="shape21-40" transform="translate(228.25,-244.78)">
			<title>Sheet.21</title>
			<desc>CLOUD_CONNECTION_ATTEMPTED</desc>
			<rect x="0" y="475.404" width="148.133" height="8.23585" class="st2"/>
			<text x="0" y="481.92" class="st6">CLOUD_CONNECTION_ATTEMPTED</text>		</g>
		<g id="shape22-43" transform="translate(445.145,706.775) rotate(180)">
			<title>Sheet.22</title>
			<path d="M0 483.64 L8.23 483.64" class="st7"/>
		</g>
		<g id="shape23-46" transform="translate(241.537,-219.268)">
			<title>Sheet.23</title>
			<desc>CLOUD_BACKOFF_EXPIRED</desc>
			<rect x="0" y="475.404" width="121.003" height="8.23585" class="st2"/>
			<text x="0" y="481.92" class="st6">CLOUD_BACKOFF_EXPIRED</text>		</g>
		<g id="shape24-49" transform="translate(285.323,-171.079)">
			<title>Sheet.24</title>
			<desc>CLOUD_CONNECTED</desc>
			<rect x="0" y="475.404" width="107.012" height="8.23585" class="st2"/>
			<text x="0" y="481.92" class="st6">CLOUD_CONNECTED</text>		</g>
		<g id="shape25-52" transform="translate(115.212,-344.126)">
			<title>Sheet.25</title>
			<desc>NETWORK_DISCONNECTED</desc>
			<rect x="0" y="475.404" width="111.845" height="8.23585" class="st2"/>
			<text x="0" y="481.92" class="st6">NETWORK_DISCONNECTED</text>		</g>
		<g id="shape26-55" transform="translate(240.074,-469.333)">
			<title>Dynamic connector</title>
			<path d="M0 483.64 L29.63 483.64 L29.63 501.59" class="st8"/>
		</g>
		<g id="shape27-61" transform="translate(234.587,-420.107)">
			<title>Dynamic connector.75</title>
			<path d="M0 483.64 L28.35 483.64 L28.35 493.19" class="st8"/>
		</g>
		<g id="shape28-66" transform="translate(230.472,-413.196)">
			<title>Sheet.28</title>
			<ellipse cx="4.11481" cy="478.737" rx="4.11481" ry="4.90229" class="st4"/>
		</g>
		<g id="shape29-68" transform="translate(262.796,-357.39)">
			<title>Dynamic connector.46</title>
			<path d="M7.09 483.64 L7.09 512.21" class="st8"/>
		</g>
		<g id="shape30-73" transform="translate(269.883,-342.575)">
			<title>Dynamic connector.83</title>
			<path d="M-5.24 483.64 L-5.6 483.64 L-201.26 483.64 L-201.26 439.43 L-263.62 439.43" class="st10"/>
		</g>
		<g id="shape31-79" transform="translate(207.749,-288.528)">
			<title>Dynamic connector.84</title>
			<path d="M0 483.64 L-68.19 483.64 L-68.19 495.18" class="st8"/>
		</g>
		<g id="shape32-84" transform="translate(215.979,-282.319) scale(-1,1)">
			<title>Sheet.32</title>
			<ellipse cx="4.11481" cy="478.737" rx="4.11481" ry="4.90229" class="st4"/>
		</g>
		<g id="shape33-86" transform="translate(372.721,-213.839)">
			<title>Sheet.33</title>
			<path d="M0 477.76 A5.80156 5.88289 -180 0 0 5.8 483.64 L168.24 483.64 A5.80156 5.88289 -180 0 0 174.04 477.76 L174.04
						 435.6 A5.80156 5.88289 -180 0 0 168.24 429.71 L5.8 429.71 A5.80156 5.88289 -180 0 0 0 435.6 L0 477.76 Z"
					class="st1"/>
		</g>
		<g id="shape34-88" transform="translate(373.009,-252.24)">
			<title>Sheet.34</title>
			<path d="M0 477.76 A5.80156 5.88289 -180 0 0 5.8 483.64 L168.24 483.64 A5.80156 5.88289 -180 0 0 174.04 477.76 L174.04
						 472.85 A5.80156 5.88289 -180 0 0 168.24 466.97 L5.8 466.97 A5.80156 5.88289 -180 0 0 0 472.85 L0 477.76
						 Z" class="st1"/>
		</g>
		<g id="shape35-90" transform="translate(375.556,-253.558)">
			<title>Sheet.35</title>
			<desc>STATE_CONNECTING_BACKOFF</desc>
			<rect x="0" y="473.051" width="162.992" height="10.5889" class="st5"/>
			<text x="0" y="481.35" class="st3">STATE_CONNECTING_BACKOFF</text>		</g>
		<g id="shape36-93" transform="translate(378.82,-236.55)">
			<title>Sheet.36</title>
			<desc>entry / calculate_backoff()</desc>
			<rect x="0" y="475.404" width="149.806" height="8.23585" class="st2"/>
			<text x="0" y="481.92" class="st6">entry / calculate_backoff()</text>		</g>
		<g id="shape37-96" transform="translate(226.367,-234.287)">
			<title>Dynamic connector.92</title>
			<path d="M0 476.55 L139.31 476.55" class="st8"/>
		</g>
		<g id="shape38-101" transform="translate(226.367,-223.52)">
			<title>Dynamic connector.93</title>
			<path d="M5.24 476.55 L5.6 476.55 L146.35 476.55" class="st10"/>
		</g>
		<g id="shape39-106" transform="translate(274.23,-197.578)">
			<title>Dynamic connector.116</title>
			<path d="M7.09 483.64 L7.09 512.21" class="st8"/>
		</g>
		<g id="shape40-111" transform="translate(85.7367,-22.2598)">
			<title>Sheet.40</title>
			<path d="M0 476.05 A5.94972 7.58919 -180 0 0 5.95 483.64 L390.69 483.64 A5.94972 7.58919 -180 0 0 396.64 476.05 L396.64
						 352.1 A5.94972 7.58919 -180 0 0 390.69 344.51 L5.95 344.51 A5.94972 7.58919 -180 0 0 0 352.1 L0 476.05 Z"
					class="st1"/>
		</g>
		<g id="shape41-113" transform="translate(85.7367,-145.704)">
			<title>Sheet.41</title>
			<path d="M0 477.76 A5.94972 5.88289 -180 0 0 5.95 483.64 L390.69 483.64 A5.94972 5.88289 -180 0 0 396.64 477.76 L396.64
						 473.84 A5.94972 5.88289 -180 0 0 390.69 467.95 L5.95 467.95 A5.94972 5.88289 -180 0 0 -0 473.84 L0 477.76
						 Z" class="st1"/>
		</g>
		<g id="shape42-115" transform="translate(90.2185,-147.959)">
			<title>Sheet.42</title>
			<desc>STATE_CONNECTED</desc>
			<rect x="0" y="473.051" width="118.534" height="10.5889" class="st2"/>
			<text x="0" y="482.05" class="st3">STATE_CONNECTED</text>		</g>
		<g id="shape59-118" transform="translate(95.8677,-91.9768)">
			<title>Sheet.59</title>
			<desc>entry / connect_work_cancel(); send CLOUD_CONNECTED; PAYLOAD_...</desc>
			<rect x="0" y="475.404" width="225.606" height="8.23585" class="st2"/>
			<text x="0" y="453.12" class="st6">entry / connect_work_cancel(); send CLOUD_CONNECTED;  <tspan x="0" dy="2.4em"
						class="st12">PAYLOAD_CHAN / send_data(); </tspan><tspan x="0" dy="1.2em" class="st12">&#60;module&#62;_SAMPLE_RESPONSE / send_&#60;module&#62;_data(); </tspan><tspan
						x="0" dy="1.2em" class="st12">NETWORK_CONNECTED / ;  </tspan><tspan x="0" dy="2.4em" class="st12">exit / mqtt_helper_disconnect();</tspan></text>		</g>
		<g id="shape60-125" transform="translate(228.996,-474.654)">
			<title>Sheet.60</title>
			<desc>Start</desc>
			<rect x="0" y="475.404" width="23.8787" height="8.23585" class="st2"/>
			<text x="0" y="481.92" class="st6">Start</text>		</g>
		<g id="shape63-128" transform="translate(85.2013,-86.0394)">
			<title>Dynamic connector.63</title>
			<path d="M0 483.64 L-65.07 483.64 L-65.07 281.15 L-51.96 281.15" class="st8"/>
		</g>
		<g id="shape66-133" transform="translate(21.8515,-177.016)">
			<title>Sheet.66</title>
			<desc>CLOUD_DISCONNECTED</desc>
			<rect x="0" y="475.404" width="107.012" height="8.23585" class="st2"/>
			<text x="0" y="481.92" class="st6">CLOUD_DISCONNECTED</text>		</g>
	</g>
</svg>
