<?xml version="1.0" encoding="UTF-8" standalone="no"?>
<!DOCTYPE svg PUBLIC "-//W3C//DTD SVG 1.1//EN" "http://www.w3.org/Graphics/SVG/1.1/DTD/svg11.dtd">
<!-- Generated by Microsoft Visio, SVG Export cloud_module_state_diagram.svg Page-1 -->
<svg xmlns="http://www.w3.org/2000/svg" xmlns:xlink="http://www.w3.org/1999/xlink" xmlns:ev="http://www.w3.org/2001/xml-events"
		xmlns:v="http://schemas.microsoft.com/visio/2003/SVGExtensions/" width="7.42368in" height="7.30777in"
		viewBox="0 0 534.505 526.159" xml:space="preserve" color-interpolation-filters="sRGB" class="st13">
	<v:documentProperties v:langID="1035" v:viewMarkup="false"/>

	<style type="text/css">
	<![CDATA[
		.st1 {fill:#ffffff;stroke:#000000;stroke-width:1}
		.st2 {fill:none;stroke:none;stroke-linecap:butt;stroke-width:0.75}
		.st3 {fill:#000000;font-family:Arial;font-size:0.833336em}
		.st4 {fill:#000000;stroke:none;stroke-linecap:butt;stroke-width:0.75}
		.st5 {fill:#ffffff;stroke:none;stroke-linecap:butt;stroke-width:0.75}
		.st6 {fill:#000000;font-family:Arial;font-size:0.666664em}
		.st7 {stroke:#000000;stroke-linecap:butt;stroke-width:1.5}
		.st8 {marker-end:url(#mrkr4-60);stroke:#000000;stroke-linecap:butt;stroke-width:1}
		.st9 {fill:#000000;fill-opacity:1;stroke:#000000;stroke-opacity:1;stroke-width:0.28409090909091}
		.st10 {marker-start:url(#mrkr4-78);stroke:#000000;stroke-linecap:butt;stroke-width:1}
		.st11 {fill:#000000;fill-opacity:1;stroke:#000000;stroke-opacity:1;stroke-width:0.35714285714286}
		.st12 {font-size:1em}
		.st13 {fill:none;fill-rule:evenodd;font-size:12px;overflow:visible;stroke-linecap:square;stroke-miterlimit:3}
	]]>
	</style>

	<defs id="Markers">
		<g id="lend4">
			<path d="M 2 1 L 0 0 L 2 -1 L 2 1 " style="stroke:none"/>
		</g>
		<marker id="mrkr4-60" class="st9" v:arrowType="4" v:arrowSize="2" v:setback="7.04" refX="-7.04" orient="auto"
				markerUnits="strokeWidth" overflow="visible">
			<use xlink:href="#lend4" transform="scale(-3.52,-3.52) "/>
		</marker>
		<marker id="mrkr4-78" class="st11" v:arrowType="4" v:arrowSize="1" v:setback="5.24" refX="5.24" orient="auto"
				markerUnits="strokeWidth" overflow="visible">
			<use xlink:href="#lend4" transform="scale(2.8) "/>
		</marker>
	</defs>
	<g v:mID="0" v:index="1" v:groupContext="foregroundPage">
		<title>Page-1</title>
		<v:pageProperties v:drawingScale="0.0393701" v:pageScale="0.0393701" v:drawingUnits="24" v:shadowOffsetX="8.50394"
				v:shadowOffsetY="-8.50394"/>
		<v:layer v:name="Connector" v:index="0"/>
		<g id="shape5-1" v:mID="5" v:groupContext="shape" transform="translate(6.26099,-1)">
			<title>Sheet.5</title>
			<path d="M0 519.49 A5.95289 6.66883 -180 0 0 5.95 526.16 L521.29 526.16 A5.95289 6.66883 -180 0 0 527.24 519.49 L527.24
						 46.97 A5.95289 6.66883 -180 0 0 521.29 40.3 L5.95 40.3 A5.95289 6.66883 -180 0 0 -0 46.97 L0 519.49 Z"
					class="st1"/>
		</g>
		<g id="shape6-3" v:mID="6" v:groupContext="shape" transform="translate(6.26099,-469.212)">
			<title>Sheet.6</title>
			<path d="M0 520.28 A5.10248 5.88289 -180 0 0 5.1 526.16 L522.14 526.16 A5.10248 5.88289 -180 0 0 527.24 520.28 L527.24
						 514.39 A5.10248 5.88289 -180 0 0 522.14 508.51 L5.1 508.51 A5.10248 5.88289 -180 0 0 0 514.39 L0 520.28
						 Z" class="st1"/>
		</g>
		<g id="shape7-5" v:mID="7" v:groupContext="shape" transform="translate(14.4769,-472.154)">
			<title>Sheet.7</title>
			<desc>STATE_RUNNING</desc>
			<v:textBlock v:margins="rect(0,0,0,0)" v:tabSpace="42.5197"/>
			<v:textRect cx="53.5062" cy="520.277" width="107.02" height="11.7655"/>
			<rect x="0" y="514.394" width="107.012" height="11.7655" class="st2"/>
			<text x="0" y="523.28" class="st3" v:langID="1035"><v:paragraph/><v:tabList/>STATE_RUNNING</text>		</g>
		<g id="shape13-8" v:mID="13" v:groupContext="shape" transform="translate(214.745,-506.95)">
			<title>Sheet.13</title>
			<ellipse cx="4.11481" cy="521.257" rx="4.11481" ry="4.90229" class="st4"/>
		</g>
		<g id="shape14-10" v:mID="14" v:groupContext="shape" transform="translate(170.853,-399.909)">
			<title>Sheet.14</title>
			<path d="M0 520.28 A4.93788 5.88289 -180 0 0 3.52 525.91 A4.25197 4.25197 -180 0 0 4.95 526.16 L143.18 526.16 A4.25197
						 4.25197 -180 0 0 144.61 525.91 A4.93788 5.88289 -180 0 0 148.13 520.28 L148.13 487.92 A4.93788 5.88289 -180
						 0 0 144.61 482.28 A4.25197 4.25197 -180 0 0 143.18 482.04 L4.95 482.04 A4.25197 4.25197 -180 0 0 3.52 482.28
						 A4.93788 5.88289 -180 0 0 0 487.92 L0 520.28 Z" class="st1"/>
		</g>
		<g id="shape15-12" v:mID="15" v:groupContext="shape" transform="translate(170.853,-429.031)">
			<title>Sheet.15</title>
			<path d="M0 520.28 A4.93788 5.88289 -180 0 0 3.52 525.91 A4.25197 4.25197 -180 0 0 4.95 526.16 L143.18 526.16 A4.25197
						 4.25197 -180 0 0 144.61 525.91 A4.93788 5.88289 -180 0 0 148.13 520.28 L148.13 515.37 A4.93788 5.88289 -180
						 0 0 144.61 509.74 A4.25197 4.25197 -180 0 0 143.18 509.49 L4.95 509.49 A4.25197 4.25197 -180 0 0 3.52 509.74
						 A4.93788 5.88289 -180 0 0 -0 515.37 L0 520.28 Z" class="st1"/>
		</g>
		<g id="shape16-14" v:mID="16" v:groupContext="shape" transform="translate(175.777,-430.598)">
			<title>Sheet.16</title>
			<desc>STATE_DISCONNECTED</desc>
			<v:textBlock v:margins="rect(0,0,0,0)" v:tabSpace="42.5197"/>
			<v:textRect cx="66.6736" cy="520.865" width="133.35" height="10.5889"/>
			<rect x="0" y="515.571" width="133.347" height="10.5889" class="st5"/>
			<text x="0" y="523.86" class="st3" v:langID="1035"><v:paragraph/><v:tabList/>STATE_DISCONNECTED</text>		</g>
		<g id="shape21-17" v:mID="21" v:groupContext="shape" transform="translate(254.919,-378.276)">
			<title>Sheet.21</title>
			<desc>NETWORK_CONNECTED</desc>
			<v:textBlock v:margins="rect(0,0,0,0)" v:tabSpace="42.5197"/>
			<v:textRect cx="48.9799" cy="522.042" width="97.96" height="8.23585"/>
			<rect x="0" y="517.924" width="97.9599" height="8.23585" class="st2"/>
			<text x="0" y="524.44" class="st6" v:langID="1035"><v:paragraph/><v:tabList/>NETWORK_CONNECTED</text>		</g>
		<g id="shape22-20" v:mID="22" v:groupContext="shape" transform="translate(20.4342,-240.097)">
			<title>Sheet.22</title>
			<path d="M-0 519.38 A7.31356 6.77502 -180 0 0 7.31 526.16 L480.25 526.16 A7.31356 6.77502 -180 0 0 487.56 519.38 L487.56
						 408.73 A7.31356 6.77502 -180 0 0 480.25 401.95 L7.31 401.95 A7.31356 6.77502 -180 0 0 -0 408.73 L0 519.38
						 Z" class="st1"/>
		</g>
		<g id="shape23-22" v:mID="23" v:groupContext="shape" transform="translate(20.4342,-348.616)">
			<title>Sheet.23</title>
			<path d="M-0 520.28 A7.31356 5.88289 -180 0 0 7.31 526.16 L480.25 526.16 A7.31356 5.88289 -180 0 0 487.56 520.28 L487.56
						 516.35 A7.31356 5.88289 -180 0 0 480.25 510.47 L7.31 510.47 A7.31356 5.88289 -180 0 0 0 516.35 L0 520.28
						 Z" class="st1"/>
		</g>
		<g id="shape24-24" v:mID="24" v:groupContext="shape" transform="translate(26.1035,-350.871)">
			<title>Sheet.24</title>
			<desc>STATE_CONNECTING</desc>
			<v:textBlock v:margins="rect(0,0,0,0)" v:tabSpace="42.5197" v:verticalAlign="0"/>
			<v:textRect cx="59.267" cy="520.865" width="118.54" height="10.5889"/>
			<rect x="0" y="515.571" width="118.534" height="10.5889" class="st2"/>
			<text x="0" y="524.57" class="st3" v:langID="1035"><v:paragraph/><v:tabList/>STATE_CONNECTING</text>		</g>
		<g id="shape26-27" v:mID="26" v:groupContext="shape" transform="translate(32.4815,-257.502)">
			<title>Sheet.26</title>
			<path d="M0 520.28 A5.80156 5.88289 -180 0 0 5.8 526.16 L168.24 526.16 A5.80156 5.88289 -180 0 0 174.04 520.28 L174.04
						 478.12 A5.80156 5.88289 -180 0 0 168.24 472.23 L5.8 472.23 A5.80156 5.88289 -180 0 0 0 478.12 L0 520.28
						 Z" class="st1"/>
		</g>
		<g id="shape27-29" v:mID="27" v:groupContext="shape" transform="translate(32.7695,-295.803)">
			<title>Sheet.27</title>
			<path d="M0 520.28 A5.80156 5.88289 -180 0 0 5.8 526.16 L168.24 526.16 A5.80156 5.88289 -180 0 0 174.04 520.28 L174.04
						 515.37 A5.80156 5.88289 -180 0 0 168.24 509.49 L5.8 509.49 A5.80156 5.88289 -180 0 0 0 515.37 L0 520.28
						 Z" class="st1"/>
		</g>
		<g id="shape28-31" v:mID="28" v:groupContext="shape" transform="translate(35.3161,-297.22)">
			<title>Sheet.28</title>
			<desc>STATE_CONNECTING_ATTEMPT</desc>
			<v:textBlock v:margins="rect(0,0,0,0)" v:tabSpace="42.5197"/>
			<v:textRect cx="81.4961" cy="520.865" width="163" height="10.5889"/>
			<rect x="0" y="515.571" width="162.992" height="10.5889" class="st5"/>
			<text x="0" y="523.86" class="st3" v:langID="1035"><v:paragraph/><v:tabList/>STATE_CONNECTING_ATTEMPT</text>		</g>
		<g id="shape29-34" v:mID="29" v:groupContext="shape" transform="translate(38.5805,-280.213)">
			<title>Sheet.29</title>
			<desc>entry / connect_to_cloud()</desc>
			<v:textBlock v:margins="rect(0,0,0,0)" v:tabSpace="42.5197"/>
			<v:textRect cx="74.9032" cy="522.042" width="149.81" height="8.23585"/>
			<rect x="0" y="517.924" width="149.806" height="8.23585" class="st2"/>
			<text x="0" y="524.44" class="st6" v:langID="1035"><v:paragraph/><v:tabList/>entry / connect_to_cloud()</text>		</g>
		<g id="shape35-37" v:mID="35" v:groupContext="shape" transform="translate(383.181,-303.025)">
			<title>Sheet.35</title>
			<path d="M0 526.16 L8.23 526.16" class="st7"/>
		</g>
		<g id="shape38-40" v:mID="38" v:groupContext="shape" transform="translate(216.025,-287.299)">
			<title>Sheet.38</title>
			<desc>CLOUD_CONN_FAILED</desc>
			<v:textBlock v:margins="rect(0,0,0,0)" v:tabSpace="42.5197"/>
			<v:textRect cx="48.9799" cy="522.042" width="97.96" height="8.23585"/>
			<rect x="0" y="517.924" width="97.9599" height="8.23585" class="st2"/>
			<text x="0" y="524.44" class="st6" v:langID="1035"><v:paragraph/><v:tabList/>CLOUD_CONN_FAILED</text>		</g>
		<g id="shape40-43" v:mID="40" v:groupContext="shape" transform="translate(391.411,749.294) rotate(180)">
			<title>Sheet.40</title>
			<path d="M0 526.16 L8.23 526.16" class="st7"/>
		</g>
		<g id="shape43-46" v:mID="43" v:groupContext="shape" transform="translate(208.408,-261.787)">
			<title>Sheet.43</title>
			<desc>CLOUD_BACKOFF_EXPIRED</desc>
			<v:textBlock v:margins="rect(0,0,0,0)" v:tabSpace="42.5197"/>
			<v:textRect cx="60.5014" cy="522.042" width="121.01" height="8.23585"/>
			<rect x="0" y="517.924" width="121.003" height="8.23585" class="st2"/>
			<text x="0" y="524.44" class="st6" v:langID="1035"><v:paragraph/><v:tabList/>CLOUD_BACKOFF_EXPIRED</text>		</g>
		<g id="shape48-49" v:mID="48" v:groupContext="shape" transform="translate(252.039,-224.937)">
			<title>Sheet.48</title>
			<desc>CLOUD_CONN_SUCCESS</desc>
			<v:textBlock v:margins="rect(0,0,0,0)" v:tabSpace="42.5197"/>
			<v:textRect cx="51.8603" cy="522.042" width="103.73" height="8.23585"/>
			<rect x="0" y="517.924" width="103.721" height="8.23585" class="st2"/>
			<text x="0" y="524.44" class="st6" v:langID="1035"><v:paragraph/><v:tabList/>CLOUD_CONN_SUCCESS</text>		</g>
		<g id="shape72-52" v:mID="72" v:groupContext="shape" transform="translate(95.3694,-386.646)">
			<title>Sheet.72</title>
			<desc>NETWORK_DISCONNECTED</desc>
			<v:textBlock v:margins="rect(0,0,0,0)" v:tabSpace="42.5197"/>
			<v:textRect cx="55.9225" cy="522.042" width="111.85" height="8.23585"/>
			<rect x="0" y="517.924" width="111.845" height="8.23585" class="st2"/>
			<text x="0" y="524.44" class="st6" v:langID="1035"><v:paragraph/><v:tabList/>NETWORK_DISCONNECTED</text>		</g>
		<g id="shape73-55" v:mID="73" v:groupContext="shape" v:layerMember="0" transform="translate(220.231,-511.852)">
			<title>Dynamic connector</title>
			<path d="M0 526.16 L29.63 526.16 L29.63 544.11" class="st8"/>
		</g>
		<g id="shape75-61" v:mID="75" v:groupContext="shape" v:layerMember="0" transform="translate(214.745,-462.627)">
			<title>Dynamic connector.75</title>
			<path d="M0 526.16 L28.35 526.16 L28.35 535.71" class="st8"/>
		</g>
		<g id="shape76-66" v:mID="76" v:groupContext="shape" transform="translate(210.63,-455.715)">
			<title>Sheet.76</title>
			<ellipse cx="4.11481" cy="521.257" rx="4.11481" ry="4.90229" class="st4"/>
		</g>
		<g id="shape81-68" v:mID="81" v:groupContext="shape" v:layerMember="0" transform="translate(242.954,-399.909)">
			<title>Dynamic connector.46</title>
			<path d="M7.09 526.16 L7.09 554.73" class="st8"/>
		</g>
		<g id="shape83-73" v:mID="83" v:groupContext="shape" v:layerMember="0" transform="translate(250.041,-385.094)">
			<title>Dynamic connector.83</title>
			<path d="M-5.24 526.16 L-5.6 526.16 L-201.26 526.16 L-201.26 487.47 L-243.78 487.47" class="st10"/>
		</g>
		<g id="shape84-79" v:mID="84" v:groupContext="shape" v:layerMember="0" transform="translate(187.907,-331.048)">
			<title>Dynamic connector.84</title>
			<path d="M0 526.16 L-68.19 526.16 L-68.19 537.7" class="st8"/>
		</g>
		<g id="shape85-84" v:mID="85" v:groupContext="shape" transform="translate(196.137,-324.838) scale(-1,1)">
			<title>Sheet.85</title>
			<ellipse cx="4.11481" cy="521.257" rx="4.11481" ry="4.90229" class="st4"/>
		</g>
		<g id="shape86-86" v:mID="86" v:groupContext="shape" transform="translate(318.986,-256.359)">
			<title>Sheet.86</title>
			<path d="M0 520.28 A5.80156 5.88289 -180 0 0 5.8 526.16 L168.24 526.16 A5.80156 5.88289 -180 0 0 174.04 520.28 L174.04
						 478.12 A5.80156 5.88289 -180 0 0 168.24 472.23 L5.8 472.23 A5.80156 5.88289 -180 0 0 0 478.12 L0 520.28
						 Z" class="st1"/>
		</g>
		<g id="shape87-88" v:mID="87" v:groupContext="shape" transform="translate(319.274,-294.759)">
			<title>Sheet.87</title>
			<path d="M0 520.28 A5.80156 5.88289 -180 0 0 5.8 526.16 L168.24 526.16 A5.80156 5.88289 -180 0 0 174.04 520.28 L174.04
						 515.37 A5.80156 5.88289 -180 0 0 168.24 509.49 L5.8 509.49 A5.80156 5.88289 -180 0 0 0 515.37 L0 520.28
						 Z" class="st1"/>
		</g>
		<g id="shape88-90" v:mID="88" v:groupContext="shape" transform="translate(321.821,-296.077)">
			<title>Sheet.88</title>
			<desc>STATE_CONNECTING_BACKOFF</desc>
			<v:textBlock v:margins="rect(0,0,0,0)" v:tabSpace="42.5197"/>
			<v:textRect cx="81.4961" cy="520.865" width="163" height="10.5889"/>
			<rect x="0" y="515.571" width="162.992" height="10.5889" class="st5"/>
			<text x="0" y="523.86" class="st3" v:langID="1035"><v:paragraph/><v:tabList/>STATE_CONNECTING_BACKOFF</text>		</g>
		<g id="shape89-93" v:mID="89" v:groupContext="shape" transform="translate(325.085,-279.07)">
			<title>Sheet.89</title>
			<desc>entry / calculate_backoff()</desc>
			<v:textBlock v:margins="rect(0,0,0,0)" v:tabSpace="42.5197"/>
			<v:textRect cx="74.9032" cy="522.042" width="149.81" height="8.23585"/>
			<rect x="0" y="517.924" width="149.806" height="8.23585" class="st2"/>
			<text x="0" y="524.44" class="st6" v:langID="1035"><v:paragraph/><v:tabList/>entry / calculate_backoff()</text>		</g>
		<g id="shape92-96" v:mID="92" v:groupContext="shape" v:layerMember="0" transform="translate(206.524,-276.806)">
			<title>Dynamic connector.92</title>
			<path d="M0 519.07 L105.42 519.07" class="st8"/>
		</g>
		<g id="shape93-101" v:mID="93" v:groupContext="shape" v:layerMember="0" transform="translate(206.524,-266.039)">
			<title>Dynamic connector.93</title>
			<path d="M5.24 519.07 L5.6 519.07 L112.46 519.07" class="st10"/>
		</g>
		<g id="shape116-106" v:mID="116" v:groupContext="shape" v:layerMember="0" transform="translate(242.954,-240.097)">
			<title>Dynamic connector.116</title>
			<path d="M7.09 526.16 L7.09 554.73" class="st8"/>
		</g>
		<g id="shape117-111" v:mID="117" v:groupContext="shape" transform="translate(20.4342,-20.8425)">
			<title>Sheet.117</title>
			<path d="M0 516.17 A7.52616 9.98581 -180 0 0 7.53 526.16 L494.21 526.16 A7.52616 9.98581 -180 0 0 501.73 516.17 L501.73
						 353.08 A7.52616 9.98581 -180 0 0 500.92 348.55 A8.50394 8.50394 -180 0 0 492.97 343.09 L7.53 343.09 A7.52616
						 9.98581 -180 0 0 -0 353.08 L0 516.17 Z" class="st1"/>
		</g>
		<g id="shape118-113" v:mID="118" v:groupContext="shape" transform="translate(20.4342,-188.224)">
			<title>Sheet.118</title>
			<path d="M-0 520.28 A7.52616 5.88289 -180 0 0 7.53 526.16 L494.21 526.16 A7.52616 5.88289 -180 0 0 501.73 520.28 L501.73
						 516.35 A7.52616 5.88289 -180 0 0 494.21 510.47 L7.53 510.47 A7.52616 5.88289 -180 0 0 -0 516.35 L0 520.28
						 Z" class="st1"/>
		</g>
		<g id="shape119-115" v:mID="119" v:groupContext="shape" transform="translate(26.1035,-190.479)">
			<title>Sheet.119</title>
			<desc>STATE_CONNECTED</desc>
			<v:textBlock v:margins="rect(0,0,0,0)" v:tabSpace="42.5197" v:verticalAlign="0"/>
			<v:textRect cx="59.267" cy="520.865" width="118.54" height="10.5889"/>
			<rect x="0" y="515.571" width="118.534" height="10.5889" class="st2"/>
			<text x="0" y="524.57" class="st3" v:langID="1035"><v:paragraph/><v:tabList/>STATE_CONNECTED</text>		</g>
		<g id="shape120-118" v:mID="120" v:groupContext="shape" transform="translate(32.4815,-43.5197)">
			<title>Sheet.120</title>
			<path d="M-0 514.43 A6.67559 11.7293 -180 0 0 4.83 525.7 A4.25197 4.25197 -180 0 0 6.75 526.16 L193.52 526.16 A4.25197
						 4.25197 -180 0 0 195.43 525.7 A6.67559 11.7293 -180 0 0 200.26 514.43 L200.26 430.37 A6.67559 11.7293 -180
						 0 0 199.36 424.47 A8.50394 8.50394 -180 0 0 191.28 418.64 L6.75 418.64 A4.25197 4.25197 -180 0 0 4.83 419.1
						 A6.67559 11.7293 -180 0 0 0 430.37 L0 514.43 Z" class="st1"/>
		</g>
		<g id="shape121-120" v:mID="121" v:groupContext="shape" transform="translate(32.7695,-134.568)">
			<title>Sheet.121</title>
			<path d="M-0 520.28 A6.67559 5.88289 -180 0 0 6.68 526.16 L193.59 526.16 A6.67559 5.88289 -180 0 0 200.26 520.28 L200.26
						 515.37 A6.67559 5.88289 -180 0 0 193.59 509.49 L6.68 509.49 A6.67559 5.88289 -180 0 0 0 515.37 L0 520.28
						 Z" class="st1"/>
		</g>
		<g id="shape122-122" v:mID="122" v:groupContext="shape" transform="translate(35.3161,-136.829)">
			<title>Sheet.122</title>
			<desc>STATE_CONNECTED_READY_TO_SEND</desc>
			<v:textBlock v:margins="rect(0,0,0,0)" v:tabSpace="42.5197"/>
			<v:textRect cx="97.4409" cy="520.865" width="194.89" height="10.5889"/>
			<rect x="0" y="515.571" width="194.882" height="10.5889" class="st5"/>
			<text x="0" y="523.86" class="st3" v:langID="1035"><v:paragraph/><v:tabList/>STATE_CONNECTED_READY_TO_SEND</text>		</g>
		<g id="shape123-125" v:mID="123" v:groupContext="shape" transform="translate(38.5805,-86.0394)">
			<title>Sheet.123</title>
			<desc>entry / send CLOUD_CONNECTED; shadow_get(); PAYLOAD_CHAN / se...</desc>
			<v:textBlock v:margins="rect(0,0,0,0)" v:tabSpace="42.5197"/>
			<v:textRect cx="74.9032" cy="522.042" width="149.81" height="8.23585"/>
			<rect x="0" y="517.924" width="149.806" height="8.23585" class="st2"/>
			<text x="0" y="490.84" class="st6" v:langID="1033"><v:paragraph/><v:tabList/>entry / send CLOUD_CONNECTED; <tspan x="0"
						dy="1.2em" class="st12">shadow_get();<v:newlineChar/><v:newlineChar/></tspan><tspan x="0" dy="2.4em"
						class="st12">PAYLOAD_CHAN / send_data();<v:newlineChar/></tspan><tspan x="0" dy="1.2em" class="st12">TRIGGER_POLL / shadow_get();<v:newlineChar/></tspan><tspan
						x="0" dy="1.2em" class="st12">&#60;module&#62;_SAMPLE_RESPONSE / </tspan><tspan x="0" dy="1.2em"
						class="st12">send_&#60;module&#62;_data();<v:newlineChar/></tspan><tspan x="0" dy="1.2em" class="st12">NETWORK_CONNECTED / ;</tspan></text>		</g>
		<g id="shape124-134" v:mID="124" v:groupContext="shape" transform="translate(417.7,-142.633)">
			<title>Sheet.124</title>
			<path d="M0 526.16 L8.23 526.16" class="st7"/>
		</g>
		<g id="shape125-137" v:mID="125" v:groupContext="shape" transform="translate(235.867,-114.386)">
			<title>Sheet.125</title>
			<desc>NETWORK_DISCONNECTED</desc>
			<v:textBlock v:margins="rect(0,0,0,0)" v:tabSpace="42.5197"/>
			<v:textRect cx="55.6939" cy="522.042" width="111.39" height="8.23585"/>
			<rect x="0" y="517.924" width="111.388" height="8.23585" class="st2"/>
			<text x="0" y="524.44" class="st6" v:langID="1035"><v:paragraph/><v:tabList/>NETWORK_DISCONNECTED</text>		</g>
		<g id="shape126-140" v:mID="126" v:groupContext="shape" transform="translate(425.929,909.686) rotate(180)">
			<title>Sheet.126</title>
			<path d="M0 526.16 L8.23 526.16" class="st7"/>
		</g>
		<g id="shape127-143" v:mID="127" v:groupContext="shape" transform="translate(240.746,-71.8661)">
			<title>Sheet.127</title>
			<desc>NETWORK_CONNECTED</desc>
			<v:textBlock v:margins="rect(0,0,0,0)" v:tabSpace="42.5197"/>
			<v:textRect cx="48.9799" cy="522.042" width="97.96" height="8.23585"/>
			<rect x="0" y="517.924" width="97.9599" height="8.23585" class="st2"/>
			<text x="0" y="524.44" class="st6" v:langID="1035"><v:paragraph/><v:tabList/>NETWORK<tspan class="st12" v:langID="1033">_</tspan>CONNECTED</text>		</g>
		<g id="shape129-147" v:mID="129" v:groupContext="shape" v:layerMember="0" transform="translate(187.907,-169.349)">
			<title>Dynamic connector.129</title>
			<path d="M0 526.16 L-68.19 526.16 L-68.19 537.7" class="st8"/>
		</g>
		<g id="shape130-152" v:mID="130" v:groupContext="shape" transform="translate(196.137,-164.447) scale(-1,1)">
			<title>Sheet.130</title>
			<ellipse cx="4.11481" cy="521.257" rx="4.11481" ry="4.90229" class="st4"/>
		</g>
		<g id="shape131-154" v:mID="131" v:groupContext="shape" transform="translate(353.505,-42.3766)">
			<title>Sheet.131</title>
			<path d="M0 514.43 A5.18737 11.7293 -180 0 0 2.42 524.35 A4.25197 4.25197 -180 0 0 5.9 526.16 L149.72 526.16 A4.25197
						 4.25197 -180 0 0 153.2 524.35 A5.18737 11.7293 -180 0 0 155.62 514.43 L155.62 430.37 A5.18737 11.7293 -180
						 0 0 155.14 425.44 A8.50394 8.50394 -180 0 0 146.81 418.64 L5.9 418.64 A4.25197 4.25197 -180 0 0 2.42 420.46
						 A5.18737 11.7293 -180 0 0 -0 430.37 L0 514.43 Z" class="st1"/>
		</g>
		<g id="shape132-156" v:mID="132" v:groupContext="shape" transform="translate(353.793,-134.368)">
			<title>Sheet.132</title>
			<path d="M0 520.28 A5.18737 5.88289 -180 0 0 5.19 526.16 L150.43 526.16 A5.18737 5.88289 -180 0 0 155.62 520.28 L155.62
						 515.37 A5.18737 5.88289 -180 0 0 150.43 509.49 L5.19 509.49 A5.18737 5.88289 -180 0 0 0 515.37 L0 520.28
						 Z" class="st1"/>
		</g>
		<g id="shape133-158" v:mID="133" v:groupContext="shape" transform="translate(356.34,-135.686)">
			<title>Sheet.133</title>
			<desc>STATE_CONNECTED_PAUSED</desc>
			<v:textBlock v:margins="rect(0,0,0,0)" v:tabSpace="42.5197"/>
			<v:textRect cx="74.9032" cy="520.865" width="149.81" height="10.5889"/>
			<rect x="0" y="515.571" width="149.806" height="10.5889" class="st5"/>
			<text x="0" y="523.86" class="st3" v:langID="1035"><v:paragraph/><v:tabList/>STATE_CONNECTED_PAUSED</text>		</g>
		<g id="shape134-161" v:mID="134" v:groupContext="shape" transform="translate(359.604,-107.433)">
			<title>Sheet.134</title>
			<desc>entry / send CLOUD_DISCONNECTED NETWORK_DISCONNECTED / ;</desc>
			<v:textBlock v:margins="rect(0,0,0,0)" v:tabSpace="42.5197"/>
			<v:textRect cx="74.9032" cy="522.042" width="149.81" height="8.23585"/>
			<rect x="0" y="517.924" width="149.806" height="8.23585" class="st2"/>
			<text x="0" y="514.84" class="st6" v:langID="1033"><v:paragraph/><v:tabList/>entry / send CLOUD_DISCONNECTED<v:newlineChar/><v:newlineChar/><tspan
						x="0" dy="2.4em" class="st12">NETWORK_DISCONNECTED / ;</tspan></text>		</g>
		<g id="shape135-165" v:mID="135" v:groupContext="shape" v:layerMember="0" transform="translate(232.745,-103.802)">
			<title>Dynamic connector.135</title>
			<path d="M0 519.07 L113.72 519.07" class="st8"/>
		</g>
		<g id="shape136-170" v:mID="136" v:groupContext="shape" v:layerMember="0" transform="translate(232.745,-61.2546)">
			<title>Dynamic connector.136</title>
			<path d="M5.24 519.07 L5.6 519.07 L120.76 519.07" class="st10"/>
		</g>
		<g id="shape138-175" v:mID="138" v:groupContext="shape" transform="translate(22.4322,-176.748)">
			<title>Sheet.138</title>
			<desc>entry / connect_work_cancel()</desc>
			<v:textBlock v:margins="rect(0,0,0,0)" v:tabSpace="42.5197"/>
			<v:textRect cx="55.6939" cy="522.042" width="111.39" height="8.23585"/>
			<rect x="0" y="517.924" width="111.388" height="8.23585" class="st2"/>
			<text x="0" y="524.44" class="st6" v:langID="1035"><v:paragraph/><v:tabList/>entry / connect_<tspan class="st12"
						v:langID="1033">work</tspan>_c<tspan class="st12" v:langID="1033">ancel</tspan>()</text>		</g>
		<g id="shape139-180" v:mID="139" v:groupContext="shape" transform="translate(209.154,-517.174)">
			<title>Sheet.139</title>
			<desc>Start</desc>
			<v:textBlock v:margins="rect(0,0,0,0)" v:tabSpace="42.5197"/>
			<v:textRect cx="11.9394" cy="522.042" width="23.88" height="8.23585"/>
			<rect x="0" y="517.924" width="23.8787" height="8.23585" class="st2"/>
			<text x="0" y="524.44" class="st6" v:langID="1033"><v:paragraph/><v:tabList/>Start</text>		</g>
	</g>
</svg>
