<?xml version="1.0" encoding="UTF-8" standalone="no"?>
<!DOCTYPE svg PUBLIC "-//W3C//DTD SVG 1.1//EN" "http://www.w3.org/Graphics/SVG/1.1/DTD/svg11.dtd">
<!-- Generated by Microsoft Visio, SVG Export environmental_module_state_diagram.svg Page-1 -->
<svg xmlns="http://www.w3.org/2000/svg" xmlns:xlink="http://www.w3.org/1999/xlink" xmlns:ev="http://www.w3.org/2001/xml-events"
		width="4.48239in" height="1.99386in" viewBox="0 0 322.732 143.558" xml:space="preserve" color-interpolation-filters="sRGB"
		class="st10">
	<style type="text/css">
	<![CDATA[
		.st1 {fill:none;stroke:none;stroke-linecap:butt;stroke-width:0.75}
		.st2 {fill:#000000;font-family:Arial;font-size:0.833336em}
		.st3 {fill:#000000;stroke:none;stroke-linecap:butt;stroke-width:0.749999}
		.st4 {fill:none}
		.st5 {stroke:#000000;stroke-linecap:butt;stroke-width:0.999998}
		.st6 {fill:#000000;stroke:none;stroke-width:0.999998}
		.st7 {fill:#ffffff;stroke:#000000;stroke-width:0.999998}
		.st8 {fill:none;stroke:none;stroke-width:0.999998}
		.st9 {font-size:1em}
		.st10 {fill:none;fill-rule:evenodd;font-size:12px;overflow:visible;stroke-linecap:square;stroke-miterlimit:3}
	]]>
	</style>

	<g>
		<title>Page-1</title>
		<g id="shape139-1" transform="translate(147.2,-133.44)">
			<title>Sheet.139</title>
			<desc>Start</desc>
			<rect x="0" y="135.322" width="23.8787" height="8.23585" class="st1"/>
			<text x="0" y="142.44" class="st2">Start</text>		</g>
		<g id="group140-4" transform="translate(0.999998,-0.999998)">
			<title>Page-1</title>
			<g id="group141-5" transform="translate(152.481,-122.439)">
				<title>Initial state</title>
				<g id="shape142-6">
					<title>Sheet.142</title>
					<ellipse cx="4.91796" cy="138.558" rx="4.91796" ry="4.99999" class="st3"/>
				</g>
			</g>
			<g id="group143-8" transform="translate(157.399,-103.04)">
				<title>Dynamic connector</title>
				<g id="group144-9">
					<title>Sheet.144</title>
					<g id="shape145-10">
						<title>Sheet.145</title>
						<path d="M0 114.16 L0 141.11 L0 143.56 L0 114.16 Z" class="st4"/>
						<path d="M0 114.16 L0 141.11 L0 143.56" class="st5"/>
					</g>
					<g id="group146-13" transform="translate(140.038,143.558) rotate(90)">
						<title>mrkr4-8</title>
						<g id="shape147-14" transform="translate(7.03999,280.075) rotate(180)">
							<title>Sheet.147</title>
							<path d="M7.04 143.56 L0 140.04 L7.04 136.52 L7.04 143.56 Z" class="st6"/>
						</g>
					</g>
				</g>
			</g>
			<g id="group148-16" transform="translate(0.0245898,5.11591E-13)">
				<title>Sheet.148</title>
				<desc>STATE_RUNNING</desc>
				<g id="shape149-17">
					<title>Sheet.149</title>
					<path d="M0 137.56 A5.90155 5.99999 -180 0 0 5.9 143.56 L308.85 143.56 A5.90155 5.99999 -180 0 0 314.75 137.56
								 L314.75 53.56 A5.90155 5.99999 -180 0 0 308.85 47.56 L5.9 47.56 A5.90155 5.99999 -180 0 0 0 53.56
								 L0 137.56 Z" class="st7"/>
				</g>
			</g>
			<g id="group150-19" transform="translate(0,-71.9999)">
				<title>Sheet.150</title>
				<desc>STATE_RUNNING</desc>
				<g id="shape151-20">
					<title>Sheet.151</title>
					<path d="M0 137.56 A5.99999 5.90248 -90 0 0 5.9 143.56 L308.9 143.56 A5.99999 5.90248 -90 0 0 314.8 137.56 L314.8
								 125.56 A5.99999 5.90248 -90 0 0 308.9 119.56 L5.9 119.56 A5.99999 5.90248 -90 0 0 -0 125.56 L0 137.56
								 Z" class="st7"/>
				</g>
				<g id="shape152-22" transform="translate(5.46877,-5.99998)">
					<title>Sheet.152</title>
					<desc>STATE_RUNNING</desc>
					<rect x="0" y="131.558" width="127.867" height="12" class="st1"/>
					<text x="0" y="140.56" class="st2">STATE_RUNNING</text>				</g>
			</g>
			<g id="group153-25" transform="translate(1.03141,-38.5039)">
				<title>Sheet.153</title>
				<desc>ENVIRONMENTAL_SENSOR_SAMPLE_REQUEST / sample_sensors()</desc>
				<g id="shape154-26">
					<title>Sheet.154</title>
					<rect x="0" y="124.558" width="194.975" height="19" class="st8"/>
				</g>
				<g id="shape155-28" transform="translate(2.96815,-9.49597)">
					<title>Sheet.155</title>
					<desc>ENVIRONMENTAL_SENSOR_SAMPLE_REQUEST / sample_sensors()</desc>
					<rect x="0" y="131.558" width="238.974" height="12" class="st1"/>
					<text x="0" y="140.56" class="st2">ENVIRONMENTAL_SENSOR_SAMPLE_REQUEST <tspan x="0" dy="1.2em" class="st9">/ sample_sensors()</tspan></text>				</g>
			</g>
		</g>
	</g>
</svg>
