<?xml version="1.0" encoding="UTF-8" standalone="no"?>
<!DOCTYPE svg PUBLIC "-//W3C//DTD SVG 1.1//EN" "http://www.w3.org/Graphics/SVG/1.1/DTD/svg11.dtd">
<!-- Generated by Microsoft Visio, SVG Export fota_module_state_diagram.svg Page-1 -->
<svg xmlns="http://www.w3.org/2000/svg" xmlns:xlink="http://www.w3.org/1999/xlink" xmlns:ev="http://www.w3.org/2001/xml-events"
		width="7.86412in" height="8.24769in" viewBox="0 0 566.216 593.833" xml:space="preserve" color-interpolation-filters="sRGB"
		class="st15">
	<style type="text/css">
	<![CDATA[
		.st1 {fill:#ffffff;stroke:#000000;stroke-width:1}
		.st2 {fill:none;stroke:#ffffff;stroke-linecap:butt;stroke-width:0.75}
		.st3 {fill:#000000;font-family:Arial;font-size:0.833336em}
		.st4 {fill:#000000;font-family:Arial;font-size:0.666664em}
		.st5 {fill:#ffffff;stroke:#ffffff;stroke-linecap:butt;stroke-width:0.75}
		.st6 {fill:none;stroke:none;stroke-linecap:butt;stroke-width:0.75}
		.st7 {font-size:1em}
		.st8 {fill:none;stroke:#000000;stroke-width:1}
		.st9 {fill:#000000;stroke:none;stroke-linecap:butt;stroke-width:0.75}
		.st10 {marker-end:url(#mrkr4-58);stroke:#000000;stroke-linecap:butt;stroke-width:1}
		.st11 {fill:#000000;fill-opacity:1;stroke:#000000;stroke-opacity:1;stroke-width:0.28409090909091}
		.st12 {fill:#ffffff;stroke:#000000;stroke-linecap:butt;stroke-width:0.75}
		.st13 {marker-start:url(#mrkr4-169);stroke:#000000;stroke-linecap:butt;stroke-width:1}
		.st14 {fill:#000000;fill-opacity:1;stroke:#000000;stroke-opacity:1;stroke-width:0.35714285714286}
		.st15 {fill:none;fill-rule:evenodd;font-size:12px;overflow:visible;stroke-linecap:square;stroke-miterlimit:3}
	]]>
	</style>

	<defs id="Markers">
		<g id="lend4">
			<path d="M 2 1 L 0 0 L 2 -1 L 2 1 " style="stroke:none"/>
		</g>
		<marker id="mrkr4-58" class="st11" refX="-7.04" orient="auto" markerUnits="strokeWidth" overflow="visible">
			<use xlink:href="#lend4" transform="scale(-3.52,-3.52) "/>
		</marker>
		<marker id="mrkr4-169" class="st14" refX="5.24" orient="auto" markerUnits="strokeWidth" overflow="visible">
			<use xlink:href="#lend4" transform="scale(2.8) "/>
		</marker>
	</defs>
	<g>
		<title>Page-1</title>
		<g id="shape7-1" transform="translate(18.1297,-1)">
			<title>Sheet.7</title>
			<path d="M-0 586.53 A5.03907 7.29955 -180 0 0 2.43 592.78 A4.25197 4.25197 -180 0 0 5.23 593.83 L541.85 593.83 A4.25197
						 4.25197 -180 0 0 544.66 592.78 A5.03907 7.29955 -180 0 0 547.09 586.53 L547.09 38.04 A5.03907 7.29955 -180
						 0 0 544.66 31.79 A4.25197 4.25197 -180 0 0 541.85 30.74 L5.23 30.74 A4.25197 4.25197 -180 0 0 2.43 31.79
						 A5.03907 7.29955 -180 0 0 0 38.04 L0 586.53 Z" class="st1"/>
		</g>
		<g id="shape8-3" transform="translate(18.1297,-545.436)">
			<title>Sheet.8</title>
			<path d="M0 586.96 A5.03907 6.87451 -180 0 0 2.61 592.98 A4.25197 4.25197 -180 0 0 5.16 593.83 L541.92 593.83 A4.25197
						 4.25197 -180 0 0 544.48 592.98 A5.03907 6.87451 -180 0 0 547.09 586.96 L547.09 582.05 A5.03907 6.87451 -180
						 0 0 544.48 576.03 A4.25197 4.25197 -180 0 0 541.92 575.17 L5.16 575.17 A4.25197 4.25197 -180 0 0 2.61 576.03
						 A5.03907 6.87451 -180 0 0 -0 582.05 L0 586.96 Z" class="st1"/>
		</g>
		<g id="shape9-5" transform="translate(20.9643,-548.734)">
			<title>Sheet.9</title>
			<desc>STATE_RUNNING</desc>
			<rect x="0" y="585.977" width="86.5452" height="7.85641" class="st2"/>
			<text x="0" y="592.91" class="st3">STATE_RUNNING</text>		</g>
		<g id="shape10-8" transform="translate(22.2224,-531.079)">
			<title>Sheet.10</title>
			<desc>entry / nrf_cloud_fota_poll_init(); nrf_cloud_fota_poll_proce...</desc>
			<rect x="0" y="585.977" width="270.454" height="7.85641" class="st2"/>
			<text x="0" y="592.31" class="st4">entry / nrf_cloud_fota_poll_init(); nrf_cloud_fota_poll_process_pending();</text>		</g>
		<g id="shape16-11" transform="translate(190.058,-444.3)">
			<title>Sheet.16</title>
			<path d="M0 587.94 A4.43891 5.89244 -180 0 0 1.42 592.27 A4.25197 4.25197 -180 0 0 4.72 593.83 L202.42 593.83 A4.25197
						 4.25197 -180 0 0 205.72 592.27 A4.43891 5.89244 -180 0 0 207.14 587.94 L207.14 554.55 A4.43891 5.89244 -180
						 0 0 205.72 550.23 A4.25197 4.25197 -180 0 0 202.42 548.66 L4.72 548.66 A4.25197 4.25197 -180 0 0 1.42 550.23
						 A4.43891 5.89244 -180 0 0 0 554.55 L0 587.94 Z" class="st1"/>
		</g>
		<g id="shape17-13" transform="translate(190.058,-474.744)">
			<title>Sheet.17</title>
			<path d="M0 587.94 A4.43891 5.89244 -180 0 0 1.42 592.27 A4.25197 4.25197 -180 0 0 4.72 593.83 L202.42 593.83 A4.25197
						 4.25197 -180 0 0 205.72 592.27 A4.43891 5.89244 -180 0 0 207.14 587.94 L207.14 584.99 A4.43891 5.89244 -180
						 0 0 205.72 580.67 A4.25197 4.25197 -180 0 0 202.42 579.1 L4.72 579.1 A4.25197 4.25197 -180 0 0 1.42 580.67
						 A4.43891 5.89244 -180 0 0 -0 584.99 L0 587.94 Z" class="st1"/>
		</g>
		<g id="shape18-15" transform="translate(193.767,-476.708)">
			<title>Sheet.18</title>
			<desc>STATE_WAITING_FOR_POLL_REQUEST</desc>
			<rect x="0" y="585.977" width="194.057" height="7.85641" class="st2"/>
			<text x="0" y="592.91" class="st3">STATE_WAITING_FOR_POLL_REQUEST</text>		</g>
		<g id="shape19-18" transform="translate(192.779,-460.995)">
			<title>Sheet.19</title>
			<desc>FOTA_CANCEL / smf_state_handled;</desc>
			<rect x="0" y="585.977" width="137.809" height="7.85641" class="st2"/>
			<text x="0" y="592.31" class="st4">FOTA_CANCEL / smf_state_handled;</text>		</g>
		<g id="shape25-21" transform="translate(190.166,-358.915)">
			<title>Sheet.25</title>
			<path d="M0 587.94 A4.43891 5.89244 -180 0 0 1.42 592.27 A4.25197 4.25197 -180 0 0 4.72 593.83 L202.42 593.83 A4.25197
						 4.25197 -180 0 0 205.72 592.27 A4.43891 5.89244 -180 0 0 207.14 587.94 L207.14 550.62 A4.43891 5.89244 -180
						 0 0 205.72 546.3 A4.25197 4.25197 -180 0 0 202.42 544.73 L4.72 544.73 A4.25197 4.25197 -180 0 0 1.42 546.3
						 A4.43891 5.89244 -180 0 0 -0 550.62 L0 587.94 Z" class="st1"/>
		</g>
		<g id="shape26-23" transform="translate(190.058,-393.286)">
			<title>Sheet.26</title>
			<desc>STATE_POLLING_FOR_UPDATE</desc>
			<path d="M0 587.94 A4.43891 5.89244 -180 0 0 1.42 592.27 A4.25197 4.25197 -180 0 0 4.72 593.83 L202.42 593.83 A4.25197
						 4.25197 -180 0 0 205.72 592.27 A4.43891 5.89244 -180 0 0 207.14 587.94 L207.14 584.99 A4.43891 5.89244 -180
						 0 0 205.72 580.67 A4.25197 4.25197 -180 0 0 202.42 579.1 L4.72 579.1 A4.25197 4.25197 -180 0 0 1.42 580.67
						 A4.43891 5.89244 -180 0 0 -0 584.99 L0 587.94 Z" class="st1"/>
			<text x="4" y="589.47" class="st3">STATE_POLLING_FOR_UPDATE</text>		</g>
		<g id="shape48-26" transform="translate(289.377,-424.074)">
			<title>Sheet.48</title>
			<desc>FOTA_POLL_REQUEST</desc>
			<rect x="0" y="586.041" width="98.9088" height="7.79207" class="st5"/>
			<text x="0" y="592.34" class="st4">FOTA_POLL_REQUEST</text>		</g>
		<g id="shape53-29" transform="translate(292.097,-333.301)">
			<title>Sheet.53</title>
			<desc>FOTA_DOWNLOADING_UPDATE</desc>
			<rect x="0" y="585.977" width="125.718" height="7.85641" class="st2"/>
			<text x="0" y="592.31" class="st4">FOTA_DOWNLOADING_UPDATE</text>		</g>
		<g id="shape58-32" transform="translate(290.256,-248.819)">
			<title>Sheet.58</title>
			<desc>FOTA_IMAGE_APPLY_NEEDED</desc>
			<rect x="0" y="585.977" width="125.718" height="7.85641" class="st6"/>
			<text x="0" y="592.31" class="st4">FOTA_IMAGE_APPLY_NEEDED</text>		</g>
		<g id="shape63-35" transform="translate(290.036,-163.222)">
			<title>Sheet.63</title>
			<desc>FOTA_IMAGE_APPLY</desc>
			<rect x="0" y="585.977" width="82.424" height="7.85641" class="st6"/>
			<text x="0" y="592.31" class="st4">FOTA_IMAGE_APPLY</text>		</g>
		<g id="shape73-38" transform="translate(139.794,-424.01)">
			<title>Sheet.73</title>
			<desc>FOTA_NO_AVAILABLE_UPDATE</desc>
			<rect x="0" y="585.977" width="137.809" height="7.85641" class="st5"/>
			<text x="0" y="592.31" class="st4">FOTA_NO_AVAILABLE_UPDATE</text>		</g>
		<g id="shape78-41" transform="translate(434.226,-381.543)">
			<title>Sheet.78</title>
			<desc>FOTA_DOWNLOAD_FAILED || FOTA_DOWNLOAD_TIMEDOUT || FOTA_DOWNLO...</desc>
			<rect x="0" y="585.977" width="125.718" height="7.85641" class="st2"/>
			<text x="0" y="582.71" class="st4">FOTA_DOWNLOAD_FAILED || <tspan x="0" dy="1.2em" class="st7">FOTA_DOWNLOAD</tspan>_TIMEDOUT || <tspan
						x="0" dy="1.2em" class="st7">FOTA_DOWNLOAD_CANCELED</tspan></text>		</g>
		<g id="shape79-46" transform="translate(37.0518,-322.912)">
			<title>Sheet.79</title>
			<path d="M0 587.94 A4.13437 5.89244 -180 0 0 4.13 593.83 L133.67 593.83 A4.13437 5.89244 -180 0 0 137.81 587.94 L137.81
						 554.55 A4.13437 5.89244 -180 0 0 136.82 550.73 A4.25197 4.25197 -180 0 0 133.17 548.66 L4.13 548.66 A4.13437
						 5.89244 -180 0 0 0 554.55 L0 587.94 Z" class="st1"/>
		</g>
		<g id="shape80-48" transform="translate(37.0518,-353.356)">
			<title>Sheet.80</title>
			<desc>STATE_CANCELLING</desc>
			<path d="M0 587.94 A4.13437 5.89244 -180 0 0 4.13 593.83 L133.67 593.83 A4.13437 5.89244 -180 0 0 137.81 587.94 L137.81
						 584.99 A4.13437 5.89244 -180 0 0 136.82 581.17 A4.25197 4.25197 -180 0 0 133.17 579.1 L4.13 579.1 A4.13437
						 5.89244 -180 0 0 -0 584.99 L0 587.94 Z" class="st8"/>
			<text x="4" y="589.47" class="st3">STATE_CANCELLING</text>		</g>
		<g id="shape110-51" transform="translate(253.254,-579.515)">
			<title>Sheet.110</title>
			<ellipse cx="4.11481" cy="588.931" rx="4.11481" ry="4.90229" class="st9"/>
		</g>
		<g id="shape111-53" transform="translate(258.74,-585.962)">
			<title>Dynamic connector</title>
			<path d="M0 593.83 L24.45 593.83 L24.45 608.66" class="st10"/>
		</g>
		<g id="shape112-59" transform="translate(264.33,-506.062)">
			<title>Dynamic connector.75</title>
			<path d="M0 593.83 L28.35 593.83 L28.35 603.38" class="st10"/>
		</g>
		<g id="shape113-64" transform="translate(260.215,-502.668)">
			<title>Sheet.113</title>
			<ellipse cx="4.11481" cy="588.931" rx="4.11481" ry="4.90229" class="st9"/>
		</g>
		<g id="shape114-66" transform="translate(280.334,-444.3)">
			<title>Dynamic connector.46</title>
			<path d="M7.09 593.83 L7.09 623.08" class="st10"/>
		</g>
		<g id="shape117-71" transform="translate(193.652,-381.543)">
			<title>Sheet.117</title>
			<desc>entry / nrf_cloud_fota_poll_process();</desc>
			<rect x="0" y="585.977" width="137.809" height="7.85641" class="st2"/>
			<text x="0" y="592.31" class="st4">entry / nrf_cloud_fota_poll_process();</text>		</g>
		<g id="shape118-74" transform="translate(192.779,-364.535)">
			<title>Sheet.118</title>
			<desc>FOTA_CANCEL / smf_state_handled;</desc>
			<rect x="0" y="585.977" width="137.809" height="7.85641" class="st2"/>
			<text x="0" y="592.31" class="st4">FOTA_CANCEL / smf_state_handled;</text>		</g>
		<g id="shape121-77" transform="translate(185.374,-271.915)">
			<title>Sheet.121</title>
			<path d="M0 587.94 A4.43891 5.89244 -180 0 0 1.42 592.27 A4.25197 4.25197 -180 0 0 4.72 593.83 L202.42 593.83 A4.25197
						 4.25197 -180 0 0 205.72 592.27 A4.43891 5.89244 -180 0 0 207.14 587.94 L207.14 550.62 A4.43891 5.89244 -180
						 0 0 205.72 546.3 A4.25197 4.25197 -180 0 0 202.42 544.73 L4.72 544.73 A4.25197 4.25197 -180 0 0 1.42 546.3
						 A4.43891 5.89244 -180 0 0 -0 550.62 L0 587.94 Z" class="st1"/>
		</g>
		<g id="shape122-79" transform="translate(185.374,-307.152)">
			<title>Sheet.122</title>
			<desc>STATE_DOWNLOADING_UPDATE</desc>
			<path d="M0 587.94 A4.43891 5.89244 -180 0 0 1.42 592.27 A4.25197 4.25197 -180 0 0 4.72 593.83 L202.42 593.83 A4.25197
						 4.25197 -180 0 0 205.72 592.27 A4.43891 5.89244 -180 0 0 207.14 587.94 L207.14 584.99 A4.43891 5.89244 -180
						 0 0 205.72 580.67 A4.25197 4.25197 -180 0 0 202.42 579.1 L4.72 579.1 A4.25197 4.25197 -180 0 0 1.42 580.67
						 A4.43891 5.89244 -180 0 0 -0 584.99 L0 587.94 Z" class="st1"/>
			<text x="4" y="589.47" class="st3">STATE_DOWNLOADING_UPDATE</text>		</g>
		<g id="shape125-82" transform="translate(187.224,-293.246)">
			<title>Sheet.125</title>
			<desc>Do nothing</desc>
			<rect x="0" y="585.598" width="47.7557" height="8.23585" class="st6"/>
			<text x="0" y="592.12" class="st4">Do nothing</text>		</g>
		<g id="shape127-85" transform="translate(182.877,-379.583)">
			<title>Dynamic connector.127</title>
			<path d="M6.99 593.83 L-45.73 593.83 L-45.73 511.31 L0.14 511.31" class="st10"/>
		</g>
		<g id="shape128-90" transform="translate(387.997,-290.134)">
			<title>Dynamic connector.84</title>
			<path d="M4.31 593.83 L42.13 593.83 L42.13 415.12 L16.91 415.12" class="st10"/>
		</g>
		<g id="shape1002-95" transform="translate(105.019,-368.087)">
			<title>Dynamic connector.1002</title>
			<path d="M0 593.83 L0 485.96 L78 485.96" class="st10"/>
		</g>
		<g id="shape1003-100" transform="translate(36.0469,-478.962)">
			<title>Sheet.1003</title>
			<desc>FOTA_DOWNLOAD_CANCELLED</desc>
			<rect x="0" y="585.977" width="125.718" height="7.85641" class="st2"/>
			<text x="0" y="592.31" class="st4">FOTA_DOWNLOAD_CANCELLED</text>		</g>
		<g id="shape1004-103" transform="translate(18.1297,-265.837)">
			<title>Dynamic connector.1004</title>
			<path d="M0 593.83 L-10.26 593.83 L-10.26 514.17 L11.88 514.17" class="st10"/>
		</g>
		<g id="shape1005-108" transform="translate(9.12909,-304.307)">
			<title>Sheet.1005</title>
			<desc>FOTA_DOWNLOAD_CANCEL</desc>
			<rect x="0" y="585.977" width="125.718" height="7.85641" class="st6"/>
			<text x="0" y="592.31" class="st4">FOTA_DOWNLOAD_CANCEL</text>		</g>
		<g id="shape1006-111" transform="translate(38.9404,-337.229)">
			<title>Sheet.1006</title>
			<desc>entry / nrf_cloud_download_cancel()</desc>
			<rect x="0" y="585.977" width="136.961" height="7.85641" class="st6"/>
			<text x="0" y="592.31" class="st4">entry / nrf_cloud_download_cancel()</text>		</g>
		<g id="shape1007-114" transform="translate(282.224,-358.165)">
			<title>Dynamic connector.1007</title>
			<path d="M7.09 593.83 L7.09 623.08" class="st10"/>
		</g>
		<g id="shape1008-119" transform="translate(280.334,-271.915)">
			<title>Dynamic connector.1008</title>
			<path d="M7.09 593.83 L7.09 623.08" class="st10"/>
		</g>
		<g id="shape1009-124" transform="translate(193.552,-209.537)">
			<title>Sheet.1009</title>
			<desc>Do nothing</desc>
			<rect x="0" y="585.977" width="41.212" height="7.85641" class="st12"/>
			<text x="0" y="586.91" class="st3">Do <tspan x="0" dy="1.2em" class="st7">nothing</tspan></text>		</g>
		<g id="shape1010-128" transform="translate(185.158,-184.986)">
			<title>Sheet.1010</title>
			<path d="M0 587.94 A4.43891 5.89244 -180 0 0 1.42 592.27 A4.25197 4.25197 -180 0 0 4.72 593.83 L202.42 593.83 A4.25197
						 4.25197 -180 0 0 205.72 592.27 A4.43891 5.89244 -180 0 0 207.14 587.94 L207.14 550.62 A4.43891 5.89244 -180
						 0 0 205.72 546.3 A4.25197 4.25197 -180 0 0 202.42 544.73 L4.72 544.73 A4.25197 4.25197 -180 0 0 1.42 546.3
						 A4.43891 5.89244 -180 0 0 -0 550.62 L0 587.94 Z" class="st1"/>
		</g>
		<g id="shape1011-130" transform="translate(185.158,-220.222)">
			<title>Sheet.1011</title>
			<desc>STATE_WAITING_FOR_IMAGE_APPLY</desc>
			<path d="M0 587.94 A4.43891 5.89244 -180 0 0 1.42 592.27 A4.25197 4.25197 -180 0 0 4.72 593.83 L202.42 593.83 A4.25197
						 4.25197 -180 0 0 205.72 592.27 A4.43891 5.89244 -180 0 0 207.14 587.94 L207.14 584.99 A4.43891 5.89244 -180
						 0 0 205.72 580.67 A4.25197 4.25197 -180 0 0 202.42 579.1 L4.72 579.1 A4.25197 4.25197 -180 0 0 1.42 580.67
						 A4.43891 5.89244 -180 0 0 -0 584.99 L0 587.94 Z" class="st1"/>
			<text x="4" y="589.47" class="st3">STATE_WAITING_FOR_IMAGE_APPLY</text>		</g>
		<g id="shape1013-133" transform="translate(280.119,-184.986)">
			<title>Dynamic connector.1013</title>
			<path d="M7.09 593.83 L7.09 623.08" class="st10"/>
		</g>
		<g id="shape1019-138" transform="translate(290.036,-76.6707)">
			<title>Sheet.1019</title>
			<desc>FOTA_SUCCESS_REBOOT_NEEDED</desc>
			<rect x="0" y="585.977" width="144.19" height="7.85641" class="st6"/>
			<text x="0" y="592.31" class="st4">FOTA_SUCCESS_REBOOT_NEEDED</text>		</g>
		<g id="shape1020-141" transform="translate(193.552,-122.986)">
			<title>Sheet.1020</title>
			<desc>Do nothing</desc>
			<rect x="0" y="585.977" width="41.212" height="7.85641" class="st12"/>
			<text x="0" y="586.91" class="st3">Do <tspan x="0" dy="1.2em" class="st7">nothing</tspan></text>		</g>
		<g id="shape1021-145" transform="translate(185.158,-98.4344)">
			<title>Sheet.1021</title>
			<path d="M0 587.94 A4.43891 5.89244 -180 0 0 1.42 592.27 A4.25197 4.25197 -180 0 0 4.72 593.83 L202.42 593.83 A4.25197
						 4.25197 -180 0 0 205.72 592.27 A4.43891 5.89244 -180 0 0 207.14 587.94 L207.14 550.62 A4.43891 5.89244 -180
						 0 0 205.72 546.3 A4.25197 4.25197 -180 0 0 202.42 544.73 L4.72 544.73 A4.25197 4.25197 -180 0 0 1.42 546.3
						 A4.43891 5.89244 -180 0 0 -0 550.62 L0 587.94 Z" class="st1"/>
		</g>
		<g id="shape1022-147" transform="translate(185.158,-133.671)">
			<title>Sheet.1022</title>
			<desc>STATE_IMAGE_APPLYING</desc>
			<path d="M0 587.94 A4.43891 5.89244 -180 0 0 1.42 592.27 A4.25197 4.25197 -180 0 0 4.72 593.83 L202.42 593.83 A4.25197
						 4.25197 -180 0 0 205.72 592.27 A4.43891 5.89244 -180 0 0 207.14 587.94 L207.14 584.99 A4.43891 5.89244 -180
						 0 0 205.72 580.67 A4.25197 4.25197 -180 0 0 202.42 579.1 L4.72 579.1 A4.25197 4.25197 -180 0 0 1.42 580.67
						 A4.43891 5.89244 -180 0 0 -0 584.99 L0 587.94 Z" class="st1"/>
			<text x="4" y="589.47" class="st3">STATE_IMAGE_APPLYING</text>		</g>
		<g id="shape1023-150" transform="translate(280.119,-98.4344)">
			<title>Dynamic connector.1023</title>
			<path d="M7.09 593.83 L7.09 623.08" class="st10"/>
		</g>
		<g id="shape1024-155" transform="translate(192.242,-36.8899)">
			<title>Sheet.1024</title>
			<desc>Do nothing</desc>
			<rect x="0" y="585.977" width="41.212" height="7.85641" class="st12"/>
			<text x="0" y="586.91" class="st3">Do <tspan x="0" dy="1.2em" class="st7">nothing</tspan></text>		</g>
		<g id="shape1025-159" transform="translate(183.634,-13.2032)">
			<title>Sheet.1025</title>
			<path d="M0 587.94 A4.43891 5.89244 -180 0 0 1.42 592.27 A4.25197 4.25197 -180 0 0 4.72 593.83 L202.42 593.83 A4.25197
						 4.25197 -180 0 0 205.72 592.27 A4.43891 5.89244 -180 0 0 207.14 587.94 L207.14 550.62 A4.43891 5.89244 -180
						 0 0 205.72 546.3 A4.25197 4.25197 -180 0 0 202.42 544.73 L4.72 544.73 A4.25197 4.25197 -180 0 0 1.42 546.3
						 A4.43891 5.89244 -180 0 0 -0 550.62 L0 587.94 Z" class="st1"/>
		</g>
		<g id="shape1026-161" transform="translate(183.849,-47.575)">
			<title>Sheet.1026</title>
			<desc>STATE_REBOOT_PENDING</desc>
			<path d="M0 587.94 A4.43891 5.89244 -180 0 0 1.42 592.27 A4.25197 4.25197 -180 0 0 4.72 593.83 L202.42 593.83 A4.25197
						 4.25197 -180 0 0 205.72 592.27 A4.43891 5.89244 -180 0 0 207.14 587.94 L207.14 584.99 A4.43891 5.89244 -180
						 0 0 205.72 580.67 A4.25197 4.25197 -180 0 0 202.42 579.1 L4.72 579.1 A4.25197 4.25197 -180 0 0 1.42 580.67
						 A4.43891 5.89244 -180 0 0 -0 584.99 L0 587.94 Z" class="st1"/>
			<text x="4" y="589.47" class="st3">STATE_REBOOT_PENDING</text>		</g>
		<g id="shape1027-164" transform="translate(177.417,-34.0634)">
			<title>Dynamic connector.1027</title>
			<path d="M0.98 593.83 L0.62 593.83 L-36.87 593.83 L-36.87 334.65 L7.96 334.65" class="st13"/>
		</g>
		<g id="shape1028-170" transform="translate(36.7434,-24.0009)">
			<title>Sheet.1028</title>
			<desc>FOTA_SUCCESS_REBOOT_NEEDED</desc>
			<rect x="0" y="585.977" width="144.19" height="7.85641" class="st6"/>
			<text x="0" y="592.31" class="st4">FOTA_SUCCESS_REBOOT_NEEDED</text>		</g>
		<g id="shape1029-173" transform="translate(187.335,-120.055)">
			<title>Sheet.1029</title>
			<desc>entry / nrf_cloud_fota_poll_Apply_image()</desc>
			<rect x="0" y="585.977" width="151.109" height="7.85641" class="st2"/>
			<text x="0" y="592.31" class="st4">entry / nrf_cloud_fota_poll_Apply_image()</text>		</g>
	</g>
</svg>
