<?xml version="1.0" encoding="UTF-8" standalone="no"?>
<!DOCTYPE svg PUBLIC "-//W3C//DTD SVG 1.1//EN" "http://www.w3.org/Graphics/SVG/1.1/DTD/svg11.dtd">
<!-- Generated by Microsoft Visio, SVG Export fota_module_state_diagram.svg Page-1 -->
<svg xmlns="http://www.w3.org/2000/svg" xmlns:xlink="http://www.w3.org/1999/xlink" xmlns:ev="http://www.w3.org/2001/xml-events"
		xmlns:v="http://schemas.microsoft.com/visio/2003/SVGExtensions/" width="7.70494in" height="8.21675in"
		viewBox="0 0 554.756 591.606" xml:space="preserve" color-interpolation-filters="sRGB" class="st15">
	<v:documentProperties v:langID="1035" v:viewMarkup="false"/>

	<style type="text/css">
	<![CDATA[
		.st1 {fill:#d9e1e2;stroke:none;stroke-width:1}
		.st2 {marker-start:url(#mrkr4-8);stroke:#000000;stroke-linecap:butt;stroke-width:1}
		.st3 {fill:#000000;fill-opacity:1;stroke:#000000;stroke-opacity:1;stroke-width:0.28409090909091}
		.st4 {fill:#00a9ce;stroke:none;stroke-width:1}
		.st5 {fill:#feffff;font-family:Arial;font-size:0.666664em}
		.st6 {fill:none;stroke:none;stroke-width:1}
		.st7 {fill:#000000;font-family:Arial;font-size:0.666664em}
		.st8 {fill:#333f48;stroke:#333f48;stroke-width:1}
		.st9 {marker-end:url(#mrkr4-22);stroke:#333f48;stroke-linecap:butt;stroke-width:1}
		.st10 {fill:#333f48;fill-opacity:1;stroke:#333f48;stroke-opacity:1;stroke-width:0.28409090909091}
		.st11 {fill:#000000;font-family:Arial;font-size:0.499992em}
		.st12 {marker-end:url(#mrkr4-40);stroke:#000000;stroke-linecap:butt;stroke-width:1}
		.st13 {marker-end:url(#mrkr4-46);stroke:#333f48;stroke-linecap:butt;stroke-width:1}
		.st14 {font-size:1em}
		.st15 {fill:none;fill-rule:evenodd;font-size:12px;overflow:visible;stroke-linecap:square;stroke-miterlimit:3}
	]]>
	</style>

	<defs id="Markers">
		<g id="lend4">
			<path d="M 2 1 L 0 0 L 2 -1 L 2 1 " style="stroke:none"/>
		</g>
		<marker id="mrkr4-8" class="st3" v:arrowType="4" v:arrowSize="2" v:setback="6.68" refX="6.68" orient="auto"
				markerUnits="strokeWidth" overflow="visible">
			<use xlink:href="#lend4" transform="scale(3.52) "/>
		</marker>
		<marker id="mrkr4-22" class="st10" v:arrowType="4" v:arrowSize="2" v:setback="7.04" refX="-7.04" orient="auto"
				markerUnits="strokeWidth" overflow="visible">
			<use xlink:href="#lend4" transform="scale(-3.52,-3.52) "/>
		</marker>
		<marker id="mrkr4-40" class="st3" v:arrowType="4" v:arrowSize="2" v:setback="6.68" refX="-6.68" orient="auto"
				markerUnits="strokeWidth" overflow="visible">
			<use xlink:href="#lend4" transform="scale(-3.52,-3.52) "/>
		</marker>
		<marker id="mrkr4-46" class="st10" v:arrowType="4" v:arrowSize="2" v:setback="6.68" refX="-6.68" orient="auto"
				markerUnits="strokeWidth" overflow="visible">
			<use xlink:href="#lend4" transform="scale(-3.52,-3.52) "/>
		</marker>
	</defs>
	<g v:mID="0" v:index="1" v:groupContext="foregroundPage">
		<title>Page-1</title>
		<v:pageProperties v:drawingScale="0.0393701" v:pageScale="0.0393701" v:drawingUnits="24" v:shadowOffsetX="8.50394"
				v:shadowOffsetY="-8.50394"/>
		<v:layer v:name="Connector" v:index="0"/>
		<g id="shape171-1" v:mID="171" v:groupContext="shape" transform="translate(1,-1)">
			<title>Ellipse.1002</title>
			<v:userDefs>
				<v:ud v:nameU="visVersion" v:val="VT0(15):26"/>
			</v:userDefs>
			<path d="M0 315.88 A276.378 275.73 0 0 1 552.76 315.88 A276.378 275.73 0 1 1 -0 315.88 Z" class="st1"/>
		</g>
		<g id="shape200-3" v:mID="200" v:groupContext="shape" v:layerMember="0" transform="translate(225.272,-490.174)">
			<title>Dynamic connector.171</title>
			<path d="M-6.68 591.57 L-7.04 591.57 C-19.82 591.39 -35.7 590.25 -44.07 583.29 C-53.39 575.54 -53.39 560.55 -53.39 550.2"
					class="st2"/>
		</g>
		<g id="shape213-9" v:mID="213" v:groupContext="shape" transform="translate(225.272,-455.645)">
			<title>Ellipse.195</title>
			<desc>STATE_CANCELING</desc>
			<v:userDefs>
				<v:ud v:nameU="visVersion" v:val="VT0(15):26"/>
			</v:userDefs>
			<v:textBlock v:margins="rect(4,4,4,4)" v:tabSpace="42.5197"/>
			<v:textRect cx="92.4826" cy="557.078" width="161.85" height="60.4247"/>
			<path d="M0 557.08 A92.4826 34.5284 0 0 1 184.97 557.08 A92.4826 34.5284 0 1 1 0 557.08 Z" class="st4"/>
			<text x="54.03" y="559.54" class="st5" v:langID="1044"><v:paragraph v:horizAlign="1"/><v:tabList/>STATE_CANCELING</text>		</g>
		<g id="shape229-12" v:mID="229" v:groupContext="shape" transform="translate(224.49,-533.913)">
			<title>Sheet.229</title>
			<desc>STATE_RUNNING</desc>
			<v:textBlock v:margins="rect(4,4,4,4)"/>
			<v:textRect cx="52.4409" cy="584.52" width="104.89" height="14.1732"/>
			<rect x="0" y="577.433" width="104.882" height="14.1732" class="st6"/>
			<text x="18.66" y="586.92" class="st7" v:langID="1044"><v:paragraph v:horizAlign="1" v:bulletSize="0.166667"/><v:tabList/>STATE_RUNNING</text>		</g>
		<g id="shape230-15" v:mID="230" v:groupContext="shape" transform="translate(273.95,-574.099)">
			<title>Sheet.230</title>
			<ellipse cx="3.42799" cy="588.063" rx="3.42799" ry="3.54331" class="st8"/>
		</g>
		<g id="shape231-17" v:mID="231" v:groupContext="shape" v:layerMember="0" transform="translate(270.291,-574.099)">
			<title>Dynamic connector.58</title>
			<path d="M7.09 591.61 L7.09 606.21" class="st9"/>
		</g>
		<g id="shape232-23" v:mID="232" v:groupContext="shape" transform="translate(277.378,-576.433)">
			<title>Sheet.232</title>
			<desc>Start</desc>
			<v:textBlock v:margins="rect(4,4,4,4)" v:tabSpace="42.5197"/>
			<v:textRect cx="17.4901" cy="584.52" width="34.99" height="14.1732"/>
			<rect x="0" y="577.433" width="34.9803" height="14.1732" class="st6"/>
			<text x="9.04" y="586.92" class="st7" v:langID="1044"><v:paragraph v:horizAlign="1"/><v:tabList/>Start</text>		</g>
		<g id="shape233-26" v:mID="233" v:groupContext="shape" transform="translate(178.427,-517.615)">
			<title>Sheet.233</title>
			<desc>FOTA_DOWNLOAD_CANCEL</desc>
			<v:textBlock v:margins="rect(4,4,4,4)"/>
			<v:textRect cx="46.063" cy="588.063" width="92.13" height="7.08661"/>
			<rect x="0" y="584.52" width="92.126" height="7.08661" class="st6"/>
			<text x="4.89" y="589.86" class="st11" v:langID="1044"><v:paragraph v:horizAlign="1" v:bulletSize="0.166667"/><v:tabList/>FOTA_DOWNLOAD_CANCEL</text>		</g>
		<g id="shape234-29" v:mID="234" v:groupContext="shape" transform="translate(238.572,-358.873)">
			<title>Ellipse.234</title>
			<desc>STATE_WAITING_FOR_POLL_REQUEST</desc>
			<v:userDefs>
				<v:ud v:nameU="visVersion" v:val="VT0(15):26"/>
			</v:userDefs>
			<v:textBlock v:margins="rect(4,4,4,4)" v:tabSpace="42.5197"/>
			<v:textRect cx="92.4826" cy="557.078" width="161.85" height="60.4247"/>
			<path d="M0 557.08 A92.4826 34.5284 0 0 1 184.97 557.08 A92.4826 34.5284 0 1 1 0 557.08 Z" class="st4"/>
			<text x="15.58" y="559.54" class="st5" v:langID="1044"><v:paragraph v:horizAlign="1"/><v:tabList/>STATE_WAITING_FOR_POLL_REQUEST</text>		</g>
		<g id="shape235-32" v:mID="235" v:groupContext="shape" transform="translate(139.876,-280.015)">
			<title>Ellipse.235</title>
			<desc>STATE_POLLING_FOR_UPDATE</desc>
			<v:userDefs>
				<v:ud v:nameU="visVersion" v:val="VT0(15):26"/>
			</v:userDefs>
			<v:textBlock v:margins="rect(4,4,4,4)" v:tabSpace="42.5197"/>
			<v:textRect cx="92.4826" cy="557.078" width="161.85" height="60.4247"/>
			<path d="M0 557.08 A92.4826 34.5284 0 0 1 184.97 557.08 A92.4826 34.5284 0 1 1 0 557.08 Z" class="st4"/>
			<text x="30.91" y="559.54" class="st5" v:langID="1044"><v:paragraph v:horizAlign="1"/><v:tabList/>STATE_POLLING_FOR_UPDATE</text>		</g>
		<g id="shape238-35" v:mID="238" v:groupContext="shape" v:layerMember="0" transform="translate(317.318,-455.645)">
			<title>Dynamic connector</title>
			<path d="M0.44 591.61 C-26.78 604.22 -22.5 611.23 6.85 617.86 L7.2 617.94" class="st12"/>
		</g>
		<g id="shape240-41" v:mID="240" v:groupContext="shape" v:layerMember="0" transform="translate(434.519,-488.92)">
			<title>Dynamic connector.240</title>
			<path d="M0 591.61 C2.83 624.25 -4.26 638.26 -12.59 645.6 C-19.34 651.54 -26.89 653.11 -42.58 657.28 L-42.93 657.37"
					class="st13"/>
		</g>
		<g id="shape241-47" v:mID="241" v:groupContext="shape" transform="translate(302.708,-435.016)">
			<title>Sheet.241</title>
			<desc>FOTA_DOWNLOAD_CANCELED</desc>
			<v:textBlock v:margins="rect(4,4,4,4)"/>
			<v:textRect cx="49.6063" cy="588.063" width="99.22" height="7.08661"/>
			<rect x="0" y="584.52" width="99.2126" height="7.08661" class="st6"/>
			<text x="4.27" y="589.86" class="st11" v:langID="1044"><v:paragraph v:horizAlign="1" v:bulletSize="0.166667"/><v:tabList/>FOTA_DOWNLOAD_CANCELED</text>		</g>
		<g id="shape242-50" v:mID="242" v:groupContext="shape" v:layerMember="0" transform="translate(238.572,-393.401)">
			<title>Dynamic connector.242</title>
			<path d="M0 591.61 C-3.67 591.61 -22 598.07 -27.84 606.69 C-32.91 614.17 -28.59 623.27 -20.06 631.38 L-19.78 631.61"
					class="st12"/>
		</g>
		<g id="shape243-55" v:mID="243" v:groupContext="shape" v:layerMember="0" transform="translate(331.055,-358.112)">
			<title>Dynamic connector.243</title>
			<path d="M-0.24 598.28 L-0.25 598.64 C-0.67 602.72 -1.77 606.83 -4.68 609.41 C-9.58 613.76 -19.62 613.76 -26.15 613.76"
					class="st2"/>
		</g>
		<g id="shape244-60" v:mID="244" v:groupContext="shape" transform="translate(221.817,-355.33)">
			<title>Sheet.244</title>
			<desc>FOTA_POLL_REQUEST</desc>
			<v:textBlock v:margins="rect(4,4,4,4)"/>
			<v:textRect cx="38.3718" cy="588.063" width="76.75" height="7.08661"/>
			<rect x="0" y="584.52" width="76.7435" height="7.08661" class="st6"/>
			<text x="4.86" y="589.86" class="st11" v:langID="1044"><v:paragraph v:horizAlign="1" v:bulletSize="0.166667"/><v:tabList/>FOTA_POLL_REQUEST</text>		</g>
		<g id="shape245-63" v:mID="245" v:groupContext="shape" transform="translate(321.134,-335.488)">
			<title>Sheet.245</title>
			<desc>FOTA_NO_AVAILABLE_UPDATE</desc>
			<v:textBlock v:margins="rect(4,4,4,4)"/>
			<v:textRect cx="53.1496" cy="588.063" width="106.3" height="7.08661"/>
			<rect x="0" y="584.52" width="106.299" height="7.08661" class="st6"/>
			<text x="7.3" y="589.86" class="st11" v:langID="1044"><v:paragraph v:horizAlign="1" v:bulletSize="0.166667"/><v:tabList/>FOTA_NO_AVAILABLE_UPDATE</text>		</g>
		<g id="shape246-66" v:mID="246" v:groupContext="shape" transform="translate(245.302,-198.385)">
			<title>Ellipse.246</title>
			<desc>STATE_DOWNLOADING_UPDATE</desc>
			<v:userDefs>
				<v:ud v:nameU="visVersion" v:val="VT0(15):26"/>
			</v:userDefs>
			<v:textBlock v:margins="rect(4,4,4,4)" v:tabSpace="42.5197"/>
			<v:textRect cx="92.4826" cy="557.078" width="161.85" height="60.4247"/>
			<path d="M0 557.08 A92.4826 34.5284 0 0 1 184.97 557.08 A92.4826 34.5284 0 1 1 0 557.08 Z" class="st4"/>
			<text x="28.25" y="559.54" class="st5" v:langID="1044"><v:paragraph v:horizAlign="1"/><v:tabList/>STATE_DOWNLOADING_UPDATE</text>		</g>
		<g id="shape247-69" v:mID="247" v:groupContext="shape" v:layerMember="0" transform="translate(231.744,-280.015)">
			<title>Dynamic connector.247</title>
			<path d="M0.62 591.61 C-28.25 609.52 -18.35 625.83 -8.97 633.18 C-3.26 637.66 2.25 638.82 6.52 638.99 L6.88 638.98"
					class="st12"/>
		</g>
		<g id="shape253-74" v:mID="253" v:groupContext="shape" v:layerMember="0" transform="translate(379.948,-263.645)">
			<title>Dynamic connector.253</title>
			<path d="M0 591.61 C57.41 580.27 71.57 550.05 73.04 526.39 C74.29 506.24 66.32 490.85 59.56 481.81 C56 477.05 52.78 474.05
						 48.06 468.58 L47.84 468.3" class="st12"/>
		</g>
		<g id="shape254-79" v:mID="254" v:groupContext="shape" transform="translate(431.315,-483.317)">
			<title>Sheet.254</title>
			<ellipse cx="3.42799" cy="588.063" rx="3.42799" ry="3.54331" class="st8"/>
		</g>
		<g id="shape255-81" v:mID="255" v:groupContext="shape" transform="translate(217.669,-264.938)">
			<title>Sheet.255</title>
			<desc>FOTA_DOWNLOADING_UPDATE</desc>
			<v:textBlock v:margins="rect(4,4,4,4)"/>
			<v:textRect cx="53.1496" cy="588.063" width="106.3" height="7.08661"/>
			<rect x="0" y="584.52" width="106.299" height="7.08661" class="st6"/>
			<text x="6.64" y="589.86" class="st11" v:langID="1044"><v:paragraph v:horizAlign="1" v:bulletSize="0.166667"/><v:tabList/>FOTA_DOWNLOADING_UPDATE</text>		</g>
		<g id="shape256-84" v:mID="256" v:groupContext="shape" transform="translate(54.3202,-151.236)">
			<title>Ellipse.256</title>
			<desc>STATE_WAITING_FOR_IMAGE_APPLY</desc>
			<v:userDefs>
				<v:ud v:nameU="visVersion" v:val="VT0(15):26"/>
			</v:userDefs>
			<v:textBlock v:margins="rect(4,4,4,4)" v:tabSpace="42.5197"/>
			<v:textRect cx="92.4826" cy="557.078" width="161.85" height="60.4247"/>
			<path d="M0 557.08 A92.4826 34.5284 0 0 1 184.97 557.08 A92.4826 34.5284 0 1 1 0 557.08 Z" class="st4"/>
			<text x="19.35" y="559.54" class="st5" v:langID="1044"><v:paragraph v:horizAlign="1"/><v:tabList/>STATE_WAITING_FOR_IMAGE_APPLY</text>		</g>
		<g id="shape257-87" v:mID="257" v:groupContext="shape" transform="translate(200.178,-94.5433)">
			<title>Ellipse.257</title>
			<desc>STATE_IMAGE_APPLYING</desc>
			<v:userDefs>
				<v:ud v:nameU="visVersion" v:val="VT0(15):26"/>
			</v:userDefs>
			<v:textBlock v:margins="rect(4,4,4,4)" v:tabSpace="42.5197"/>
			<v:textRect cx="92.4826" cy="557.078" width="161.85" height="60.4247"/>
			<path d="M0 557.08 A92.4826 34.5284 0 1 1 184.97 557.08 A92.4826 34.5284 0 1 1 0 557.08 Z" class="st4"/>
			<text x="42.25" y="559.54" class="st5" v:langID="1044"><v:paragraph v:horizAlign="1"/><v:tabList/>STATE_IMAGE_APPLYING</text>		</g>
		<g id="shape258-90" v:mID="258" v:groupContext="shape" transform="translate(211.099,-17.4952)">
			<title>Ellipse.258</title>
			<desc>STATE_REBOOT_PENDING</desc>
			<v:userDefs>
				<v:ud v:nameU="visVersion" v:val="VT0(15):26"/>
			</v:userDefs>
			<v:textBlock v:margins="rect(4,4,4,4)" v:tabSpace="42.5197"/>
			<v:textRect cx="92.4826" cy="557.078" width="161.85" height="60.4247"/>
			<path d="M0 557.08 A92.4826 34.5284 0 1 1 184.97 557.08 A92.4826 34.5284 0 0 1 0 557.08 Z" class="st4"/>
			<text x="40.03" y="559.54" class="st5" v:langID="1044"><v:paragraph v:horizAlign="1"/><v:tabList/>STATE_REBOOT_PENDING</text>		</g>
		<g id="shape259-93" v:mID="259" v:groupContext="shape" v:layerMember="0" transform="translate(430.267,-232.913)">
			<title>Dynamic connector.259</title>
			<path d="M0 591.61 C25.51 613.76 38.25 645.12 35.61 678.34 C32.93 711.96 14.5 747.48 -27.88 769.41 L-28.2 769.56"
					class="st12"/>
		</g>
		<g id="shape261-98" v:mID="261" v:groupContext="shape" transform="translate(232.359,-186.669)">
			<title>Sheet.261</title>
			<desc>FOTA_IMAGE_APPLY_NEEDED</desc>
			<v:textBlock v:margins="rect(4,4,4,4)"/>
			<v:textRect cx="53.1496" cy="588.063" width="106.3" height="7.08661"/>
			<rect x="0" y="584.52" width="106.299" height="7.08661" class="st6"/>
			<text x="8.3" y="589.86" class="st11" v:langID="1044"><v:paragraph v:horizAlign="1" v:bulletSize="0.166667"/><v:tabList/>FOTA_IMAGE_APPLY_NEEDED</text>		</g>
		<g id="shape262-101" v:mID="262" v:groupContext="shape" transform="translate(75.9367,-125.528)">
			<title>Sheet.262</title>
			<desc>FOTA_IMAGE_APPLY</desc>
			<v:textBlock v:margins="rect(4,4,4,4)"/>
			<v:textRect cx="38.3718" cy="588.063" width="76.75" height="7.08661"/>
			<rect x="0" y="584.52" width="76.7435" height="7.08661" class="st6"/>
			<text x="7.7" y="589.86" class="st11" v:langID="1044"><v:paragraph v:horizAlign="1" v:bulletSize="0.166667"/><v:tabList/>FOTA_IMAGE_APPLY</text>		</g>
		<g id="shape263-104" v:mID="263" v:groupContext="shape" transform="translate(448.693,-317.772)">
			<title>Sheet.263</title>
			<desc>FOTA_DOWNLOAD_CANCELED OR FOTA_DOWNLOAD_TIMED_OUT OR FOTA_DOW...</desc>
			<v:textBlock v:margins="rect(4,4,4,4)"/>
			<v:textRect cx="52.4409" cy="588.063" width="104.89" height="7.08661"/>
			<rect x="0" y="584.52" width="104.882" height="7.08661" class="st6"/>
			<text x="7.1" y="575.46" class="st11" v:langID="1044"><v:paragraph v:horizAlign="1" v:bulletSize="0.166667"/><v:tabList/>FOTA_DOWNLOAD_CANCELED <tspan
						x="47.94" dy="1.2em" class="st14">OR </tspan><tspan x="6.1" dy="1.2em" class="st14">FOTA_DOWNLOAD_TIMED_OUT </tspan><tspan
						x="47.94" dy="1.2em" class="st14">OR<v:newlineChar/></tspan><tspan x="12.1" dy="1.2em" class="st14"> </tspan>FOTA_DOWNLOAD_FAILED</text>		</g>
		<g id="shape266-111" v:mID="266" v:groupContext="shape" v:layerMember="0" transform="translate(201.146,-117.22)">
			<title>Dynamic connector.266</title>
			<path d="M4.22 591.61 C-0.97 597.28 -11.46 610.51 -8.81 626.04 C-7.16 635.73 -0.4 646.31 4.63 652.19 L4.91 652.43"
					class="st12"/>
		</g>
		<g id="shape267-116" v:mID="267" v:groupContext="shape" transform="translate(80.2927,-88.1654)">
			<title>Sheet.267</title>
			<desc>FOTA_SUCCESS_REBOOT_NEEDED</desc>
			<v:textBlock v:margins="rect(4,4,4,4)"/>
			<v:textRect cx="58.7669" cy="588.063" width="117.54" height="7.08661"/>
			<rect x="0" y="584.52" width="117.534" height="7.08661" class="st6"/>
			<text x="6.09" y="589.86" class="st11" v:langID="1044"><v:paragraph v:horizAlign="1" v:bulletSize="0.166667"/><v:tabList/>FOTA_SUCCESS_REBOOT_NEEDED</text>		</g>
		<g id="shape268-119" v:mID="268" v:groupContext="shape" v:layerMember="0" transform="translate(146.803,-151.236)">
			<title>Dynamic connector.268</title>
			<path d="M0 591.61 C-0 597.15 -1.96 610.31 5.46 616.22 C13.22 622.41 31.26 620.65 46.7 616.01 L47.04 615.9"
					class="st12"/>
		</g>
		<g id="shape269-124" v:mID="269" v:groupContext="shape" transform="translate(431.789,-223.128)">
			<title>Sheet.269</title>
			<desc>FOTA_SUCESS_REBOOT_NEEDED</desc>
			<v:textBlock v:margins="rect(4,4,4,4)"/>
			<v:textRect cx="58.7669" cy="588.063" width="117.54" height="7.08661"/>
			<rect x="0" y="584.52" width="117.534" height="7.08661" class="st6"/>
			<text x="8.26" y="589.86" class="st11" v:langID="1044"><v:paragraph v:horizAlign="1" v:bulletSize="0.166667"/><v:tabList/>FOTA_SUCESS_REBOOT_NEEDED</text>		</g>
		<g id="shape270-127" v:mID="270" v:groupContext="shape" v:layerMember="0" transform="translate(337.785,-199.161)">
			<title>Dynamic connector.270</title>
			<path d="M-2.29 598.66 L-2.41 599 C-5.54 604.47 -12.1 611.75 -24.26 616.12 C-45.34 623.7 -83.27 622.52 -98.5 605"
					class="st2"/>
		</g>
	</g>
</svg>
