<?xml version="1.0" encoding="UTF-8" standalone="no"?>
<!DOCTYPE svg PUBLIC "-//W3C//DTD SVG 1.1//EN" "http://www.w3.org/Graphics/SVG/1.1/DTD/svg11.dtd">
<!-- Generated by Microsoft Visio, SVG Export fota_module_state_diagram.svg Page-1 -->
<svg xmlns="http://www.w3.org/2000/svg" xmlns:xlink="http://www.w3.org/1999/xlink" xmlns:ev="http://www.w3.org/2001/xml-events"
		width="7.81135in" height="9.44169in" viewBox="0 0 562.417 679.802" xml:space="preserve" color-interpolation-filters="sRGB"
		class="st15">
	<style type="text/css">
	<![CDATA[
		.st1 {fill:#ffffff;stroke:#000000;stroke-width:1}
		.st2 {fill:none;stroke:#ffffff;stroke-linecap:butt;stroke-width:0.75}
		.st3 {fill:#000000;font-family:Arial;font-size:0.833336em}
		.st4 {fill:#000000;font-family:Arial;font-size:0.666664em}
		.st5 {fill:#ffffff;stroke:#ffffff;stroke-linecap:butt;stroke-width:0.75}
		.st6 {fill:none;stroke:none;stroke-linecap:butt;stroke-width:0.75}
		.st7 {font-size:1em}
		.st8 {fill:none;stroke:#000000;stroke-width:1}
		.st9 {fill:#000000;stroke:none;stroke-linecap:butt;stroke-width:0.75}
		.st10 {marker-end:url(#mrkr4-58);stroke:#000000;stroke-linecap:butt;stroke-width:1}
		.st11 {fill:#000000;fill-opacity:1;stroke:#000000;stroke-opacity:1;stroke-width:0.28409090909091}
		.st12 {fill:#ffffff;stroke:#000000;stroke-linecap:butt;stroke-width:0.75}
		.st13 {marker-start:url(#mrkr4-169);stroke:#000000;stroke-linecap:butt;stroke-width:1}
		.st14 {fill:#000000;fill-opacity:1;stroke:#000000;stroke-opacity:1;stroke-width:0.35714285714286}
		.st15 {fill:none;fill-rule:evenodd;font-size:12px;overflow:visible;stroke-linecap:square;stroke-miterlimit:3}
	]]>
	</style>

	<defs id="Markers">
		<g id="lend4">
			<path d="M 2 1 L 0 0 L 2 -1 L 2 1 " style="stroke:none"/>
		</g>
		<marker id="mrkr4-58" class="st11" refX="-7.04" orient="auto" markerUnits="strokeWidth" overflow="visible">
			<use xlink:href="#lend4" transform="scale(-3.52,-3.52) "/>
		</marker>
		<marker id="mrkr4-169" class="st14" refX="5.24" orient="auto" markerUnits="strokeWidth" overflow="visible">
			<use xlink:href="#lend4" transform="scale(2.8) "/>
		</marker>
	</defs>
	<g>
		<title>Page-1</title>
		<g id="shape7-1" transform="translate(14.3307,-1)">
			<title>Sheet.7</title>
			<path d="M-0 671.4 A5.03907 8.40194 -180 0 0 2.25 678.4 A4.25197 4.25197 -180 0 0 5.41 679.8 L541.68 679.8 A4.25197 4.25197
						 -180 0 0 544.83 678.4 A5.03907 8.40194 -180 0 0 547.09 671.4 L547.09 40.07 A5.03907 8.40194 -180 0 0 544.83
						 33.07 A4.25197 4.25197 -180 0 0 541.68 31.67 L5.41 31.67 A4.25197 4.25197 -180 0 0 2.25 33.07 A5.03907 8.40194
						 -180 0 0 -0 40.07 L0 671.4 Z" class="st1"/>
		</g>
		<g id="shape8-3" transform="translate(14.3307,-630.475)">
			<title>Sheet.8</title>
			<path d="M0 672.93 A5.03907 6.87451 -180 0 0 2.61 678.95 A4.25197 4.25197 -180 0 0 5.16 679.8 L541.92 679.8 A4.25197
						 4.25197 -180 0 0 544.48 678.95 A5.03907 6.87451 -180 0 0 547.09 672.93 L547.09 668.02 A5.03907 6.87451 -180
						 0 0 544.48 661.99 A4.25197 4.25197 -180 0 0 541.92 661.14 L5.16 661.14 A4.25197 4.25197 -180 0 0 2.61 661.99
						 A5.03907 6.87451 -180 0 0 -0 668.02 L0 672.93 Z" class="st1"/>
		</g>
		<g id="shape9-5" transform="translate(17.1654,-633.773)">
			<title>Sheet.9</title>
			<desc>STATE_RUNNING</desc>
			<rect x="0" y="671.945" width="86.5452" height="7.85641" class="st2"/>
			<text x="0" y="678.87" class="st3">STATE_RUNNING</text>		</g>
		<g id="shape10-8" transform="translate(18.4235,-616.118)">
			<title>Sheet.10</title>
			<desc>entry / nrf_cloud_fota_poll_init(); nrf_cloud_fota_poll_proce...</desc>
			<rect x="0" y="671.945" width="270.454" height="7.85641" class="st2"/>
			<text x="0" y="678.27" class="st4">entry / nrf_cloud_fota_poll_init(); nrf_cloud_fota_poll_process_pending();</text>		</g>
		<g id="shape16-11" transform="translate(186.259,-451.94)">
			<title>Sheet.16</title>
			<path d="M0 673.91 A4.43891 5.89244 -180 0 0 1.42 678.23 A4.25197 4.25197 -180 0 0 4.72 679.8 L202.42 679.8 A4.25197
						 4.25197 -180 0 0 205.72 678.23 A4.43891 5.89244 -180 0 0 207.14 673.91 L207.14 640.52 A4.43891 5.89244 -180
						 0 0 205.72 636.19 A4.25197 4.25197 -180 0 0 202.42 634.63 L4.72 634.63 A4.25197 4.25197 -180 0 0 1.42 636.19
						 A4.43891 5.89244 -180 0 0 0 640.52 L0 673.91 Z" class="st1"/>
		</g>
		<g id="shape17-13" transform="translate(186.259,-482.383)">
			<title>Sheet.17</title>
			<path d="M0 673.91 A4.43891 5.89244 -180 0 0 1.42 678.23 A4.25197 4.25197 -180 0 0 4.72 679.8 L202.42 679.8 A4.25197
						 4.25197 -180 0 0 205.72 678.23 A4.43891 5.89244 -180 0 0 207.14 673.91 L207.14 670.96 A4.43891 5.89244 -180
						 0 0 205.72 666.64 A4.25197 4.25197 -180 0 0 202.42 665.07 L4.72 665.07 A4.25197 4.25197 -180 0 0 1.42 666.64
						 A4.43891 5.89244 -180 0 0 -0 670.96 L0 673.91 Z" class="st1"/>
		</g>
		<g id="shape18-15" transform="translate(189.968,-484.347)">
			<title>Sheet.18</title>
			<desc>STATE_WAITING_FOR_POLL_REQUEST</desc>
			<rect x="0" y="671.945" width="194.057" height="7.85641" class="st2"/>
			<text x="0" y="678.87" class="st3">STATE_WAITING_FOR_POLL_REQUEST</text>		</g>
		<g id="shape19-18" transform="translate(188.98,-468.634)">
			<title>Sheet.19</title>
			<desc>FOTA_CANCEL / smf_state_handled;</desc>
			<rect x="0" y="671.945" width="137.809" height="7.85641" class="st2"/>
			<text x="0" y="678.27" class="st4">FOTA_CANCEL / smf_state_handled;</text>		</g>
		<g id="shape25-21" transform="translate(186.367,-366.554)">
			<title>Sheet.25</title>
			<path d="M0 673.91 A4.43891 5.89244 -180 0 0 1.42 678.23 A4.25197 4.25197 -180 0 0 4.72 679.8 L202.42 679.8 A4.25197
						 4.25197 -180 0 0 205.72 678.23 A4.43891 5.89244 -180 0 0 207.14 673.91 L207.14 636.59 A4.43891 5.89244 -180
						 0 0 205.72 632.27 A4.25197 4.25197 -180 0 0 202.42 630.7 L4.72 630.7 A4.25197 4.25197 -180 0 0 1.42 632.27
						 A4.43891 5.89244 -180 0 0 -0 636.59 L0 673.91 Z" class="st1"/>
		</g>
		<g id="shape26-23" transform="translate(186.259,-400.926)">
			<title>Sheet.26</title>
			<desc>STATE_POLLING_FOR_UPDATE</desc>
			<path d="M0 673.91 A4.43891 5.89244 -180 0 0 1.42 678.23 A4.25197 4.25197 -180 0 0 4.72 679.8 L202.42 679.8 A4.25197
						 4.25197 -180 0 0 205.72 678.23 A4.43891 5.89244 -180 0 0 207.14 673.91 L207.14 670.96 A4.43891 5.89244 -180
						 0 0 205.72 666.64 A4.25197 4.25197 -180 0 0 202.42 665.07 L4.72 665.07 A4.25197 4.25197 -180 0 0 1.42 666.64
						 A4.43891 5.89244 -180 0 0 -0 670.96 L0 673.91 Z" class="st1"/>
			<text x="4" y="675.44" class="st3">STATE_POLLING_FOR_UPDATE</text>		</g>
		<g id="shape48-26" transform="translate(285.578,-431.713)">
			<title>Sheet.48</title>
			<desc>FOTA_POLL_REQUEST</desc>
			<rect x="0" y="672.01" width="98.9088" height="7.79207" class="st5"/>
			<text x="0" y="678.31" class="st4">FOTA_POLL_REQUEST</text>		</g>
		<g id="shape53-29" transform="translate(288.298,-340.94)">
			<title>Sheet.53</title>
			<desc>FOTA_DOWNLOADING_UPDATE</desc>
			<rect x="0" y="671.945" width="125.718" height="7.85641" class="st2"/>
			<text x="0" y="678.27" class="st4">FOTA_DOWNLOADING_UPDATE</text>		</g>
		<g id="shape58-32" transform="translate(286.457,-256.459)">
			<title>Sheet.58</title>
			<desc>FOTA_IMAGE_APPLY_NEEDED</desc>
			<rect x="0" y="671.945" width="125.718" height="7.85641" class="st6"/>
			<text x="0" y="678.27" class="st4">FOTA_IMAGE_APPLY_NEEDED</text>		</g>
		<g id="shape63-35" transform="translate(286.237,-170.862)">
			<title>Sheet.63</title>
			<desc>FOTA_IMAGE_APPLY</desc>
			<rect x="0" y="671.945" width="82.424" height="7.85641" class="st6"/>
			<text x="0" y="678.27" class="st4">FOTA_IMAGE_APPLY</text>		</g>
		<g id="shape73-38" transform="translate(135.995,-431.649)">
			<title>Sheet.73</title>
			<desc>FOTA_NO_AVAILABLE_UPDATE</desc>
			<rect x="0" y="671.945" width="137.809" height="7.85641" class="st5"/>
			<text x="0" y="678.27" class="st4">FOTA_NO_AVAILABLE_UPDATE</text>		</g>
		<g id="shape78-41" transform="translate(430.427,-389.182)">
			<title>Sheet.78</title>
			<desc>FOTA_DOWNLOAD_FAILED || FOTA_DOWNLOAD_TIMEDOUT || FOTA_DOWNLO...</desc>
			<rect x="0" y="671.945" width="125.718" height="7.85641" class="st2"/>
			<text x="0" y="668.67" class="st4">FOTA_DOWNLOAD_FAILED || <tspan x="0" dy="1.2em" class="st7">FOTA_DOWNLOAD</tspan>_TIMEDOUT || <tspan
						x="0" dy="1.2em" class="st7">FOTA_DOWNLOAD_CANCELED</tspan></text>		</g>
		<g id="shape79-46" transform="translate(33.2528,-330.552)">
			<title>Sheet.79</title>
			<path d="M0 673.91 A4.13437 5.89244 -180 0 0 4.13 679.8 L133.67 679.8 A4.13437 5.89244 -180 0 0 137.81 673.91 L137.81
						 640.52 A4.13437 5.89244 -180 0 0 136.82 636.7 A4.25197 4.25197 -180 0 0 133.17 634.63 L4.13 634.63 A4.13437
						 5.89244 -180 0 0 0 640.52 L0 673.91 Z" class="st1"/>
		</g>
		<g id="shape80-48" transform="translate(33.2528,-360.995)">
			<title>Sheet.80</title>
			<desc>STATE_CANCELLING</desc>
			<path d="M0 673.91 A4.13437 5.89244 -180 0 0 4.13 679.8 L133.67 679.8 A4.13437 5.89244 -180 0 0 137.81 673.91 L137.81
						 670.96 A4.13437 5.89244 -180 0 0 136.82 667.14 A4.25197 4.25197 -180 0 0 133.17 665.07 L4.13 665.07 A4.13437
						 5.89244 -180 0 0 -0 670.96 L0 673.91 Z" class="st8"/>
			<text x="4" y="675.44" class="st3">STATE_CANCELLING</text>		</g>
		<g id="shape110-51" transform="translate(249.455,-664.554)">
			<title>Sheet.110</title>
			<ellipse cx="4.11481" cy="674.9" rx="4.11481" ry="4.90229" class="st9"/>
		</g>
		<g id="shape111-53" transform="translate(254.941,-671.002)">
			<title>Dynamic connector</title>
			<path d="M0 679.8 L24.45 679.8 L24.45 694.63" class="st10"/>
		</g>
		<g id="shape112-59" transform="translate(260.531,-594.071)">
			<title>Dynamic connector.75</title>
			<path d="M0 679.8 L28.35 679.8 L28.35 689.35" class="st10"/>
		</g>
		<g id="shape113-64" transform="translate(252.441,-588.699)">
			<title>Sheet.113</title>
			<ellipse cx="4.11481" cy="674.9" rx="4.11481" ry="4.90229" class="st9"/>
		</g>
		<g id="shape114-66" transform="translate(276.535,-451.94)">
			<title>Dynamic connector.46</title>
			<path d="M7.09 679.8 L7.09 709.04" class="st10"/>
		</g>
		<g id="shape117-71" transform="translate(189.853,-389.182)">
			<title>Sheet.117</title>
			<desc>entry / nrf_cloud_fota_poll_process();</desc>
			<rect x="0" y="671.945" width="137.809" height="7.85641" class="st2"/>
			<text x="0" y="678.27" class="st4">entry / nrf_cloud_fota_poll_process();</text>		</g>
		<g id="shape118-74" transform="translate(188.98,-372.174)">
			<title>Sheet.118</title>
			<desc>FOTA_CANCEL / smf_state_handled;</desc>
			<rect x="0" y="671.945" width="137.809" height="7.85641" class="st2"/>
			<text x="0" y="678.27" class="st4">FOTA_CANCEL / smf_state_handled;</text>		</g>
		<g id="shape121-77" transform="translate(181.575,-279.554)">
			<title>Sheet.121</title>
			<path d="M0 673.91 A4.43891 5.89244 -180 0 0 1.42 678.23 A4.25197 4.25197 -180 0 0 4.72 679.8 L202.42 679.8 A4.25197
						 4.25197 -180 0 0 205.72 678.23 A4.43891 5.89244 -180 0 0 207.14 673.91 L207.14 636.59 A4.43891 5.89244 -180
						 0 0 205.72 632.27 A4.25197 4.25197 -180 0 0 202.42 630.7 L4.72 630.7 A4.25197 4.25197 -180 0 0 1.42 632.27
						 A4.43891 5.89244 -180 0 0 -0 636.59 L0 673.91 Z" class="st1"/>
		</g>
		<g id="shape122-79" transform="translate(181.575,-314.791)">
			<title>Sheet.122</title>
			<desc>STATE_DOWNLOADING_UPDATE</desc>
			<path d="M0 673.91 A4.43891 5.89244 -180 0 0 1.42 678.23 A4.25197 4.25197 -180 0 0 4.72 679.8 L202.42 679.8 A4.25197
						 4.25197 -180 0 0 205.72 678.23 A4.43891 5.89244 -180 0 0 207.14 673.91 L207.14 670.96 A4.43891 5.89244 -180
						 0 0 205.72 666.64 A4.25197 4.25197 -180 0 0 202.42 665.07 L4.72 665.07 A4.25197 4.25197 -180 0 0 1.42 666.64
						 A4.43891 5.89244 -180 0 0 -0 670.96 L0 673.91 Z" class="st1"/>
			<text x="4" y="675.44" class="st3">STATE_DOWNLOADING_UPDATE</text>		</g>
		<g id="shape125-82" transform="translate(183.425,-300.886)">
			<title>Sheet.125</title>
			<desc>Do nothing</desc>
			<rect x="0" y="671.566" width="47.7557" height="8.23585" class="st6"/>
			<text x="0" y="678.08" class="st4">Do nothing</text>		</g>
		<g id="shape127-85" transform="translate(179.078,-387.222)">
			<title>Dynamic connector.127</title>
			<path d="M6.99 679.8 L-45.73 679.8 L-45.73 597.28 L0.14 597.28" class="st10"/>
		</g>
		<g id="shape128-90" transform="translate(384.198,-297.773)">
			<title>Dynamic connector.84</title>
			<path d="M4.31 679.8 L42.13 679.8 L42.13 501.08 L16.91 501.08" class="st10"/>
		</g>
		<g id="shape1002-95" transform="translate(101.22,-375.726)">
			<title>Dynamic connector.1002</title>
			<path d="M0 679.8 L0 571.93 L78 571.93" class="st10"/>
		</g>
		<g id="shape1003-100" transform="translate(32.248,-486.601)">
			<title>Sheet.1003</title>
			<desc>FOTA_DOWNLOAD_CANCELLED</desc>
			<rect x="0" y="671.945" width="125.718" height="7.85641" class="st2"/>
			<text x="0" y="678.27" class="st4">FOTA_DOWNLOAD_CANCELLED</text>		</g>
		<g id="shape1004-103" transform="translate(14.3307,-261.206)">
			<title>Dynamic connector.1004</title>
			<path d="M0 679.8 L5.67 679.8 L5.67 587.87 L11.88 587.87" class="st10"/>
		</g>
		<g id="shape1005-108" transform="translate(22.8346,-311.946)">
			<title>Sheet.1005</title>
			<desc>FOTA_DOWNLOAD_CANCEL</desc>
			<rect x="0" y="671.945" width="125.718" height="7.85641" class="st6"/>
			<text x="0" y="678.27" class="st4">FOTA_DOWNLOAD_CANCEL</text>		</g>
		<g id="shape1006-111" transform="translate(35.1414,-344.869)">
			<title>Sheet.1006</title>
			<desc>entry / nrf_cloud_download_cancel()</desc>
			<rect x="0" y="671.945" width="136.961" height="7.85641" class="st6"/>
			<text x="0" y="678.27" class="st4">entry / nrf_cloud_download_cancel()</text>		</g>
		<g id="shape1007-114" transform="translate(278.425,-365.805)">
			<title>Dynamic connector.1007</title>
			<path d="M7.09 679.8 L7.09 709.04" class="st10"/>
		</g>
		<g id="shape1008-119" transform="translate(276.535,-279.554)">
			<title>Dynamic connector.1008</title>
			<path d="M7.09 679.8 L7.09 709.04" class="st10"/>
		</g>
		<g id="shape1009-124" transform="translate(189.753,-217.177)">
			<title>Sheet.1009</title>
			<desc>Do nothing</desc>
			<rect x="0" y="671.945" width="41.212" height="7.85641" class="st12"/>
			<text x="0" y="672.87" class="st3">Do <tspan x="0" dy="1.2em" class="st7">nothing</tspan></text>		</g>
		<g id="shape1010-128" transform="translate(181.36,-192.625)">
			<title>Sheet.1010</title>
			<path d="M0 673.91 A4.43891 5.89244 -180 0 0 1.42 678.23 A4.25197 4.25197 -180 0 0 4.72 679.8 L202.42 679.8 A4.25197
						 4.25197 -180 0 0 205.72 678.23 A4.43891 5.89244 -180 0 0 207.14 673.91 L207.14 636.59 A4.43891 5.89244 -180
						 0 0 205.72 632.27 A4.25197 4.25197 -180 0 0 202.42 630.7 L4.72 630.7 A4.25197 4.25197 -180 0 0 1.42 632.27
						 A4.43891 5.89244 -180 0 0 -0 636.59 L0 673.91 Z" class="st1"/>
		</g>
		<g id="shape1011-130" transform="translate(181.36,-227.862)">
			<title>Sheet.1011</title>
			<desc>STATE_WAITING_FOR_IMAGE_APPLY</desc>
			<path d="M0 673.91 A4.43891 5.89244 -180 0 0 1.42 678.23 A4.25197 4.25197 -180 0 0 4.72 679.8 L202.42 679.8 A4.25197
						 4.25197 -180 0 0 205.72 678.23 A4.43891 5.89244 -180 0 0 207.14 673.91 L207.14 670.96 A4.43891 5.89244 -180
						 0 0 205.72 666.64 A4.25197 4.25197 -180 0 0 202.42 665.07 L4.72 665.07 A4.25197 4.25197 -180 0 0 1.42 666.64
						 A4.43891 5.89244 -180 0 0 -0 670.96 L0 673.91 Z" class="st1"/>
			<text x="4" y="675.44" class="st3">STATE_WAITING_FOR_IMAGE_APPLY</text>		</g>
		<g id="shape1013-133" transform="translate(276.32,-192.625)">
			<title>Dynamic connector.1013</title>
			<path d="M7.09 679.8 L7.09 709.04" class="st10"/>
		</g>
		<g id="shape1019-138" transform="translate(286.237,-84.31)">
			<title>Sheet.1019</title>
			<desc>FOTA_SUCCESS_REBOOT_NEEDED</desc>
			<rect x="0" y="671.945" width="144.19" height="7.85641" class="st6"/>
			<text x="0" y="678.27" class="st4">FOTA_SUCCESS_REBOOT_NEEDED</text>		</g>
		<g id="shape1020-141" transform="translate(189.753,-130.625)">
			<title>Sheet.1020</title>
			<desc>Do nothing</desc>
			<rect x="0" y="671.945" width="41.212" height="7.85641" class="st12"/>
			<text x="0" y="672.87" class="st3">Do <tspan x="0" dy="1.2em" class="st7">nothing</tspan></text>		</g>
		<g id="shape1021-145" transform="translate(181.36,-106.074)">
			<title>Sheet.1021</title>
			<path d="M0 673.91 A4.43891 5.89244 -180 0 0 1.42 678.23 A4.25197 4.25197 -180 0 0 4.72 679.8 L202.42 679.8 A4.25197
						 4.25197 -180 0 0 205.72 678.23 A4.43891 5.89244 -180 0 0 207.14 673.91 L207.14 636.59 A4.43891 5.89244 -180
						 0 0 205.72 632.27 A4.25197 4.25197 -180 0 0 202.42 630.7 L4.72 630.7 A4.25197 4.25197 -180 0 0 1.42 632.27
						 A4.43891 5.89244 -180 0 0 -0 636.59 L0 673.91 Z" class="st1"/>
		</g>
		<g id="shape1022-147" transform="translate(181.36,-141.31)">
			<title>Sheet.1022</title>
			<desc>STATE_IMAGE_APPLYING</desc>
			<path d="M0 673.91 A4.43891 5.89244 -180 0 0 1.42 678.23 A4.25197 4.25197 -180 0 0 4.72 679.8 L202.42 679.8 A4.25197
						 4.25197 -180 0 0 205.72 678.23 A4.43891 5.89244 -180 0 0 207.14 673.91 L207.14 670.96 A4.43891 5.89244 -180
						 0 0 205.72 666.64 A4.25197 4.25197 -180 0 0 202.42 665.07 L4.72 665.07 A4.25197 4.25197 -180 0 0 1.42 666.64
						 A4.43891 5.89244 -180 0 0 -0 670.96 L0 673.91 Z" class="st1"/>
			<text x="4" y="675.44" class="st3">STATE_IMAGE_APPLYING</text>		</g>
		<g id="shape1023-150" transform="translate(276.32,-106.074)">
			<title>Dynamic connector.1023</title>
			<path d="M7.09 679.8 L7.09 709.04" class="st10"/>
		</g>
		<g id="shape1024-155" transform="translate(188.443,-44.5292)">
			<title>Sheet.1024</title>
			<desc>Do nothing</desc>
			<rect x="0" y="671.945" width="41.212" height="7.85641" class="st12"/>
			<text x="0" y="672.87" class="st3">Do <tspan x="0" dy="1.2em" class="st7">nothing</tspan></text>		</g>
		<g id="shape1025-159" transform="translate(179.835,-20.8425)">
			<title>Sheet.1025</title>
			<path d="M0 673.91 A4.43891 5.89244 -180 0 0 1.42 678.23 A4.25197 4.25197 -180 0 0 4.72 679.8 L202.42 679.8 A4.25197
						 4.25197 -180 0 0 205.72 678.23 A4.43891 5.89244 -180 0 0 207.14 673.91 L207.14 636.59 A4.43891 5.89244 -180
						 0 0 205.72 632.27 A4.25197 4.25197 -180 0 0 202.42 630.7 L4.72 630.7 A4.25197 4.25197 -180 0 0 1.42 632.27
						 A4.43891 5.89244 -180 0 0 -0 636.59 L0 673.91 Z" class="st1"/>
		</g>
		<g id="shape1026-161" transform="translate(180.05,-55.2143)">
			<title>Sheet.1026</title>
			<desc>STATE_REBOOT_PENDING</desc>
			<path d="M0 673.91 A4.43891 5.89244 -180 0 0 1.42 678.23 A4.25197 4.25197 -180 0 0 4.72 679.8 L202.42 679.8 A4.25197
						 4.25197 -180 0 0 205.72 678.23 A4.43891 5.89244 -180 0 0 207.14 673.91 L207.14 670.96 A4.43891 5.89244 -180
						 0 0 205.72 666.64 A4.25197 4.25197 -180 0 0 202.42 665.07 L4.72 665.07 A4.25197 4.25197 -180 0 0 1.42 666.64
						 A4.43891 5.89244 -180 0 0 -0 670.96 L0 673.91 Z" class="st1"/>
			<text x="4" y="675.44" class="st3">STATE_REBOOT_PENDING</text>		</g>
		<g id="shape1027-164" transform="translate(173.618,-41.7027)">
			<title>Dynamic connector.1027</title>
			<path d="M0.98 679.8 L0.62 679.8 L-36.87 679.8 L-36.87 420.62 L7.96 420.62" class="st13"/>
		</g>
		<g id="shape1028-170" transform="translate(32.9445,-31.6402)">
			<title>Sheet.1028</title>
			<desc>FOTA_SUCCESS_REBOOT_NEEDED</desc>
			<rect x="0" y="671.945" width="144.19" height="7.85641" class="st6"/>
			<text x="0" y="678.27" class="st4">FOTA_SUCCESS_REBOOT_NEEDED</text>		</g>
		<g id="shape1029-173" transform="translate(183.536,-127.694)">
			<title>Sheet.1029</title>
			<desc>entry / nrf_cloud_fota_poll_Apply_image()</desc>
			<rect x="0" y="671.945" width="151.109" height="7.85641" class="st2"/>
			<text x="0" y="678.27" class="st4">entry / nrf_cloud_fota_poll_Apply_image()</text>		</g>
		<g id="shape1030-176" transform="translate(185.305,-533.397)">
			<title>Sheet.1030</title>
			<path d="M0 673.91 A4.43891 5.89244 -180 0 0 1.42 678.23 A4.25197 4.25197 -180 0 0 4.72 679.8 L202.42 679.8 A4.25197
						 4.25197 -180 0 0 205.72 678.23 A4.43891 5.89244 -180 0 0 207.14 673.91 L207.14 640.52 A4.43891 5.89244 -180
						 0 0 205.72 636.19 A4.25197 4.25197 -180 0 0 202.42 634.63 L4.72 634.63 A4.25197 4.25197 -180 0 0 1.42 636.19
						 A4.43891 5.89244 -180 0 0 0 640.52 L0 673.91 Z" class="st1"/>
		</g>
		<g id="shape1031-178" transform="translate(185.305,-563.841)">
			<title>Sheet.1031</title>
			<path d="M0 673.91 A4.43891 5.89244 -180 0 0 1.42 678.23 A4.25197 4.25197 -180 0 0 4.72 679.8 L202.42 679.8 A4.25197
						 4.25197 -180 0 0 205.72 678.23 A4.43891 5.89244 -180 0 0 207.14 673.91 L207.14 670.96 A4.43891 5.89244 -180
						 0 0 205.72 666.64 A4.25197 4.25197 -180 0 0 202.42 665.07 L4.72 665.07 A4.25197 4.25197 -180 0 0 1.42 666.64
						 A4.43891 5.89244 -180 0 0 -0 670.96 L0 673.91 Z" class="st1"/>
		</g>
		<g id="shape1032-180" transform="translate(189.014,-565.805)">
			<title>Sheet.1032</title>
			<desc>STATE_WAITING_FOR_MODEM_INIT</desc>
			<rect x="0" y="671.945" width="194.057" height="7.85641" class="st2"/>
			<text x="0" y="678.87" class="st3">STATE_WAITING_FOR_MODEM_INIT</text>		</g>
		<g id="shape1033-183" transform="translate(188.026,-545.252)">
			<title>Sheet.1033</title>
			<desc>FOTA_MODEM_READY / nrf_cloud_fota_poll_process_pending()</desc>
			<rect x="0" y="671.945" width="151.109" height="7.85641" class="st2"/>
			<text x="0" y="673.47" class="st4">FOTA_MODEM_READY / <tspan x="0" dy="1.2em" class="st7">nrf_cloud_fota_poll_process_pending()</tspan></text>		</g>
		<g id="shape1036-187" transform="translate(280.787,-533.397)">
			<title>Dynamic connector.1036</title>
			<path d="M7.09 679.8 L7.09 709.04" class="st10"/>
		</g>
	</g>
</svg>
