<?xml version="1.0" encoding="UTF-8" standalone="no"?>
<!DOCTYPE svg PUBLIC "-//W3C//DTD SVG 1.1//EN" "http://www.w3.org/Graphics/SVG/1.1/DTD/svg11.dtd">
<!-- Generated by Microsoft Visio, SVG Export location_module_state_diagram.svg Page-1 -->
<svg xmlns="http://www.w3.org/2000/svg" xmlns:xlink="http://www.w3.org/1999/xlink" xmlns:ev="http://www.w3.org/2001/xml-events"
		width="7.61926in" height="4.59649in" viewBox="0 0 548.587 330.948" xml:space="preserve" color-interpolation-filters="sRGB"
		class="st10">
	<style type="text/css">
	<![CDATA[
		.st1 {fill:#000000;marker-end:url(#mrkr4-4);stroke:#000000;stroke-linecap:butt;stroke-width:0.75}
		.st2 {fill:#000000;fill-opacity:1;stroke:#000000;stroke-opacity:1;stroke-width:0.22935779816514}
		.st3 {fill:#000000}
		.st4 {stroke:#000000;stroke-linecap:butt;stroke-width:0.75}
		.st5 {fill:#000000;stroke:#000000;stroke-linecap:butt;stroke-width:0.75}
		.st6 {fill:#ffffff;stroke:#000000;stroke-linecap:butt;stroke-width:0.75}
		.st7 {fill:none;stroke:none;stroke-linecap:butt;stroke-width:0.75}
		.st8 {fill:#000000;font-family:Arial;font-size:0.833336em}
		.st9 {fill:#000000;stroke:none;stroke-linecap:butt;stroke-width:0.7392}
		.st10 {fill:none;fill-rule:evenodd;font-size:12px;overflow:visible;stroke-linecap:square;stroke-miterlimit:3}
	]]>
	</style>

	<defs id="Markers">
		<g id="lend4">
			<path d="M 2 1 L 0 0 L 2 -1 L 2 1 " style="stroke:none"/>
		</g>
		<marker id="mrkr4-4" class="st2" refX="-8.72" orient="auto" markerUnits="strokeWidth" overflow="visible">
			<use xlink:href="#lend4" transform="scale(-4.36,-4.36) "/>
		</marker>
	</defs>
	<g>
		<title>Page-1</title>
		<g id="shape169-1" transform="translate(265.541,-310.412)">
			<title>Sheet.169</title>
			<ellipse cx="4.5" cy="326.448" rx="4.5" ry="4.5" class="st1"/>
		</g>
		<g id="group170-5" transform="translate(270.041,-295.318)">
			<title>Sheet.170</title>
			<g id="shape171-6">
				<title>Sheet.171</title>
				<path d="M0 312.95 L0 330.95 L0 312.95 Z" class="st3"/>
				<path d="M0 312.95 L0 330.95" class="st4"/>
			</g>
			<g id="group172-10" transform="translate(328.308,330.948) rotate(90)">
				<title>mrkr4</title>
				<g id="shape173-11" transform="translate(5.28,656.615) rotate(180)">
					<title>Sheet.173</title>
					<path d="M5.28 330.95 L0 328.31 L5.28 325.67 L5.28 330.95 Z" class="st5"/>
				</g>
			</g>
		</g>
		<g id="group174-14" transform="translate(110.12,-267)">
			<title>state-waiting-for-modem-init</title>
			<g id="shape175-15">
				<title>Sheet.175</title>
				<path d="M0 326.45 A4.5001 4.5001 -180 0 0 4.5 330.95 L325.5 330.95 A4.5001 4.5001 -180 0 0 330 326.45 L330 312.95
							 A4.5001 4.5001 -180 0 0 325.5 308.45 L4.5 308.45 A4.5001 4.5001 -180 0 0 -0 312.95 L0 326.45 Z"
						class="st6"/>
			</g>
			<g id="shape176-17" transform="translate(48.333,-4.99999)">
				<title>Sheet.176</title>
				<desc>STATE_WAITING_FOR_MODEM_INIT</desc>
				<rect x="0" y="320.947" width="233.334" height="10" class="st7"/>
				<text x="28.88" y="328.95" class="st8">STATE_WAITING_FOR_MODEM_INIT</text>			</g>
		</g>
		<g id="group177-20" transform="translate(270.041,-246.425)">
			<title>Sheet.177</title>
			<g id="shape178-21">
				<title>Sheet.178</title>
				<path d="M0 309.7 L0 330.95 L0 309.7 Z" class="st3"/>
				<path d="M0 309.7 L0 330.95" class="st4"/>
			</g>
			<g id="group179-25" transform="translate(328.308,330.948) rotate(90)">
				<title>mrkr4</title>
				<g id="shape180-26" transform="translate(5.28,656.615) rotate(180)">
					<title>Sheet.180</title>
					<path d="M5.28 330.95 L0 328.31 L5.28 325.67 L5.28 330.95 Z" class="st5"/>
				</g>
			</g>
		</g>
		<g id="shape181-29" transform="translate(272.876,-250)">
			<title>Sheet.181</title>
			<desc>LOCATION_PRIV_MODEM_INITIALIZED</desc>
			<rect x="0" y="322.948" width="206.716" height="7.99997" class="st7"/>
			<text x="0" y="329.95" class="st8">LOCATION_PRIV_MODEM_INITIALIZED</text>		</g>
		<g id="group182-32" transform="translate(0.75,-0.75)">
			<title>state-running</title>
			<g id="shape183-33">
				<title>Sheet.183</title>
				<path d="M0 324.95 A6.25256 6.00014 -180 0 0 6.25 330.95 L540.83 330.95 A6.25256 6.00014 -180 0 0 547.09 324.95 L547.09
							 96.95 A6.25256 6.00014 -180 0 0 540.83 90.95 L6.25 90.95 A6.25256 6.00014 -180 0 0 -0 96.95 L0 324.95
							 Z" class="st6"/>
			</g>
			<g id="shape184-35" transform="translate(0,-222)">
				<title>Sheet.184</title>
				<path d="M0 324.95 A6.25256 6.00014 -180 0 0 6.25 330.95 L540.83 330.95 A6.25256 6.00014 -180 0 0 547.09 324.95 L547.09
							 318.95 A6.25256 6.00014 -180 0 0 540.83 312.95 L6.25 312.95 A6.25256 6.00014 -180 0 0 -0 318.95 L0 324.95
							 Z" class="st6"/>
			</g>
			<g id="shape185-37" transform="translate(7.81552,-224.75)">
				<title>Sheet.185</title>
				<desc>STATE_RUNNING</desc>
				<rect x="0" y="320.947" width="112.891" height="10" class="st7"/>
				<text x="0" y="328.95" class="st8">STATE_RUNNING</text>			</g>
			<g id="shape186-40" transform="translate(7.81552,-208)">
				<title>Sheet.186</title>
				<desc>entry / location_init()</desc>
				<rect x="0" y="322.948" width="159.783" height="7.99997" class="st7"/>
				<text x="0" y="329.95" class="st8">entry / location_init()</text>			</g>
			<g id="shape187-43" transform="translate(268.218,-189.686)">
				<title>Sheet.187</title>
				<ellipse cx="3.90776" cy="327.198" rx="3.90776" ry="3.75" class="st5"/>
			</g>
			<g id="group188-45" transform="translate(272.126,-176.059)">
				<title>Sheet.188</title>
				<g id="shape189-46" transform="translate(-6.66893E-07,0)">
					<title>Sheet.189</title>
					<path d="M0 312.2 L0 330.95 L0 312.2 Z" class="st3"/>
					<path d="M0 312.2 L0 330.95" class="st4"/>
				</g>
				<g id="group190-49" transform="translate(328.308,330.948) rotate(90)">
					<title>mrkr4</title>
					<g id="shape191-50" transform="translate(5.28,656.615) rotate(180)">
						<title>Sheet.191</title>
						<path d="M5.28 330.95 L0 328.31 L5.28 325.67 L5.28 330.95 Z" class="st9"/>
					</g>
				</g>
			</g>
			<g id="group192-52" transform="translate(59.8515,-147.78)">
				<title>state-inactive</title>
				<g id="shape193-53">
					<title>Sheet.193</title>
					<path d="M-0 326.45 A4.68942 4.5001 -180 0 0 4.69 330.95 L417.35 330.95 A4.68942 4.5001 -180 0 0 422.04 326.45
								 L422.04 312.95 A4.68942 4.5001 -180 0 0 417.35 308.45 L4.69 308.45 A4.68942 4.5001 -180 0 0 0 312.95
								 L0 326.45 Z" class="st6"/>
				</g>
				<g id="shape194-55" transform="translate(80.76,-4.99999)">
					<title>Sheet.194</title>
					<desc>STATE_LOCATION_SEARCH_INACTIVE</desc>
					<rect x="0" y="320.947" width="260.518" height="10" class="st7"/>
					<text x="36.35" y="328.95" class="st8">STATE_LOCATION_SEARCH_INACTIVE</text>				</g>
			</g>
			<g id="group195-58" transform="translate(375.145,-106.53)">
				<title>Sheet.195</title>
				<g id="shape196-59">
					<title>Sheet.196</title>
					<path d="M0 289.7 L0 330.95 L0 289.7 Z" class="st3"/>
					<path d="M0 289.7 L0 330.95" class="st4"/>
				</g>
				<g id="group197-62" transform="translate(328.308,330.948) rotate(90)">
					<title>mrkr4</title>
					<g id="shape198-63" transform="translate(5.28,656.615) rotate(180)">
						<title>Sheet.198</title>
						<path d="M5.28 330.95 L0 328.31 L5.28 325.67 L5.28 330.95 Z" class="st9"/>
					</g>
				</g>
			</g>
			<g id="shape199-65" transform="translate(378.799,-118)">
				<title>Sheet.199</title>
				<desc>LOCATION_SEARCH_TRIGGER</desc>
				<rect x="0" y="322.948" width="159.783" height="7.99997" class="st7"/>
				<text x="0" y="329.95" class="st8">LOCATION_SEARCH_TRIGGER</text>			</g>
			<g id="group200-68" transform="translate(58.2722,-26.25)">
				<title>state-active</title>
				<g id="shape201-69">
					<title>Sheet.201</title>
					<path d="M-0 326.45 A4.68942 4.5001 -180 0 0 4.69 330.95 L417.35 330.95 A4.68942 4.5001 -180 0 0 422.04 326.45
								 L422.04 260.45 A4.68942 4.5001 -180 0 0 417.35 255.95 L4.69 255.95 A4.68942 4.5001 -180 0 0 -0 260.45
								 L0 326.45 Z" class="st6"/>
				</g>
				<g id="shape202-71" transform="translate(0,-57)">
					<title>Sheet.202</title>
					<path d="M-0 326.45 A4.68942 4.5001 -180 0 0 4.69 330.95 L417.35 330.95 A4.68942 4.5001 -180 0 0 422.04 326.45
								 L422.04 317.45 A4.68942 4.5001 -180 0 0 417.35 312.95 L4.69 312.95 A4.68942 4.5001 -180 0 0 -0 317.45
								 L0 326.45 Z" class="st6"/>
				</g>
				<g id="shape203-73" transform="translate(7.81552,-59.75)">
					<title>Sheet.203</title>
					<desc>STATE_LOCATION_SEARCH_ACTIVE</desc>
					<rect x="0" y="320.947" width="243.15" height="10" class="st7"/>
					<text x="0" y="328.95" class="st8">STATE_LOCATION_SEARCH_ACTIVE</text>				</g>
				<g id="shape204-76" transform="translate(7.81552,-39.25)">
					<title>Sheet.204</title>
					<desc>entry / location_request()</desc>
					<rect x="0" y="322.948" width="180.625" height="7.99997" class="st7"/>
					<text x="0" y="329.95" class="st8">entry / location_request()</text>				</g>
				<g id="shape205-79" transform="translate(7.81552,-24.25)">
					<title>Sheet.205</title>
					<desc>LOCATION_SEARCH_CANCEL / location_request_cancel()</desc>
					<rect x="0" y="322.948" width="347.355" height="7.99997" class="st7"/>
					<text x="0" y="329.95" class="st8">LOCATION_SEARCH_CANCEL / location_request_cancel()</text>				</g>
			</g>
			<g id="group206-82" transform="translate(155.906,-101.25)">
				<title>Sheet.206</title>
				<g id="shape207-83">
					<title>Sheet.207</title>
					<path d="M0 330.95 L0 289.7 L0 330.95 Z" class="st3"/>
					<path d="M0 330.95 L0 289.7" class="st4"/>
				</g>
				<g id="group208-86" transform="translate(-328.308,289.698) rotate(-90)">
					<title>mrkr4</title>
					<g id="shape209-87" transform="translate(5.28,656.615) rotate(180)">
						<title>Sheet.209</title>
						<path d="M5.28 330.95 L0 328.31 L5.28 325.67 L5.28 330.95 Z" class="st9"/>
					</g>
				</g>
			</g>
			<g id="shape210-89" transform="translate(18.761,-118)">
				<title>Sheet.210</title>
				<desc>LOCATION_SEARCH_DONE</desc>
				<rect x="0" y="322.948" width="138.942" height="7.99997" class="st7"/>
				<text x="0" y="329.95" class="st8">LOCATION_SEARCH_DONE</text>			</g>
		</g>
		<g id="shape213-92" transform="translate(258.102,-320.83)">
			<title>Sheet.213</title>
			<desc>Start</desc>
			<rect x="0" y="322.712" width="23.8787" height="8.23585" class="st7"/>
			<text x="0" y="329.83" class="st8">Start</text>		</g>
	</g>
</svg>
