<?xml version="1.0" encoding="UTF-8" standalone="no"?>
<!DOCTYPE svg PUBLIC "-//W3C//DTD SVG 1.1//EN" "http://www.w3.org/Graphics/SVG/1.1/DTD/svg11.dtd">
<!-- Generated by Microsoft Visio, SVG Export location_module_state_diagram.svg Page-1 -->
<svg xmlns="http://www.w3.org/2000/svg" xmlns:xlink="http://www.w3.org/1999/xlink" xmlns:ev="http://www.w3.org/2001/xml-events"
		xmlns:v="http://schemas.microsoft.com/visio/2003/SVGExtensions/" width="7.5in" height="5.5in"
		viewBox="0 0 540 396" xml:space="preserve" color-interpolation-filters="sRGB" class="st14">
	<v:documentProperties v:langID="1035" v:viewMarkup="false"/>

	<style type="text/css">
	<![CDATA[
		.st1 {fill:#ffffff;stroke:#000000;stroke-width:1}
		.st2 {fill:#000000;font-family:Arial;font-size:0.833336em}
		.st3 {fill:#000000;stroke:none;stroke-linecap:butt;stroke-width:0.75}
		.st4 {marker-end:url(#mrkr4-14);stroke:#000000;stroke-linecap:butt;stroke-width:1}
		.st5 {fill:#000000;fill-opacity:1;stroke:#000000;stroke-opacity:1;stroke-width:0.28409090909091}
		.st7 {fill:#000000;font-family:Arial;font-size:0.666664em}
		.st8 {fill:#000000;stroke:#000000;stroke-width:1}
		.st14 {fill:none;fill-rule:evenodd;font-size:12px;overflow:visible;stroke-linecap:square;stroke-miterlimit:3}
	]]>
	</style>

	<defs id="Markers">
		<g id="lend4">
			<path d="M 2 1 L 0 0 L 2 -1 L 2 1 " style="stroke:none"/>
		</g>
		<marker id="mrkr4-14" class="st5" v:arrowType="4" v:arrowSize="2" v:setback="7.04" refX="-7.04" orient="auto"
				markerUnits="strokeWidth" overflow="visible">
			<use xlink:href="#lend4" transform="scale(-3.52,-3.52) "/>
		</marker>
	</defs>
	<g v:mID="0" v:index="1" v:groupContext="foregroundPage">
		<title>Page-1</title>
		<v:layer v:name="Connector" v:index="0"/>

		<!-- Start label -->
		<g id="shape-start-label" v:mID="1" v:groupContext="shape" transform="translate(240,10)">
			<title>Sheet.Start</title>
			<desc>Start</desc>
			<text x="0" y="12" class="st7">Start</text>
		</g>

		<!-- Initial state indicator (filled circle) -->
		<g id="shape-initial" v:mID="2" v:groupContext="shape" transform="translate(255,25)">
			<title>Initial state</title>
			<ellipse cx="5" cy="5" rx="5" ry="5" class="st3"/>
		</g>

		<!-- Arrow from initial to STATE_WAITING_FOR_MODEM_INIT -->
		<g id="shape-init-arrow" v:mID="3" v:groupContext="shape" v:layerMember="0" transform="translate(260,35)">
			<title>Dynamic connector</title>
			<path d="M0 0 L0 20" class="st4"/>
		</g>

		<!-- STATE_WAITING_FOR_MODEM_INIT box -->
		<g id="shape-waiting" v:mID="4" v:groupContext="shape" transform="translate(100,55)">
			<title>Sheet.STATE_WAITING_FOR_MODEM_INIT</title>
			<desc>STATE_WAITING_FOR_MODEM_INIT</desc>
			<path d="M0 25 A6 6 0 0 0 6 31 L314 31 A6 6 0 0 0 320 25 L320 6 A6 6 0 0 0 314 0 L6 0 A6 6 0 0 0 0 6 L0 25 Z" class="st1"/>
			<text x="10" y="20" class="st2">STATE_WAITING_FOR_MODEM_INIT</text>
		</g>

		<!-- Arrow from STATE_WAITING_FOR_MODEM_INIT to STATE_RUNNING -->
		<g id="shape-wait-to-running" v:mID="5" v:groupContext="shape" v:layerMember="0" transform="translate(260,86)">
			<title>Dynamic connector</title>
			<path d="M0 0 L0 24" class="st4"/>
		</g>

		<!-- LOCATION_PRIV_MODEM_INITIALIZED label -->
		<g id="shape-modem-init-label" v:mID="6" v:groupContext="shape" transform="translate(270,90)">
			<title>Sheet.LOCATION_PRIV_MODEM_INITIALIZED</title>
			<desc>LOCATION_PRIV_MODEM_INITIALIZED</desc>
			<text x="0" y="10" class="st7">LOCATION_PRIV_MODEM_INITIALIZED</text>
		</g>

		<!-- STATE_RUNNING outer box -->
		<g id="shape-running-outer" v:mID="7" v:groupContext="shape" transform="translate(20,110)">
			<title>Sheet.STATE_RUNNING</title>
			<desc>STATE_RUNNING</desc>
			<path d="M0 260 A8 8 0 0 0 8 268 L492 268 A8 8 0 0 0 500 260 L500 8 A8 8 0 0 0 492 0 L8 0 A8 8 0 0 0 0 8 L0 260 Z" class="st1"/>
		</g>

		<!-- STATE_RUNNING header -->
		<g id="shape-running-header" v:mID="8" v:groupContext="shape" transform="translate(20,110)">
			<title>Sheet.STATE_RUNNING_HEADER</title>
			<desc>STATE_RUNNING</desc>
			<path d="M0 18 A8 6 0 0 0 8 24 L492 24 A8 6 0 0 0 500 18 L500 8 A8 6 0 0 0 492 0 L8 0 A8 6 0 0 0 0 8 L0 18 Z" class="st1"/>
			<text x="10" y="17" class="st2">STATE_RUNNING</text>
		</g>

		<!-- STATE_RUNNING entry action -->
		<g id="shape-running-entry" v:mID="9" v:groupContext="shape" transform="translate(30,138)">
			<title>Sheet.running_entry</title>
			<desc>entry / location_init();</desc>
			<text x="0" y="10" class="st7">entry / location_init();</text>
		</g>

		<!-- Initial state indicator inside STATE_RUNNING -->
		<g id="shape-running-initial" v:mID="10" v:groupContext="shape" transform="translate(265,160)">
			<title>Initial state inside RUNNING</title>
			<ellipse cx="3" cy="3" rx="3" ry="3" class="st8"/>
		</g>

		<!-- Arrow from initial to STATE_LOCATION_SEARCH_INACTIVE -->
		<g id="shape-running-init-arrow" v:mID="11" v:groupContext="shape" v:layerMember="0" transform="translate(268,166)">
			<title>Dynamic connector</title>
			<path d="M0 0 L0 24" class="st4"/>
		</g>

		<!-- STATE_LOCATION_SEARCH_INACTIVE box -->
		<g id="shape-inactive" v:mID="12" v:groupContext="shape" transform="translate(80,190)">
			<title>Sheet.STATE_LOCATION_SEARCH_INACTIVE</title>
			<desc>STATE_LOCATION_SEARCH_INACTIVE</desc>
			<path d="M0 25 A6 6 0 0 0 6 31 L374 31 A6 6 0 0 0 380 25 L380 6 A6 6 0 0 0 374 0 L6 0 A6 6 0 0 0 0 6 L0 25 Z" class="st1"/>
			<text x="10" y="20" class="st2">STATE_LOCATION_SEARCH_INACTIVE</text>
		</g>

		<!-- Arrow from INACTIVE to ACTIVE (right side, going down) -->
		<g id="shape-inactive-to-active" v:mID="15" v:groupContext="shape" v:layerMember="0" transform="translate(350,221)">
			<title>Dynamic connector</title>
			<path d="M0 0 L0 79" class="st4"/>
		</g>

		<!-- LOCATION_SEARCH_TRIGGER label -->
		<g id="shape-trigger-label" v:mID="16" v:groupContext="shape" transform="translate(360,255)">
			<title>Sheet.LOCATION_SEARCH_TRIGGER</title>
			<desc>LOCATION_SEARCH_TRIGGER</desc>
			<text x="0" y="10" class="st7">LOCATION_SEARCH_TRIGGER</text>
		</g>

		<!-- STATE_LOCATION_SEARCH_ACTIVE box -->
		<g id="shape-active" v:mID="17" v:groupContext="shape" transform="translate(80,300)">
			<title>Sheet.STATE_LOCATION_SEARCH_ACTIVE</title>
			<desc>STATE_LOCATION_SEARCH_ACTIVE</desc>
			<path d="M0 55 A6 6 0 0 0 6 61 L374 61 A6 6 0 0 0 380 55 L380 6 A6 6 0 0 0 374 0 L6 0 A6 6 0 0 0 0 6 L0 55 Z" class="st1"/>
		</g>

		<!-- STATE_LOCATION_SEARCH_ACTIVE header -->
		<g id="shape-active-header" v:mID="18" v:groupContext="shape" transform="translate(80,300)">
			<title>Sheet.STATE_LOCATION_SEARCH_ACTIVE_HEADER</title>
			<desc>STATE_LOCATION_SEARCH_ACTIVE</desc>
			<path d="M0 18 A6 6 0 0 0 6 24 L374 24 A6 6 0 0 0 380 18 L380 6 A6 6 0 0 0 374 0 L6 0 A6 6 0 0 0 0 6 L0 18 Z" class="st1"/>
			<text x="10" y="17" class="st2">STATE_LOCATION_SEARCH_ACTIVE</text>
		</g>

		<!-- STATE_LOCATION_SEARCH_ACTIVE entry action -->
		<g id="shape-active-entry" v:mID="19" v:groupContext="shape" transform="translate(90,330)">
			<title>Sheet.active_entry</title>
			<desc>entry / location_request();</desc>
			<text x="0" y="10" class="st7">entry / location_request();</text>
		</g>

		<!-- Arrow from ACTIVE to INACTIVE (left side, going up) -->
		<g id="shape-active-to-inactive" v:mID="21" v:groupContext="shape" v:layerMember="0" transform="translate(190,221)">
			<title>Dynamic connector</title>
			<path d="M0 79 L0 0" class="st4"/>
		</g>

		<!-- LOCATION_SEARCH_DONE label -->
		<g id="shape-done-label" v:mID="22" v:groupContext="shape" transform="translate(60,255)">
			<title>Sheet.LOCATION_SEARCH_DONE</title>
			<desc>LOCATION_SEARCH_DONE</desc>
			<text x="0" y="10" class="st7">LOCATION_SEARCH_DONE</text>
		</g>

	</g>
</svg>
