<?xml version="1.0" encoding="UTF-8" standalone="no"?>
<!DOCTYPE svg PUBLIC "-//W3C//DTD SVG 1.1//EN" "http://www.w3.org/Graphics/SVG/1.1/DTD/svg11.dtd">
<!-- Generated by Microsoft Visio, SVG Export main_module_state_diagram.svg Page-1 -->
<svg xmlns="http://www.w3.org/2000/svg" xmlns:xlink="http://www.w3.org/1999/xlink" xmlns:ev="http://www.w3.org/2001/xml-events"
		xmlns:v="http://schemas.microsoft.com/visio/2003/SVGExtensions/" width="6.99628in" height="8.14914in"
		viewBox="0 0 503.732 586.738" xml:space="preserve" color-interpolation-filters="sRGB" class="st18">
	<v:documentProperties v:langID="1035" v:viewMarkup="false"/>

	<style type="text/css">
	<![CDATA[
		.st1 {fill:#d9e1e2;stroke:none;stroke-width:1}
		.st2 {fill:#00a9ce;stroke:none;stroke-width:1}
		.st3 {fill:#feffff;font-family:Arial;font-size:0.666664em}
		.st4 {fill:none;stroke:none;stroke-width:1}
		.st5 {fill:#000000;font-family:Arial;font-size:0.666664em}
		.st6 {fill:#333f48;stroke:#333f48;stroke-width:1}
		.st7 {marker-end:url(#mrkr4-16);stroke:#333f48;stroke-linecap:butt;stroke-width:1}
		.st8 {fill:#333f48;fill-opacity:1;stroke:#333f48;stroke-opacity:1;stroke-width:0.28409090909091}
		.st9 {font-size:1em}
		.st10 {fill:#000000;font-family:Arial;font-size:0.499992em}
		.st11 {marker-end:url(#mrkr4-42);stroke:#000000;stroke-linecap:butt;stroke-width:1}
		.st12 {fill:#000000;fill-opacity:1;stroke:#000000;stroke-opacity:1;stroke-width:0.28409090909091}
		.st13 {marker-start:url(#mrkr4-69);stroke:#000000;stroke-linecap:butt;stroke-width:1}
		.st14 {fill:#00a2c6;stroke:none;stroke-width:1}
		.st15 {fill:#768692;stroke:none;stroke-width:1}
		.st16 {fill:#ffffff;font-family:Arial;font-size:0.666664em}
		.st17 {fill:#ffffff;font-family:Arial;font-size:0.499992em}
		.st18 {fill:none;fill-rule:evenodd;font-size:12px;overflow:visible;stroke-linecap:square;stroke-miterlimit:3}
	]]>
	</style>

	<defs id="Markers">
		<g id="lend4">
			<path d="M 2 1 L 0 0 L 2 -1 L 2 1 " style="stroke:none"/>
		</g>
		<marker id="mrkr4-16" class="st8" v:arrowType="4" v:arrowSize="2" v:setback="7.04" refX="-7.04" orient="auto"
				markerUnits="strokeWidth" overflow="visible">
			<use xlink:href="#lend4" transform="scale(-3.52,-3.52) "/>
		</marker>
		<marker id="mrkr4-42" class="st12" v:arrowType="4" v:arrowSize="2" v:setback="6.68" refX="-6.68" orient="auto"
				markerUnits="strokeWidth" overflow="visible">
			<use xlink:href="#lend4" transform="scale(-3.52,-3.52) "/>
		</marker>
		<marker id="mrkr4-69" class="st12" v:arrowType="4" v:arrowSize="2" v:setback="6.68" refX="6.68" orient="auto"
				markerUnits="strokeWidth" overflow="visible">
			<use xlink:href="#lend4" transform="scale(3.52) "/>
		</marker>
	</defs>
	<g v:mID="0" v:index="1" v:groupContext="foregroundPage">
		<title>Page-1</title>
		<v:pageProperties v:drawingScale="0.0393701" v:pageScale="0.0393701" v:drawingUnits="24" v:shadowOffsetX="8.50394"
				v:shadowOffsetY="-8.50394"/>
		<v:layer v:name="Connector" v:index="0"/>
		<g id="shape171-1" v:mID="171" v:groupContext="shape" transform="translate(1,-1)">
			<title>Ellipse.1002</title>
			<v:userDefs>
				<v:ud v:nameU="visVersion" v:val="VT0(15):26"/>
			</v:userDefs>
			<path d="M0 410.28 A250.866 176.457 0 1 1 501.73 410.28 A250.866 176.457 0 0 1 -0 410.28 Z" class="st1"/>
		</g>
		<g id="shape213-3" v:mID="213" v:groupContext="shape" transform="translate(138.365,-257.739)">
			<title>Ellipse.195</title>
			<desc>STATE_FOTA_DOWNLOADING</desc>
			<v:userDefs>
				<v:ud v:nameU="visVersion" v:val="VT0(15):26"/>
			</v:userDefs>
			<v:textBlock v:margins="rect(4,4,4,4)" v:tabSpace="42.5197"/>
			<v:textRect cx="99.5238" cy="552.21" width="174.17" height="60.4247"/>
			<path d="M0 552.21 A99.5238 34.5284 0 0 1 199.05 552.21 A99.5238 34.5284 0 1 1 -0 552.21 Z" class="st2"/>
			<text x="40.85" y="554.67" class="st3" v:langID="1044"><v:paragraph v:horizAlign="1"/><v:tabList/>STATE_FOTA_DOWNLOADING</text>		</g>
		<g id="shape229-6" v:mID="229" v:groupContext="shape" transform="translate(219.268,-335.936)">
			<title>Sheet.229</title>
			<desc>STATE_FOTA</desc>
			<v:textBlock v:margins="rect(4,4,4,4)"/>
			<v:textRect cx="52.4409" cy="579.652" width="104.89" height="14.1732"/>
			<rect x="0" y="572.565" width="104.882" height="14.1732" class="st4"/>
			<text x="26.66" y="582.05" class="st5" v:langID="1044"><v:paragraph v:horizAlign="1" v:bulletSize="0.166667"/><v:tabList/>STATE_FOTA</text>		</g>
		<g id="shape230-9" v:mID="230" v:groupContext="shape" transform="translate(235.122,-343.022)">
			<title>Sheet.230</title>
			<ellipse cx="3.37077" cy="583.195" rx="3.37077" ry="3.54331" class="st6"/>
		</g>
		<g id="shape231-11" v:mID="231" v:groupContext="shape" v:layerMember="0" transform="translate(231.406,-343.022)">
			<title>Dynamic connector.58</title>
			<path d="M7.09 586.74 L7.09 595.93" class="st7"/>
		</g>
		<g id="shape234-17" v:mID="234" v:groupContext="shape" transform="translate(240.155,-170.174)">
			<title>Ellipse.234</title>
			<desc>STATE_FOTA_WAITING_FOR_NETWORK_DISCONNECT_TO_APPLY_IMAGE</desc>
			<v:userDefs>
				<v:ud v:nameU="visVersion" v:val="VT0(15):26"/>
			</v:userDefs>
			<v:textBlock v:margins="rect(4,4,4,4)" v:tabSpace="42.5197"/>
			<v:textRect cx="99.5238" cy="552.21" width="174.17" height="60.4247"/>
			<path d="M0 552.21 A99.5238 34.5284 0 1 1 199.05 552.21 A99.5238 34.5284 0 1 1 -0 552.21 Z" class="st2"/>
			<text x="18.85" y="549.69" class="st3" v:langID="1044"><v:paragraph v:horizAlign="1"/><v:tabList/>STATE_FOTA_WAITING_FOR_NETWORK_<tspan
						x="35.06" dy="1.223em" class="st9">DISCONNECT_TO_APPLY_IMAGE</tspan></text>		</g>
		<g id="shape241-21" v:mID="241" v:groupContext="shape" transform="translate(91.7087,-245.488)">
			<title>Sheet.241</title>
			<desc>FOTA_SUCESS_REBOOT_NEEDED</desc>
			<v:textBlock v:margins="rect(4,4,4,4)"/>
			<v:textRect cx="58.7669" cy="583.195" width="117.54" height="7.08661"/>
			<rect x="0" y="579.652" width="117.534" height="7.08661" class="st4"/>
			<text x="8.26" y="585" class="st10" v:langID="1044"><v:paragraph v:horizAlign="1" v:bulletSize="0.166667"/><v:tabList/>FOTA_SUCESS_REBOOT_NEEDED</text>		</g>
		<g id="shape246-24" v:mID="246" v:groupContext="shape" transform="translate(211.915,-93.126)">
			<title>Ellipse.246</title>
			<desc>STATE__FOTA_APPLYING_IMAGE</desc>
			<v:userDefs>
				<v:ud v:nameU="visVersion" v:val="VT0(15):26"/>
			</v:userDefs>
			<v:textBlock v:margins="rect(4,4,4,4)" v:tabSpace="42.5197"/>
			<v:textRect cx="99.5238" cy="552.21" width="174.17" height="60.4247"/>
			<path d="M0 552.21 A99.5238 34.5284 0 0 1 199.05 552.21 A99.5238 34.5284 0 1 1 0 552.21 Z" class="st2"/>
			<text x="34.17" y="554.67" class="st3" v:langID="1044"><v:paragraph v:horizAlign="1"/><v:tabList/>STATE__FOTA_APPLYING_IMAGE</text>		</g>
		<g id="shape256-27" v:mID="256" v:groupContext="shape" transform="translate(133.606,-11.4488)">
			<title>Ellipse.256</title>
			<desc>STATE_FOTA_REBOOTING</desc>
			<v:userDefs>
				<v:ud v:nameU="visVersion" v:val="VT0(15):26"/>
			</v:userDefs>
			<v:textBlock v:margins="rect(4,4,4,4)" v:tabSpace="42.5197"/>
			<v:textRect cx="99.5238" cy="545.9" width="174.17" height="71.4676"/>
			<path d="M0 545.9 A99.5238 40.8386 0 0 1 199.05 545.9 A99.5238 40.8386 0 1 1 0 545.9 Z" class="st2"/>
			<text x="47.52" y="548.36" class="st3" v:langID="1044"><v:paragraph v:horizAlign="1"/><v:tabList/>STATE_FOTA_REBOOTING</text>		</g>
		<g id="shape271-30" v:mID="271" v:groupContext="shape" transform="translate(358.522,-251.866)">
			<title>Sheet.271</title>
			<desc>FOTA_IMAGE_APPLY_NEEDED</desc>
			<v:textBlock v:margins="rect(4,4,4,4)"/>
			<v:textRect cx="52.4409" cy="583.195" width="104.89" height="7.08661"/>
			<rect x="0" y="579.652" width="104.882" height="7.08661" class="st4"/>
			<text x="7.59" y="585" class="st10" v:langID="1044"><v:paragraph v:horizAlign="1" v:bulletSize="0.166667"/><v:tabList/>FOTA_IMAGE_APPLY_NEEDED</text>		</g>
		<g id="shape272-33" v:mID="272" v:groupContext="shape" transform="translate(12.8678,-143.637)">
			<title>Ellipse.272</title>
			<desc>STATE_FOTA_WAITING_FOR_NETWORK_DISCONNECT</desc>
			<v:userDefs>
				<v:ud v:nameU="visVersion" v:val="VT0(15):26"/>
			</v:userDefs>
			<v:textBlock v:margins="rect(4,4,4,4)" v:tabSpace="42.5197"/>
			<v:textRect cx="99.5238" cy="552.21" width="174.17" height="60.4247"/>
			<path d="M0 552.21 A99.5238 34.5284 0 1 1 199.05 552.21 A99.5238 34.5284 0 1 1 -0 552.21 Z" class="st2"/>
			<text x="18.85" y="549.69" class="st3" v:langID="1044"><v:paragraph v:horizAlign="1"/><v:tabList/>STATE_FOTA_WAITING_FOR_NETWORK_<tspan
						x="73.08" dy="1.223em" class="st9">DISCONNECT</tspan></text>		</g>
		<g id="shape273-37" v:mID="273" v:groupContext="shape" v:layerMember="0" transform="translate(138.365,-292.267)">
			<title>Dynamic connector</title>
			<path d="M0 586.74 C-38.15 587.45 -45.27 610.2 -46.62 625.96 C-47.85 640.44 -44.21 649.02 -31.16 661.55 L-30.89 661.79"
					class="st11"/>
		</g>
		<g id="shape275-43" v:mID="275" v:groupContext="shape" transform="translate(45.3924,-365.868)">
			<title>Ellipse.275</title>
			<v:userDefs>
				<v:ud v:nameU="visVersion" v:val="VT0(15):26"/>
			</v:userDefs>
			<path d="M0 476.8 A202.222 109.935 0 1 1 404.44 476.8 A202.222 109.935 0 1 1 0 476.8 Z" class="st1"/>
		</g>
		<g id="shape277-45" v:mID="277" v:groupContext="shape" v:layerMember="0" transform="translate(112.392,-143.637)">
			<title>Dynamic connector.277</title>
			<path d="M0 586.74 C-20.68 613.15 -15.22 644.96 -4.83 661.38 C1.03 670.64 8.45 675.02 14.28 676.88 L14.63 676.94"
					class="st11"/>
		</g>
		<g id="shape278-50" v:mID="278" v:groupContext="shape" transform="translate(98.7953,-100.213)">
			<title>Sheet.278</title>
			<desc>NETWORK_DISCONNECTED</desc>
			<v:textBlock v:margins="rect(4,4,4,4)"/>
			<v:textRect cx="47.8485" cy="583.195" width="95.7" height="7.08661"/>
			<rect x="0" y="579.652" width="95.697" height="7.08661" class="st4"/>
			<text x="6.85" y="585" class="st10" v:langID="1044"><v:paragraph v:horizAlign="1" v:bulletSize="0.166667"/><v:tabList/>NETWORK_DISCONNECTED</text>		</g>
		<g id="shape279-53" v:mID="279" v:groupContext="shape" v:layerMember="0" transform="translate(439.202,-204.702)">
			<title>Dynamic connector.279</title>
			<path d="M0 586.74 C24.02 586.74 25.13 656.87 -21.22 663.31 L-21.57 663.34" class="st11"/>
		</g>
		<g id="shape280-58" v:mID="280" v:groupContext="shape" transform="translate(356.012,-156.906)">
			<title>Sheet.280</title>
			<desc>NETWORK_DISCONNECTED</desc>
			<v:textBlock v:margins="rect(4,4,4,4)"/>
			<v:textRect cx="47.8485" cy="583.195" width="95.7" height="7.08661"/>
			<rect x="0" y="579.652" width="95.697" height="7.08661" class="st4"/>
			<text x="6.85" y="585" class="st10" v:langID="1044"><v:paragraph v:horizAlign="1" v:bulletSize="0.166667"/><v:tabList/>NETWORK_DISCONNECTED</text>		</g>
		<g id="shape281-61" v:mID="281" v:groupContext="shape" transform="translate(339.084,-71.8661)">
			<title>Sheet.281</title>
			<desc>FOTA_SUCESS_REBOOT_NEEDED</desc>
			<v:textBlock v:margins="rect(4,4,4,4)"/>
			<v:textRect cx="58.7669" cy="583.195" width="117.54" height="7.08661"/>
			<rect x="0" y="579.652" width="117.534" height="7.08661" class="st4"/>
			<text x="8.26" y="585" class="st10" v:langID="1044"><v:paragraph v:horizAlign="1" v:bulletSize="0.166667"/><v:tabList/>FOTA_SUCESS_REBOOT_NEEDED</text>		</g>
		<g id="shape282-64" v:mID="282" v:groupContext="shape" v:layerMember="0" transform="translate(329.826,-52.2874)">
			<title>Dynamic connector.282</title>
			<path d="M8.14 582.69 L8.43 582.47 C10.47 580.12 12.57 577 14.01 573.61 C17.7 564.9 17 554.4 11.35 544.32" class="st13"/>
		</g>
		<g id="shape284-70" v:mID="284" v:groupContext="shape" transform="translate(168.162,-524.233)">
			<title>Ellipse.284</title>
			<desc>STATE_IDEAL</desc>
			<v:userDefs>
				<v:ud v:nameU="visVersion" v:val="VT0(15):26"/>
			</v:userDefs>
			<v:textBlock v:margins="rect(4,4,4,4)" v:tabSpace="42.5197"/>
			<v:textRect cx="73.7008" cy="570.567" width="128.98" height="28.2999"/>
			<path d="M0 570.57 A73.7008 16.1714 0 0 1 147.4 570.57 A73.7008 16.1714 0 0 1 0 570.57 Z" class="st2"/>
			<text x="47.03" y="573.03" class="st3" v:langID="1044"><v:paragraph v:horizAlign="1"/><v:tabList/>STATE_IDEAL</text>		</g>
		<g id="shape285-73" v:mID="285" v:groupContext="shape" transform="translate(227.772,-567.929)">
			<title>Sheet.285</title>
			<desc>STATE_RUNNING</desc>
			<v:textBlock v:margins="rect(4,4,4,4)"/>
			<v:textRect cx="52.4409" cy="579.652" width="104.89" height="14.1732"/>
			<rect x="0" y="572.565" width="104.882" height="14.1732" class="st4"/>
			<text x="18.66" y="582.05" class="st5" v:langID="1044"><v:paragraph v:horizAlign="1" v:bulletSize="0.166667"/><v:tabList/>STATE_RUNNING</text>		</g>
		<g id="shape288-76" v:mID="288" v:groupContext="shape" transform="translate(462.113,-567.929)">
			<title>Sheet.288</title>
			<ellipse cx="3.37077" cy="583.195" rx="3.37077" ry="3.54331" class="st6"/>
		</g>
		<g id="shape290-78" v:mID="290" v:groupContext="shape" transform="translate(112.969,-372.168)">
			<title>Ellipse.72</title>
			<v:userDefs>
				<v:ud v:nameU="visVersion" v:val="VT0(15):26"/>
			</v:userDefs>
			<path d="M0 526.06 A134.646 60.6757 0 0 1 269.29 526.06 A134.646 60.6757 0 1 1 0 526.06 Z" class="st14"/>
		</g>
		<g id="shape291-80" v:mID="291" v:groupContext="shape" transform="translate(176.748,-391.596)">
			<title>Ellipse.1005</title>
			<desc>STATE_WAIT_FOR_TRIGGER</desc>
			<v:userDefs>
				<v:ud v:nameU="visVersion" v:val="VT0(15):26"/>
			</v:userDefs>
			<v:textBlock v:margins="rect(4,4,4,4)"/>
			<v:textRect cx="73.7008" cy="570.567" width="128.98" height="28.2999"/>
			<path d="M0 570.57 A73.7008 16.1714 0 0 1 147.4 570.57 A73.7008 16.1714 0 0 1 0 570.57 Z" class="st15"/>
			<text x="21.73" y="572.97" class="st16" v:langID="1035"><v:paragraph v:horizAlign="2" v:bulletSize="0.166667"/><v:tabList/>STATE_<tspan
						class="st9" v:langID="1044">WAIT_FOR_TRIGGER</tspan></text>		</g>
		<g id="shape292-84" v:mID="292" v:groupContext="shape" transform="translate(175.621,-443.46)">
			<title>Ellipse.1151</title>
			<desc>STATE_SAMPLE_DATA</desc>
			<v:userDefs>
				<v:ud v:nameU="visVersion" v:val="VT0(15):26"/>
			</v:userDefs>
			<v:textBlock v:margins="rect(4,4,4,4)"/>
			<v:textRect cx="73.7008" cy="570.567" width="128.98" height="28.2999"/>
			<path d="M0 570.57 A73.7008 16.1714 0 0 1 147.4 570.57 A73.7008 16.1714 0 0 1 0 570.57 Z" class="st15"/>
			<text x="29.47" y="572.97" class="st16" v:langID="1035"><v:paragraph v:horizAlign="1" v:bulletSize="0.166667"/><v:tabList/>STATE_<tspan
						class="st9" v:langID="1044">SAMPLE_DATA</tspan></text>		</g>
		<g id="shape300-88" v:mID="300" v:groupContext="shape" transform="translate(237.157,-575.016)">
			<title>Sheet.300</title>
			<ellipse cx="3.37077" cy="583.195" rx="3.37077" ry="3.54331" class="st6"/>
		</g>
		<g id="shape301-90" v:mID="301" v:groupContext="shape" v:layerMember="0" transform="translate(233.441,-575.785)">
			<title>Dynamic connector.301</title>
			<path d="M7.09 586.74 L7.09 598.98" class="st7"/>
		</g>
		<g id="shape302-95" v:mID="302" v:groupContext="shape" v:layerMember="0" transform="translate(465.484,-567.929)">
			<title>Dynamic connector.302</title>
			<path d="M0 586.74 C-0 596.13 0 609.99 -7.67 617.03 C-13.99 622.83 -25.5 624.01 -35.26 624.25 L-35.62 624.25"
					class="st11"/>
		</g>
		<g id="shape306-100" v:mID="306" v:groupContext="shape" v:layerMember="0" transform="translate(164.113,-374.451)">
			<title>Dynamic connector.161</title>
			<path d="M5.17 586.74 C-26.32 592.82 -43.25 600.85 2.23 614.28 L2.58 614.38" class="st11"/>
		</g>
		<g id="shape308-105" v:mID="308" v:groupContext="shape" v:layerMember="0" transform="translate(318.449,-374.337)">
			<title>Dynamic connector.308</title>
			<path d="M13.68 586.77 L14.04 586.78 C33.44 588.8 41.16 606.66 7.17 613.69" class="st13"/>
		</g>
		<g id="shape309-110" v:mID="309" v:groupContext="shape" v:layerMember="0" transform="translate(287.299,-444.757)">
			<title>Dynamic connector.309</title>
			<path d="M6.38 588.73 L6.72 588.83 C20.89 594.8 26.54 608.05 14.17 612.39" class="st13"/>
		</g>
		<g id="shape310-115" v:mID="310" v:groupContext="shape" transform="translate(225.412,-429.74)">
			<title>Sheet.310</title>
			<desc>Time_trigger / button_press</desc>
			<v:textBlock v:margins="rect(4,4,4,4)"/>
			<v:textRect cx="42.0446" cy="583.195" width="84.09" height="7.08661"/>
			<rect x="0" y="579.652" width="84.0892" height="7.08661" class="st4"/>
			<text x="5.36" y="585" class="st17" v:langID="1044"><v:paragraph v:horizAlign="1" v:bulletSize="0.166667"/><v:tabList/>Time_trigger / button_press</text>		</g>
		<g id="shape311-118" v:mID="311" v:groupContext="shape" transform="translate(205.094,-493.52)">
			<title>Sheet.311</title>
			<desc>STATE_TRIGGERING</desc>
			<v:textBlock v:margins="rect(4,4,4,4)"/>
			<v:textRect cx="47.4394" cy="583.195" width="94.88" height="7.08661"/>
			<rect x="0" y="579.652" width="94.8788" height="7.08661" class="st4"/>
			<text x="6.99" y="585.6" class="st16" v:langID="1044"><v:paragraph v:horizAlign="1" v:bulletSize="0.166667"/><v:tabList/>STATE_TRIGGERING</text>		</g>
		<g id="shape313-121" v:mID="313" v:groupContext="shape" transform="translate(244.243,-486.433)">
			<title>Sheet.313</title>
			<ellipse cx="3.37077" cy="583.195" rx="3.37077" ry="3.54331" class="st6"/>
		</g>
		<g id="shape315-123" v:mID="315" v:groupContext="shape" v:layerMember="0" transform="translate(240.528,-474.032)">
			<title>Dynamic connector.315</title>
			<path d="M7.09 578.29 L7.09 577.93 L7.09 574.34" class="st13"/>
		</g>
		<g id="shape317-128" v:mID="317" v:groupContext="shape" v:layerMember="0" transform="translate(215.724,-445.664)">
			<title>Dynamic connector.317</title>
			<path d="M-3.54 586.74 C-32.28 596.3 -34.11 601.73 -17.01 610.31 L-16.68 610.46" class="st11"/>
		</g>
		<g id="shape318-133" v:mID="318" v:groupContext="shape" transform="translate(110.216,-439.917)">
			<title>Sheet.318</title>
			<desc>LOCATION_SEARCH_DONE</desc>
			<v:textBlock v:margins="rect(4,4,4,4)"/>
			<v:textRect cx="47.4394" cy="583.195" width="94.88" height="7.08661"/>
			<rect x="0" y="579.652" width="94.8788" height="7.08661" class="st4"/>
			<text x="7.6" y="585" class="st17" v:langID="1044"><v:paragraph v:horizAlign="1" v:bulletSize="0.166667"/><v:tabList/>LOCATION_SEARCH_DONE</text>		</g>
		<g id="shape320-136" v:mID="320" v:groupContext="shape" v:layerMember="0" transform="translate(292.163,-530.357)">
			<title>Dynamic connector.320</title>
			<path d="M11.39 589.7 L11.71 589.86 C21.07 595.95 29.1 607.78 8.77 613.04" class="st13"/>
		</g>
		<g id="shape321-141" v:mID="321" v:groupContext="shape" transform="translate(304.307,-517.146)">
			<title>Sheet.321</title>
			<desc>CLOUD_DISCONNECTED or CLOUD_CONNECTED_PAUSE</desc>
			<v:textBlock v:margins="rect(4,4,4,4)"/>
			<v:textRect cx="55.5971" cy="583.195" width="111.2" height="7.08661"/>
			<rect x="0" y="579.652" width="111.194" height="7.08661" class="st4"/>
			<text x="19.43" y="577.8" class="st10" v:langID="1044"><v:paragraph v:horizAlign="1" v:bulletSize="0.166667"/><v:tabList/>CLOUD_DISCONNECTED <v:newlineChar/><tspan
						x="52.93" dy="1.2em" class="st9">or<v:newlineChar/></tspan><tspan x="12.59" dy="1.2em" class="st9">CLOUD_CONNECTED_PAUSE</tspan></text>		</g>
		<g id="shape322-146" v:mID="322" v:groupContext="shape" v:layerMember="0" transform="translate(197.441,-528.718)">
			<title>Dynamic connector.322</title>
			<path d="M-6.52 586.74 C-12.1 590.07 -27.64 600.97 -13.85 610.58 L-13.53 610.75" class="st11"/>
		</g>
		<g id="shape325-151" v:mID="325" v:groupContext="shape" transform="translate(52.0236,-508.685)">
			<title>Sheet.325</title>
			<desc>CLOUD_CONNECTED_READY_TO_SEND</desc>
			<v:textBlock v:margins="rect(4,4,4,4)"/>
			<v:textRect cx="65.2277" cy="583.195" width="130.46" height="7.08661"/>
			<rect x="0" y="579.652" width="130.455" height="7.08661" class="st4"/>
			<text x="6.22" y="585" class="st10" v:langID="1044"><v:paragraph v:horizAlign="1" v:bulletSize="0.166667"/><v:tabList/>CLOUD_CONNECTED_READY_TO_SEND</text>		</g>
		<g id="shape326-154" v:mID="326" v:groupContext="shape" transform="translate(35.0157,-353.913)">
			<title>Sheet.326</title>
			<desc>FOTA_DOWNLOADING_UPDATE</desc>
			<v:textBlock v:margins="rect(4,4,4,4)"/>
			<v:textRect cx="54.5977" cy="583.195" width="109.2" height="7.08661"/>
			<rect x="0" y="579.652" width="109.195" height="7.08661" class="st4"/>
			<text x="8.09" y="585" class="st10" v:langID="1044"><v:paragraph v:horizAlign="1" v:bulletSize="0.166667"/><v:tabList/>FOTA_DOWNLOADING_UPDATE</text>		</g>
		<g id="shape328-157" v:mID="328" v:groupContext="shape" transform="translate(341.835,-360.449)">
			<title>Sheet.328</title>
			<desc>FOTA_DOWNLOADING_CANCELED or TIMED_OUT or FAILED</desc>
			<v:textBlock v:margins="rect(4,4,4,4)"/>
			<v:textRect cx="58.7669" cy="583.195" width="117.54" height="7.08661"/>
			<rect x="0" y="579.652" width="117.534" height="7.08661" class="st4"/>
			<text x="8.09" y="577.8" class="st10" v:langID="1044"><v:paragraph v:horizAlign="1" v:bulletSize="0.166667"/><v:tabList/>FOTA_DOWNLOADING_CANCELED<v:newlineChar/><tspan
						x="56.1" dy="1.2em" class="st9">or<v:newlineChar/></tspan><tspan x="26.6" dy="1.2em" class="st9">TIMED_OUT or FAILED</tspan></text>		</g>
		<g id="shape330-162" v:mID="330" v:groupContext="shape" v:layerMember="0" transform="translate(331.459,-292.267)">
			<title>Dynamic connector.330</title>
			<path d="M5.95 586.74 C12.29 586.74 23.4 588.94 29.46 595.85 C34.9 602.06 36.25 612.08 34.14 618.67 C31.9 625.7 25.72
						 628.83 14.16 636 L13.86 636.2" class="st11"/>
		</g>
	</g>
</svg>
