<?xml version="1.0" encoding="UTF-8" standalone="no"?>
<!DOCTYPE svg PUBLIC "-//W3C//DTD SVG 1.1//EN" "http://www.w3.org/Graphics/SVG/1.1/DTD/svg11.dtd">
<!-- Generated by Microsoft Visio, SVG Export main_module_state_diagram.svg Page-1 -->
<svg xmlns="http://www.w3.org/2000/svg" xmlns:xlink="http://www.w3.org/1999/xlink" xmlns:ev="http://www.w3.org/2001/xml-events"
		xmlns:v="http://schemas.microsoft.com/visio/2003/SVGExtensions/" width="7.82556in" height="8.31218in"
		viewBox="0 0 563.44 598.477" xml:space="preserve" color-interpolation-filters="sRGB" class="st22">
	<v:documentProperties v:langID="1035" v:viewMarkup="false"/>

	<style type="text/css">
	<![CDATA[
		.st1 {fill:#d9e1e2;stroke:none;stroke-width:1}
		.st2 {fill:#00a9ce;stroke:none;stroke-width:1}
		.st3 {fill:#feffff;font-family:Arial;font-size:0.666664em}
		.st4 {fill:none;stroke:none;stroke-width:1}
		.st5 {fill:#000000;font-family:Arial;font-size:0.666664em}
		.st6 {fill:#000000;stroke:#000000;stroke-width:1}
		.st7 {font-size:1em}
		.st8 {fill:#000000;font-family:Arial;font-size:0.499992em}
		.st9 {marker-end:url(#mrkr4-37);stroke:#000000;stroke-linecap:butt;stroke-width:1}
		.st10 {fill:#000000;fill-opacity:1;stroke:#000000;stroke-opacity:1;stroke-width:0.28409090909091}
		.st11 {marker-start:url(#mrkr4-57);stroke:#000000;stroke-linecap:butt;stroke-width:1}
		.st12 {fill:#0032a0;stroke:none;stroke-width:1}
		.st13 {fill:#333f48;stroke:#333f48;stroke-width:1}
		.st14 {marker-end:url(#mrkr4-89);stroke:#333f48;stroke-linecap:butt;stroke-width:1}
		.st15 {fill:#333f48;fill-opacity:1;stroke:#333f48;stroke-opacity:1;stroke-width:0.28409090909091}
		.st16 {fill:#feffff;font-family:Arial;font-size:0.499992em}
		.st17 {marker-start:url(#mrkr4-100);stroke:#333f48;stroke-linecap:butt;stroke-width:1}
		.st18 {marker-end:url(#mrkr4-106);stroke:#333f48;stroke-linecap:butt;stroke-width:1}
		.st19 {fill:#ffffff;font-family:Arial;font-size:0.666664em}
		.st20 {fill:#768692;stroke:none;stroke-width:1}
		.st21 {marker-end:url(#mrkr4-179);stroke:#000000;stroke-linecap:butt;stroke-width:1}
		.st22 {fill:none;fill-rule:evenodd;font-size:12px;overflow:visible;stroke-linecap:square;stroke-miterlimit:3}
	]]>
	</style>

	<defs id="Markers">
		<g id="lend4">
			<path d="M 2 1 L 0 0 L 2 -1 L 2 1 " style="stroke:none"/>
		</g>
		<marker id="mrkr4-37" class="st10" v:arrowType="4" v:arrowSize="2" v:setback="6.68" refX="-6.68" orient="auto"
				markerUnits="strokeWidth" overflow="visible">
			<use xlink:href="#lend4" transform="scale(-3.52,-3.52) "/>
		</marker>
		<marker id="mrkr4-57" class="st10" v:arrowType="4" v:arrowSize="2" v:setback="6.68" refX="6.68" orient="auto"
				markerUnits="strokeWidth" overflow="visible">
			<use xlink:href="#lend4" transform="scale(3.52) "/>
		</marker>
		<marker id="mrkr4-89" class="st15" v:arrowType="4" v:arrowSize="2" v:setback="7.04" refX="-7.04" orient="auto"
				markerUnits="strokeWidth" overflow="visible">
			<use xlink:href="#lend4" transform="scale(-3.52,-3.52) "/>
		</marker>
		<marker id="mrkr4-100" class="st15" v:arrowType="4" v:arrowSize="2" v:setback="6.68" refX="6.68" orient="auto"
				markerUnits="strokeWidth" overflow="visible">
			<use xlink:href="#lend4" transform="scale(3.52) "/>
		</marker>
		<marker id="mrkr4-106" class="st15" v:arrowType="4" v:arrowSize="2" v:setback="6.68" refX="-6.68" orient="auto"
				markerUnits="strokeWidth" overflow="visible">
			<use xlink:href="#lend4" transform="scale(-3.52,-3.52) "/>
		</marker>
		<marker id="mrkr4-179" class="st10" v:arrowType="4" v:arrowSize="2" v:setback="7.04" refX="-7.04" orient="auto"
				markerUnits="strokeWidth" overflow="visible">
			<use xlink:href="#lend4" transform="scale(-3.52,-3.52) "/>
		</marker>
	</defs>
	<g v:mID="0" v:index="1" v:groupContext="foregroundPage">
		<title>Page-1</title>
		<v:pageProperties v:drawingScale="0.0393701" v:pageScale="0.0393701" v:drawingUnits="24" v:shadowOffsetX="8.50394"
				v:shadowOffsetY="-8.50394"/>
		<v:layer v:name="Connector" v:index="0"/>
		<g id="shape275-1" v:mID="275" v:groupContext="shape" transform="translate(1,-244.071)">
			<title>Ellipse.275</title>
			<v:userDefs>
				<v:ud v:nameU="visVersion" v:val="VT0(15):26"/>
			</v:userDefs>
			<path d="M0 431.94 A280.72 166.535 0 1 1 561.44 431.94 A280.72 166.535 0 1 1 -0 431.94 Z" class="st1"/>
		</g>
		<g id="shape171-3" v:mID="171" v:groupContext="shape" transform="translate(102.486,-1)">
			<title>Ellipse.1002</title>
			<v:userDefs>
				<v:ud v:nameU="visVersion" v:val="VT0(15):26"/>
			</v:userDefs>
			<path d="M0 483.17 A201.63 115.305 0 0 1 403.26 483.17 A201.63 115.305 0 0 1 0 483.17 Z" class="st1"/>
		</g>
		<g id="shape213-5" v:mID="213" v:groupContext="shape" transform="translate(250.629,-160.084)">
			<title>Ellipse.195</title>
			<desc>DOWNLOADING</desc>
			<v:userDefs>
				<v:ud v:nameU="visVersion" v:val="VT0(15):26"/>
			</v:userDefs>
			<v:textBlock v:margins="rect(4,4,4,4)" v:tabSpace="42.5197"/>
			<v:textRect cx="40.2619" cy="577.379" width="70.46" height="36.9212"/>
			<path d="M0 577.38 A40.2619 21.0978 0 1 1 80.52 577.38 A40.2619 21.0978 0 1 1 0 577.38 Z" class="st2"/>
			<text x="9.59" y="579.84" class="st3" v:langID="1044"><v:paragraph v:horizAlign="1"/><v:tabList/>DOWNLOADING</text>		</g>
		<g id="shape229-8" v:mID="229" v:groupContext="shape" transform="translate(263.196,-219.762)">
			<title>Sheet.229</title>
			<desc>STATE_FOTA</desc>
			<v:textBlock v:margins="rect(4,4,4,4)"/>
			<v:textRect cx="44.1262" cy="594.147" width="88.26" height="8.66025"/>
			<rect x="0" y="589.817" width="88.2524" height="8.66025" class="st4"/>
			<text x="18.35" y="596.55" class="st5" v:langID="1044"><v:paragraph v:horizAlign="1" v:bulletSize="0.166667"/><v:tabList/>STATE_FOTA</text>		</g>
		<g id="shape230-11" v:mID="230" v:groupContext="shape" transform="translate(328.316,-213.396)">
			<title>Sheet.230</title>
			<ellipse cx="2.83632" cy="596.312" rx="2.83632" ry="2.16506" class="st6"/>
		</g>
		<g id="shape234-13" v:mID="234" v:groupContext="shape" transform="translate(278.866,-117.888)">
			<title>Ellipse.234</title>
			<desc>WAITING_FOR_NETWORK_DISCONNECT_TO_APPLY_IMAGE</desc>
			<v:userDefs>
				<v:ud v:nameU="visVersion" v:val="VT0(15):26"/>
			</v:userDefs>
			<v:textBlock v:margins="rect(4,4,4,4)" v:tabSpace="42.5197"/>
			<v:textRect cx="92.1808" cy="577.379" width="161.32" height="36.9212"/>
			<path d="M0 577.38 A92.1808 21.0978 0 1 1 184.36 577.38 A92.1808 21.0978 0 1 1 0 577.38 Z" class="st2"/>
			<text x="18.4" y="574.86" class="st3" v:langID="1044"><v:paragraph v:horizAlign="1"/><v:tabList/>WAITING_FOR_NETWORK_DISCONNE<tspan
						x="48.83" dy="1.223em" class="st7">CT_TO_APPLY_IMAGE</tspan></text>		</g>
		<g id="shape241-17" v:mID="241" v:groupContext="shape" transform="translate(179.416,-152.166)">
			<title>Sheet.241</title>
			<desc>FOTA_SUCCESS_REBOOT_NEEDED</desc>
			<v:textBlock v:margins="rect(4,4,4,4)"/>
			<v:textRect cx="57.0393" cy="596.312" width="114.08" height="4.33012"/>
			<rect x="0" y="594.147" width="114.079" height="4.33012" class="st4"/>
			<text x="4.36" y="598.11" class="st8" v:langID="1044"><v:paragraph v:horizAlign="1" v:bulletSize="0.166667"/><v:tabList/>FOTA_SUCCESS_REBOOT_NEEDED</text>		</g>
		<g id="shape246-20" v:mID="246" v:groupContext="shape" transform="translate(300.392,-59.501)">
			<title>Ellipse.246</title>
			<desc>APPLYING_IMAGE</desc>
			<v:userDefs>
				<v:ud v:nameU="visVersion" v:val="VT0(15):26"/>
			</v:userDefs>
			<v:textBlock v:margins="rect(4,4,4,4)" v:tabSpace="42.5197"/>
			<v:textRect cx="49.4491" cy="577.379" width="86.54" height="36.9212"/>
			<path d="M0 577.38 A49.4491 21.0978 0 1 1 98.9 577.38 A49.4491 21.0978 0 0 1 0 577.38 Z" class="st2"/>
			<text x="14.33" y="579.84" class="st3" v:langID="1044"><v:paragraph v:horizAlign="1"/><v:tabList/>APPLYING_IMAGE</text>		</g>
		<g id="shape256-23" v:mID="256" v:groupContext="shape" transform="translate(236.456,-9.59388)">
			<title>Ellipse.256</title>
			<desc>REBOOTING</desc>
			<v:userDefs>
				<v:ud v:nameU="visVersion" v:val="VT0(15):26"/>
			</v:userDefs>
			<v:textBlock v:margins="rect(4,4,4,4)" v:tabSpace="42.5197"/>
			<v:textRect cx="40.2619" cy="573.524" width="70.46" height="43.6687"/>
			<path d="M0 573.52 A40.2619 24.9536 0 0 1 80.52 573.52 A40.2619 24.9536 0 1 1 0 573.52 Z" class="st2"/>
			<text x="16.26" y="575.99" class="st3" v:langID="1044"><v:paragraph v:horizAlign="1"/><v:tabList/>REBOOTING</text>		</g>
		<g id="shape271-26" v:mID="271" v:groupContext="shape" transform="translate(361.18,-173.913)">
			<title>Sheet.271</title>
			<desc>FOTA_IMAGE_APPLY_NEEDED</desc>
			<v:textBlock v:margins="rect(4,4,4,4)"/>
			<v:textRect cx="52.2689" cy="596.312" width="104.54" height="4.33012"/>
			<rect x="0" y="594.147" width="104.538" height="4.33012" class="st4"/>
			<text x="7.42" y="598.11" class="st8" v:langID="1044"><v:paragraph v:horizAlign="1" v:bulletSize="0.166667"/><v:tabList/>FOTA_IMAGE_APPLY_NEEDED</text>		</g>
		<g id="shape272-29" v:mID="272" v:groupContext="shape" transform="translate(110.223,-90.3646)">
			<title>Ellipse.272</title>
			<desc>WAITING_FOR_NETWORK_DISCONNECT</desc>
			<v:userDefs>
				<v:ud v:nameU="visVersion" v:val="VT0(15):26"/>
			</v:userDefs>
			<v:textBlock v:margins="rect(4,4,4,4)" v:tabSpace="42.5197"/>
			<v:textRect cx="95.0846" cy="577.379" width="166.4" height="36.9212"/>
			<path d="M0 577.38 A95.0846 21.0978 0 0 1 190.17 577.38 A95.0846 21.0978 0 0 1 0 577.38 Z" class="st2"/>
			<text x="15.97" y="579.84" class="st3" v:langID="1044"><v:paragraph v:horizAlign="1"/><v:tabList/>WAITING_FOR_NETWORK_DISCONNECT</text>		</g>
		<g id="shape277-32" v:mID="277" v:groupContext="shape" v:layerMember="0" transform="translate(205.308,-90.3646)">
			<title>Dynamic connector.277</title>
			<path d="M0 598.48 C-0 612.43 0 634.91 6.74 645.32 C10.93 651.79 17.72 653.6 24.11 654.1 L24.47 654.11" class="st9"/>
		</g>
		<g id="shape278-38" v:mID="278" v:groupContext="shape" transform="translate(202.44,-63.8311)">
			<title>Sheet.278</title>
			<desc>NETWORK_DISCONNECTED</desc>
			<v:textBlock v:margins="rect(4,4,4,4)"/>
			<v:textRect cx="45.971" cy="596.312" width="91.95" height="4.33012"/>
			<rect x="0" y="594.147" width="91.942" height="4.33012" class="st4"/>
			<text x="4.97" y="598.11" class="st8" v:langID="1044"><v:paragraph v:horizAlign="1" v:bulletSize="0.166667"/><v:tabList/>NETWORK_DISCONNECTED</text>		</g>
		<g id="shape279-41" v:mID="279" v:groupContext="shape" v:layerMember="0" transform="translate(463.227,-138.986)">
			<title>Dynamic connector.279</title>
			<path d="M0 598.48 C19.02 598.48 19.57 653.54 -56.9 656.72 L-57.26 656.73" class="st9"/>
		</g>
		<g id="shape280-46" v:mID="280" v:groupContext="shape" transform="translate(365.604,-98.4721)">
			<title>Sheet.280</title>
			<desc>NETWORK_DISCONNECTED</desc>
			<v:textBlock v:margins="rect(4,4,4,4)"/>
			<v:textRect cx="52.2689" cy="596.312" width="104.54" height="4.33012"/>
			<rect x="0" y="594.147" width="104.538" height="4.33012" class="st4"/>
			<text x="11.27" y="598.11" class="st8" v:langID="1044"><v:paragraph v:horizAlign="1" v:bulletSize="0.166667"/><v:tabList/>NETWORK_DISCONNECTED</text>		</g>
		<g id="shape281-49" v:mID="281" v:groupContext="shape" transform="translate(363.322,-52.0236)">
			<title>Sheet.281</title>
			<desc>FOTA_SUCCESS_REBOOT_NEEDED</desc>
			<v:textBlock v:margins="rect(4,4,4,4)"/>
			<v:textRect cx="57.0393" cy="596.312" width="114.08" height="4.33012"/>
			<rect x="0" y="594.147" width="114.079" height="4.33012" class="st4"/>
			<text x="4.36" y="598.11" class="st8" v:langID="1044"><v:paragraph v:horizAlign="1" v:bulletSize="0.166667"/><v:tabList/>FOTA_SUCCESS_REBOOT_NEEDED</text>		</g>
		<g id="shape282-52" v:mID="282" v:groupContext="shape" v:layerMember="0" transform="translate(316.98,-34.5474)">
			<title>Dynamic connector.282</title>
			<path d="M6.68 598.45 L7.04 598.44 C18.5 598.29 32.74 597.46 40.02 592.85 C47.64 588.01 47.64 579.04 47.64 572.56"
					class="st11"/>
		</g>
		<g id="shape326-58" v:mID="326" v:groupContext="shape" transform="translate(130.019,-236.276)">
			<title>Sheet.326</title>
			<desc>FOTA_DOWNLOADING_UPDATE</desc>
			<v:textBlock v:margins="rect(4,4,4,4)"/>
			<v:textRect cx="54.7565" cy="596.312" width="109.52" height="4.33012"/>
			<rect x="0" y="594.147" width="109.513" height="4.33012" class="st4"/>
			<text x="8.25" y="598.11" class="st8" v:langID="1044"><v:paragraph v:horizAlign="1" v:bulletSize="0.166667"/><v:tabList/>FOTA_DOWNLOADING_UPDATE</text>		</g>
		<g id="shape328-61" v:mID="328" v:groupContext="shape" transform="translate(349.495,-232.693)">
			<title>Sheet.328</title>
			<desc>FOTA_DOWNLOADING_CANCELED or TIMED_OUT or FAILED</desc>
			<v:textBlock v:margins="rect(4,4,4,4)"/>
			<v:textRect cx="57.0393" cy="596.312" width="114.08" height="4.33012"/>
			<rect x="0" y="594.147" width="114.079" height="4.33012" class="st4"/>
			<text x="6.37" y="590.91" class="st8" v:langID="1044"><v:paragraph v:horizAlign="1" v:bulletSize="0.166667"/><v:tabList/>FOTA_DOWNLOADING_CANCELED<v:newlineChar/><tspan
						x="54.37" dy="1.2em" class="st7">or<v:newlineChar/></tspan><tspan x="24.87" dy="1.2em" class="st7">TIMED_OUT or FAILED</tspan></text>		</g>
		<g id="shape329-66" v:mID="329" v:groupContext="shape" v:layerMember="0" transform="translate(250.629,-181.182)">
			<title>Dynamic connector</title>
			<path d="M0 598.48 C-37.64 598.48 -61.76 600.92 -69.29 617.56 C-73.27 626.37 -72.6 639.17 -52.16 645.41 L-51.81 645.5"
					class="st9"/>
		</g>
		<g id="shape331-71" v:mID="331" v:groupContext="shape" transform="translate(28.8597,-274.465)">
			<title>Ellipse.331</title>
			<v:userDefs>
				<v:ud v:nameU="visVersion" v:val="VT0(15):26"/>
			</v:userDefs>
			<path d="M0 464.91 A160.618 133.563 0 0 1 321.24 464.91 A160.618 133.563 0 0 1 0 464.91 Z" class="st2"/>
		</g>
		<g id="shape332-73" v:mID="332" v:groupContext="shape" transform="translate(355.444,-312.96)">
			<title>Ellipse.332</title>
			<v:userDefs>
				<v:ud v:nameU="visVersion" v:val="VT0(15):26"/>
			</v:userDefs>
			<v:textBlock v:margins="rect(4,4,4,4)" v:tabSpace="42.5197"/>
			<path d="M0 499.34 A98.9126 99.138 0 1 1 197.83 499.34 A98.9126 99.138 0 1 1 0 499.34 Z" class="st2"/>
		</g>
		<g id="shape337-75" v:mID="337" v:groupContext="shape" transform="translate(390.358,-424.942)">
			<title>Ellipse.337</title>
			<desc>DISCONNECTED</desc>
			<v:userDefs>
				<v:ud v:nameU="visVersion" v:val="VT0(15):26"/>
			</v:userDefs>
			<v:textBlock v:margins="rect(4,4,4,4)"/>
			<v:textRect cx="65.1154" cy="577.379" width="113.96" height="36.9212"/>
			<path d="M0 577.38 A65.1154 21.0978 0 1 1 130.23 577.38 A65.1154 21.0978 0 1 1 0 577.38 Z" class="st12"/>
			<text x="33.11" y="579.78" class="st3" v:langID="1044"><v:paragraph v:horizAlign="1" v:bulletSize="0.166667"/><v:tabList/>DISCONNECTED</text>		</g>
		<g id="shape340-78" v:mID="340" v:groupContext="shape" transform="translate(240.428,-570.764)">
			<title>Sheet.340</title>
			<desc>STATE_RUNNING</desc>
			<v:textBlock v:margins="rect(4,4,4,4)"/>
			<v:textRect cx="44.1262" cy="596.312" width="88.26" height="4.33012"/>
			<rect x="0" y="594.147" width="88.2524" height="4.33012" class="st4"/>
			<text x="18.79" y="598.11" class="st8" v:langID="1044"><v:paragraph v:horizAlign="1" v:bulletSize="0.166667"/><v:tabList/>STATE_RUNNING</text>		</g>
		<g id="shape341-81" v:mID="341" v:groupContext="shape" transform="translate(278.884,-590.606)">
			<title>Sheet.341</title>
			<ellipse cx="2.83632" cy="596.312" rx="2.83632" ry="2.16506" class="st13"/>
		</g>
		<g id="shape342-83" v:mID="342" v:groupContext="shape" v:layerMember="0" transform="translate(274.633,-570.055)">
			<title>Dynamic connector.342</title>
		</g>
		<g id="shape346-84" v:mID="346" v:groupContext="shape" v:layerMember="0" transform="translate(274.633,-590.961)">
			<title>Dynamic connector.346</title>
			<path d="M7.09 598.83 L7.09 605.26" class="st14"/>
		</g>
		<g id="shape347-90" v:mID="347" v:groupContext="shape" transform="translate(159.253,-529.583)">
			<title>Sheet.347</title>
			<desc>STATE_BUFFER</desc>
			<v:textBlock v:margins="rect(4,4,4,4)"/>
			<v:textRect cx="31.7244" cy="596.312" width="63.45" height="4.33012"/>
			<rect x="0" y="594.147" width="63.4487" height="4.33012" class="st4"/>
			<text x="8.39" y="598.11" class="st16" v:langID="1044"><v:paragraph v:horizAlign="1" v:bulletSize="0.166667"/><v:tabList/>STATE_BUFFER</text>		</g>
		<g id="shape348-93" v:mID="348" v:groupContext="shape" transform="translate(281.141,-557.93)">
			<title>Sheet.348</title>
			<ellipse cx="2.83632" cy="596.312" rx="2.83632" ry="2.16506" class="st13"/>
		</g>
		<g id="shape349-95" v:mID="349" v:groupContext="shape" v:layerMember="0" transform="translate(189.478,-541.591)">
			<title>Dynamic connector.349</title>
			<path d="M0.3 591.8 L0.32 591.44 C0.63 589.28 1.24 587.29 2.44 585.72 C6.85 579.97 19.24 579.97 32.9 579.97 C50.79 579.97
						 70.87 579.97 94.5 579.97" class="st17"/>
		</g>
		<g id="shape351-101" v:mID="351" v:groupContext="shape" v:layerMember="0" transform="translate(286.814,-560.095)">
			<title>Dynamic connector.351</title>
			<path d="M0 598.48 C41.89 598.48 112.24 598.48 143.2 609.96 C163.08 617.34 166.73 629.45 167.39 640.3 L167.4 640.66"
					class="st18"/>
		</g>
		<g id="shape352-107" v:mID="352" v:groupContext="shape" transform="translate(188.581,-547.93)">
			<title>Sheet.352</title>
			<desc>If MODE_INITIAL_BUFFER</desc>
			<v:textBlock v:margins="rect(4,4,4,4)"/>
			<v:textRect cx="49.4491" cy="596.312" width="98.9" height="4.33012"/>
			<rect x="0" y="594.147" width="98.8982" height="4.33012" class="st4"/>
			<text x="12.44" y="598.11" class="st8" v:langID="1044"><v:paragraph v:horizAlign="1" v:bulletSize="0.166667"/><v:tabList/>If MODE_INITIAL_BUFFER</text>		</g>
		<g id="shape353-110" v:mID="353" v:groupContext="shape" transform="translate(326.472,-531.748)">
			<title>Sheet.353</title>
			<desc>If MODE_INITIAL_PASSTHROUGH</desc>
			<v:textBlock v:margins="rect(4,4,4,4)"/>
			<v:textRect cx="57.0393" cy="596.312" width="114.08" height="4.33012"/>
			<rect x="0" y="594.147" width="114.079" height="4.33012" class="st4"/>
			<text x="8.86" y="598.11" class="st8" v:langID="1044"><v:paragraph v:horizAlign="1" v:bulletSize="0.166667"/><v:tabList/>If MODE_INITIAL_PASSTHROUGH</text>		</g>
		<g id="shape354-113" v:mID="354" v:groupContext="shape" transform="translate(458.31,-371.083)">
			<title>Ellipse.354</title>
			<desc>CONNECTED_WAITIMG</desc>
			<v:userDefs>
				<v:ud v:nameU="visVersion" v:val="VT0(15):26"/>
			</v:userDefs>
			<v:textBlock v:margins="rect(4,4,4,4)"/>
			<v:textRect cx="40.2619" cy="577.379" width="70.46" height="36.9212"/>
			<path d="M0 577.38 A40.2619 21.0978 0 1 1 80.52 577.38 A40.2619 21.0978 0 1 1 0 577.38 Z" class="st12"/>
			<text x="12.7" y="574.98" class="st19" v:langID="1044"><v:paragraph v:horizAlign="1" v:bulletSize="0.166667"/><v:tabList/>CONNECTED_<tspan
						x="22.71" dy="1.2em" class="st7">WAITIMG</tspan></text>		</g>
		<g id="shape355-117" v:mID="355" v:groupContext="shape" transform="translate(383.19,-335.812)">
			<title>Ellipse.355</title>
			<desc>CONNECTED_SAMPLING</desc>
			<v:userDefs>
				<v:ud v:nameU="visVersion" v:val="VT0(15):26"/>
			</v:userDefs>
			<v:textBlock v:margins="rect(4,4,4,4)"/>
			<v:textRect cx="37.3867" cy="577.379" width="65.43" height="36.9212"/>
			<path d="M0 577.38 A37.3867 21.0978 0 1 1 74.77 577.38 A37.3867 21.0978 0 1 1 0 577.38 Z" class="st12"/>
			<text x="9.83" y="574.98" class="st19" v:langID="1044"><v:paragraph v:horizAlign="1" v:bulletSize="0.166667"/><v:tabList/>CONNECTED_<tspan
						x="16.72" dy="1.2em" class="st7">SAMPLING</tspan></text>		</g>
		<g id="shape358-121" v:mID="358" v:groupContext="shape" transform="translate(413.74,-498.48)">
			<title>Sheet.358</title>
			<desc>STATE_PASSTHROUGH</desc>
			<v:textBlock v:margins="rect(4,4,4,4)"/>
			<v:textRect cx="40.2619" cy="596.312" width="80.53" height="4.33012"/>
			<rect x="0" y="594.147" width="80.5238" height="4.33012" class="st4"/>
			<text x="5.76" y="598.11" class="st16" v:langID="1044"><v:paragraph v:horizAlign="1" v:bulletSize="0.166667"/><v:tabList/>STATE_PASSTHROUGH</text>		</g>
		<g id="shape359-124" v:mID="359" v:groupContext="shape" transform="translate(452.638,-482.89)">
			<title>Sheet.359</title>
			<ellipse cx="2.83632" cy="596.312" rx="2.83632" ry="2.16506" class="st13"/>
		</g>
		<g id="shape361-126" v:mID="361" v:groupContext="shape" v:layerMember="0" transform="translate(448.387,-482.89)">
			<title>Dynamic connector.361</title>
			<path d="M7.09 598.48 L7.09 607.19" class="st14"/>
		</g>
		<g id="shape367-131" v:mID="367" v:groupContext="shape" v:layerMember="0" transform="translate(389.679,-487.105)">
			<title>Dynamic connector.367</title>
			<path d="M0 598.48 C0 598.48 20.23 597.42 30.47 601.06 C37.54 603.57 39.84 608.33 40.59 613.01 L40.61 613.37"
					class="st18"/>
		</g>
		<g id="shape368-136" v:mID="368" v:groupContext="shape" transform="translate(347.271,-477.22)">
			<title>Sheet.368</title>
			<desc>CLOUD_DISCONNECTED</desc>
			<v:textBlock v:margins="rect(4,4,4,4)"/>
			<v:textRect cx="40.2619" cy="596.312" width="80.53" height="4.33012"/>
			<rect x="0" y="594.147" width="80.5238" height="4.33012" class="st4"/>
			<text x="4.09" y="598.11" class="st16" v:langID="1044"><v:paragraph v:horizAlign="1" v:bulletSize="0.166667"/><v:tabList/>CLOUD_DISCONNECTED</text>		</g>
		<g id="shape371-139" v:mID="371" v:groupContext="shape" v:layerMember="0" transform="translate(393.861,-446.039)">
			<title>Dynamic connector.371</title>
			<path d="M-3.5 598.48 C-23.34 598.48 -23.34 620.92 -23.34 643.36 C-23.34 660.79 -23.34 678.23 -17.14 684.83 L-16.81 684.98"
					class="st9"/>
		</g>
		<g id="shape373-144" v:mID="373" v:groupContext="shape" v:layerMember="0" transform="translate(420.577,-335.812)">
			<title>Dynamic connector.373</title>
			<path d="M0 598.48 C12.06 611.15 30.35 615.86 47.94 615.83 C64.35 615.79 80.16 611.61 78.43 570.23 L78.41 569.87"
					class="st9"/>
		</g>
		<g id="shape374-149" v:mID="374" v:groupContext="shape" transform="translate(339.537,-424.942)">
			<title>Sheet.374</title>
			<desc>CLOUD_CONNECTED</desc>
			<v:textBlock v:margins="rect(4,4,4,4)"/>
			<v:textRect cx="37.3867" cy="596.312" width="74.78" height="4.33012"/>
			<rect x="0" y="594.147" width="74.7734" height="4.33012" class="st4"/>
			<text x="6.22" y="598.11" class="st16" v:langID="1044"><v:paragraph v:horizAlign="1" v:bulletSize="0.166667"/><v:tabList/>CLOUD_CONNECTED</text>		</g>
		<g id="shape375-152" v:mID="375" v:groupContext="shape" transform="translate(379.605,-409.859)">
			<title>Sheet.375</title>
			<desc>TIMER_EXPIRED_SAMPLE_DATA || BUTTON_PRESS_SHORT</desc>
			<v:textBlock v:margins="rect(4,4,4,4)"/>
			<v:textRect cx="54.7565" cy="596.312" width="109.52" height="4.33012"/>
			<rect x="0" y="594.147" width="109.513" height="4.33012" class="st4"/>
			<text x="4.69" y="594.51" class="st16" v:langID="1044"><v:paragraph v:horizAlign="1" v:bulletSize="0.166667"/><v:tabList/>TIMER_EXPIRED_SAMPLE_DATA || <tspan
						x="18.42" dy="1.2em" class="st7">BUTTON_PRESS_SHORT</tspan></text>		</g>
		<g id="shape376-156" v:mID="376" v:groupContext="shape" transform="translate(403.554,-324.819)">
			<title>Sheet.376</title>
			<desc>LOCATION_SEARCH_DONE</desc>
			<v:textBlock v:margins="rect(4,4,4,4)"/>
			<v:textRect cx="54.7565" cy="596.312" width="109.52" height="4.33012"/>
			<rect x="0" y="594.147" width="109.513" height="4.33012" class="st4"/>
			<text x="14.92" y="598.11" class="st16" v:langID="1044"><v:paragraph v:horizAlign="1" v:bulletSize="0.166667"/><v:tabList/>LOCATION_SEARCH_DONE</text>		</g>
		<g id="shape377-159" v:mID="377" v:groupContext="shape" transform="translate(71.3794,-408.424)">
			<title>Ellipse.377</title>
			<v:userDefs>
				<v:ud v:nameU="visVersion" v:val="VT0(15):26"/>
			</v:userDefs>
			<path d="M0 539.68 A117.638 58.7973 0 0 1 235.28 539.68 A117.638 58.7973 0 1 1 0 539.68 Z" class="st12"/>
		</g>
		<g id="shape339-161" v:mID="339" v:groupContext="shape" transform="translate(91.5105,-442.318)">
			<title>Ellipse.339</title>
			<desc>DISCONNECTED_SAMPLING</desc>
			<v:userDefs>
				<v:ud v:nameU="visVersion" v:val="VT0(15):26"/>
			</v:userDefs>
			<v:textBlock v:margins="rect(4,4,4,4)"/>
			<v:textRect cx="44.1262" cy="577.379" width="77.23" height="36.9212"/>
			<path d="M0 577.38 A44.1262 21.0978 0 0 1 88.25 577.38 A44.1262 21.0978 0 1 1 0 577.38 Z" class="st20"/>
			<text x="9.9" y="574.98" class="st19" v:langID="1044"><v:paragraph v:horizAlign="1" v:bulletSize="0.166667"/><v:tabList/>DISCONNECTED_<tspan
						x="23.45" dy="1.2em" class="st7">SAMPLING</tspan></text>		</g>
		<g id="shape379-165" v:mID="379" v:groupContext="shape" transform="translate(202.638,-445.153)">
			<title>Ellipse.379</title>
			<desc>DISCONNECTED_WAITING</desc>
			<v:userDefs>
				<v:ud v:nameU="visVersion" v:val="VT0(15):26"/>
			</v:userDefs>
			<v:textBlock v:margins="rect(4,4,4,4)"/>
			<v:textRect cx="44.1262" cy="577.379" width="77.23" height="36.9212"/>
			<path d="M0 577.38 A44.1262 21.0978 0 0 1 88.25 577.38 A44.1262 21.0978 0 0 1 0 577.38 Z" class="st20"/>
			<text x="9.9" y="574.98" class="st19" v:langID="1044"><v:paragraph v:horizAlign="1" v:bulletSize="0.166667"/><v:tabList/>DISCONNECTED_<tspan
						x="27.02" dy="1.2em" class="st7">WAITING</tspan></text>		</g>
		<g id="shape380-169" v:mID="380" v:groupContext="shape" transform="translate(131.109,-513.915)">
			<title>Sheet.380</title>
			<desc>STATE_BUFFER_DISCONNECTED</desc>
			<v:textBlock v:margins="rect(4,4,4,4)"/>
			<v:textRect cx="57.0393" cy="596.312" width="114.08" height="4.33012"/>
			<rect x="0" y="594.147" width="114.079" height="4.33012" class="st4"/>
			<text x="8.03" y="598.11" class="st16" v:langID="1044"><v:paragraph v:horizAlign="1" v:bulletSize="0.166667"/><v:tabList/>STATE_BUFFER_DISCONNECTED</text>		</g>
		<g id="shape383-172" v:mID="383" v:groupContext="shape" transform="translate(111.728,-498.263)">
			<title>Sheet.383</title>
			<ellipse cx="2.83632" cy="596.312" rx="2.83632" ry="2.16506" class="st6"/>
		</g>
		<g id="shape384-174" v:mID="384" v:groupContext="shape" v:layerMember="0" transform="translate(107.478,-497.414)">
			<title>Dynamic connector.384</title>
			<path d="M7.09 598.48 L7.09 607.19" class="st21"/>
		</g>
		<g id="shape385-180" v:mID="385" v:groupContext="shape" v:layerMember="0" transform="translate(135.637,-478.845)">
			<title>Dynamic connector.385</title>
			<path d="M4.36 587.75 L4.6 587.48 C13.6 580.38 34.51 569.8 55.48 569.81 C83.26 569.81 111.13 588.39 111.13 589.97"
					class="st11"/>
		</g>
		<g id="shape386-185" v:mID="386" v:groupContext="shape" v:layerMember="0" transform="translate(135.637,-436.649)">
			<title>Dynamic connector.386</title>
			<path d="M0 592.81 C-0 595.98 30.5 612.64 58.27 612.65 C79.4 612.66 98.95 603.02 107.11 595.76 L107.32 595.46"
					class="st9"/>
		</g>
		<g id="shape387-190" v:mID="387" v:groupContext="shape" transform="translate(131.109,-488.342)">
			<title>Sheet.387</title>
			<desc>TIMER_EXPIRED_SAMPLE_DATA || BUTTON_PRESS_SHORT</desc>
			<v:textBlock v:margins="rect(4,4,4,4)"/>
			<v:textRect cx="57.0393" cy="596.312" width="114.08" height="4.33012"/>
			<rect x="0" y="594.147" width="114.079" height="4.33012" class="st4"/>
			<text x="6.97" y="594.51" class="st16" v:langID="1044"><v:paragraph v:horizAlign="1" v:bulletSize="0.166667"/><v:tabList/>TIMER_EXPIRED_SAMPLE_DATA || <tspan
						x="20.7" dy="1.2em" class="st7">BUTTON_PRESS_SHORT</tspan></text>		</g>
		<g id="shape388-194" v:mID="388" v:groupContext="shape" transform="translate(134.408,-415.311)">
			<title>Sheet.388</title>
			<desc>LOCATION_SEARCH_DONE</desc>
			<v:textBlock v:margins="rect(4,4,4,4)"/>
			<v:textRect cx="54.7565" cy="596.312" width="109.52" height="4.33012"/>
			<rect x="0" y="594.147" width="109.513" height="4.33012" class="st4"/>
			<text x="14.92" y="598.11" class="st16" v:langID="1044"><v:paragraph v:horizAlign="1" v:bulletSize="0.166667"/><v:tabList/>LOCATION_SEARCH_DONE</text>		</g>
		<g id="shape389-197" v:mID="389" v:groupContext="shape" transform="translate(72.0463,-280.134)">
			<title>Ellipse.389</title>
			<v:userDefs>
				<v:ud v:nameU="visVersion" v:val="VT0(15):26"/>
			</v:userDefs>
			<path d="M0 539.68 A117.638 58.7973 0 0 1 235.28 539.68 A117.638 58.7973 0 1 1 0 539.68 Z" class="st12"/>
		</g>
		<g id="shape390-199" v:mID="390" v:groupContext="shape" transform="translate(92.1774,-314.029)">
			<title>Ellipse.390</title>
			<desc>CONNECTED_SAMPLING</desc>
			<v:userDefs>
				<v:ud v:nameU="visVersion" v:val="VT0(15):26"/>
			</v:userDefs>
			<v:textBlock v:margins="rect(4,4,4,4)"/>
			<v:textRect cx="37.3867" cy="577.379" width="65.43" height="36.9212"/>
			<path d="M0 577.38 A37.3867 21.0978 0 1 1 74.77 577.38 A37.3867 21.0978 0 0 1 0 577.38 Z" class="st20"/>
			<text x="9.83" y="574.98" class="st19" v:langID="1044"><v:paragraph v:horizAlign="1" v:bulletSize="0.166667"/><v:tabList/>CONNECTED_<tspan
						x="16.72" dy="1.2em" class="st7">SAMPLING</tspan></text>		</g>
		<g id="shape391-203" v:mID="391" v:groupContext="shape" transform="translate(203.305,-316.863)">
			<title>Ellipse.391</title>
			<desc>CONNECTED_WAITING</desc>
			<v:userDefs>
				<v:ud v:nameU="visVersion" v:val="VT0(15):26"/>
			</v:userDefs>
			<v:textBlock v:margins="rect(4,4,4,4)"/>
			<v:textRect cx="40.2619" cy="577.379" width="70.46" height="36.9212"/>
			<path d="M0 577.38 A40.2619 21.0978 0 1 1 80.52 577.38 A40.2619 21.0978 0 1 1 0 577.38 Z" class="st20"/>
			<text x="12.7" y="574.98" class="st19" v:langID="1044"><v:paragraph v:horizAlign="1" v:bulletSize="0.166667"/><v:tabList/>CONNECTED_<tspan
						x="23.15" dy="1.2em" class="st7">WAITING</tspan></text>		</g>
		<g id="shape392-207" v:mID="392" v:groupContext="shape" transform="translate(131.776,-385.686)">
			<title>Sheet.392</title>
			<desc>STATE_BUFFER_CONNECTED</desc>
			<v:textBlock v:margins="rect(4,4,4,4)"/>
			<v:textRect cx="57.0393" cy="596.312" width="114.08" height="4.33012"/>
			<rect x="0" y="594.147" width="114.079" height="4.33012" class="st4"/>
			<text x="13.03" y="598.11" class="st16" v:langID="1044"><v:paragraph v:horizAlign="1" v:bulletSize="0.166667"/><v:tabList/>STATE_BUFFER_CONNECTED</text>		</g>
		<g id="shape393-210" v:mID="393" v:groupContext="shape" transform="translate(112.395,-369.974)">
			<title>Sheet.393</title>
			<ellipse cx="2.83632" cy="596.312" rx="2.83632" ry="2.16506" class="st6"/>
		</g>
		<g id="shape394-212" v:mID="394" v:groupContext="shape" v:layerMember="0" transform="translate(108.145,-371.083)">
			<title>Dynamic connector.394</title>
			<path d="M7.09 598.48 L7.09 607.19" class="st21"/>
		</g>
		<g id="shape395-217" v:mID="395" v:groupContext="shape" v:layerMember="0" transform="translate(129.564,-350.555)">
			<title>Dynamic connector.395</title>
			<path d="M5.62 589.2 L5.93 589.01 C17.53 581.85 41.15 569.1 64.84 569.85 C91.31 570.69 117.87 588.39 114 589.97"
					class="st11"/>
		</g>
		<g id="shape396-222" v:mID="396" v:groupContext="shape" v:layerMember="0" transform="translate(129.564,-308.359)">
			<title>Dynamic connector.396</title>
			<path d="M0 592.81 C6.74 597.04 38.67 614.49 67.61 613.68 C87.25 613.13 105.52 604.17 111.96 596.71 L112.07 596.37"
					class="st9"/>
		</g>
		<g id="shape397-227" v:mID="397" v:groupContext="shape" transform="translate(131.776,-360.053)">
			<title>Sheet.397</title>
			<desc>TIMER_EXPIRED_SAMPLE_DATA || BUTTON_PRESS_SHORT</desc>
			<v:textBlock v:margins="rect(4,4,4,4)"/>
			<v:textRect cx="57.0393" cy="596.312" width="114.08" height="4.33012"/>
			<rect x="0" y="594.147" width="114.079" height="4.33012" class="st4"/>
			<text x="6.97" y="594.51" class="st16" v:langID="1044"><v:paragraph v:horizAlign="1" v:bulletSize="0.166667"/><v:tabList/>TIMER_EXPIRED_SAMPLE_DATA || <tspan
						x="20.7" dy="1.2em" class="st7">BUTTON_PRESS_SHORT</tspan></text>		</g>
		<g id="shape398-231" v:mID="398" v:groupContext="shape" transform="translate(135.075,-287.021)">
			<title>Sheet.398</title>
			<desc>LOCATION_SEARCH_DONE</desc>
			<v:textBlock v:margins="rect(4,4,4,4)"/>
			<v:textRect cx="54.7565" cy="596.312" width="109.52" height="4.33012"/>
			<rect x="0" y="594.147" width="109.513" height="4.33012" class="st4"/>
			<text x="14.92" y="598.11" class="st16" v:langID="1044"><v:paragraph v:horizAlign="1" v:bulletSize="0.166667"/><v:tabList/>LOCATION_SEARCH_DONE</text>		</g>
		<g id="shape400-234" v:mID="400" v:groupContext="shape" v:layerMember="0" transform="translate(132.382,-413.363)">
			<title>Dynamic connector.400</title>
			<path d="M7.09 598.48 L7.09 612.7" class="st21"/>
		</g>
		<g id="shape401-239" v:mID="401" v:groupContext="shape" v:layerMember="0" transform="translate(232.204,-413.363)">
			<title>Dynamic connector.401</title>
			<path d="M7.09 605.16 L7.09 605.52 L7.09 619.74" class="st11"/>
		</g>
		<g id="shape402-244" v:mID="402" v:groupContext="shape" transform="translate(66.377,-404.189)">
			<title>Sheet.402</title>
			<desc>CLOUD_CONNECTED</desc>
			<v:textBlock v:margins="rect(4,4,4,4)"/>
			<v:textRect cx="37.3867" cy="596.312" width="74.78" height="4.33012"/>
			<rect x="0" y="594.147" width="74.7734" height="4.33012" class="st4"/>
			<text x="6.22" y="598.11" class="st16" v:langID="1044"><v:paragraph v:horizAlign="1" v:bulletSize="0.166667"/><v:tabList/>CLOUD_CONNECTED</text>		</g>
		<g id="shape403-247" v:mID="403" v:groupContext="shape" transform="translate(238.604,-397.729)">
			<title>Sheet.403</title>
			<desc>CLOUD_DISCONNECTED</desc>
			<v:textBlock v:margins="rect(4,4,4,4)"/>
			<v:textRect cx="40.2619" cy="596.312" width="80.53" height="4.33012"/>
			<rect x="0" y="594.147" width="80.5238" height="4.33012" class="st4"/>
			<text x="4.09" y="598.11" class="st16" v:langID="1044"><v:paragraph v:horizAlign="1" v:bulletSize="0.166667"/><v:tabList/>CLOUD_DISCONNECTED</text>		</g>
		<g id="shape404-250" v:mID="404" v:groupContext="shape" v:layerMember="0" transform="translate(240.593,-246.53)">
			<title>Dynamic connector.404</title>
			<path d="M-6.94 598.48 L-7.14 613.69" class="st21"/>
		</g>
		<g id="shape406-255" v:mID="406" v:groupContext="shape" v:layerMember="0" transform="translate(328.316,-216.007)">
			<title>Dynamic connector.406</title>
			<path d="M0 598.92 L-37.43 598.92 L-37.43 605.16" class="st21"/>
		</g>
		<g id="shape407-260" v:mID="407" v:groupContext="shape" v:layerMember="0" transform="translate(356.928,-249.032)">
			<title>Dynamic connector.407</title>
			<path d="M-7.03 605.16 L-7.03 605.52 L-7.24 620.73" class="st11"/>
		</g>
		<g id="shape413-265" v:mID="413" v:groupContext="shape" v:layerMember="0" transform="translate(498.572,-413.279)">
			<title>Dynamic connector.413</title>
			<path d="M0 598.48 C-0 592.14 -20.21 589.95 -38.64 589.82 C-58.21 589.67 -75.77 591.86 -77.8 626.71 L-77.81 627.07"
					class="st9"/>
		</g>
		<g id="shape414-270" v:mID="414" v:groupContext="shape" v:layerMember="0" transform="translate(331.153,-181.182)">
			<title>Dynamic connector.414</title>
			<path d="M0 598.48 C9.97 598.48 26.12 598.48 33.55 603.09 C37.33 605.43 38.86 608.96 39.47 612.55 L39.5 612.91"
					class="st9"/>
		</g>
	</g>
</svg>
