<?xml version="1.0" encoding="UTF-8" standalone="no"?>
<!DOCTYPE svg PUBLIC "-//W3C//DTD SVG 1.1//EN" "http://www.w3.org/Graphics/SVG/1.1/DTD/svg11.dtd">
<!-- Generated by Microsoft Visio, SVG Export main_module_state_diagram.svg Page-1 -->
<svg xmlns="http://www.w3.org/2000/svg" xmlns:xlink="http://www.w3.org/1999/xlink" xmlns:ev="http://www.w3.org/2001/xml-events"
		width="16.9143in" height="15.787in" viewBox="0 0 1217.83 1136.66" xml:space="preserve" color-interpolation-filters="sRGB"
		class="st13">
	<style type="text/css">
	<![CDATA[
		.st1 {fill:#ffffff;stroke:#000000;stroke-width:1}
		.st2 {fill:#000000;fill-opacity:1;stroke:#000000;stroke-opacity:1;stroke-width:0.28409090909091}
		.st3 {marker-end:url(#mrkr4-6);stroke:#000000;stroke-linecap:butt;stroke-width:1}
		.st4 {fill:none;stroke:none;stroke-linecap:butt;stroke-width:0.75}
		.st5 {fill:#000000;font-family:Arial;font-size:0.833336em}
		.st6 {fill:#000000;font-family:Arial;font-size:0.666664em}
		.st7 {fill:#ffffff;stroke:none;stroke-linecap:butt;stroke-width:0.75}
		.st8 {fill:#000000;stroke:#000000;stroke-width:1}
		.st9 {fill:none;stroke:none;stroke-width:1}
		.st10 {font-size:1em}
		.st11 {marker-start:url(#mrkr4-289);stroke:#000000;stroke-linecap:butt;stroke-width:1}
		.st12 {fill:#000000;fill-opacity:1;stroke:#000000;stroke-opacity:1;stroke-width:0.35714285714286}
		.st13 {fill:none;fill-rule:evenodd;font-size:12px;overflow:visible;stroke-linecap:square;stroke-miterlimit:3}
	]]>
	</style>

	<defs id="Markers">
		<g id="lend4">
			<path d="M 2 1 L 0 0 L 2 -1 L 2 1 " style="stroke:none"/>
		</g>
		<marker id="mrkr4-6" class="st2" refX="-7.04" orient="auto" markerUnits="strokeWidth" overflow="visible">
			<use xlink:href="#lend4" transform="scale(-3.52,-3.52) "/>
		</marker>
		<marker id="mrkr4-289" class="st12" refX="5.24" orient="auto" markerUnits="strokeWidth" overflow="visible">
			<use xlink:href="#lend4" transform="scale(2.8) "/>
		</marker>
	</defs>
	<g>
		<title>Page-1</title>
		<g id="shape1104-1" transform="translate(1,-393.25)">
			<title>Sheet.1104</title>
			<path d="M0 1059.15 A36.4757 77.509 -180 0 0 36.47 1136.66 L1179.35 1136.66 A36.4757 77.509 -180 0 0 1215.83 1059.15
						 L1215.83 503.69 A36.4757 77.509 -180 0 0 1179.35 426.18 L36.47 426.18 A36.4757 77.509 -180 0 0 0 503.69
						 L0 1059.15 Z" class="st1"/>
		</g>
		<g id="shape1007-3" transform="translate(40.4488,-414.365)">
			<title>Sheet.1007</title>
			<path d="M0 1071.34 A17.0543 65.3202 -180 0 0 11.82 1133.51 A8.50394 8.50394 -180 0 0 18.43 1136.66 L550.04 1136.66 A8.50394
						 8.50394 -180 0 0 556.65 1133.51 A17.0543 65.3202 -180 0 0 568.46 1071.34 L568.46 603.23 A17.0543 65.3202
						 -180 0 0 556.65 541.06 A8.50394 8.50394 -180 0 0 550.04 537.91 L18.43 537.91 A8.50394 8.50394 -180 0 0 11.82
						 541.06 A17.0543 65.3202 -180 0 0 0 603.23 L0 1071.34 Z" class="st1"/>
		</g>
		<g id="shape206-7" transform="translate(122.417,-1)">
			<title>Sheet.206</title>
			<path d="M-0 1131.67 A5.02792 4.99352 -180 0 0 5.03 1136.66 L454.66 1136.66 A5.02792 4.99352 -180 0 0 459.69 1131.67
						 L459.69 784.98 A5.02792 4.99352 -180 0 0 454.66 779.99 L5.03 779.99 A5.02792 4.99352 -180 0 0 0 784.98 L0
						 1131.67 Z" class="st1"/>
		</g>
		<g id="shape24-9" transform="translate(383.624,-1041.15)">
			<title>Dynamic connector.24</title>
			<path d="M0 1136.66 L-187.07 1136.66 L-187.07 1156.73" class="st3"/>
		</g>
		<g id="shape207-14" transform="translate(122.417,-345.135)">
			<title>Sheet.207</title>
			<path d="M2.87 1136.42 A4.30965 4.17916 -180 0 0 4.31 1136.66 L455.38 1136.66 A4.30965 4.17916 -180 0 0 456.82 1136.42
						 A4.25197 4.25197 -180 0 0 459.69 1132.4 L459.69 1128.3 A4.30965 4.17916 -180 0 0 455.38 1124.12 L4.31 1124.12
						 A4.30965 4.17916 -180 0 0 2.87 1124.36 A4.25197 4.25197 -180 0 0 0 1128.39 L0 1132.4 A4.25197 4.25197 -180
						 0 0 2.87 1136.42 Z" class="st1"/>
		</g>
		<g id="shape208-16" transform="translate(128.682,-346.478)">
			<title>Sheet.208</title>
			<desc>STATE_FOTA</desc>
			<rect x="0" y="1128.3" width="87.8702" height="8.35812" class="st4"/>
			<text x="0" y="1135.48" class="st5">STATE_FOTA</text>		</g>
		<g id="shape209-19" transform="translate(128.682,-334.5)">
			<title>Sheet.209</title>
			<desc>entry / cancel sampling; led_set(FOTA_PATTERN)</desc>
			<rect x="0" y="1130.81" width="202.074" height="5.85068" class="st4"/>
			<text x="0" y="1136.14" class="st6">entry / cancel sampling; led_set(FOTA_PATTERN)</text>		</g>
		<g id="shape215-22" transform="translate(260.466,-275.152)">
			<title>Sheet.215</title>
			<path d="M1.97 1135.83 A4.89566 4.17916 -180 0 0 4.9 1136.66 L158.29 1136.66 A4.89566 4.17916 -180 0 0 161.22 1135.83
						 A4.25197 4.25197 -180 0 0 163.18 1132.25 L163.18 1102.53 A4.89566 4.17916 -180 0 0 158.29 1098.35 L4.9 1098.35
						 A4.89566 4.17916 -180 0 0 1.97 1099.18 A4.25197 4.25197 -180 0 0 -0 1102.77 L-0 1132.25 A4.25197 4.25197
						 -180 0 0 1.97 1135.83 Z" class="st1"/>
		</g>
		<g id="shape216-24" transform="translate(260.466,-298.397)">
			<title>Sheet.216</title>
			<desc>STATE_FOTA_DOWNLOADING</desc>
			<path d="M0 1131.35 A4.89566 5.31617 -180 0 0 4.9 1136.66 L158.29 1136.66 A4.89566 5.31617 -180 0 0 163.18 1131.35 L163.18
						 1126.92 A4.89566 5.31617 -180 0 0 158.29 1121.6 L4.9 1121.6 A4.89566 5.31617 -180 0 0 0 1126.92 L0 1131.35
						 Z" class="st1"/>
			<text x="4" y="1132.13" class="st5">STATE_FOTA_DOWNLOADING</text>		</g>
		<g id="shape218-27" transform="translate(264.221,-289.291)">
			<title>Sheet.218</title>
			<desc>Do nothing</desc>
			<rect x="0" y="1128.3" width="43.9455" height="8.35812" class="st4"/>
			<text x="0" y="1134.88" class="st6">Do nothing</text>		</g>
		<g id="shape219-30" transform="translate(131.43,-204.44)">
			<title>Sheet.219</title>
			<path d="M2.21 1135.36 A8.02621 4.17916 -180 0 0 8.03 1136.66 L272.88 1136.66 A8.02621 4.17916 -180 0 0 278.7 1135.36
						 A4.25197 4.25197 -180 0 0 280.91 1131.63 L280.91 1099.9 A4.25197 4.25197 -180 0 0 278.7 1096.17 A8.02621
						 4.17916 -180 0 0 272.88 1094.87 L8.03 1094.87 A8.02621 4.17916 -180 0 0 2.21 1096.17 A4.25197 4.25197 -180
						 0 0 0 1099.9 L0 1131.63 A4.25197 4.25197 -180 0 0 2.21 1135.36 Z" class="st1"/>
		</g>
		<g id="shape220-32" transform="translate(131.43,-231.168)">
			<title>Sheet.220</title>
			<desc>STATE_FOTA_WAITING_FOR_NETWORK_DISCONNECT</desc>
			<path d="M0.92 1133.82 A8.02621 5.31617 -180 0 0 8.03 1136.66 L272.88 1136.66 A8.02621 5.31617 -180 0 0 279.99 1133.82
						 A4.25197 4.25197 -180 0 0 280.91 1131.18 L280.91 1127.09 A4.25197 4.25197 -180 0 0 279.99 1124.44 A8.02621
						 5.31617 -180 0 0 272.88 1121.6 L8.03 1121.6 A8.02621 5.31617 -180 0 0 0.92 1124.44 A4.25197 4.25197 -180
						 0 0 -0 1127.09 L-0 1131.18 A4.25197 4.25197 -180 0 0 0.92 1133.82 Z" class="st1"/>
			<text x="6.55" y="1132.13" class="st5">STATE_FOTA_WAITING_FOR_NETWORK_DISCONNECT</text>		</g>
		<g id="shape222-35" transform="translate(140.215,-222.409)">
			<title>Sheet.222</title>
			<desc>entry / send_event(NETWORK_DISCONNECT)</desc>
			<rect x="0" y="1130.81" width="202.074" height="5.85068" class="st4"/>
			<text x="0" y="1138.01" class="st6">entry / send_event(NETWORK_DISCONNECT)</text>		</g>
		<g id="shape227-38" transform="translate(222.565,-261.563)">
			<title>Sheet.227</title>
			<desc>FOTA_SUCCESS_REBOOT_NEEDED</desc>
			<rect x="0" y="1130.81" width="145.659" height="5.85068" class="st4"/>
			<text x="0" y="1136.14" class="st6">FOTA_SUCCESS_REBOOT_NEEDED</text>		</g>
		<g id="shape228-41" transform="translate(202.72,-123.663)">
			<title>Sheet.228</title>
			<path d="M7.46 1136.47 A10.6778 4.17916 -180 0 0 10.68 1136.66 L363.04 1136.66 A10.6778 4.17916 -180 0 0 366.25 1136.47
						 A8.50394 8.50394 -180 0 0 373.71 1128.03 L373.71 1100.24 A4.25197 4.25197 -180 0 0 371.29 1096.4 A10.6778
						 4.17916 -180 0 0 363.04 1094.87 L10.68 1094.87 A10.6778 4.17916 -180 0 0 7.46 1095.07 A8.50394 8.50394 -180
						 0 0 -0 1103.5 L-0 1128.03 A8.50394 8.50394 -180 0 0 7.46 1136.47 Z" class="st1"/>
		</g>
		<g id="shape229-43" transform="translate(202.72,-147.964)">
			<title>Sheet.229</title>
			<desc>STATE_FOTA_WAITING_FOR_NETWORK_DISCONNECT_TO_APPLY_IMAGE</desc>
			<path d="M6.44 1136.16 A10.6778 6.17287 -180 0 0 10.68 1136.66 L363.04 1136.66 A10.6778 6.17287 -180 0 0 373 1132.71
						 A4.25197 4.25197 -180 0 0 373.71 1130.35 L373.71 1125.48 A4.25197 4.25197 -180 0 0 373 1123.13 A10.6778
						 6.17287 -180 0 0 363.04 1119.17 L10.68 1119.17 A10.6778 6.17287 -180 0 0 0.71 1123.13 A4.25197 4.25197 -180
						 0 0 -0 1125.48 L-0 1127.9 A8.50394 8.50394 -180 0 0 6.44 1136.16 Z" class="st1"/>
			<text x="4" y="1132.17" class="st5">STATE_FOTA_WAITING_FOR_NETWORK_DISCONNECT_TO_APPLY_IMAGE</text>		</g>
		<g id="shape231-46" transform="translate(211.391,-137.063)">
			<title>Sheet.231</title>
			<desc>entry / send_event(NETWORK_DISCONNECT)</desc>
			<rect x="0" y="1130.81" width="202.074" height="5.85068" class="st4"/>
			<text x="0" y="1138.01" class="st6">entry / send_event(NETWORK_DISCONNECT)</text>		</g>
		<g id="shape236-49" transform="translate(454.543,-240.379)">
			<title>Sheet.236</title>
			<desc>FOTA_IMAGE_APPLY_NEEDED</desc>
			<rect x="0" y="1130.81" width="121.239" height="5.85068" class="st4"/>
			<text x="0" y="1136.14" class="st6">FOTA_IMAGE_APPLY_NEEDED</text>		</g>
		<g id="shape237-52" transform="translate(364.47,-47.9867)">
			<title>Sheet.237</title>
			<path d="M2 1135.63 A5.83723 4.17916 -180 0 0 5.84 1136.66 L169.28 1136.66 A5.83723 4.17916 -180 0 0 173.11 1135.63 A4.25197
						 4.25197 -180 0 0 175.11 1132.03 L175.11 1092.08 A5.83723 4.17916 -180 0 0 169.28 1087.91 L5.84 1087.91 A5.83723
						 4.17916 -180 0 0 2 1088.94 A4.25197 4.25197 -180 0 0 -0 1092.54 L-0 1132.03 A4.25197 4.25197 -180 0 0 2
						 1135.63 Z" class="st1"/>
		</g>
		<g id="shape238-54" transform="translate(364.47,-81.6803)">
			<title>Sheet.238</title>
			<path d="M0 1131.35 A5.83723 5.31617 -180 0 0 5.84 1136.66 L169.28 1136.66 A5.83723 5.31617 -180 0 0 175.11 1131.35 L175.11
						 1126.92 A5.83723 5.31617 -180 0 0 169.28 1121.6 L5.84 1121.6 A5.83723 5.31617 -180 0 0 0 1126.92 L0 1131.35
						 Z" class="st1"/>
		</g>
		<g id="shape239-56" transform="translate(368.225,-86.0394)">
			<title>Sheet.239</title>
			<desc>STATE_FOTA_APPLYING_IMAGE</desc>
			<rect x="0" y="1129.14" width="163.185" height="7.52231" class="st4"/>
			<text x="0" y="1135.9" class="st5">STATE_FOTA_APPLYING_IMAGE</text>		</g>
		<g id="shape240-59" transform="translate(368.225,-71.8661)">
			<title>Sheet.240</title>
			<desc>entry / send_event(FOTA_IMAGE_APPLY)</desc>
			<rect x="0" y="1130.81" width="163.185" height="5.85068" class="st4"/>
			<text x="0" y="1136.14" class="st6">entry / send_event(FOTA_IMAGE_APPLY)</text>		</g>
		<g id="shape246-62" transform="translate(197.467,-12.3875)">
			<title>Sheet.246</title>
			<path d="M1.97 1135.84 A4.85543 4.17916 -180 0 0 4.86 1136.66 L140.8 1136.66 A4.85543 4.17916 -180 0 0 143.69 1135.84
						 A4.25197 4.25197 -180 0 0 145.66 1132.26 L145.66 1099.05 A4.85543 4.17916 -180 0 0 140.8 1094.87 L4.86 1094.87
						 A4.85543 4.17916 -180 0 0 1.97 1095.69 A4.25197 4.25197 -180 0 0 -0 1099.28 L-0 1132.26 A4.25197 4.25197
						 -180 0 0 1.97 1135.84 Z" class="st1"/>
		</g>
		<g id="shape247-64" transform="translate(197.467,-39.116)">
			<title>Sheet.247</title>
			<path d="M-0 1131.35 A4.85543 5.31617 -180 0 0 4.86 1136.66 L140.8 1136.66 A4.85543 5.31617 -180 0 0 145.66 1131.35 L145.66
						 1126.92 A4.85543 5.31617 -180 0 0 140.8 1121.6 L4.86 1121.6 A4.85543 5.31617 -180 0 0 0 1126.92 L0 1131.35
						 Z" class="st1"/>
		</g>
		<g id="shape248-66" transform="translate(200.88,-42.0996)">
			<title>Sheet.248</title>
			<desc>STATE_FOTA_REBOOTING</desc>
			<rect x="0" y="1129.14" width="131.774" height="7.52231" class="st7"/>
			<text x="0" y="1135.9" class="st5">STATE_FOTA_REBOOTING</text>		</g>
		<g id="shape249-69" transform="translate(202.72,-25.8368)">
			<title>Sheet.249</title>
			<desc>entry / sys_reboot()</desc>
			<rect x="0" y="1130.81" width="87.8702" height="5.85068" class="st4"/>
			<text x="0" y="1136.14" class="st6">entry / sys_reboot()</text>		</g>
		<g id="shape254-72" transform="translate(436.871,-106.209)">
			<title>Sheet.254</title>
			<desc>NETWORK_DISCONNECTED</desc>
			<rect x="0" y="1130.81" width="112.949" height="5.85068" class="st4"/>
			<text x="0" y="1136.14" class="st6">NETWORK_DISCONNECTED</text>		</g>
		<g id="shape263-75" transform="translate(377.832,-15.9503)">
			<title>Sheet.263</title>
			<desc>FOTA_SUCCESS_REBOOT_NEEDED</desc>
			<rect x="0" y="1130.81" width="145.659" height="5.85068" class="st4"/>
			<text x="0" y="1136.14" class="st6">FOTA_SUCCESS_REBOOT_NEEDED</text>		</g>
		<g id="shape277-78" transform="translate(330.583,-332.405)">
			<title>Dynamic connector.277</title>
			<path d="M-1.43 1136.66 L-12.74 1136.66 L-12.74 1148.1" class="st3"/>
		</g>
		<g id="shape278-83" transform="translate(329.154,-330.311)">
			<title>Initial state.278</title>
			<ellipse cx="1.60182" cy="1134.57" rx="1.60182" ry="2.09482" class="st8"/>
		</g>
		<g id="shape295-85" transform="translate(259.818,-290.104)">
			<title>Dynamic connector.295</title>
			<path d="M0 1136.66 L-39.6 1136.66 L-39.6 1173.11" class="st3"/>
		</g>
		<g id="shape296-90" transform="translate(426.197,-289.432)">
			<title>Dynamic connector.296</title>
			<path d="M0 1136.66 L26.35 1136.66 L26.35 1253.6" class="st3"/>
		</g>
		<g id="shape298-95" transform="translate(441.236,-124.02)">
			<title>Dynamic connector.298</title>
			<path d="M-6.82 1136.66 L-7.22 1156.9" class="st3"/>
		</g>
		<g id="shape299-100" transform="translate(164.965,-204.44)">
			<title>Dynamic connector.299</title>
			<path d="M0 1136.66 L0 1309.39 L24.59 1309.39" class="st3"/>
		</g>
		<g id="shape300-105" transform="translate(167.152,-87.7765)">
			<title>Sheet.300</title>
			<desc>NETWORK_DISCONNECTED</desc>
			<rect x="0" y="1130.81" width="121.239" height="5.85068" class="st4"/>
			<text x="0" y="1136.14" class="st6">NETWORK_DISCONNECTED</text>		</g>
		<g id="shape302-108" transform="translate(447.876,-47.9867)">
			<title>Dynamic connector.302</title>
			<path d="M0 1136.66 L0 1155.99 L-97.71 1155.99" class="st3"/>
		</g>
		<g id="shape1002-113" transform="translate(26.2756,-1084.73)">
			<title>Sheet.1002</title>
			<desc>STATE_RUNNING</desc>
			<path d="M6.26 1136.06 A10.8959 6.33348 -180 0 0 10.9 1136.66 L1151.31 1136.66 A10.8959 6.33348 -180 0 0 1155.94 1136.06
						 A8.50394 8.50394 -180 0 0 1162.2 1127.86 L1162.2 1124.1 A4.25197 4.25197 -180 0 0 1161.61 1121.93 A10.8959
						 6.33348 -180 0 0 1151.31 1117.66 L10.9 1117.66 A10.8959 6.33348 -180 0 0 6.26 1118.26 A8.50394 8.50394 -180
						 0 0 -0 1126.47 L-0 1127.86 A8.50394 8.50394 -180 0 0 6.26 1136.06 Z" class="st1"/>
			<text x="4" y="1130.16" class="st5">STATE_RUNNING</text>		</g>
		<g id="shape1003-116" transform="translate(547.85,-1128.79)">
			<title>Dynamic connector.1003</title>
			<path d="M0 1136.66 L0 1139.59 L28.35 1139.59 L28.35 1153.92" class="st3"/>
		</g>
		<g id="shape1008-121" transform="translate(49.8977,-991.215)">
			<title>Sheet.1008</title>
			<desc>STATE_BUFFER</desc>
			<path d="M4.79 1134.31 A16.4697 7.9539 -180 0 0 16.47 1136.66 L532.51 1136.66 A16.4697 7.9539 -180 0 0 544.19 1134.31
						 A8.50394 8.50394 -180 0 0 548.98 1126.67 L548.98 1124.12 A8.50394 8.50394 -180 0 0 544.19 1116.47 A16.4697
						 7.9539 -180 0 0 532.51 1114.13 L16.47 1114.13 A16.4697 7.9539 -180 0 0 4.79 1116.47 A8.50394 8.50394 -180
						 0 0 0 1124.12 L0 1126.67 A8.50394 8.50394 -180 0 0 4.79 1134.31 Z" class="st1"/>
			<text x="4" y="1128.39" class="st5">STATE_BUFFER</text>		</g>
		<g id="shape1015-124" transform="translate(260.89,-937.578)">
			<title>Dynamic connector.40</title>
			<path d="M0 1136.66 L58.3 1136.66 L58.3 1165.05" class="st3"/>
		</g>
		<g id="shape1016-129" transform="translate(258.031,-935.315)">
			<title>Initial state.43</title>
			<ellipse cx="1.42967" cy="1134.4" rx="1.42967" ry="2.26315" class="st8"/>
		</g>
		<g id="shape1018-131" transform="translate(58.2063,-970.599)">
			<title>Sheet.1018</title>
			<desc>entry / send(LOCATION_SEARCH_TRIGGER); led.set(); BUTTON_1_PR...</desc>
			<rect x="0" y="1129.74" width="268.069" height="6.92211" class="st9"/>
			<text x="4" y="1130.2" class="st5">entry / send(LOCATION_SEARCH_TRIGGER); led.set();  <tspan x="4" dy="2.4em"
						class="st10">BUTTON_1_PRESS / ; </tspan><tspan x="4" dy="1.2em" class="st10">BUTTON_1_LONG_PRESS / ; </tspan><tspan
						x="4" dy="1.2em" class="st10">TIMER_EXPIRED_SAMPLE / ;</tspan></text>		</g>
		<g id="shape1019-137" transform="translate(151.317,-857.213)">
			<title>Dynamic connector.283</title>
			<path d="M7.09 1136.66 L7.09 1157.31" class="st3"/>
		</g>
		<g id="shape1021-142" transform="translate(68.5181,-687.135)">
			<title>Sheet.1021</title>
			<path d="M0 1113.22 A15.174 23.4416 -180 0 0 15.17 1136.66 L490.62 1136.66 A15.174 23.4416 -180 0 0 505.79 1113.22 L505.79
						 945.23 A15.174 23.4416 -180 0 0 490.62 921.79 L15.17 921.79 A15.174 23.4416 -180 0 0 0 945.23 L0 1113.22
						 Z" class="st1"/>
		</g>
		<g id="shape1022-144" transform="translate(68.5181,-883.145)">
			<title>Sheet.1022</title>
			<desc>STATE_BUFFER_DISCONNECTED</desc>
			<path d="M5.65 1135.18 A15.174 6.70604 -180 0 0 15.17 1136.66 L490.62 1136.66 A15.174 6.70604 -180 0 0 500.14 1135.18
						 A8.50394 8.50394 -180 0 0 505.79 1127.17 L505.79 1124.71 A4.25197 4.25197 -180 0 0 504.65 1121.82 A15.174
						 6.70604 -180 0 0 490.62 1117.66 L15.17 1117.66 A15.174 6.70604 -180 0 0 5.65 1119.15 A8.50394 8.50394 -180
						 0 0 0 1127.16 L0 1127.17 A8.50394 8.50394 -180 0 0 5.65 1135.18 Z" class="st1"/>
			<text x="4" y="1130.16" class="st5">STATE_BUFFER_DISCONNECTED</text>		</g>
		<g id="shape1027-147" transform="translate(647.895,-762.253)">
			<title>Sheet.1027</title>
			<path d="M0 1110.1 A16.2179 26.5593 -180 0 0 16.22 1136.66 L524.37 1136.66 A16.2179 26.5593 -180 0 0 540.59 1110.1 L540.59
						 919.77 A16.2179 26.5593 -180 0 0 524.37 893.21 L16.22 893.21 A16.2179 26.5593 -180 0 0 0 919.77 L0 1110.1
						 Z" class="st1"/>
		</g>
		<g id="shape1028-149" transform="translate(621.551,-1038.89)">
			<title>Initial state.1028</title>
			<ellipse cx="1.42967" cy="1134.4" rx="1.42967" ry="2.26315" class="st8"/>
		</g>
		<g id="shape1029-151" transform="translate(372.102,-1041.15)">
			<title>Dynamic connector.1029</title>
			<path d="M0 1136.66 L550.08 1136.66 L550.08 1165.06" class="st3"/>
		</g>
		<g id="shape1036-156" transform="translate(647.895,-983.172)">
			<title>Sheet.1036</title>
			<desc>STATE_PASSTHROUGH</desc>
			<path d="M4.77 1134.34 A16.2179 7.95389 -180 0 0 16.22 1136.66 L524.37 1136.66 A16.2179 7.95389 -180 0 0 535.82 1134.34
						 A8.50394 8.50394 -180 0 0 540.59 1126.7 L540.59 1122.13 A4.25197 4.25197 -180 0 0 540.27 1120.52 A16.2179
						 7.95389 -180 0 0 524.37 1114.13 L16.22 1114.13 A16.2179 7.95389 -180 0 0 4.77 1116.45 A8.50394 8.50394 -180
						 0 0 -0 1124.09 L-0 1126.7 A8.50394 8.50394 -180 0 0 4.77 1134.34 Z" class="st1"/>
			<text x="4" y="1128.39" class="st5">STATE_PASSTHROUGH</text>		</g>
		<g id="shape1037-159" transform="translate(879.458,-948.023)">
			<title>Dynamic connector.1037</title>
			<path d="M0 1136.66 L28.99 1136.66 L28.99 1145.12" class="st3"/>
		</g>
		<g id="shape1038-164" transform="translate(876.599,-945.76)">
			<title>Initial state.1038</title>
			<ellipse cx="1.42967" cy="1134.4" rx="1.42967" ry="2.26315" class="st8"/>
		</g>
		<g id="shape1039-166" transform="translate(629.024,-970.599)">
			<title>Sheet.1039</title>
			<desc>entry / stop_cloud_timer(); exit / stop_sample_timer();</desc>
			<rect x="0" y="1129.74" width="163.185" height="6.92211" class="st9"/>
			<text x="23.51" y="1136.2" class="st5">entry / stop_cloud_timer(); <tspan x="22.68" dy="1.2em" class="st10">exit / stop_sample_timer();</tspan></text>		</g>
		<g id="shape1042-170" transform="translate(798.49,-894.219)">
			<title>Sheet.1042</title>
			<desc>entry / stop_sample_timer();</desc>
			<path d="M2.07 1135.52 A6.5975 4.17916 -180 0 0 6.6 1136.66 L213.31 1136.66 A6.5975 4.17916 -180 0 0 217.84 1135.52 A4.25197
						 4.25197 -180 0 0 219.91 1131.87 L219.91 1102.53 A6.5975 4.17916 -180 0 0 213.31 1098.35 L6.6 1098.35 A6.5975
						 4.17916 -180 0 0 2.07 1099.49 A4.25197 4.25197 -180 0 0 0 1103.14 L0 1131.87 A4.25197 4.25197 -180 0 0 2.07
						 1135.52 Z" class="st1"/>
			<text x="4" y="1129.51" class="st6">entry / stop_sample_timer();</text>		</g>
		<g id="shape1043-173" transform="translate(798.49,-913.528)">
			<title>Sheet.1043</title>
			<desc>STATE_PASSTHROUGH_DISCONNECTED</desc>
			<path d="M0 1129.96 A6.5975 6.70604 -180 0 0 6.6 1136.66 L213.31 1136.66 A6.5975 6.70604 -180 0 0 219.91 1129.96 L219.91
						 1124.37 A6.5975 6.70604 -180 0 0 213.31 1117.66 L6.6 1117.66 A6.5975 6.70604 -180 0 0 0 1124.37 L0 1129.96
						 Z" class="st1"/>
			<text x="4" y="1130.16" class="st5">STATE_PASSTHROUGH_DISCONNECTED</text>		</g>
		<g id="shape1044-176" transform="translate(78.2441,-731.737)">
			<title>Sheet.1044</title>
			<desc>entry / send LOCATION_SEARCH_TRIGGER; BUTTON_PRESS_SHORT / ; ...</desc>
			<path d="M0 1129.31 A6.99693 7.3555 -180 0 0 7 1136.66 L226.23 1136.66 A6.99693 7.3555 -180 0 0 233.23 1129.31 L233.23
						 1076.59 A6.99693 7.3555 -180 0 0 226.23 1069.24 L7 1069.24 A6.99693 7.3555 -180 0 0 -0 1076.59 L0 1129.31
						 Z" class="st1"/>
			<text x="4" y="1100.55" class="st6">entry / send LOCATION_SEARCH_TRIGGER;  <tspan x="4" dy="2.4em" class="st10">BUTTON_PRESS_SHORT / ; </tspan><tspan
						x="4" dy="1.2em" class="st10">TIMER_EXPIRED_SAMPLE_DATA / ;</tspan></text>		</g>
		<g id="shape1045-181" transform="translate(78.2441,-780.161)">
			<title>Sheet.1045</title>
			<desc>STATE_BUFFER_DISCONNECTED_SAMPLING</desc>
			<path d="M0 1129.96 A6.99693 6.70604 -180 0 0 7 1136.66 L226.23 1136.66 A6.99693 6.70604 -180 0 0 233.23 1129.96 L233.23
						 1124.37 A6.99693 6.70604 -180 0 0 226.23 1117.66 L7 1117.66 A6.99693 6.70604 -180 0 0 -0 1124.37 L0 1129.96
						 Z" class="st1"/>
			<text x="4" y="1130.16" class="st5">STATE_BUFFER_DISCONNECTED_SAMPLING</text>		</g>
		<g id="shape1047-184" transform="translate(29.2393,-1066.98)">
			<title>Sheet.1047</title>
			<desc>entry / start_sample_timer (sample_interval); start_send_time...</desc>
			<rect x="0" y="1117.66" width="529.325" height="19" class="st9"/>
			<text x="12.63" y="1136.16" class="st5">entry / start_sample_timer (sample_interval); start_send_timer(send_interval); led_set(TRIGGERING_PATTERN);</text>		</g>
		<g id="shape1048-187" transform="translate(457.829,-1029.5)">
			<title>Sheet.1048</title>
			<desc>If MODE_INITAL_BUFFER</desc>
			<rect x="0" y="1129.74" width="112.011" height="6.92211" class="st9"/>
			<text x="7.78" y="1135.6" class="st6">If MODE_INITAL_BUFFER</text>		</g>
		<g id="shape1049-190" transform="translate(683.913,-1030.13)">
			<title>Sheet.1049</title>
			<desc>If MODE_INITAL_PASSTHROUGH</desc>
			<rect x="0" y="1129.74" width="144.567" height="6.92211" class="st9"/>
			<text x="9.16" y="1135.6" class="st6">If MODE_INITAL_PASSTHROUGH</text>		</g>
		<g id="shape1057-193" transform="translate(67.6609,-881.049)">
			<title>Sheet.1057</title>
			<desc>entry / send LOCATION_SEARCH_TRIGGER; TIMER_EXPIRED_CLOUD / L...</desc>
			<rect x="0" y="1129.74" width="276.549" height="6.92211" class="st9"/>
			<text x="4" y="1145.2" class="st6">entry / send LOCATION_SEARCH_TRIGGER;  <tspan x="4" dy="2.4em" class="st10">TIMER_EXPIRED_CLOUD / </tspan><tspan
						x="4" dy="1.2em" class="st10">LOCATION_SEARCH_DONE / send_sensor_trigger();</tspan></text>		</g>
		<g id="shape1059-198" transform="translate(325.338,-731.737)">
			<title>Sheet.1059</title>
			<desc>entry / set_led();</desc>
			<path d="M0 1129.31 A6.99693 7.3555 -180 0 0 7 1136.66 L226.23 1136.66 A6.99693 7.3555 -180 0 0 233.23 1129.31 L233.23
						 1076.59 A6.99693 7.3555 -180 0 0 226.23 1069.24 L7 1069.24 A6.99693 7.3555 -180 0 0 -0 1076.59 L0 1129.31
						 Z" class="st1"/>
			<text x="4" y="1105.35" class="st6">entry / set_led();</text>		</g>
		<g id="shape1060-201" transform="translate(325.338,-780.161)">
			<title>Sheet.1060</title>
			<desc>STATE_BUFFER_DISCONNECTED_WAITING</desc>
			<path d="M0 1129.96 A6.99693 6.70604 -180 0 0 7 1136.66 L226.23 1136.66 A6.99693 6.70604 -180 0 0 233.23 1129.96 L233.23
						 1124.37 A6.99693 6.70604 -180 0 0 226.23 1117.66 L7 1117.66 A6.99693 6.70604 -180 0 0 -0 1124.37 L0 1129.96
						 Z" class="st1"/>
			<text x="4" y="1130.16" class="st5">STATE_BUFFER_DISCONNECTED_WAITING</text>		</g>
		<g id="shape1061-204" transform="translate(441.951,-792.075)">
			<title>Dynamic connector.1061</title>
			<path d="M0 1129.57 L0 1112.81 L-247.09 1112.81 L-247.09 1122.53" class="st3"/>
		</g>
		<g id="shape1062-209" transform="translate(149.366,-832.997)">
			<title>Dynamic connector.1062</title>
			<path d="M0 1136.66 L-30.17 1136.66 L-30.17 1163.46" class="st3"/>
		</g>
		<g id="shape1063-214" transform="translate(149.366,-830.115)">
			<title>Initial state.1063</title>
			<ellipse cx="2.57022" cy="1133.78" rx="2.57022" ry="2.88227" class="st8"/>
		</g>
		<g id="shape1064-216" transform="translate(194.857,-724.651)">
			<title>Dynamic connector.1064</title>
			<path d="M0 1129.57 L0 1147.06 L247.09 1147.06 L247.09 1136.61" class="st3"/>
		</g>
		<g id="shape1065-221" transform="translate(262.617,-825.406)">
			<title>Sheet.1065</title>
			<desc>TIMER_EXPIRED_SAMPLE_DATA || BUTTON_PRESS_SHORT</desc>
			<rect x="0" y="1129.74" width="163.185" height="6.92211" class="st9"/>
			<text x="14.83" y="1130.8" class="st6">TIMER_EXPIRED_SAMPLE_DATA || <tspan x="33.14" dy="1.2em" class="st10">BUTTON_PRESS_SHORT</tspan></text>		</g>
		<g id="shape1066-225" transform="translate(250.888,-701.977)">
			<title>Sheet.1066</title>
			<desc>LOCATION_SEARCH_DONE</desc>
			<rect x="0" y="1129.74" width="131.774" height="6.92211" class="st9"/>
			<text x="12.76" y="1135.6" class="st6">LOCATION_SEARCH_DONE</text>		</g>
		<g id="shape1069-228" transform="translate(155.672,-607.976)">
			<title>Dynamic connector.1069</title>
			<path d="M7.09 1136.66 L7.09 1157.31" class="st3"/>
		</g>
		<g id="shape1070-233" transform="translate(72.8726,-437.897)">
			<title>Sheet.1070</title>
			<path d="M0 1113.22 A15.174 23.4416 -180 0 0 15.17 1136.66 L490.62 1136.66 A15.174 23.4416 -180 0 0 505.79 1113.22 L505.79
						 945.23 A15.174 23.4416 -180 0 0 490.62 921.79 L15.17 921.79 A15.174 23.4416 -180 0 0 0 945.23 L0 1113.22
						 Z" class="st1"/>
		</g>
		<g id="shape1071-235" transform="translate(72.8726,-633.907)">
			<title>Sheet.1071</title>
			<desc>STATE_BUFFER_CONNECTED</desc>
			<path d="M5.65 1135.18 A15.174 6.70604 -180 0 0 15.17 1136.66 L490.62 1136.66 A15.174 6.70604 -180 0 0 500.14 1135.18
						 A8.50394 8.50394 -180 0 0 505.79 1127.17 L505.79 1124.71 A4.25197 4.25197 -180 0 0 504.65 1121.82 A15.174
						 6.70604 -180 0 0 490.62 1117.66 L15.17 1117.66 A15.174 6.70604 -180 0 0 5.65 1119.15 A8.50394 8.50394 -180
						 0 0 0 1127.16 L0 1127.17 A8.50394 8.50394 -180 0 0 5.65 1135.18 Z" class="st1"/>
			<text x="4" y="1130.16" class="st5">STATE_BUFFER_CONNECTED</text>		</g>
		<g id="shape1073-238" transform="translate(82.5986,-482.5)">
			<title>Sheet.1073</title>
			<desc>entry / send LOCATION_SEARCH_TRIGGER; BUTTON_PRESS_SHORT / ; ...</desc>
			<path d="M0 1129.31 A6.99693 7.3555 -180 0 0 7 1136.66 L226.23 1136.66 A6.99693 7.3555 -180 0 0 233.23 1129.31 L233.23
						 1076.59 A6.99693 7.3555 -180 0 0 226.23 1069.24 L7 1069.24 A6.99693 7.3555 -180 0 0 -0 1076.59 L0 1129.31
						 Z" class="st1"/>
			<text x="4" y="1100.55" class="st6">entry / send LOCATION_SEARCH_TRIGGER;  <tspan x="4" dy="2.4em" class="st10">BUTTON_PRESS_SHORT / ; </tspan><tspan
						x="4" dy="1.2em" class="st10">TIMER_EXPIRED__CLOUD / ;</tspan></text>		</g>
		<g id="shape1074-243" transform="translate(82.5986,-530.924)">
			<title>Sheet.1074</title>
			<desc>STATE_BUFFER_CONNECTED_SAMPLING</desc>
			<path d="M0 1129.96 A6.99693 6.70604 -180 0 0 7 1136.66 L226.23 1136.66 A6.99693 6.70604 -180 0 0 233.23 1129.96 L233.23
						 1124.37 A6.99693 6.70604 -180 0 0 226.23 1117.66 L7 1117.66 A6.99693 6.70604 -180 0 0 -0 1124.37 L0 1129.96
						 Z" class="st1"/>
			<text x="4" y="1130.16" class="st5">STATE_BUFFER_CONNECTED_SAMPLING</text>		</g>
		<g id="shape1075-246" transform="translate(72.0154,-631.812)">
			<title>Sheet.1075</title>
			<desc>TIMER_EXPIRED_CLOUD || BUTTON_PRESS_LONG / send_data_request_...</desc>
			<rect x="0" y="1129.74" width="450.323" height="6.92211" class="st9"/>
			<text x="4" y="1154.2" class="st5">TIMER_EXPIRED_CLOUD || BUTTON_PRESS_LONG / send_data_request_and_poll();</text>		</g>
		<g id="shape1076-249" transform="translate(329.693,-482.5)">
			<title>Sheet.1076</title>
			<desc>entry / set_led();</desc>
			<path d="M0 1129.31 A6.99693 7.3555 -180 0 0 7 1136.66 L226.23 1136.66 A6.99693 7.3555 -180 0 0 233.23 1129.31 L233.23
						 1076.59 A6.99693 7.3555 -180 0 0 226.23 1069.24 L7 1069.24 A6.99693 7.3555 -180 0 0 -0 1076.59 L0 1129.31
						 Z" class="st1"/>
			<text x="4" y="1105.35" class="st6">entry / set_led();</text>		</g>
		<g id="shape1077-252" transform="translate(329.693,-530.924)">
			<title>Sheet.1077</title>
			<desc>STATE_BUFFER_CONNECTED_WAITING</desc>
			<path d="M0 1129.96 A6.99693 6.70604 -180 0 0 7 1136.66 L226.23 1136.66 A6.99693 6.70604 -180 0 0 233.23 1129.96 L233.23
						 1124.37 A6.99693 6.70604 -180 0 0 226.23 1117.66 L7 1117.66 A6.99693 6.70604 -180 0 0 -0 1124.37 L0 1129.96
						 Z" class="st1"/>
			<text x="4" y="1130.16" class="st5">STATE_BUFFER_CONNECTED_WAITING</text>		</g>
		<g id="shape1078-255" transform="translate(446.306,-542.837)">
			<title>Dynamic connector.1078</title>
			<path d="M0 1129.57 L0 1112.81 L-247.09 1112.81 L-247.09 1122.53" class="st3"/>
		</g>
		<g id="shape1079-260" transform="translate(153.72,-583.759)">
			<title>Dynamic connector.1079</title>
			<path d="M0 1136.66 L-30.17 1136.66 L-30.17 1163.46" class="st3"/>
		</g>
		<g id="shape1080-265" transform="translate(153.72,-580.877)">
			<title>Initial state.1080</title>
			<ellipse cx="2.57022" cy="1133.78" rx="2.57022" ry="2.88227" class="st8"/>
		</g>
		<g id="shape1081-267" transform="translate(199.211,-475.413)">
			<title>Dynamic connector.1081</title>
			<path d="M0 1129.57 L0 1147.06 L247.09 1147.06 L247.09 1136.61" class="st3"/>
		</g>
		<g id="shape1082-272" transform="translate(255.242,-576.169)">
			<title>Sheet.1082</title>
			<desc>TIMER_EXPIRED_SAMPLE_DATA || BUTTON_PRESS_SHORT</desc>
			<rect x="0" y="1129.74" width="163.185" height="6.92211" class="st9"/>
			<text x="14.83" y="1130.8" class="st6">TIMER_EXPIRED_SAMPLE_DATA || <tspan x="33.14" dy="1.2em" class="st10">BUTTON_PRESS_SHORT</tspan></text>		</g>
		<g id="shape1083-276" transform="translate(255.242,-452.739)">
			<title>Sheet.1083</title>
			<desc>LOCATION_SEARCH_DONE</desc>
			<rect x="0" y="1129.74" width="131.774" height="6.92211" class="st9"/>
			<text x="12.76" y="1135.6" class="st6">LOCATION_SEARCH_DONE</text>		</g>
		<g id="shape1084-279" transform="translate(255.409,-687.135)">
			<title>Dynamic connector.1084</title>
			<path d="M7.09 1136.66 L7.09 1163.64" class="st3"/>
		</g>
		<g id="shape1085-284" transform="translate(337.123,-687.135)">
			<title>Dynamic connector.1085</title>
			<path d="M7.09 1141.9 L7.09 1142.26 L7.09 1170.68" class="st11"/>
		</g>
		<g id="shape1086-290" transform="translate(333.362,-666.039)">
			<title>Sheet.1086</title>
			<desc>CLOUD_DISCONNECTED</desc>
			<rect x="0" y="1129.74" width="121.239" height="6.92211" class="st9"/>
			<text x="12.39" y="1135.6" class="st6">CLOUD_DISCONNECTED</text>		</g>
		<g id="shape1087-293" transform="translate(158.404,-667.344)">
			<title>Sheet.1087</title>
			<desc>CLOUD_CONNECTED</desc>
			<rect x="0" y="1129.74" width="121.239" height="6.92211" class="st9"/>
			<text x="19.06" y="1135.6" class="st6">CLOUD_CONNECTED</text>		</g>
		<g id="shape1088-296" transform="translate(647.895,-947.383)">
			<title>Dynamic connector.1088</title>
			<path d="M0 1136.66 L187.79 1136.66 L187.79 1144.48" class="st3"/>
		</g>
		<g id="shape1089-301" transform="translate(672.532,-938.165)">
			<title>Sheet.1089</title>
			<desc>CLOUD_DISCONNECTED</desc>
			<rect x="0" y="1129.74" width="112.011" height="6.92211" class="st9"/>
			<text x="7.78" y="1135.6" class="st6">CLOUD_DISCONNECTED</text>		</g>
		<g id="shape1090-304" transform="translate(655.567,-790.386)">
			<title>Sheet.1090</title>
			<desc>entry / send LOCATION_SEARCH_TRIGGER; LOCATION_SEARCH_DONE / ...</desc>
			<path d="M0 1129.31 A7.49558 7.3555 -180 0 0 7.5 1136.66 L242.35 1136.66 A7.49558 7.3555 -180 0 0 249.85 1129.31 L249.85
						 1076.59 A7.49558 7.3555 -180 0 0 242.35 1069.24 L7.5 1069.24 A7.49558 7.3555 -180 0 0 0 1076.59 L0 1129.31
						 Z" class="st1"/>
			<text x="4" y="1105.35" class="st6">entry / send LOCATION_SEARCH_TRIGGER;  <tspan x="4" dy="2.4em" class="st10">LOCATION_SEARCH_DONE / send_sensor_poll();</tspan></text>		</g>
		<g id="shape1091-308" transform="translate(655.567,-838.81)">
			<title>Sheet.1091</title>
			<desc>STATE_PASSTHROUGH_CONNECTED_SAMPLING</desc>
			<path d="M-0 1129.96 A7.49558 6.70604 -180 0 0 7.5 1136.66 L242.35 1136.66 A7.49558 6.70604 -180 0 0 249.85 1129.96 L249.85
						 1124.37 A7.49558 6.70604 -180 0 0 242.35 1117.66 L7.5 1117.66 A7.49558 6.70604 -180 0 0 0 1124.37 L0 1129.96
						 Z" class="st1"/>
			<text x="4" y="1130.16" class="st5">STATE_PASSTHROUGH_CONNECTED_SAMPLING</text>		</g>
		<g id="shape1092-311" transform="translate(922.024,-790.386)">
			<title>Sheet.1092</title>
			<path d="M0 1129.31 A7.49558 7.3555 -180 0 0 7.5 1136.66 L242.35 1136.66 A7.49558 7.3555 -180 0 0 249.85 1129.31 L249.85
						 1076.59 A7.49558 7.3555 -180 0 0 242.35 1069.24 L7.5 1069.24 A7.49558 7.3555 -180 0 0 0 1076.59 L0 1129.31
						 Z" class="st1"/>
		</g>
		<g id="shape1093-313" transform="translate(922.024,-838.81)">
			<title>Sheet.1093</title>
			<desc>STATE_PASSTHROUGH_CONNECTED_WAITING</desc>
			<path d="M-0 1129.96 A7.49558 6.70604 -180 0 0 7.5 1136.66 L242.35 1136.66 A7.49558 6.70604 -180 0 0 249.85 1129.96 L249.85
						 1124.37 A7.49558 6.70604 -180 0 0 242.35 1117.66 L7.5 1117.66 A7.49558 6.70604 -180 0 0 0 1124.37 L0 1129.96
						 Z" class="st1"/>
			<text x="4" y="1130.16" class="st5">STATE_PASSTHROUGH_CONNECTED_WAITING</text>		</g>
		<g id="shape1094-316" transform="translate(1046.95,-850.724)">
			<title>Dynamic connector.1094</title>
			<path d="M0 1129.57 L0 1103.32 L-266.46 1103.32 L-266.46 1122.53" class="st3"/>
		</g>
		<g id="shape1095-321" transform="translate(780.49,-783.3)">
			<title>Dynamic connector.1095</title>
			<path d="M0 1129.57 L0 1147.06 L266.46 1147.06 L266.46 1136.61" class="st3"/>
		</g>
		<g id="shape1096-326" transform="translate(828.211,-775.8)">
			<title>Sheet.1096</title>
			<desc>LOCATION_SEARCH_DONE</desc>
			<rect x="0" y="1129.74" width="131.774" height="6.92211" class="st9"/>
			<text x="12.76" y="1135.6" class="st6">LOCATION_SEARCH_DONE</text>		</g>
		<g id="shape1097-329" transform="translate(823.423,-867.926)">
			<title>Sheet.1097</title>
			<desc>TIMER_EXPIRED_SAMPLE_DATA || BUTTON_PRESS_SHORT</desc>
			<rect x="0" y="1129.74" width="163.185" height="6.92211" class="st9"/>
			<text x="14.83" y="1130.8" class="st6">TIMER_EXPIRED_SAMPLE_DATA || <tspan x="33.14" dy="1.2em" class="st10">BUTTON_PRESS_SHORT</tspan></text>		</g>
		<g id="shape1098-333" transform="translate(798.49,-912.814)">
			<title>Dynamic connector.1098</title>
			<path d="M0 1136.66 L-87.87 1136.66 L-87.87 1182.39" class="st3"/>
		</g>
		<g id="shape1099-338" transform="translate(706.591,-902.145)">
			<title>Sheet.1099</title>
			<desc>CLOUD_CONNECTED</desc>
			<rect x="0" y="1129.74" width="92.8561" height="6.92211" class="st9"/>
			<text x="4.87" y="1135.6" class="st6">CLOUD_CONNECTED</text>		</g>
		<g id="shape1103-341" transform="translate(545.28,-1123.03)">
			<title>Initial state.1103</title>
			<ellipse cx="2.57022" cy="1133.78" rx="2.57022" ry="2.88227" class="st8"/>
		</g>
		<g id="shape1105-343" transform="translate(282.269,-393.25)">
			<title>Dynamic connector.1105</title>
			<path d="M-6.54 1136.66 L-7.41 1165.2" class="st3"/>
		</g>
		<g id="shape1106-348" transform="translate(377.772,-393.25)">
			<title>Dynamic connector.1106</title>
			<path d="M7.09 1141.9 L7.09 1142.26 L7.09 1172.24" class="st11"/>
		</g>
		<g id="shape1107-353" transform="translate(377.832,-370.243)">
			<title>Sheet.1107</title>
			<desc>FOTA_DOWNLOADED_CANCELED || FOTA_DOWNLOADED_TIMED_OUT || FOTA...</desc>
			<rect x="0" y="1125.36" width="163.185" height="11.3017" class="st9"/>
			<text x="12.39" y="1123.81" class="st6">FOTA_DOWNLOADED_CANCELED || <tspan x="11.06" dy="1.2em" class="st10">FOTA_DOWNLOADED_TIMED_OUT || </tspan><tspan
						x="23.36" dy="1.2em" class="st10">FOTA_DOWNLOADED_FAILED</tspan></text>		</g>
		<g id="shape1108-358" transform="translate(137.698,-364.758)">
			<title>Sheet.1108</title>
			<desc>FOTA_DOWNLOADING_UPDATE</desc>
			<rect x="0" y="1117.66" width="145.659" height="19" class="st9"/>
			<text x="10.82" y="1129.56" class="st6">FOTA_DOWNLOADING_UPDATE</text>		</g>
	</g>
</svg>
