<?xml version="1.0" encoding="UTF-8" standalone="no"?>
<!DOCTYPE svg PUBLIC "-//W3C//DTD SVG 1.1//EN" "http://www.w3.org/Graphics/SVG/1.1/DTD/svg11.dtd">
<!-- Generated by Microsoft Visio, SVG Export main_module_state_diagram.svg Page-1 -->
<svg xmlns="http://www.w3.org/2000/svg" xmlns:xlink="http://www.w3.org/1999/xlink" xmlns:ev="http://www.w3.org/2001/xml-events"
		width="16.9143in" height="15.787in" viewBox="0 0 820 1136.66" xml:space="preserve" color-interpolation-filters="sRGB"
		class="st13">
	<style type="text/css">
	<![CDATA[
		.st1 {fill:#ffffff;stroke:#000000;stroke-width:1}
		.st2 {fill:#000000;fill-opacity:1;stroke:#000000;stroke-opacity:1;stroke-width:0.28409090909091}
		.st3 {marker-end:url(#mrkr4-6);stroke:#000000;stroke-linecap:butt;stroke-width:1}
		.st4 {fill:none;stroke:none;stroke-linecap:butt;stroke-width:0.75}
		.st5 {fill:#000000;font-family:Arial;font-size:0.833336em}
		.st6 {fill:#000000;font-family:Arial;font-size:0.666664em}
		.st7 {fill:#ffffff;stroke:none;stroke-linecap:butt;stroke-width:0.75}
		.st8 {fill:#000000;stroke:#000000;stroke-width:1}
		.st9 {fill:none;stroke:none;stroke-width:1}
		.st10 {font-size:1em}
		.st11 {marker-start:url(#mrkr4-289);stroke:#000000;stroke-linecap:butt;stroke-width:1}
		.st12 {fill:#000000;fill-opacity:1;stroke:#000000;stroke-opacity:1;stroke-width:0.35714285714286}
		.st13 {fill:none;fill-rule:evenodd;font-size:12px;overflow:visible;stroke-linecap:square;stroke-miterlimit:3}
	]]>
	</style>

	<defs id="Markers">
		<g id="lend4">
			<path d="M 2 1 L 0 0 L 2 -1 L 2 1 " style="stroke:none"/>
		</g>
		<marker id="mrkr4-6" class="st2" refX="-7.04" orient="auto" markerUnits="strokeWidth" overflow="visible">
			<use xlink:href="#lend4" transform="scale(-3.52,-3.52) "/>
		</marker>
		<marker id="mrkr4-289" class="st12" refX="5.24" orient="auto" markerUnits="strokeWidth" overflow="visible">
			<use xlink:href="#lend4" transform="scale(2.8) "/>
		</marker>
	</defs>
	<g>
		<title>Page-1</title>
		<rect x="0" y="0" width="820" height="1136.66" fill="white"/>
		<g id="shape1104-1" transform="translate(1,-393.25)">
			<title>Sheet.1104</title>
			<path d="M0 1059.15 A36.4757 77.509 -180 0 0 36.47 1136.66 L779.35 1136.66 A36.4757 77.509 -180 0 0 815.83 1059.15
						 L815.83 503.69 A36.4757 77.509 -180 0 0 779.35 426.18 L36.47 426.18 A36.4757 77.509 -180 0 0 0 503.69
						 L0 1059.15 Z" class="st1"/>
		</g>
		<g id="shape206-7" transform="translate(122.417,-1)">
			<title>Sheet.206</title>
			<path d="M-0 1131.67 A5.02792 4.99352 -180 0 0 5.03 1136.66 L454.66 1136.66 A5.02792 4.99352 -180 0 0 459.69 1131.67
						 L459.69 784.98 A5.02792 4.99352 -180 0 0 454.66 779.99 L5.03 779.99 A5.02792 4.99352 -180 0 0 0 784.98 L0
						 1131.67 Z" class="st1"/>
		</g>
		<g id="shape207-14" transform="translate(122.417,-345.135)">
			<title>Sheet.207</title>
			<path d="M2.87 1136.42 A4.30965 4.17916 -180 0 0 4.31 1136.66 L455.38 1136.66 A4.30965 4.17916 -180 0 0 456.82 1136.42
						 A4.25197 4.25197 -180 0 0 459.69 1132.4 L459.69 1128.3 A4.30965 4.17916 -180 0 0 455.38 1124.12 L4.31 1124.12
						 A4.30965 4.17916 -180 0 0 2.87 1124.36 A4.25197 4.25197 -180 0 0 0 1128.39 L0 1132.4 A4.25197 4.25197 -180
						 0 0 2.87 1136.42 Z" class="st1"/>
		</g>
		<g id="shape208-16" transform="translate(128.682,-346.478)">
			<title>Sheet.208</title>
			<desc>STATE_FOTA</desc>
			<rect x="0" y="1128.3" width="87.8702" height="8.35812" class="st4"/>
			<text x="0" y="1135.48" class="st5">STATE_FOTA</text>		</g>
		<g id="shape209-19" transform="translate(128.682,-334.5)">
			<title>Sheet.209</title>
			<desc>entry / cancel sampling; led_set(FOTA_PATTERN)</desc>
			<rect x="0" y="1130.81" width="202.074" height="5.85068" class="st4"/>
			<text x="0" y="1136.14" class="st6">entry / cancel sampling; led_set(FOTA_PATTERN)</text>		</g>
		<g id="shape215-22" transform="translate(260.466,-275.152)">
			<title>Sheet.215</title>
			<path d="M1.97 1135.83 A4.89566 4.17916 -180 0 0 4.9 1136.66 L158.29 1136.66 A4.89566 4.17916 -180 0 0 161.22 1135.83
						 A4.25197 4.25197 -180 0 0 163.18 1132.25 L163.18 1102.53 A4.89566 4.17916 -180 0 0 158.29 1098.35 L4.9 1098.35
						 A4.89566 4.17916 -180 0 0 1.97 1099.18 A4.25197 4.25197 -180 0 0 -0 1102.77 L-0 1132.25 A4.25197 4.25197
						 -180 0 0 1.97 1135.83 Z" class="st1"/>
		</g>
		<g id="shape216-24" transform="translate(260.466,-298.397)">
			<title>Sheet.216</title>
			<desc>STATE_FOTA_DOWNLOADING</desc>
			<path d="M0 1131.35 A4.89566 5.31617 -180 0 0 4.9 1136.66 L158.29 1136.66 A4.89566 5.31617 -180 0 0 163.18 1131.35 L163.18
						 1126.92 A4.89566 5.31617 -180 0 0 158.29 1121.6 L4.9 1121.6 A4.89566 5.31617 -180 0 0 0 1126.92 L0 1131.35
						 Z" class="st1"/>
			<text x="4" y="1132.13" class="st5">STATE_FOTA_DOWNLOADING</text>		</g>
		<g id="shape218-27" transform="translate(264.221,-289.291)">
			<title>Sheet.218</title>
			<desc>Do nothing</desc>
			<rect x="0" y="1128.3" width="43.9455" height="8.35812" class="st4"/>
			<text x="0" y="1134.88" class="st6">Do nothing</text>		</g>
		<g id="shape219-30" transform="translate(131.43,-204.44)">
			<title>Sheet.219</title>
			<path d="M2.21 1135.36 A8.02621 4.17916 -180 0 0 8.03 1136.66 L272.88 1136.66 A8.02621 4.17916 -180 0 0 278.7 1135.36
						 A4.25197 4.25197 -180 0 0 280.91 1131.63 L280.91 1099.9 A4.25197 4.25197 -180 0 0 278.7 1096.17 A8.02621
						 4.17916 -180 0 0 272.88 1094.87 L8.03 1094.87 A8.02621 4.17916 -180 0 0 2.21 1096.17 A4.25197 4.25197 -180
						 0 0 0 1099.9 L0 1131.63 A4.25197 4.25197 -180 0 0 2.21 1135.36 Z" class="st1"/>
		</g>
		<g id="shape220-32" transform="translate(131.43,-231.168)">
			<title>Sheet.220</title>
			<desc>STATE_FOTA_WAITING_FOR_NETWORK_DISCONNECT</desc>
			<path d="M0.92 1133.82 A8.02621 5.31617 -180 0 0 8.03 1136.66 L272.88 1136.66 A8.02621 5.31617 -180 0 0 279.99 1133.82
						 A4.25197 4.25197 -180 0 0 280.91 1131.18 L280.91 1127.09 A4.25197 4.25197 -180 0 0 279.99 1124.44 A8.02621
						 5.31617 -180 0 0 272.88 1121.6 L8.03 1121.6 A8.02621 5.31617 -180 0 0 0.92 1124.44 A4.25197 4.25197 -180
						 0 0 -0 1127.09 L-0 1131.18 A4.25197 4.25197 -180 0 0 0.92 1133.82 Z" class="st1"/>
			<text x="6.55" y="1132.13" class="st5">STATE_FOTA_WAITING_FOR_NETWORK_DISCONNECT</text>		</g>
		<g id="shape222-35" transform="translate(140.215,-222.409)">
			<title>Sheet.222</title>
			<desc>entry / send_event(NETWORK_DISCONNECT)</desc>
			<rect x="0" y="1130.81" width="202.074" height="5.85068" class="st4"/>
			<text x="0" y="1138.01" class="st6">entry / send_event(NETWORK_DISCONNECT)</text>		</g>
		<g id="shape227-38" transform="translate(222.565,-261.563)">
			<title>Sheet.227</title>
			<desc>FOTA_SUCCESS_REBOOT_NEEDED</desc>
			<rect x="0" y="1130.81" width="145.659" height="5.85068" class="st4"/>
			<text x="0" y="1136.14" class="st6">FOTA_SUCCESS_REBOOT_NEEDED</text>		</g>
		<g id="shape228-41" transform="translate(202.72,-123.663)">
			<title>Sheet.228</title>
			<path d="M7.46 1136.47 A10.6778 4.17916 -180 0 0 10.68 1136.66 L363.04 1136.66 A10.6778 4.17916 -180 0 0 366.25 1136.47
						 A8.50394 8.50394 -180 0 0 373.71 1128.03 L373.71 1100.24 A4.25197 4.25197 -180 0 0 371.29 1096.4 A10.6778
						 4.17916 -180 0 0 363.04 1094.87 L10.68 1094.87 A10.6778 4.17916 -180 0 0 7.46 1095.07 A8.50394 8.50394 -180
						 0 0 -0 1103.5 L-0 1128.03 A8.50394 8.50394 -180 0 0 7.46 1136.47 Z" class="st1"/>
		</g>
		<g id="shape229-43" transform="translate(202.72,-147.964)">
			<title>Sheet.229</title>
			<desc>STATE_FOTA_WAITING_FOR_NETWORK_DISCONNECT_TO_APPLY_IMAGE</desc>
			<path d="M6.44 1136.16 A10.6778 6.17287 -180 0 0 10.68 1136.66 L363.04 1136.66 A10.6778 6.17287 -180 0 0 373 1132.71
						 A4.25197 4.25197 -180 0 0 373.71 1130.35 L373.71 1125.48 A4.25197 4.25197 -180 0 0 373 1123.13 A10.6778
						 6.17287 -180 0 0 363.04 1119.17 L10.68 1119.17 A10.6778 6.17287 -180 0 0 0.71 1123.13 A4.25197 4.25197 -180
						 0 0 -0 1125.48 L-0 1127.9 A8.50394 8.50394 -180 0 0 6.44 1136.16 Z" class="st1"/>
			<text x="4" y="1132.17" class="st5">STATE_FOTA_WAITING_FOR_NETWORK_DISCONNECT_TO_APPLY_IMAGE</text>		</g>
		<g id="shape231-46" transform="translate(211.391,-137.063)">
			<title>Sheet.231</title>
			<desc>entry / send_event(NETWORK_DISCONNECT)</desc>
			<rect x="0" y="1130.81" width="202.074" height="5.85068" class="st4"/>
			<text x="0" y="1138.01" class="st6">entry / send_event(NETWORK_DISCONNECT)</text>		</g>
		<g id="shape236-49" transform="translate(454.543,-240.379)">
			<title>Sheet.236</title>
			<desc>FOTA_IMAGE_APPLY_NEEDED</desc>
			<rect x="0" y="1130.81" width="121.239" height="5.85068" class="st4"/>
			<text x="0" y="1136.14" class="st6">FOTA_IMAGE_APPLY_NEEDED</text>		</g>
		<g id="shape237-52" transform="translate(364.47,-47.9867)">
			<title>Sheet.237</title>
			<path d="M2 1135.63 A5.83723 4.17916 -180 0 0 5.84 1136.66 L169.28 1136.66 A5.83723 4.17916 -180 0 0 173.11 1135.63 A4.25197
						 4.25197 -180 0 0 175.11 1132.03 L175.11 1092.08 A5.83723 4.17916 -180 0 0 169.28 1087.91 L5.84 1087.91 A5.83723
						 4.17916 -180 0 0 2 1088.94 A4.25197 4.25197 -180 0 0 -0 1092.54 L-0 1132.03 A4.25197 4.25197 -180 0 0 2
						 1135.63 Z" class="st1"/>
		</g>
		<g id="shape238-54" transform="translate(364.47,-81.6803)">
			<title>Sheet.238</title>
			<path d="M0 1131.35 A5.83723 5.31617 -180 0 0 5.84 1136.66 L169.28 1136.66 A5.83723 5.31617 -180 0 0 175.11 1131.35 L175.11
						 1126.92 A5.83723 5.31617 -180 0 0 169.28 1121.6 L5.84 1121.6 A5.83723 5.31617 -180 0 0 0 1126.92 L0 1131.35
						 Z" class="st1"/>
		</g>
		<g id="shape239-56" transform="translate(368.225,-86.0394)">
			<title>Sheet.239</title>
			<desc>STATE_FOTA_APPLYING_IMAGE</desc>
			<rect x="0" y="1129.14" width="163.185" height="7.52231" class="st4"/>
			<text x="0" y="1135.9" class="st5">STATE_FOTA_APPLYING_IMAGE</text>		</g>
		<g id="shape240-59" transform="translate(368.225,-71.8661)">
			<title>Sheet.240</title>
			<desc>entry / send_event(FOTA_IMAGE_APPLY)</desc>
			<rect x="0" y="1130.81" width="163.185" height="5.85068" class="st4"/>
			<text x="0" y="1136.14" class="st6">entry / send_event(FOTA_IMAGE_APPLY)</text>		</g>
		<g id="shape246-62" transform="translate(197.467,-12.3875)">
			<title>Sheet.246</title>
			<path d="M1.97 1135.84 A4.85543 4.17916 -180 0 0 4.86 1136.66 L140.8 1136.66 A4.85543 4.17916 -180 0 0 143.69 1135.84
						 A4.25197 4.25197 -180 0 0 145.66 1132.26 L145.66 1099.05 A4.85543 4.17916 -180 0 0 140.8 1094.87 L4.86 1094.87
						 A4.85543 4.17916 -180 0 0 1.97 1095.69 A4.25197 4.25197 -180 0 0 -0 1099.28 L-0 1132.26 A4.25197 4.25197
						 -180 0 0 1.97 1135.84 Z" class="st1"/>
		</g>
		<g id="shape247-64" transform="translate(197.467,-39.116)">
			<title>Sheet.247</title>
			<path d="M-0 1131.35 A4.85543 5.31617 -180 0 0 4.86 1136.66 L140.8 1136.66 A4.85543 5.31617 -180 0 0 145.66 1131.35 L145.66
						 1126.92 A4.85543 5.31617 -180 0 0 140.8 1121.6 L4.86 1121.6 A4.85543 5.31617 -180 0 0 0 1126.92 L0 1131.35
						 Z" class="st1"/>
		</g>
		<g id="shape248-66" transform="translate(200.88,-42.0996)">
			<title>Sheet.248</title>
			<desc>STATE_FOTA_REBOOTING</desc>
			<rect x="0" y="1129.14" width="131.774" height="7.52231" class="st7"/>
			<text x="0" y="1135.9" class="st5">STATE_FOTA_REBOOTING</text>		</g>
		<g id="shape249-69" transform="translate(202.72,-25.8368)">
			<title>Sheet.249</title>
			<desc>entry / sys_reboot()</desc>
			<rect x="0" y="1130.81" width="87.8702" height="5.85068" class="st4"/>
			<text x="0" y="1136.14" class="st6">entry / sys_reboot()</text>		</g>
		<g id="shape254-72" transform="translate(436.871,-106.209)">
			<title>Sheet.254</title>
			<desc>NETWORK_DISCONNECTED</desc>
			<rect x="0" y="1130.81" width="112.949" height="5.85068" class="st4"/>
			<text x="0" y="1136.14" class="st6">NETWORK_DISCONNECTED</text>		</g>
		<g id="shape263-75" transform="translate(377.832,-15.9503)">
			<title>Sheet.263</title>
			<desc>FOTA_SUCCESS_REBOOT_NEEDED</desc>
			<rect x="0" y="1130.81" width="145.659" height="5.85068" class="st4"/>
			<text x="0" y="1136.14" class="st6">FOTA_SUCCESS_REBOOT_NEEDED</text>		</g>
		<g id="shape277-78" transform="translate(330.583,-332.405)">
			<title>Dynamic connector.277</title>
			<path d="M-1.43 1136.66 L-12.74 1136.66 L-12.74 1148.1" class="st3"/>
		</g>
		<g id="shape278-83" transform="translate(329.154,-330.311)">
			<title>Initial state.278</title>
			<ellipse cx="1.60182" cy="1134.57" rx="1.60182" ry="2.09482" class="st8"/>
		</g>
		<g id="shape295-85" transform="translate(259.818,-290.104)">
			<title>Dynamic connector.295</title>
			<path d="M0 1136.66 L-39.6 1136.66 L-39.6 1173.11" class="st3"/>
		</g>
		<g id="shape296-90" transform="translate(426.197,-289.432)">
			<title>Dynamic connector.296</title>
			<path d="M0 1136.66 L26.35 1136.66 L26.35 1253.6" class="st3"/>
		</g>
		<g id="shape298-95" transform="translate(441.236,-124.02)">
			<title>Dynamic connector.298</title>
			<path d="M-6.82 1136.66 L-7.22 1156.9" class="st3"/>
		</g>
		<g id="shape299-100" transform="translate(164.965,-204.44)">
			<title>Dynamic connector.299</title>
			<path d="M0 1136.66 L0 1309.39 L24.59 1309.39" class="st3"/>
		</g>
		<g id="shape300-105" transform="translate(167.152,-87.7765)">
			<title>Sheet.300</title>
			<desc>NETWORK_DISCONNECTED</desc>
			<rect x="0" y="1130.81" width="121.239" height="5.85068" class="st4"/>
			<text x="0" y="1136.14" class="st6">NETWORK_DISCONNECTED</text>		</g>
		<g id="shape302-108" transform="translate(447.876,-47.9867)">
			<title>Dynamic connector.302</title>
			<path d="M0 1136.66 L0 1155.99 L-97.71 1155.99" class="st3"/>
		</g>
		<g id="shape1002-113" transform="translate(26.2756,-1084.73)">
			<title>Sheet.1002</title>
			<desc>STATE_RUNNING</desc>
			<path d="M6.26 1136.06 A10.8959 6.33348 -180 0 0 10.9 1136.66 L751.31 1136.66 A10.8959 6.33348 -180 0 0 755.94 1136.06
						 A8.50394 8.50394 -180 0 0 762.2 1127.86 L762.2 1124.1 A4.25197 4.25197 -180 0 0 761.61 1121.93 A10.8959
						 6.33348 -180 0 0 751.31 1117.66 L10.9 1117.66 A10.8959 6.33348 -180 0 0 6.26 1118.26 A8.50394 8.50394 -180
						 0 0 -0 1126.47 L-0 1127.86 A8.50394 8.50394 -180 0 0 6.26 1136.06 Z" class="st1"/>
			<text x="4" y="1130.16" class="st5">STATE_RUNNING</text>		</g>
		<g id="shape1003-116" transform="translate(347.85,-1128.79)">
			<title>Dynamic connector.1003</title>
			<path d="M0 1136.66 L0 1139.59 L28.35 1139.59 L28.35 1153.92" class="st3"/>
		</g>
		<g id="shape1015-124" transform="translate(260.89,-937.578)">
			<title>Dynamic connector.40</title>
			<path d="M0 1136.66 L58.3 1136.66 L58.3 1165.05" class="st3"/>
		</g>
		<g id="shape1021-142" transform="translate(68.5181,-787.135)">
			<title>Sheet.1021</title>
			<path d="M0 1113.22 A15.174 23.4416 -180 0 0 15.17 1136.66 L690.62 1136.66 A15.174 23.4416 -180 0 0 705.79 1113.22 L705.79
							 945.23 A15.174 23.4416 -180 0 0 690.62 921.79 L15.17 921.79 A15.174 23.4416 -180 0 0 0 945.23 L0 1113.22
						 Z" class="st1"/>
		</g>
		<g id="shape1022-144" transform="translate(68.5181,-983.145)">
			<title>Sheet.1022</title>
			<desc>STATE_DISCONNECTED</desc>
			<path d="M5.65 1135.18 A15.174 6.70604 -180 0 0 15.17 1136.66 L690.62 1136.66 A15.174 6.70604 -180 0 0 700.14 1135.18
							 A8.50394 8.50394 -180 0 0 705.79 1127.17 L705.79 1124.71 A4.25197 4.25197 -180 0 0 704.65 1121.82 A15.174
							 6.70604 -180 0 0 690.62 1117.66 L15.17 1117.66 A15.174 6.70604 -180 0 0 5.65 1119.15 A8.50394 8.50394 -180
						 0 0 0 1127.16 L0 1127.17 A8.50394 8.50394 -180 0 0 5.65 1135.18 Z" class="st1"/>
			<text x="4" y="1130.16" class="st5">STATE_DISCONNECTED</text>		</g>
		<g id="shape1044-176" transform="translate(78.2441,-831.737)">
			<title>Sheet.1044</title>
			<desc>entry / sampling_begin_common(); LOCATION_SEARCH_DONE ...</desc>
			<path d="M0 1129.31 A6.99693 7.3555 -180 0 0 7 1136.66 L226.23 1136.66 A6.99693 7.3555 -180 0 0 233.23 1129.31 L233.23
						 1076.59 A6.99693 7.3555 -180 0 0 226.23 1069.24 L7 1069.24 A6.99693 7.3555 -180 0 0 -0 1076.59 L0 1129.31
						 Z" class="st1"/>
			<text x="4" y="1100.55" class="st6">
				<tspan x="4" dy="0" class="st10">entry / sampling_begin_common();</tspan>
				<tspan x="4" dy="2.4em" class="st10">LOCATION_SEARCH_DONE / ;</tspan>
				<tspan x="4" dy="1.2em" class="st10">BUTTON_PRESS_SHORT / ignored();</tspan>
			</text>		</g>
		<g id="shape1045-181" transform="translate(78.2441,-880.161)">
			<title>Sheet.1045</title>
			<desc>STATE_DISCONNECTED_SAMPLING</desc>
			<path d="M0 1129.96 A6.99693 6.70604 -180 0 0 7 1136.66 L226.23 1136.66 A6.99693 6.70604 -180 0 0 233.23 1129.96 L233.23
						 1124.37 A6.99693 6.70604 -180 0 0 226.23 1117.66 L7 1117.66 A6.99693 6.70604 -180 0 0 -0 1124.37 L0 1129.96
						 Z" class="st1"/>
			<text x="4" y="1130.16" class="st5">STATE_DISCONNECTED_SAMPLING</text>		</g>
		<g id="shape1047-184" transform="translate(29.2393,-1066.98)">
			<title>Sheet.1047</title>
			<desc>entry / start_sample_timer (sample_interval); start_send_time...</desc>
			<rect x="0" y="1117.66" width="529.325" height="19" class="st9"/>
			<text x="12.63" y="1136.16" class="st5">
				<tspan x="0" dy="0" class="st10">entry / start_send_timer(send_interval)</tspan>
				<tspan x="0" dy="2.4em" class="st10">FOTA_DOWNLOADING_UPDATE / ; </tspan>
				<tspan x="0" dy="2.4em" class="st10">exit / timer_sample_stop(); timer_send_data_stop(); </tspan>
			</text></g>
		<g id="shape1057-193" transform="translate(67.6609,-981.049)">
			<title>Sheet.1057</title>
			<desc>CLOUD_CONNECTED / ; TIMER_EXPIRED_CLOUD timer_send_data_start(); ...</desc>
			<rect x="0" y="1129.74" width="276.549" height="106.92211" class="st9"/>
			<text x="4" y="1145.2" class="st6">
				<tspan x="4" dy="0" class="st10">CLOUD_CONNECTED / ;</tspan>
				<tspan x="4" dy="1.2em" class="st10">TIMER_EXPIRED_CLOUD / timer_send_data_start();</tspan>
				<tspan x="4" dy="1.2em" class="st10">BUTTON_PRESS_LONG / ignored();</tspan>
				<tspan x="4" dy="1.2em" class="st10">STORAGE_THRESHOLD_REACHED / ignored();</tspan>
			</text>	</g>
		<g id="shape1059-198" transform="translate(325.338,-831.737)">
			<title>Sheet.1059</title>
			<desc>entry / set_led();</desc>
			<path d="M0 1129.31 A6.99693 7.3555 -180 0 0 7 1136.66 L226.23 1136.66 A6.99693 7.3555 -180 0 0 233.23 1129.31 L233.23
						 1076.59 A6.99693 7.3555 -180 0 0 226.23 1069.24 L7 1069.24 A6.99693 7.3555 -180 0 0 -0 1076.59 L0 1129.31
						 Z" class="st1"/>
			<text x="4" y="1096.35" class="st6">
				<tspan x="4" dy="0" class="st10">entry / set_led();</tspan>
				<tspan x="4" dy="2.4em" class="st10">TIMER_EXPIRED_SAMPLE_DATA / ;</tspan>
				<tspan x="4" dy="1.2em" class="st10">TIMER_CONFIG_CHANGED / ;</tspan>
				<tspan x="4" dy="1.2em" class="st10">BUTTON_PRESS_SHORT / ;</tspan>
			</text>		</g>
		<g id="shape1060-201" transform="translate(325.338,-880.161)">
			<title>Sheet.1060</title>
			<desc>STATE_DISCONNECTED_WAITING</desc>
			<path d="M0 1129.96 A6.99693 6.70604 -180 0 0 7 1136.66 L226.23 1136.66 A6.99693 6.70604 -180 0 0 233.23 1129.96 L233.23
						 1124.37 A6.99693 6.70604 -180 0 0 226.23 1117.66 L7 1117.66 A6.99693 6.70604 -180 0 0 -0 1124.37 L0 1129.96
						 Z" class="st1"/>
			<text x="4" y="1130.16" class="st5">STATE_DISCONNECTED_WAITING</text>		</g>
		<g id="shape1061-204" transform="translate(441.951,-892.075)">
			<title>Dynamic connector.1061</title>
			<path d="M0 1129.57 L0 1112.81 L-247.09 1112.81 L-247.09 1122.53" class="st3"/>
		</g>
		<g id="shape1062-209" transform="translate(405,-1046)">
			<title>Dynamic connector.1062</title>
			<path d="M0 1140 L30 1140 L30 1174" class="st3"/>
		</g>
		<g id="shape1063-214" transform="translate(400,-1040)">
			<title>Initial state.1063</title>
			<ellipse cx="2.57022" cy="1133.78" rx="2.88" ry="2.88" class="st8"/>
		</g>
		<g id="shape1062-209" transform="translate(444,-941)">
			<title>Dynamic connector.1062</title>
			<path d="M0 1140 L30 1140 L30 1170" class="st3"/>
		</g>
		<g id="shape1063-214" transform="translate(440,-935)">
			<title>Initial state.1063</title>
			<ellipse cx="2.57022" cy="1133.78" rx="2.88" ry="2.88" class="st8"/>
		</g>
		<g id="shape1064-216" transform="translate(194.857,-824.651)">
			<title>Dynamic connector.1064</title>
			<path d="M0 1129.57 L0 1147.06 L247.09 1147.06 L247.09 1136.61" class="st3"/>
		</g>
		<g id="shape1065-221" transform="translate(262.617,-925.406)">
			<title>Sheet.1065</title>
			<desc>TIMER_EXPIRED_SAMPLE_DATA || BUTTON_PRESS_SHORT</desc>
			<rect x="0" y="1129.74" width="163.185" height="6.92211" class="st9"/>
			<text x="14.83" y="1130.8" class="st6">TIMER_EXPIRED_SAMPLE_DATA || <tspan x="33.14" dy="1.2em" class="st10">BUTTON_PRESS_SHORT</tspan></text>		</g>
		<g id="shape1066-225" transform="translate(250.888,-801.977)">
			<title>Sheet.1066</title>
			<desc>LOCATION_SEARCH_DONE</desc>
			<rect x="0" y="1129.74" width="131.774" height="6.92211" class="st9"/>
			<text x="12.76" y="1135.6" class="st6">LOCATION_SEARCH_DONE</text>		</g>
		<g id="shape1070-233" transform="translate(72.8726,-537.897)">
			<title>Sheet.1070</title>
			<path d="M0 1243.22 A15.174 23.4416 -180 0 0 15.17 1266.66 L690.62 1266.66 A15.174 23.4416 -180 0 0 705.79 1243.22 L705.79
							 945.23 A15.174 23.4416 -180 0 0 690.62 921.79 L15.17 921.79 A15.174 23.4416 -180 0 0 0 945.23 L0 1243.22
						 Z" class="st1"/>
		</g>
		<g id="shape1071-235" transform="translate(72.8726,-733.907)">
			<title>Sheet.1071</title>
			<desc>STATE_CONNECTED</desc>
			<path d="M5.65 1135.18 A15.174 6.70604 -180 0 0 15.17 1136.66 L690.62 1136.66 A15.174 6.70604 -180 0 0 700.14 1135.18
							 A8.50394 8.50394 -180 0 0 705.79 1127.17 L705.79 1124.71 A4.25197 4.25197 -180 0 0 704.65 1121.82 A15.174
							 6.70604 -180 0 0 690.62 1117.66 L15.17 1117.66 A15.174 6.70604 -180 0 0 5.65 1119.15 A8.50394 8.50394 -180
						 0 0 0 1127.16 L0 1127.17 A8.50394 8.50394 -180 0 0 5.65 1135.18 Z" class="st1"/>
			<text x="4" y="1130.16" class="st5">STATE_CONNECTED</text>		</g>
		<g id="shape1073-238" transform="translate(82.5986,-582.5)">
			<title>Sheet.1073</title>
			<desc>entry / sampling_begin_common(); LOCATION_SEARCH_DONE ...</desc>
			<path d="M0 1139.31 A6.99693 7.3555 -180 0 0 7 1146.66 L226.23 1146.66 A6.99693 7.3555 -180 0 0 233.23 1139.31 L233.23
						 1076.59 A6.99693 7.3555 -180 0 0 226.23 1069.24 L7 1069.24 A6.99693 7.3555 -180 0 0 -0 1076.59 L0 1139.31
						 Z" class="st1"/>
			<text x="4" y="1100.55" class="st6">
				<tspan x="4" dy="0" class="st10">entry / sampling_begin_common();</tspan>
				<tspan x="4" dy="2.4em" class="st10">LOCATION_SEARCH_DONE / ;</tspan>
				<tspan x="4" dy="1.2em" class="st10">BUTTON_PRESS_SHORT / ignored();</tspan>
				<tspan x="4" dy="1.2em" class="st10">STORAGE_THRESHOLD_REACHED / ignored();</tspan>
			</text>		</g>
		<g id="shape1074-243" transform="translate(82.5986,-630.924)">
			<title>Sheet.1074</title>
			<desc>STATE_CONNECTED_SAMPLING</desc>
			<path d="M0 1129.96 A6.99693 6.70604 -180 0 0 7 1136.66 L226.23 1136.66 A6.99693 6.70604 -180 0 0 233.23 1129.96 L233.23
						 1124.37 A6.99693 6.70604 -180 0 0 226.23 1117.66 L7 1117.66 A6.99693 6.70604 -180 0 0 -0 1124.37 L0 1129.96
						 Z" class="st1"/>
			<text x="4" y="1130.16" class="st5">STATE_CONNECTED_SAMPLING</text>		</g>
		<g id="shape1075-246" transform="translate(72.0154,-731.812)">
			<title>Sheet.1075</title>
			<desc>CLOUD_DISCONNECTED, TIMER_EXPIRED_CLOUD ...</desc>
			<rect x="0" y="1129.74" width="450.323" height="6.92211" class="st9"/>
			<text x="4" y="1154.2" class="st5">
				<tspan x="4" dy="-0.5em" class="st10">CLOUD_DISCONNECTED / ;</tspan>
				<tspan x="4" dy="1.2em" class="st10">TIMER_EXPIRED_CLOUD / ;</tspan>
				<tspan x="4" dy="1.2em" class="st10">BUTTON_PRESS_LONG / ;</tspan>
			</text>		</g>
		<g id="shape1076-249" transform="translate(329.693,-582.5)">
			<title>Sheet.1076</title>
			<desc>TIMER_EXPIRED_SAMPLE_DATA, TIMER_CONFIG_CHANGED ...</desc>
			<path d="M0 1139.31 A6.99693 7.3555 -180 0 0 7 1146.66 L226.23 1146.66 A6.99693 7.3555 -180 0 0 233.23 1139.31 L233.23
						 1076.59 A6.99693 7.3555 -180 0 0 226.23 1069.24 L7 1069.24 A6.99693 7.3555 -180 0 0 -0 1076.59 L0 1139.31
						 Z" class="st1"/>
			<text x="4" y="1105.35" class="st6">
				<tspan x="4" dy="1.2em" class="st10">LOCATION_SEARCH_DONE / ;</tspan>
				<tspan x="4" dy="1.2em" class="st10">BUTTON_PRESS_SHORT / ignored();</tspan>
				<tspan x="4" dy="1.2em" class="st10">STORAGE_THRESHOLD_REACHED / ignored();</tspan>
			</text>		</g>
		<g id="shape1111-501" transform="translate(329.693,-461.5)">
			<title>Sheet.1111</title>
			<desc>entry / cloud_send_now...</desc>
			<path d="M0 1139.31 A6.99693 7.3555 -180 0 0 7 1146.66 L226.23 1146.66 A6.99693 7.3555 -180 0 0 233.23 1139.31 L233.23
						 1076.59 A6.99693 7.3555 -180 0 0 226.23 1069.24 L7 1069.24 A6.99693 7.3555 -180 0 0 -0 1076.59 L0 1139.31
						 Z" class="st1"/>
			<text x="4" y="1097.35" class="st6">
				<tspan x="4" dy="0" class="st10">entry / cloud_send_now();</tspan>
				<tspan x="4" dy="2.4em" class="st10">TIMER_EXPIRED_SAMPLE_DATA / ;</tspan>
				<tspan x="4" dy="1.2em" class="st10">BUTTON_PRESS_SHORT / ;</tspan>
				<tspan x="4" dy="1.2em" class="st10">STORAGE_BATCH_CLOSE / ;</tspan>
				<tspan x="4" dy="1.2em" class="st10">STORAGE_THRESHOLD_REACHED / ignored();</tspan>
			</text>		</g>
		<g id="shape1110-500" transform="translate(329.693,-510)">
			<title>Sheet.1110</title>
			<desc>STATE_CONNECTED_SENDING</desc>
			<path d="M0 1129.96 A6.99693 6.70604 -180 0 0 7 1136.66 L226.23 1136.66 A6.99693 6.70604 -180 0 0 233.23 1129.96 L233.23
						 1124.37 A6.99693 6.70604 -180 0 0 226.23 1117.66 L7 1117.66 A6.99693 6.70604 -180 0 0 -0 1124.37 L0 1129.96
						 Z" class="st1"/>
			<text x="4" y="1130.16" class="st5">STATE_CONNECTED_SENDING</text>		</g>
		<g id="shape1077-252" transform="translate(329.693,-630.924)">
			<title>Sheet.1077</title>
			<desc>STATE_CONNECTED_WAITING</desc>
			<path d="M0 1129.96 A6.99693 6.70604 -180 0 0 7 1136.66 L226.23 1136.66 A6.99693 6.70604 -180 0 0 233.23 1129.96 L233.23
						 1124.37 A6.99693 6.70604 -180 0 0 226.23 1117.66 L7 1117.66 A6.99693 6.70604 -180 0 0 -0 1124.37 L0 1129.96
						 Z" class="st1"/>
			<text x="4" y="1130.16" class="st5">STATE_CONNECTED_WAITING</text>		</g>
		<g id="shape1078-255" transform="translate(446.306,-642.837)">
			<title>Dynamic connector.1078</title>
			<path d="M0 1129.57 L0 1112.81 L-247.09 1112.81 L-247.09 1122.53" class="st3"/>
		</g>
		<g id="shape1079-260" transform="translate(445,-683.759)">
			<title>Dynamic connector.1079</title>
			<path d="M0 1133 L30 1133 L30 1163.46" class="st3"/>
		</g>
		<g id="shape1080-265" transform="translate(153.72,-680.877)">
			<title>Initial state.1080</title>
			<ellipse cx="290" cy="1130" rx="2.57022" ry="2.88227" class="st8"/>
		</g>
		<g id="shape1081-267" transform="translate(199.211,-575.413)">
			<title>Dynamic connector.1081</title>
			<path d="M0 1139 L0 1150 L200 1150 L200 1146" class="st3"/>
		</g>
		<g id="shape1081-267" transform="translate(430 ,-575.413)">
			<title>Dynamic connector.1081</title>
			<path d="M0 1139 L0 1176" class="st3"/>
		</g>
		<g id="shape1081-267" transform="translate(430 ,-455)">
			<title>Dynamic connector.1081</title>
			<path d="M0 1139 L0 1150 L300 1150 L300 920 L70 920 L70 935" class="st3"/>
		</g>
		<g id="shape1081-267" transform="translate(145 ,-575)">
			<title>Dynamic connector.1081</title>
			<path d="M0 1139 L0 1210 L178 1210" class="st3"/>
		</g>
		<g id="shape1081-267" transform="translate(400 ,-455)">
			<title>Dynamic connector.1081</title>
			<path d="M0 1139 L0 1150 L-322 1150 L-322 920 L-250 920 L-250 935" class="st3"/>
		</g>
		<g id="shape1081-267" transform="translate(778 ,-550)">
			<title>Dynamic connector.1081</title>
			<path d="M0 1140 L-300 1140 L-300 1150" class="st3"/>
		</g>
		<g id="shape1082-272" transform="translate(255.242,-676.169)">
			<title>Sheet.1082</title>
			<desc>TIMER_EXPIRED_SAMPLE_DATA || BUTTON_PRESS_SHORT</desc>
			<rect x="0" y="1129.74" width="163.185" height="6.92211" class="st9"/>
			<text x="14.83" y="1130.8" class="st6">TIMER_EXPIRED_SAMPLE_DATA || <tspan x="33.14" dy="1.2em" class="st10">BUTTON_PRESS_SHORT</tspan></text>		</g>
		<g id="shape1083-276" transform="translate(220,-552.739)">
			<title>Sheet.1083</title>
			<desc>LOCATION_SEARCH_DONE</desc>
			<rect x="0" y="1129.74" width="131.774" height="6.92211" class="st9"/>
			<text x="0" y="1135.6" class="st6">
				<tspan x="0" dy="0" class="st10">LOCATION_SEARCH_DONE &amp;&amp;</tspan>
				<tspan x="0" dy="1.2em" class="st10">prev_state != STATE_CONNECTED_SENDING</tspan>
				</text>		</g>
		<g id="shape1083-276" transform="translate(435,-560)">
			<title>Sheet.1083</title>
			<desc>STORAGE_THRESHOLD_REACHED</desc>
			<rect x="0" y="1129.74" width="131.774" height="6.92211" class="st9"/>
			<text x="0" y="1135.6" class="st6">
				<tspan x="0" dy="0" class="st10">STORAGE_THRESHOLD_REACHED</tspan>
			</text>		</g>
		<g id="shape1083-276" transform="translate(580,-445)">
			<title>Sheet.1083</title>
			<desc>STORAGE_BATCH_CLOSE</desc>
			<rect x="0" y="1129.74" width="131.774" height="6.92211" class="st9"/>
			<text x="0" y="1135.6" class="st6">
				<tspan x="0" dy="0" class="st10">STORAGE_BATCH_CLOSE</tspan>
			</text>		</g>
		<g id="shape1083-276" transform="translate(145,-490)">
			<title>Sheet.1083</title>
			<desc>STORAGE_BATCH_CLOSE</desc>
			<rect x="0" y="1129.74" width="131.774" height="6.92211" class="st9"/>
			<text x="0" y="1135.6" class="st6">
				<tspan x="0" dy="0" class="st10">(LOCATION_SEARCH_DONE &amp;&amp;</tspan>
				<tspan x="0" dy="1.2em" class="st10">prev_state == STATE_CONNECTED_SENDING) ||</tspan>
				<tspan x="0" dy="1.2em" class="st10">STORAGE_THRESHOLD_REACHED</tspan>
				</text>		</g>
		<g id="shape1083-276" transform="translate(145,-430)">
			<title>Sheet.1083</title>
			<desc>STORAGE_BATCH_CLOSE</desc>
			<rect x="0" y="1129.74" width="131.774" height="6.92211" class="st9"/>
			<text x="0" y="1135.6" class="st6">
				<tspan x="0" dy="0" class="st10">TIMER_EXPIRED_SAMPLE_DATA ||</tspan>
				<tspan x="0" dy="1.2em" class="st10">BUTTON_PRESS_SHORT</tspan>
				</text>		</g>
		<g id="shape1083-276" transform="translate(600,-535)">
			<title>Sheet.1083</title>
			<desc>STORAGE_BATCH_CLOSE</desc>
			<rect x="0" y="1129.74" width="131.774" height="6.92211" class="st9"/>
			<text x="0" y="1135.6" class="st6">
				<tspan x="0" dy="0" class="st10">TIMER_EXPIRED_CLOUD ||</tspan>
				<tspan x="0" dy="1.2em" class="st10">BUTTON_PRESS_LONG</tspan>
				</text>		</g>
		<g id="shape1084-279" transform="translate(255.409,-787.135)">
			<title>Dynamic connector.1084</title>
			<path d="M7.09 1136.66 L7.09 1163.64" class="st3"/>
		</g>
		<g id="shape1085-284" transform="translate(337.123,-787.135)">
			<title>Dynamic connector.1085</title>
			<path d="M7.09 1141.9 L7.09 1142.26 L7.09 1170.68" class="st11"/>
		</g>
		<g id="shape1086-290" transform="translate(333.362,-766.039)">
			<title>Sheet.1086</title>
			<desc>CLOUD_DISCONNECTED</desc>
			<rect x="0" y="1129.74" width="121.239" height="6.92211" class="st9"/>
			<text x="12.39" y="1135.6" class="st6">CLOUD_DISCONNECTED</text>		</g>
		<g id="shape1087-293" transform="translate(158.404,-767.344)">
			<title>Sheet.1087</title>
			<desc>CLOUD_CONNECTED</desc>
			<rect x="0" y="1129.74" width="121.239" height="6.92211" class="st9"/>
			<text x="19.06" y="1135.6" class="st6">CLOUD_CONNECTED</text>		</g>
		<g id="shape1103-341" transform="translate(345.28,-1123.03)">
			<title>Initial state.1103</title>
			<ellipse cx="2.57022" cy="1133.78" rx="2.57022" ry="2.88227" class="st8"/>
		</g>
		<g id="shape1105-343" transform="translate(282.269,-393.25)">
			<title>Dynamic connector.1105</title>
			<path d="M-6.54 1136.66 L-7.41 1165.2" class="st3"/>
		</g>
		<g id="shape1106-348" transform="translate(377.772,-393.25)">
			<title>Dynamic connector.1106</title>
			<path d="M7.09 1141.9 L7.09 1142.26 L7.09 1172.24" class="st11"/>
		</g>
		<g id="shape1107-353" transform="translate(377.832,-370.243)">
			<title>Sheet.1107</title>
			<desc>FOTA_DOWNLOADED_CANCELED || FOTA_DOWNLOADED_TIMED_OUT || FOTA...</desc>
			<rect x="0" y="1125.36" width="163.185" height="11.3017" class="st9"/>
			<text x="12.39" y="1123.81" class="st6">FOTA_DOWNLOADED_CANCELED || <tspan x="11.06" dy="1.2em" class="st10">FOTA_DOWNLOADED_TIMED_OUT || </tspan><tspan
						x="23.36" dy="1.2em" class="st10">FOTA_DOWNLOADED_FAILED</tspan></text>		</g>
		<g id="shape1108-358" transform="translate(137.698,-364.758)">
			<title>Sheet.1108</title>
			<desc>FOTA_DOWNLOADING_UPDATE</desc>
			<rect x="0" y="1117.66" width="145.659" height="19" class="st9"/>
			<text x="10.82" y="1129.56" class="st6">FOTA_DOWNLOADING_UPDATE</text>		</g>
		<g id="shape1089-360" transform="translate(325.338,-880.161)">
			<title>Dynamic connector.1089</title>
			<path d="M233 1177 L280 1177 L280 1140 L239 1140" class="st3"/>
		</g>
		<g id="shape1090-361" transform="translate(300,-850)">
			<title>Sheet.1090</title>
			<desc>TIMER_CONFIG_CHANGED</desc>
			<rect x="300" y="1129.74" width="130" height="6.92211" class="st9"/>
			<text x="310" y="1135.6" class="st6">TIMER_CONFIG_CHANGED</text>		</g>
		<g id="shape1091-362" transform="translate(329.693,-630.924)">
			<title>Dynamic connector.1091</title>
			<path d="M233 1177 L280 1177 L280 1140 L239 1140" class="st3"/>
		</g>
		<g id="shape1092-363" transform="translate(305,-600)">
			<title>Sheet.1092</title>
			<desc>TIMER_CONFIG_CHANGED</desc>
			<rect x="300" y="1129.74" width="130" height="6.92211" class="st9"/>
			<text x="310" y="1135.6" class="st6">TIMER_CONFIG_CHANGED</text>		</g>
	</g>
</svg>
