<?xml version="1.0" encoding="UTF-8" standalone="no"?>
<!DOCTYPE svg PUBLIC "-//W3C//DTD SVG 1.1//EN" "http://www.w3.org/Graphics/SVG/1.1/DTD/svg11.dtd">
<!-- Generated by Microsoft Visio, SVG Export module_thread_smf_zbus.svg Page-1 -->
<svg xmlns="http://www.w3.org/2000/svg" xmlns:xlink="http://www.w3.org/1999/xlink" xmlns:ev="http://www.w3.org/2001/xml-events"
		xmlns:v="http://schemas.microsoft.com/visio/2003/SVGExtensions/" width="4.8125in" height="2.72917in"
		viewBox="0 0 346.5 196.5" xml:space="preserve" color-interpolation-filters="sRGB" class="st7">
	<v:documentProperties v:langID="1035" v:viewMarkup="false"/>

	<style type="text/css">
	<![CDATA[
		.st1 {fill:#ffffff;stroke:#000000;stroke-linecap:butt;stroke-width:0.75}
		.st2 {fill:#ffffff;stroke:#ffffff;stroke-linecap:butt;stroke-width:0.75}
		.st3 {fill:#000000;font-family:Arial;font-size:0.833336em;font-weight:bold}
		.st4 {fill:#000000;font-family:Arial;font-size:0.833336em}
		.st5 {marker-end:url(#mrkr5-29);stroke:#000000;stroke-linecap:butt;stroke-width:1}
		.st6 {fill:#000000;fill-opacity:1;stroke:#000000;stroke-opacity:1;stroke-width:0.28409090909091}
		.st7 {fill:none;fill-rule:evenodd;font-size:12px;overflow:visible;stroke-linecap:square;stroke-miterlimit:3}
	]]>
	</style>

	<defs id="Markers">
		<g id="lend5">
			<path d="M 2 1 L 0 0 L 1.98117 -0.993387 C 1.67173 -0.364515 1.67301 0.372641 1.98465 1.00043 " style="stroke:none"/>
		</g>
		<marker id="mrkr5-29" class="st6" v:arrowType="5" v:arrowSize="2" v:setback="6.16" refX="-6.16" orient="auto"
				markerUnits="strokeWidth" overflow="visible">
			<use xlink:href="#lend5" transform="scale(-3.52,-3.52) "/>
		</marker>
	</defs>
	<g v:mID="0" v:index="1" v:groupContext="foregroundPage">
		<title>Page-1</title>
		<v:pageProperties v:drawingScale="0.0393701" v:pageScale="0.0393701" v:drawingUnits="24" v:shadowOffsetX="8.50394"
				v:shadowOffsetY="-8.50394"/>
		<v:layer v:name="Connector" v:index="0"/>
		<g id="shape327-1" v:mID="327" v:groupContext="shape" transform="translate(0.75,-0.75)">
			<title>Sheet.327</title>
			<path d="M0 190.5 A6.00014 6.00014 -180 0 0 6 196.5 L339 196.5 A6.00014 6.00014 -180 0 0 345 190.5 L345 7.5 A6.00014
						 6.00014 -180 0 0 339 1.5 L6 1.5 A6.00014 6.00014 -180 0 0 -0 7.5 L0 190.5 Z" class="st1"/>
		</g>
		<g id="shape328-3" v:mID="328" v:groupContext="shape" transform="translate(135.75,-174)">
			<title>Sheet.328</title>
			<desc>Module Thread</desc>
			<v:textBlock v:margins="rect(0,0,0,0)" v:tabSpace="42.5197"/>
			<v:textRect cx="38.2972" cy="190.5" width="76.6" height="12"/>
			<rect x="0" y="184.5" width="76.5945" height="12" class="st2"/>
			<text x="0" y="193.5" class="st3" v:langID="1033"><v:paragraph/><v:tabList/>Module Thread</text>		</g>
		<g id="shape329-6" v:mID="329" v:groupContext="shape" transform="translate(15.75,-15.75)">
			<title>Sheet.329</title>
			<path d="M-0 192 A4.5001 4.5001 -180 0 0 4.5 196.5 L310.5 196.5 A4.5001 4.5001 -180 0 0 315 192 L315 51 A4.5001 4.5001
						 -180 0 0 310.5 46.5 L4.5 46.5 A4.5001 4.5001 -180 0 0 0 51 L0 192 Z" class="st1"/>
		</g>
		<g id="shape330-8" v:mID="330" v:groupContext="shape" transform="translate(117,-144)">
			<title>Sheet.330</title>
			<desc>Message Processing Loop</desc>
			<v:textBlock v:margins="rect(0,0,0,0)" v:tabSpace="42.5197"/>
			<v:textRect cx="65" cy="190.5" width="130.01" height="12"/>
			<rect x="0" y="184.5" width="130" height="12" class="st2"/>
			<text x="0" y="193.5" class="st4" v:langID="1033"><v:paragraph/><v:tabList/>Message Processing Loop</text>		</g>
		<g id="shape331-11" v:mID="331" v:groupContext="shape" transform="translate(98.25,-105.75)">
			<title>Sheet.331</title>
			<path d="M0 193.5 A3.00007 3.00007 -180 0 0 3 196.5 L132 196.5 A3.00007 3.00007 -180 0 0 135 193.5 L135 169.5 A3.00007
						 3.00007 -180 0 0 132 166.5 L3 166.5 A3.00007 3.00007 -180 0 0 0 169.5 L0 193.5 Z" class="st1"/>
		</g>
		<g id="shape332-13" v:mID="332" v:groupContext="shape" transform="translate(117,-114)">
			<title>Sheet.332</title>
			<desc>zbus_sub_wait_msg()</desc>
			<v:textBlock v:margins="rect(0,0,0,0)" v:tabSpace="42.5197"/>
			<v:textRect cx="52.5" cy="190.5" width="105" height="12"/>
			<rect x="0" y="184.5" width="105" height="12" class="st2"/>
			<text x="0" y="193.5" class="st4" v:langID="1033"><v:paragraph/><v:tabList/>zbus_sub_wait_msg()</text>		</g>
		<g id="shape334-16" v:mID="334" v:groupContext="shape" transform="translate(173.25,-78.75)">
			<title>Sheet.334</title>
			<desc>New Message</desc>
			<v:textBlock v:margins="rect(0,0,0,0)" v:tabSpace="42.5197"/>
			<v:textRect cx="32.5" cy="190.5" width="65.01" height="12"/>
			<rect x="0" y="184.5" width="65" height="12" class="st2"/>
			<text x="0" y="193.5" class="st4" v:langID="1033"><v:paragraph/><v:tabList/>New Message</text>		</g>
		<g id="shape335-19" v:mID="335" v:groupContext="shape" transform="translate(113.25,-30.75)">
			<title>Sheet.335</title>
			<path d="M-0 193.5 A3.00007 3.00007 -180 0 0 3 196.5 L102 196.5 A3.00007 3.00007 -180 0 0 105 193.5 L105 169.5 A3.00007
						 3.00007 -180 0 0 102 166.5 L3 166.5 A3.00007 3.00007 -180 0 0 -0 169.5 L0 193.5 Z" class="st1"/>
		</g>
		<g id="shape336-21" v:mID="336" v:groupContext="shape" transform="translate(128.25,-39)">
			<title>Sheet.336</title>
			<desc>smf_run_state()</desc>
			<v:textBlock v:margins="rect(0,0,0,0)" v:tabSpace="42.5197"/>
			<v:textRect cx="38.2972" cy="190.5" width="76.6" height="12"/>
			<rect x="0" y="184.5" width="76.5945" height="12" class="st2"/>
			<text x="0" y="193.5" class="st4" v:langID="1033"><v:paragraph/><v:tabList/>smf_run_state()</text>		</g>
		<g id="shape340-24" v:mID="340" v:groupContext="shape" v:layerMember="0" transform="translate(158.073,-105.75)">
			<title>Dynamic connector</title>
			<path d="M7.09 196.5 L7.09 235.69" class="st5"/>
		</g>
		<g id="shape348-30" v:mID="348" v:groupContext="shape" v:layerMember="0" transform="translate(218.25,-47.4626)">
			<title>Dynamic connector.348</title>
			<path d="M0 196.5 L35.25 196.5 L35.25 123.04 L21.16 123.04" class="st5"/>
		</g>
	</g>
</svg>
