<?xml version="1.0" encoding="UTF-8" standalone="no"?>
<!DOCTYPE svg PUBLIC "-//W3C//DTD SVG 1.1//EN" "http://www.w3.org/Graphics/SVG/1.1/DTD/svg11.dtd">
<!-- Generated by Microsoft Visio, SVG Export network_module_state_diagram.svg Page-1 -->
<svg xmlns="http://www.w3.org/2000/svg" xmlns:xlink="http://www.w3.org/1999/xlink" xmlns:ev="http://www.w3.org/2001/xml-events"
		xmlns:v="http://schemas.microsoft.com/visio/2003/SVGExtensions/" width="7.71174in" height="6.54809in"
		viewBox="0 0 555.246 471.462" xml:space="preserve" color-interpolation-filters="sRGB" class="st20">
	<v:documentProperties v:langID="1035" v:viewMarkup="false"/>

	<style type="text/css">
	<![CDATA[
		.st1 {fill:#d9e1e2;stroke:none;stroke-width:1}
		.st2 {fill:#333f48;stroke:#333f48;stroke-width:1}
		.st3 {marker-end:url(#mrkr4-10);stroke:#333f48;stroke-linecap:butt;stroke-width:1}
		.st4 {fill:#333f48;fill-opacity:1;stroke:#333f48;stroke-opacity:1;stroke-width:0.28409090909091}
		.st5 {fill:none;stroke:none;stroke-width:1}
		.st6 {fill:#000000;font-family:Arial;font-size:0.666664em}
		.st7 {fill:#000000;font-family:Arial;font-size:0.666664em;font-weight:bold}
		.st8 {font-size:1em;font-weight:normal}
		.st9 {fill:#00a2c6;stroke:none;stroke-width:1}
		.st10 {fill:#768692;stroke:none;stroke-width:1}
		.st11 {fill:#ffffff;font-family:Arial;font-size:0.666664em}
		.st12 {font-size:1em}
		.st13 {marker-start:url(#mrkr4-42);stroke:#333f48;stroke-linecap:butt;stroke-width:1}
		.st14 {fill:#000000;font-family:Arial;font-size:0.499992em}
		.st15 {marker-end:url(#mrkr4-62);stroke:#333f48;stroke-linecap:butt;stroke-width:1}
		.st16 {marker-end:url(#mrkr4-80);stroke:#000000;stroke-linecap:butt;stroke-width:1}
		.st17 {fill:#000000;fill-opacity:1;stroke:#000000;stroke-opacity:1;stroke-width:0.28409090909091}
		.st18 {marker-end:url(#mrkr4-94);stroke:#333f48;stroke-linecap:butt;stroke-width:1}
		.st19 {fill:#ffffff;font-family:Arial;font-size:0.666664em;font-weight:bold}
		.st20 {fill:none;fill-rule:evenodd;font-size:12px;overflow:visible;stroke-linecap:square;stroke-miterlimit:3}
	]]>
	</style>

	<defs id="Markers">
		<g id="lend4">
			<path d="M 2 1 L 0 0 L 2 -1 L 2 1 " style="stroke:none"/>
		</g>
		<marker id="mrkr4-10" class="st4" v:arrowType="4" v:arrowSize="2" v:setback="7.04" refX="-7.04" orient="auto"
				markerUnits="strokeWidth" overflow="visible">
			<use xlink:href="#lend4" transform="scale(-3.52,-3.52) "/>
		</marker>
		<marker id="mrkr4-42" class="st4" v:arrowType="4" v:arrowSize="2" v:setback="6.68" refX="6.68" orient="auto"
				markerUnits="strokeWidth" overflow="visible">
			<use xlink:href="#lend4" transform="scale(3.52) "/>
		</marker>
		<marker id="mrkr4-62" class="st4" v:arrowType="4" v:arrowSize="2" v:setback="0" refX="-0" orient="auto"
				markerUnits="strokeWidth" overflow="visible">
			<use xlink:href="#lend4" transform="scale(-3.52,-3.52) "/>
		</marker>
		<marker id="mrkr4-80" class="st17" v:arrowType="4" v:arrowSize="2" v:setback="7.04" refX="-7.04" orient="auto"
				markerUnits="strokeWidth" overflow="visible">
			<use xlink:href="#lend4" transform="scale(-3.52,-3.52) "/>
		</marker>
		<marker id="mrkr4-94" class="st4" v:arrowType="4" v:arrowSize="2" v:setback="6.68" refX="-6.68" orient="auto"
				markerUnits="strokeWidth" overflow="visible">
			<use xlink:href="#lend4" transform="scale(-3.52,-3.52) "/>
		</marker>
	</defs>
	<g v:mID="0" v:index="1" v:groupContext="foregroundPage">
		<title>Page-1</title>
		<v:pageProperties v:drawingScale="0.0393701" v:pageScale="0.0393701" v:drawingUnits="24" v:shadowOffsetX="8.50394"
				v:shadowOffsetY="-8.50394"/>
		<v:layer v:name="Connector" v:index="0"/>
		<g id="shape5-1" v:mID="5" v:groupContext="shape" transform="translate(1.48958,-1)">
			<title>Ellipse.1002</title>
			<v:userDefs>
				<v:ud v:nameU="visVersion" v:val="VT0(15):26"/>
			</v:userDefs>
			<path d="M0 252.87 A276.378 218.596 0 0 1 552.76 252.87 A276.378 218.596 0 1 1 0 252.87 Z" class="st1"/>
		</g>
		<g id="shape6-3" v:mID="6" v:groupContext="shape" transform="translate(274.44,-459.832)">
			<title>Sheet.6</title>
			<ellipse cx="3.42799" cy="467.919" rx="3.42799" ry="3.54331" class="st2"/>
		</g>
		<g id="shape7-5" v:mID="7" v:groupContext="shape" v:layerMember="0" transform="translate(284.954,-459.832)">
			<title>Dynamic connector.58</title>
			<path d="M-7.09 471.46 L-7.09 486.06" class="st3"/>
		</g>
		<g id="shape8-11" v:mID="8" v:groupContext="shape" transform="translate(275.033,-456.289)">
			<title>Sheet.8</title>
			<desc>Start</desc>
			<v:textBlock v:margins="rect(4,4,4,4)" v:tabSpace="42.5197"/>
			<v:textRect cx="17.4901" cy="464.376" width="34.99" height="14.1732"/>
			<rect x="0" y="457.289" width="34.9803" height="14.1732" class="st5"/>
			<text x="9.04" y="466.78" class="st6" v:langID="1044"><v:paragraph v:horizAlign="1"/><v:tabList/>Start</text>		</g>
		<g id="shape9-14" v:mID="9" v:groupContext="shape" transform="translate(232.513,-418.021)">
			<title>Sheet.9</title>
			<desc>STATE_RUNNING entry / init()</desc>
			<v:textBlock v:margins="rect(4,4,4,4)"/>
			<v:textRect cx="52.4409" cy="464.376" width="104.89" height="14.1732"/>
			<rect x="0" y="457.289" width="104.882" height="14.1732" class="st5"/>
			<text x="18.44" y="461.98" class="st7" v:langID="1044"><v:paragraph v:horizAlign="1" v:bulletSize="0.166667"/><v:tabList/>STATE_RUNNING<v:newlineChar/><tspan
						x="32.44" dy="1.2em" class="st8">entry / init()</tspan></text>		</g>
		<g id="shape10-18" v:mID="10" v:groupContext="shape" transform="translate(59.5998,-189.416)">
			<title>Ellipse.72</title>
			<v:userDefs>
				<v:ud v:nameU="visVersion" v:val="VT0(15):26"/>
			</v:userDefs>
			<path d="M0 378.65 A223.937 92.812 0 0 1 447.87 378.65 A223.937 92.812 0 1 1 0 378.65 Z" class="st9"/>
		</g>
		<g id="shape11-20" v:mID="11" v:groupContext="shape" transform="translate(283.537,-253.882)">
			<title>Ellipse.1005</title>
			<desc>STATE_DISCONNECTED_SEARCHING</desc>
			<v:userDefs>
				<v:ud v:nameU="visVersion" v:val="VT0(15):26"/>
			</v:userDefs>
			<v:textBlock v:margins="rect(4,4,4,4)" v:verticalAlign="0"/>
			<v:textRect cx="100.561" cy="435.343" width="175.99" height="63.2084"/>
			<path d="M0 435.34 A100.561 36.1191 0 1 1 201.12 435.34 A100.561 36.1191 0 1 1 0 435.34 Z" class="st10"/>
			<text x="31.88" y="424.54" class="st11" v:langID="1044"><v:paragraph v:horizAlign="1" v:bulletSize="0.166667"/><v:tabList/><v:newlineChar/>STATE_DISCONNECTED_SEARCHING<v:newlineChar/><v:newlineChar/></text>		</g>
		<g id="shape12-23" v:mID="12" v:groupContext="shape" transform="translate(70.9384,-252.346)">
			<title>Ellipse.1151</title>
			<desc>STATE_DISCONNECTED_IDEAL NETWORK_SYSTEM_MODE_SET_* / set_sys_...</desc>
			<v:userDefs>
				<v:ud v:nameU="visVersion" v:val="VT0(15):26"/>
			</v:userDefs>
			<v:textBlock v:margins="rect(4,4,4,4)" v:verticalAlign="0"/>
			<v:textRect cx="100.561" cy="435.343" width="175.99" height="63.2084"/>
			<path d="M0 435.34 A100.561 36.1191 0 0 1 201.12 435.34 A100.561 36.1191 0 1 1 0 435.34 Z" class="st10"/>
			<text x="39.66" y="424.54" class="st11" v:langID="1035"><v:paragraph v:horizAlign="1" v:bulletSize="0.166667"/><v:tabList/><v:newlineChar/>STATE_DISCONNECTED_IDEAL<v:newlineChar/><v:newlineChar/><tspan
						x="31.21" dy="2.4em" class="st12">NETWORK_SYSTEM_MODE_SET_* / </tspan><tspan x="72.11" dy="1.2em"
						class="st12">set_sys_mode()</tspan></text>		</g>
		<g id="shape13-28" v:mID="13" v:groupContext="shape" transform="translate(233.931,-413.061)">
			<title>Sheet.13</title>
			<ellipse cx="3.42799" cy="467.919" rx="3.42799" ry="3.54331" class="st2"/>
		</g>
		<g id="shape16-30" v:mID="16" v:groupContext="shape" transform="translate(319.201,-346.447)">
			<title>Sheet.16</title>
			<ellipse cx="3.42799" cy="467.919" rx="3.42799" ry="3.54331" class="st2"/>
		</g>
		<g id="shape17-32" v:mID="17" v:groupContext="shape" v:layerMember="0" transform="translate(231.096,-324.726)">
			<title>Dynamic connector</title>
			<path d="M0 478.42 L80.8 478.66" class="st3"/>
		</g>
		<g id="shape18-37" v:mID="18" v:groupContext="shape" v:layerMember="0" transform="translate(238.183,-268.662)">
			<title>Dynamic connector.1092</title>
			<path d="M6.68 478.53 L7.04 478.53 L82.7 478.57" class="st13"/>
		</g>
		<g id="shape19-43" v:mID="19" v:groupContext="shape" transform="translate(233.703,-317.497)">
			<title>Sheet.19</title>
			<desc>NETWORK_CONNECT</desc>
			<v:textBlock v:margins="rect(4,4,4,4)" v:tabSpace="42.5197"/>
			<v:textRect cx="49.8336" cy="464.376" width="99.67" height="14.1732"/>
			<rect x="0" y="457.289" width="99.6672" height="14.1732" class="st5"/>
			<text x="7.39" y="466.78" class="st11" v:langID="1044"><v:paragraph v:horizAlign="1"/><v:tabList/>NETWORK_CONNECT</text>		</g>
		<g id="shape20-46" v:mID="20" v:groupContext="shape" transform="translate(221.622,-245.259)">
			<title>Sheet.20</title>
			<desc>NETWORK_SEARCH_STOP</desc>
			<v:textBlock v:margins="rect(4,4,4,4)" v:tabSpace="42.5197"/>
			<v:textRect cx="61.9151" cy="464.376" width="123.84" height="14.1732"/>
			<rect x="0" y="457.289" width="123.83" height="14.1732" class="st5"/>
			<text x="9.46" y="466.78" class="st11" v:langID="1044"><v:paragraph v:horizAlign="1"/><v:tabList/>NETWORK_SEARCH_STOP</text>		</g>
		<g id="shape21-49" v:mID="21" v:groupContext="shape" v:layerMember="0" transform="translate(221.622,-371.25)">
			<title>Dynamic connector.1099</title>
			<path d="M-0.06 464.78 L-0.06 464.42 C-0.12 441.01 1.03 430.26 -9.95 425.17 C-19.92 420.56 -39.9 420.62 -49.25 421.07"
					class="st13"/>
		</g>
		<g id="shape22-54" v:mID="22" v:groupContext="shape" transform="translate(132.592,-383.817)">
			<title>Sheet.22</title>
			<desc>NETWORK_DISCONNECTED</desc>
			<v:textBlock v:margins="rect(4,4,4,4)" v:tabSpace="42.5197"/>
			<v:textRect cx="46.063" cy="467.116" width="92.13" height="8.69242"/>
			<rect x="0" y="462.77" width="92.126" height="8.69242" class="st5"/>
			<text x="5.06" y="468.92" class="st14" v:langID="1044"><v:paragraph v:horizAlign="1"/><v:tabList/>NETWORK_DISCONNECTED</text>		</g>
		<g id="shape23-57" v:mID="23" v:groupContext="shape" v:layerMember="0" transform="translate(184.324,-48.3702)">
			<title>Dynamic connector.1175</title>
			<path d="M-1.35 471.46 C-16.24 465.48 -34.93 461.44 -51.48 438.36 C-72.88 408.54 -90.71 346.94 -12.83 267.49"
					class="st15"/>
		</g>
		<g id="shape24-63" v:mID="24" v:groupContext="shape" transform="translate(182.976,-101.543)">
			<title>Ellipse.1180</title>
			<desc>STATE_CONNECTED NETWORK_QUALITY_SAMPLE / sample_network_quali...</desc>
			<v:userDefs>
				<v:ud v:nameU="visVersion" v:val="VT0(15):26"/>
			</v:userDefs>
			<v:textBlock v:margins="rect(4,4,4,4)" v:verticalAlign="0"/>
			<v:textRect cx="100.561" cy="435.343" width="175.99" height="63.2084"/>
			<path d="M0 435.34 A100.561 36.1191 0 0 1 201.12 435.34 A100.561 36.1191 0 1 1 0 435.34 Z" class="st9"/>
			<text x="60.11" y="414.94" class="st11" v:langID="1035"><v:paragraph v:horizAlign="1" v:bulletSize="0.166667"/><v:tabList/>STATE_CONNECTED<v:newlineChar/><v:newlineChar/><tspan
						x="40.1" dy="2.4em" class="st12">NETWORK_QUALITY_SAMPLE / </tspan><tspan x="54.98" dy="1.2em" class="st12">sample_network_quality()</tspan></text>		</g>
		<g id="shape25-68" v:mID="25" v:groupContext="shape" transform="translate(182.976,-12.2512)">
			<title>Ellipse.1102</title>
			<desc>STATE_DISCONNECTING entry / network_disconnect();</desc>
			<v:userDefs>
				<v:ud v:nameU="visVersion" v:val="VT0(15):26"/>
			</v:userDefs>
			<v:textBlock v:margins="rect(4,4,4,4)" v:verticalAlign="0"/>
			<v:textRect cx="100.561" cy="435.343" width="175.99" height="63.2084"/>
			<path d="M0 435.34 A100.561 36.1191 0 1 1 201.12 435.34 A100.561 36.1191 0 1 1 -0 435.34 Z" class="st9"/>
			<text x="51.89" y="414.94" class="st11" v:langID="1035"><v:paragraph v:horizAlign="1" v:bulletSize="0.166667"/><v:tabList/>STATE_DISCONNECTING<v:newlineChar/><v:newlineChar/><tspan
						x="49.21" dy="2.4em" class="st12">entry / network_disconnect();</tspan></text>		</g>
		<g id="shape26-72" v:mID="26" v:groupContext="shape" transform="translate(285.548,-84.4893)">
			<title>Sheet.26</title>
			<desc>NETWORK_DISCONNECTED</desc>
			<v:textBlock v:margins="rect(4,4,4,4)" v:tabSpace="42.5197"/>
			<v:textRect cx="46.3151" cy="467.116" width="92.64" height="8.69242"/>
			<rect x="0" y="462.77" width="92.6301" height="8.69242" class="st5"/>
			<text x="5.31" y="468.92" class="st14" v:langID="1044"><v:paragraph v:horizAlign="1"/><v:tabList/>NETWORK_DISCONNECTED</text>		</g>
		<g id="shape27-75" v:mID="27" v:groupContext="shape" v:layerMember="0" transform="translate(290.623,-101.543)">
			<title>Dynamic connector.1186</title>
			<path d="M-7.09 471.46 L-7.09 481.48" class="st16"/>
		</g>
		<g id="shape28-81" v:mID="28" v:groupContext="shape" v:layerMember="0" transform="translate(276.712,-189.416)">
			<title>Dynamic connector.1187</title>
			<path d="M6.82 471.46 L7.11 480.06" class="st16"/>
		</g>
		<g id="shape29-86" v:mID="29" v:groupContext="shape" transform="translate(285.548,-175.565)">
			<title>Sheet.29</title>
			<desc>NETWORK_CONNECTED</desc>
			<v:textBlock v:margins="rect(4,4,4,4)" v:tabSpace="42.5197"/>
			<v:textRect cx="41.5875" cy="467.116" width="83.18" height="8.69242"/>
			<rect x="0" y="462.77" width="83.175" height="8.69242" class="st5"/>
			<text x="5.59" y="468.92" class="st14" v:langID="1044"><v:paragraph v:horizAlign="1"/><v:tabList/>NETWORK_CONNECTED</text>		</g>
		<g id="shape30-89" v:mID="30" v:groupContext="shape" v:layerMember="0" transform="translate(7.87096,-172.894)">
			<title>Dynamic connector.1196</title>
			<path d="M0 471.46 C48.89 478.62 67.19 466.17 78.89 450.77 C89.68 436.55 94.84 419.81 99.62 389.72 L99.67 389.37"
					class="st18"/>
		</g>
		<g id="shape31-95" v:mID="31" v:groupContext="shape" transform="translate(125.184,-84.4893)">
			<title>Sheet.31</title>
			<desc>NETWORK_DISCONNECTED</desc>
			<v:textBlock v:margins="rect(4,4,4,4)" v:tabSpace="42.5197"/>
			<v:textRect cx="46.3151" cy="464.376" width="92.64" height="14.1732"/>
			<rect x="0" y="457.289" width="92.6301" height="14.1732" class="st5"/>
			<text x="5.31" y="466.18" class="st14" v:langID="1044"><v:paragraph v:horizAlign="1"/><v:tabList/>NETWORK_DISCONNECTED</text>		</g>
		<g id="shape32-98" v:mID="32" v:groupContext="shape" transform="translate(11.4108,-205.423)">
			<title>Sheet.32</title>
			<desc>NETWORK_UICC_FAILURE</desc>
			<v:textBlock v:margins="rect(4,4,4,4)" v:tabSpace="42.5197"/>
			<v:textRect cx="46.063" cy="464.376" width="92.13" height="14.1732"/>
			<rect x="0" y="457.289" width="92.126" height="14.1732" class="st5"/>
			<text x="7.39" y="466.18" class="st14" v:langID="1044"><v:paragraph v:horizAlign="1"/><v:tabList/>NETWORK_UICC_FAILURE</text>		</g>
		<g id="shape39-101" v:mID="39" v:groupContext="shape" transform="translate(221.175,-360.551)">
			<title>Sheet.39</title>
			<desc>STATE_DISCONNECTED</desc>
			<v:textBlock v:margins="rect(4,4,4,4)" v:tabSpace="42.5197"/>
			<v:textRect cx="61.9151" cy="467.21" width="123.84" height="8.50394"/>
			<rect x="0" y="462.958" width="123.83" height="8.50394" class="st5"/>
			<text x="14.58" y="469.61" class="st19" v:langID="1044"><v:paragraph v:horizAlign="1"/><v:tabList/>STATE_DISCONNECTED</text>		</g>
		<g id="shape45-104" v:mID="45" v:groupContext="shape" v:layerMember="0" transform="translate(283.537,-375.041)">
			<title>Dynamic connector.45</title>
			<path d="M-0.06 464.78 L-0.06 464.42 C-0.31 454.96 -1.56 443.95 -7.93 437.84 C-16.02 430.09 -32.35 430.23 -42.5 430.04"
					class="st13"/>
		</g>
		<g id="shape46-109" v:mID="46" v:groupContext="shape" v:layerMember="0" transform="translate(384.097,-326.12)">
			<title>Dynamic connector.46</title>
			<path d="M-0.55 464.81 L-0.58 464.45 C-2.67 453.34 -9.99 449.86 -16.87 448 C-27.49 445.12 -37.05 446.08 -58.04 447.59"
					class="st13"/>
		</g>
	</g>
</svg>
