<?xml version="1.0" encoding="UTF-8" standalone="no"?>
<!DOCTYPE svg PUBLIC "-//W3C//DTD SVG 1.1//EN" "http://www.w3.org/Graphics/SVG/1.1/DTD/svg11.dtd">
<!-- Generated by Microsoft Visio, SVG Export power_module_state_diagram.svg Page-1 -->
<svg xmlns="http://www.w3.org/2000/svg" xmlns:xlink="http://www.w3.org/1999/xlink" xmlns:ev="http://www.w3.org/2001/xml-events"
		xmlns:v="http://schemas.microsoft.com/visio/2003/SVGExtensions/" width="5in" height="3.5in"
		viewBox="0 0 360 252" xml:space="preserve" color-interpolation-filters="sRGB" class="st14">
	<v:documentProperties v:langID="1035" v:viewMarkup="false"/>

	<style type="text/css">
	<![CDATA[
		.st1 {fill:#ffffff;stroke:#000000;stroke-width:1}
		.st2 {fill:#000000;font-family:Arial;font-size:0.833336em}
		.st3 {fill:#000000;stroke:none;stroke-linecap:butt;stroke-width:0.75}
		.st4 {marker-end:url(#mrkr4-14);stroke:#000000;stroke-linecap:butt;stroke-width:1}
		.st5 {fill:#000000;fill-opacity:1;stroke:#000000;stroke-opacity:1;stroke-width:0.28409090909091}
		.st7 {fill:#000000;font-family:Arial;font-size:0.666664em}
		.st14 {fill:none;fill-rule:evenodd;font-size:12px;overflow:visible;stroke-linecap:square;stroke-miterlimit:3}
	]]>
	</style>

	<defs id="Markers">
		<g id="lend4">
			<path d="M 2 1 L 0 0 L 2 -1 L 2 1 " style="stroke:none"/>
		</g>
		<marker id="mrkr4-14" class="st5" v:arrowType="4" v:arrowSize="2" v:setback="7.04" refX="-7.04" orient="auto"
				markerUnits="strokeWidth" overflow="visible">
			<use xlink:href="#lend4" transform="scale(-3.52,-3.52) "/>
		</marker>
	</defs>
	<g v:mID="0" v:index="1" v:groupContext="foregroundPage">
		<title>Page-1</title>
		<v:layer v:name="Connector" v:index="0"/>

		<!-- Start label -->
		<g id="shape-start-label" v:mID="1" v:groupContext="shape" transform="translate(165,10)">
			<title>Sheet.Start</title>
			<desc>Start</desc>
			<text x="0" y="12" class="st7">Start</text>
		</g>

		<!-- Initial state indicator (filled circle) -->
		<g id="shape-initial" v:mID="2" v:groupContext="shape" transform="translate(175,25)">
			<title>Initial state</title>
			<ellipse cx="5" cy="5" rx="5" ry="5" class="st3"/>
		</g>

		<!-- Arrow from initial to STATE_WAITING_FOR_MODEM_INIT -->
		<g id="shape-init-arrow" v:mID="3" v:groupContext="shape" v:layerMember="0" transform="translate(180,35)">
			<title>Dynamic connector</title>
			<path d="M0 0 L0 20" class="st4"/>
		</g>

		<!-- STATE_WAITING_FOR_MODEM_INIT box -->
		<g id="shape-waiting" v:mID="4" v:groupContext="shape" transform="translate(20,55)">
			<title>Sheet.STATE_WAITING_FOR_MODEM_INIT</title>
			<desc>STATE_WAITING_FOR_MODEM_INIT</desc>
			<path d="M0 25 A6 6 0 0 0 6 31 L314 31 A6 6 0 0 0 320 25 L320 6 A6 6 0 0 0 314 0 L6 0 A6 6 0 0 0 0 6 L0 25 Z" class="st1"/>
			<text x="10" y="20" class="st2">STATE_WAITING_FOR_MODEM_INIT</text>
		</g>

		<!-- Arrow from STATE_WAITING_FOR_MODEM_INIT to STATE_RUNNING -->
		<g id="shape-wait-to-running" v:mID="5" v:groupContext="shape" v:layerMember="0" transform="translate(180,86)">
			<title>Dynamic connector</title>
			<path d="M0 0 L0 29" class="st4"/>
		</g>

		<!-- POWER_PRIV_MODEM_INITIALIZED label -->
		<g id="shape-modem-init-label" v:mID="6" v:groupContext="shape" transform="translate(190,95)">
			<title>Sheet.POWER_PRIV_MODEM_INITIALIZED</title>
			<desc>POWER_PRIV_MODEM_INITIALIZED</desc>
			<text x="0" y="10" class="st7">POWER_PRIV_MODEM_INITIALIZED</text>
		</g>

		<!-- STATE_RUNNING box -->
		<g id="shape-running" v:mID="7" v:groupContext="shape" transform="translate(20,115)">
			<title>Sheet.STATE_RUNNING</title>
			<desc>STATE_RUNNING</desc>
			<path d="M0 100 A6 6 0 0 0 6 106 L314 106 A6 6 0 0 0 320 100 L320 6 A6 6 0 0 0 314 0 L6 0 A6 6 0 0 0 0 6 L0 100 Z" class="st1"/>
		</g>

		<!-- STATE_RUNNING header -->
		<g id="shape-running-header" v:mID="8" v:groupContext="shape" transform="translate(20,115)">
			<title>Sheet.STATE_RUNNING_HEADER</title>
			<desc>STATE_RUNNING</desc>
			<path d="M0 18 A6 6 0 0 0 6 24 L314 24 A6 6 0 0 0 320 18 L320 6 A6 6 0 0 0 314 0 L6 0 A6 6 0 0 0 0 6 L0 18 Z" class="st1"/>
			<text x="10" y="17" class="st2">STATE_RUNNING</text>
		</g>

		<!-- Entry action -->
		<g id="shape-running-entry" v:mID="9" v:groupContext="shape" transform="translate(30,145)">
			<title>Sheet.running_entry</title>
			<desc>entry / charger_init(); fuel_gauge_init();</desc>
			<text x="0" y="12" class="st7">entry / charger_init(); fuel_gauge_init();</text>
		</g>

		<!-- Event handler -->
		<g id="shape-running-event" v:mID="10" v:groupContext="shape" transform="translate(30,170)">
			<title>Sheet.event_handler</title>
			<desc>POWER_BATTERY_PERCENTAGE_SAMPLE_REQUEST / sample()</desc>
			<text x="0" y="12" class="st7">POWER_BATTERY_PERCENTAGE_SAMPLE_REQUEST /</text>
			<text x="0" y="26" class="st7">sample()</text>
		</g>

	</g>
</svg>
