<?xml version="1.0" encoding="UTF-8" standalone="no"?>
<!DOCTYPE svg PUBLIC "-//W3C//DTD SVG 1.1//EN" "http://www.w3.org/Graphics/SVG/1.1/DTD/svg11.dtd">
<!-- Generated by Microsoft Visio, SVG Export power_module_state_diagram.svg Page-1 -->
<svg xmlns="http://www.w3.org/2000/svg" xmlns:xlink="http://www.w3.org/1999/xlink" xmlns:ev="http://www.w3.org/2001/xml-events"
		width="4.94658in" height="3.08981in" viewBox="0 0 356.154 222.466" xml:space="preserve" color-interpolation-filters="sRGB"
		class="st10">
	<style type="text/css">
	<![CDATA[
		.st1 {fill:#000000;stroke:none;stroke-linecap:butt;stroke-width:0.75}
		.st2 {marker-end:url(#mrkr4-8);stroke:#000000;stroke-linecap:butt;stroke-width:1}
		.st3 {fill:#000000;fill-opacity:1;stroke:#000000;stroke-opacity:1;stroke-width:0.28409090909091}
		.st4 {fill:#ffffff;stroke:#000000;stroke-width:1}
		.st5 {fill:#000000;font-family:Arial;font-size:0.833336em}
		.st6 {fill:none;stroke:none;stroke-linecap:butt;stroke-width:0.75}
		.st7 {fill:none;stroke:none;stroke-width:1}
		.st8 {fill:#000000;font-family:Arial;font-size:0.666664em}
		.st9 {font-size:1em}
		.st10 {fill:none;fill-rule:evenodd;font-size:12px;overflow:visible;stroke-linecap:square;stroke-miterlimit:3}
	]]>
	</style>

	<defs id="Markers">
		<g id="lend4">
			<path d="M 2 1 L 0 0 L 2 -1 L 2 1 " style="stroke:none"/>
		</g>
		<marker id="mrkr4-8" class="st3" refX="-6.68" orient="auto" markerUnits="strokeWidth" overflow="visible">
			<use xlink:href="#lend4" transform="scale(-3.52,-3.52) "/>
		</marker>
	</defs>
	<g>
		<title>Page-1</title>
		<g id="shape5-1" transform="translate(164.099,-201.08)">
			<title>Initial state</title>
			<ellipse cx="5.2604" cy="217.466" rx="5.2604" ry="5" class="st1"/>
		</g>
		<g id="shape6-3" transform="translate(169.359,-174.04)">
			<title>Dynamic connector</title>
			<path d="M0 195.43 L0 215.43 L0 215.43 L0 215.79" class="st2"/>
		</g>
		<g id="shape7-9" transform="translate(1,-143.04)">
			<title>Sheet.STATE_WAITING_FOR_MODEM_INIT</title>
			<desc>STATE_WAITING_FOR_MODEM_INIT</desc>
			<path d="M0 216.47 A6.31346 6 -180 0 0 6.31 222.47 L330.4 222.47 A6.31346 6 -180 0 0 336.72 216.47 L336.72 197.47 A6.31346
						 6 -180 0 0 330.4 191.47 L6.31 191.47 A6.31346 6 -180 0 0 0 197.47 L0 216.47 Z" class="st4"/>
			<text x="2.78" y="209.97" class="st5">STATE_WAITING_FOR_MODEM_INIT</text>		</g>
		<g id="shape8-12" transform="translate(169.359,-107)">
			<title>Sheet.8</title>
			<path d="M0 186.43 L0 215.43 L0 215.43 L0 215.79" class="st2"/>
		</g>
		<g id="shape9-17" transform="translate(1.0263,-1)">
			<title>Sheet.9</title>
			<desc>STATE_RUNNING</desc>
			<path d="M0 216.47 A6.31247 6 -180 0 0 6.31 222.47 L330.35 222.47 A6.31247 6 -180 0 0 336.67 216.47 L336.67 122.47 A6.31247
						 6 -180 0 0 330.35 116.47 L6.31 116.47 A6.31247 6 -180 0 0 0 122.47 L0 216.47 Z" class="st4"/>
		</g>
		<g id="shape10-19" transform="translate(1,-83)">
			<title>Sheet.10</title>
			<desc>STATE_RUNNING</desc>
			<path d="M0 216.47 A6.31346 6 -180 0 0 6.31 222.47 L330.4 222.47 A6.31346 6 -180 0 0 336.72 216.47 L336.72 204.47 A6.31346
						 6 -180 0 0 330.4 198.47 L6.31 198.47 A6.31346 6 -180 0 0 0 204.47 L0 216.47 Z" class="st4"/>
			<text x="2.78" y="213.47" class="st5">STATE_RUNNING</text>		</g>
		<g id="shape11-22" transform="translate(156.933,-212.348)">
			<title>Sheet.11</title>
			<desc>Start</desc>
			<rect x="0" y="214.23" width="25.1223" height="8.23585" class="st6"/>
			<text x="0" y="221.35" class="st5">Start</text>		</g>
		<g id="shape13-25" transform="translate(1.85471,-63.3953)">
			<title>Sheet.13</title>
			<desc>entry / charger_init(); fuel_gauge_init()</desc>
			<rect x="0" y="208.293" width="155.078" height="14.1732" class="st7"/>
			<text x="9.73" y="217.78" class="st8">entry / charger_init(); fuel_gauge_init()</text>		</g>
		<g id="shape14-28" transform="translate(3.48522,-35.0489)">
			<title>Sheet.14</title>
			<desc>POWER_BATTERY_PERCENTAGE_SAMPLE_REQUEST / sample()</desc>
			<rect x="0" y="214.23" width="311.508" height="8.23585" class="st7"/>
			<text x="4" y="215.35" class="st5">POWER_BATTERY_PERCENTAGE_SAMPLE_REQUEST / <tspan x="4" dy="1.2em" class="st9">sample()</tspan></text>		</g>
		<g id="shape15-32" transform="translate(164.099,-117.879)">
			<title>Sheet.15</title>
			<desc>POWER_PRIV_MODEM_INITIALIZED</desc>
			<rect x="0" y="215.379" width="191.055" height="7.08661" class="st7"/>
			<text x="9.12" y="221.92" class="st5">POWER_PRIV_MODEM_INITIALIZED</text>		</g>
	</g>
</svg>
