<?xml version="1.0" encoding="UTF-8" standalone="no"?>
<!DOCTYPE svg PUBLIC "-//W3C//DTD SVG 1.1//EN" "http://www.w3.org/Graphics/SVG/1.1/DTD/svg11.dtd">
<!-- Generated by Microsoft Visio, SVG Export shadow_desired_section_poll_flow.svg Page-1 -->
<svg xmlns="http://www.w3.org/2000/svg" xmlns:xlink="http://www.w3.org/1999/xlink" xmlns:ev="http://www.w3.org/2001/xml-events"
		width="7.3253in" height="8.11248in" viewBox="0 0 527.422 584.099" xml:space="preserve" color-interpolation-filters="sRGB"
		class="st16">
	<style type="text/css">
	<![CDATA[
		.st1 {fill:none;stroke:#feffff;stroke-width:0.999999}
		.st2 {fill:#000000;font-family:Arial;font-size:0.666664em}
		.st3 {fill:#ffffff;stroke:#000000;stroke-width:0.999999}
		.st4 {fill:#000000;font-family:Arial;font-size:0.833336em}
		.st5 {fill:none}
		.st6 {stroke:#000000;stroke-dasharray:7.99999,4;stroke-linecap:butt;stroke-width:0.999999}
		.st7 {fill:#00a9ce;stroke:#feffff;stroke-width:0.999999}
		.st8 {fill:#feffff;font-family:Arial;font-size:0.833336em}
		.st9 {stroke:#000000;stroke-dasharray:2,0.999999;stroke-linecap:butt;stroke-width:0.999999}
		.st10 {marker-end:url(#mrkr4-59);stroke:#000000;stroke-linecap:butt;stroke-width:0.999999}
		.st11 {fill:#000000;fill-opacity:1;stroke:#000000;stroke-opacity:1;stroke-width:0.28409075484379}
		.st12 {marker-start:url(#mrkr4-70);stroke:#000000;stroke-dasharray:7.99999,4;stroke-linecap:butt;stroke-width:0.999999}
		.st13 {marker-start:url(#mrkr4-70);stroke:#000000;stroke-linecap:butt;stroke-width:0.999999}
		.st14 {fill:#f4cb43;stroke:none;stroke-width:0.999999}
		.st15 {fill:#f4cb43;stroke:#feffff;stroke-width:0.999999}
		.st16 {fill:none;fill-rule:evenodd;font-size:12px;overflow:visible;stroke-linecap:square;stroke-miterlimit:3}
	]]>
	</style>

	<defs id="Markers">
		<g id="lend4">
			<path d="M 2 1 L 0 0 L 2 -1 L 2 1 " style="stroke:none"/>
		</g>
		<marker id="mrkr4-59" class="st11" refX="-0" orient="auto" markerUnits="strokeWidth" overflow="visible">
			<use xlink:href="#lend4" transform="scale(-3.5200019111845,-3.5200019111845) "/>
		</marker>
		<marker id="mrkr4-70" class="st11" refX="0" orient="auto" markerUnits="strokeWidth" overflow="visible">
			<use xlink:href="#lend4" transform="scale(3.5200019111845) "/>
		</marker>
	</defs>
	<g>
		<title>Page-1</title>
		<g id="group5-1" transform="translate(0.999999,-0.999999)">
			<title>Sheet.5</title>
			<g id="group6-2">
				<title>Page-1</title>
				<g id="shape7-3" transform="translate(87.4562,-486.359)">
					<title>Sheet.7</title>
					<desc>CLOUD_SHADOW_GET_DESIRED</desc>
					<rect x="0" y="565.106" width="142.866" height="18.9921" class="st1"/>
					<text x="6.75" y="577" class="st2">CLOUD_SHADOW_GET_DESIRED</text>				</g>
				<g id="shape8-6" transform="translate(2E-05,-545.673)">
					<title>Rectangle.78</title>
					<desc>Main</desc>
					<rect x="0" y="548.665" width="119.354" height="35.4331" class="st3"/>
					<text x="48.84" y="569.38" class="st4">Main</text>				</g>
				<g id="shape9-9" transform="translate(59.6734,-0.00799999)">
					<title>Dynamic connector</title>
					<path d="M0 38.43 L0 584.1 L0 38.43 Z" class="st5"/>
					<path d="M0 38.43 L0 584.1" class="st6"/>
				</g>
				<g id="shape10-12" transform="translate(403.789,-546.665)">
					<title>Rectangle.83</title>
					<desc>LwM2M carrier library</desc>
					<rect x="0" y="548.665" width="119.354" height="35.4331" class="st7"/>
					<text x="11.62" y="569.38" class="st8">LwM2M carrier library</text>				</g>
				<g id="shape11-15" transform="translate(463.613,-2.27374E-13)">
					<title>Dynamic connector.84</title>
					<path d="M0 37.43 L2.13 584.1 L0 37.43 Z" class="st5"/>
					<path d="M0 37.43 L2.13 584.1" class="st6"/>
				</g>
				<g id="shape12-18" transform="translate(201.319,-546.665)">
					<title>Rectangle.85</title>
					<desc>Cloud</desc>
					<rect x="0" y="548.665" width="119.354" height="35.4331" class="st3"/>
					<text x="46.61" y="569.38" class="st4">Cloud</text>				</g>
				<g id="shape13-21" transform="translate(404.535,-546.665)">
					<title>Rectangle.87</title>
					<desc>nRF Cloud</desc>
					<rect x="0" y="548.665" width="119.354" height="35.4331" class="st3"/>
					<text x="35.78" y="569.38" class="st4">nRF Cloud</text>				</g>
				<g id="shape14-24" transform="translate(10.0705,-444.056)">
					<title>Sheet.14</title>
					<path d="M0 584.1 L492.46 584.1 L0 584.1 Z" class="st5"/>
					<path d="M0 584.1 L492.46 584.1" class="st9"/>
				</g>
				<g id="shape15-27" transform="translate(273.729,-396.522)">
					<title>Sheet.15</title>
					<desc>Shadow desired section response (EMPTY)</desc>
					<rect x="0" y="565.554" width="168.303" height="18.5445" class="st1"/>
					<text x="6.56" y="577.23" class="st2">Shadow desired section response (EMPTY)</text>				</g>
				<g id="shape16-30" transform="translate(272.275,-247.824)">
					<title>Sheet.16</title>
					<desc>Shadow desired section response</desc>
					<rect x="0" y="565.106" width="183.687" height="18.9921" class="st1"/>
					<text x="31.81" y="577" class="st2">Shadow desired section response</text>				</g>
				<g id="shape17-33" transform="translate(264.547,-148.611)">
					<title>Sheet.17</title>
					<desc>Report device configurations PATCH (state/reported)</desc>
					<rect x="0" y="565.106" width="199.708" height="18.9921" class="st1"/>
					<text x="6.03" y="577" class="st2">Report device configurations PATCH (state/reported)</text>				</g>
				<g id="shape18-36" transform="translate(10.0705,-91.9223) rotate(8.04881E-07)">
					<title>Sheet.18</title>
					<path d="M0 584.1 L492.46 584.1 L0 584.1 Z" class="st5"/>
					<path d="M0 584.1 L492.46 584.1" class="st9"/>
				</g>
				<g id="shape19-39" transform="translate(260.932,-10.42)">
					<title>Dynamic connector.126</title>
					<path d="M0.06 47.85 L0 584.1 L0.06 47.85 Z" class="st5"/>
					<path d="M0.06 47.85 L0 584.1" class="st6"/>
				</g>
				<g id="shape20-42" transform="translate(266.037,-450.501)">
					<title>Sheet.20</title>
					<desc>Request shadow GET (state/desired)</desc>
					<rect x="0" y="565.106" width="183.687" height="18.9921" class="st1"/>
					<text x="26.04" y="577" class="st2">Request shadow GET (state/desired)</text>				</g>
				<g id="shape21-45" transform="translate(64.0633,-374.673)">
					<title>Sheet.21</title>
					<desc>CLOUD_SHADOW_RESPONSE_EMPTY_DESIRED</desc>
					<rect x="0" y="571.343" width="199.708" height="12.7559" class="st1"/>
					<text x="5.17" y="580.12" class="st2">CLOUD_SHADOW_RESPONSE_EMPTY_DESIRED</text>				</g>
				<g id="shape22-48" transform="translate(64.0633,-349.872)">
					<title>Sheet.22</title>
					<desc>CLOUD_SHADOW_UPDATE_REPORTED</desc>
					<rect x="0" y="571.343" width="197.93" height="12.7559" class="st1"/>
					<text x="4.06" y="580.12" class="st2">CLOUD_SHADOW_UPDATE_REPORTED_CONFIG</text>				</g>
				<g id="shape23-51" transform="translate(259.654,-322.871)">
					<title>Sheet.23</title>
					<desc>Report device configurations PATCH (state/reported)</desc>
					<rect x="0" y="565.106" width="199.708" height="18.9921" class="st1"/>
					<text x="6.03" y="577" class="st2">Report device configurations PATCH (state/reported)</text>				</g>
				<g id="shape24-54" transform="translate(59.6768,-488.773)">
					<title>Dynamic connector.146</title>
					<path d="M0 584.1 L194.27 583.3 L201.31 583.27" class="st10"/>
				</g>
				<g id="shape25-60" transform="translate(260.984,-453.332)">
					<title>Dynamic connector.147</title>
					<path d="M0 583.62 L195.95 584.08 L202.99 584.1" class="st10"/>
				</g>
				<g id="shape26-65" transform="translate(260.981,-398.075)">
					<title>Dynamic connector.149</title>
					<path d="M0 584.1 L6.68 584.1 L7.04 584.1 L203.16 583.64" class="st12"/>
				</g>
				<g id="shape27-71" transform="translate(260.94,-325.561)">
					<title>Dynamic connector.150</title>
					<path d="M0 584.1 L196.48 583.44 L203.52 583.41" class="st10"/>
				</g>
				<g id="shape28-76" transform="translate(59.6768,-373.051)">
					<title>Dynamic connector.151</title>
					<path d="M0 584.1 L6.68 584.1 L7.04 584.1 L201.3 583.19" class="st13"/>
				</g>
				<g id="shape29-81" transform="translate(59.6768,-349.872)">
					<title>Dynamic connector.153</title>
					<path d="M0 584.1 L194.26 584.1 L201.3 584.1" class="st10"/>
				</g>
				<g id="shape30-86" transform="translate(260.958,-148.613)">
					<title>Dynamic connector.155</title>
					<path d="M0 584.1 L196.98 584.09 L204.02 584.09" class="st10"/>
				</g>
				<g id="shape31-91" transform="translate(19.9917,-524.909)">
					<title>Rectangle.49</title>
					<desc>Connected to cloud</desc>
					<rect x="0" y="571.343" width="79.37" height="12.7559" class="st14"/>
					<text x="5.22" y="580.12" class="st2">Connected to cloud</text>				</g>
				<g id="shape32-94" transform="translate(-574.033,492.181) rotate(-90)">
					<title>Sheet.32</title>
					<path d="M0 584.1 L352.13 584.1 L0 584.1 Z" class="st5"/>
					<path d="M0 584.1 L352.13 584.1" class="st9"/>
				</g>
				<g id="shape33-97" transform="translate(-81.5759,492.181) rotate(-90)">
					<title>Sheet.33</title>
					<path d="M0 584.1 L352.13 584.1 L0 584.1 Z" class="st5"/>
					<path d="M0 584.1 L352.13 584.1" class="st9"/>
				</g>
				<g id="shape34-100" transform="translate(195.896,-428.137)">
					<title>Sheet.34</title>
					<desc>[desired EMPTY]</desc>
					<rect x="0" y="576.221" width="130.081" height="7.87713" class="st1"/>
					<text x="34.81" y="582.56" class="st2">[desired EMPTY]</text>				</g>
				<g id="shape35-103" transform="translate(260.967,-301.429)">
					<title>Dynamic connector.97</title>
					<path d="M0 584.1 L6.68 584.1 L7.04 584.1 L203.6 583.66" class="st12"/>
				</g>
				<g id="shape36-108" transform="translate(341.015,-297.855)">
					<title>Sheet.36</title>
					<desc>2.01 OK</desc>
					<rect x="0" y="565.106" width="46.7717" height="18.9921" class="st1"/>
					<text x="8.71" y="577" class="st2">2.01 OK</text>				</g>
				<g id="shape37-111" transform="translate(10.0705,-293.182)">
					<title>Sheet.37</title>
					<path d="M0 584.1 L492.46 584.1 L0 584.1 Z" class="st5"/>
					<path d="M0 584.1 L492.46 584.1" class="st9"/>
				</g>
				<g id="shape38-114" transform="translate(196.053,-282.153)">
					<title>Sheet.38</title>
					<desc>[desired present]</desc>
					<rect x="0" y="576.221" width="130.081" height="7.87713" class="st1"/>
					<text x="35.25" y="582.56" class="st2">[desired present]</text>				</g>
				<g id="shape39-117" transform="translate(260.967,-250.399)">
					<title>Dynamic connector.102</title>
					<path d="M0 584.1 L6.68 584.1 L7.04 584.1 L203.69 583.45" class="st12"/>
				</g>
				<g id="shape40-122" transform="translate(71.58,-226.327)">
					<title>Sheet.40</title>
					<desc>CLOUD_SHADOW_RESPONSE_DESIRED</desc>
					<rect x="0" y="571.343" width="183.687" height="12.7559" class="st1"/>
					<text x="13.16" y="580.12" class="st2">CLOUD_SHADOW_RESPONSE_DESIRED</text>				</g>
				<g id="shape41-125" transform="translate(62.8791,-176.957)">
					<title>Sheet.41</title>
					<desc>CLOUD_SHADOW_UPDATE_REPORTED</desc>
					<rect x="0" y="571.343" width="199.832" height="12.7559" class="st1"/>
					<text x="5.01" y="580.12" class="st2">CLOUD_SHADOW_UPDATE_REPORTED_CONFIG</text>				</g>
				<g id="shape42-128" transform="translate(60.2455,-226.358)">
					<title>Dynamic connector.105</title>
					<path d="M0 584.1 L6.68 584.1 L7.04 584.1 L201.3 583.19" class="st13"/>
				</g>
				<g id="shape43-133" transform="translate(60.2455,-176.958)">
					<title>Dynamic connector.106</title>
					<path d="M0 584.1 L194.26 584.1 L201.3 584.1" class="st10"/>
				</g>
				<g id="shape44-138" transform="translate(11.3479,-208.847)">
					<title>Rectangle.107</title>
					<desc>Decode and apply config</desc>
					<rect x="0" y="571.343" width="97.7952" height="12.7559" class="st15"/>
					<text x="4.87" y="580.12" class="st2">Decode and apply config</text>				</g>
				<g id="shape45-141" transform="translate(262.225,-118.621)">
					<title>Dynamic connector.108</title>
					<path d="M0 584.1 L6.68 584.1 L7.04 584.1 L203.52 583.45" class="st12"/>
				</g>
				<g id="shape46-146" transform="translate(261.785,-115.446)">
					<title>Sheet.46</title>
					<desc>2.01 OK</desc>
					<rect x="0" y="565.106" width="199.708" height="18.9921" class="st1"/>
					<text x="85.18" y="577" class="st2">2.01 OK</text>				</g>
				<g id="shape47-149" transform="translate(-2.14229E-12,-0.0049)">
					<title>Rectangle.110</title>
					<desc>Main</desc>
					<rect x="0" y="548.665" width="119.354" height="35.4331" class="st3"/>
					<text x="48.84" y="569.38" class="st4">Main</text>				</g>
				<g id="shape48-152" transform="translate(201.26,-0.0049)">
					<title>Rectangle.111</title>
					<desc>Cloud</desc>
					<rect x="0" y="548.665" width="119.354" height="35.4331" class="st3"/>
					<text x="46.61" y="569.38" class="st4">Cloud</text>				</g>
				<g id="shape49-155" transform="translate(406.068,-0.0049)">
					<title>Rectangle.112</title>
					<desc>nRF Cloud</desc>
					<rect x="0" y="548.665" width="119.354" height="35.4331" class="st3"/>
					<text x="35.78" y="569.38" class="st4">nRF Cloud</text>				</g>
				<g id="shape50-158" transform="translate(11.4878,-423.572)">
					<title>Sheet.50</title>
					<desc>alt</desc>
					<rect x="0" y="565.106" width="20.2139" height="18.9921" class="st1"/>
					<text x="5.88" y="577" class="st2">alt</text>				</g>
			</g>
		</g>
	</g>
</svg>
