<?xml version="1.0" encoding="UTF-8" standalone="no"?>
<!DOCTYPE svg PUBLIC "-//W3C//DTD SVG 1.1//EN" "http://www.w3.org/Graphics/SVG/1.1/DTD/svg11.dtd">
<!-- Generated by Microsoft Visio, SVG Export storage_module_state_diagram.svg Page-1 -->
<svg xmlns="http://www.w3.org/2000/svg" xmlns:xlink="http://www.w3.org/1999/xlink" xmlns:ev="http://www.w3.org/2001/xml-events"
		width="7.72463in" height="6.52037in" viewBox="0 0 556.173 469.467" xml:space="preserve" color-interpolation-filters="sRGB"
		class="st12">
	<style type="text/css">
	<![CDATA[
		.st1 {fill:#ffffff;stroke:#000000;stroke-width:1}
		.st2 {fill:#000000;font-family:Arial;font-size:0.833336em}
		.st3 {fill:#000000;stroke:none;stroke-linecap:butt;stroke-width:0.75}
		.st4 {marker-end:url(#mrkr4-13);stroke:#000000;stroke-linecap:butt;stroke-width:1}
		.st5 {fill:#000000;fill-opacity:1;stroke:#000000;stroke-opacity:1;stroke-width:0.28409090909091}
		.st6 {fill:none;stroke:none;stroke-linecap:butt;stroke-width:0.75}
		.st7 {fill:#000000;font-family:Arial;font-size:0.666664em}
		.st8 {font-size:1em}
		.st9 {fill:#ffffff;stroke:none;stroke-linecap:butt;stroke-width:0.75}
		.st10 {stroke:#000000;stroke-linecap:butt;stroke-width:1.5}
		.st11 {marker-end:url(#mrkr5-67);stroke:#000000;stroke-linecap:butt;stroke-width:1}
		.st12 {fill:none;fill-rule:evenodd;font-size:12px;overflow:visible;stroke-linecap:square;stroke-miterlimit:3}
	]]>
	</style>

	<defs id="Markers">
		<g id="lend4">
			<path d="M 2 1 L 0 0 L 2 -1 L 2 1 " style="stroke:none"/>
		</g>
		<marker id="mrkr4-13" class="st5" refX="-7.04" orient="auto" markerUnits="strokeWidth" overflow="visible">
			<use xlink:href="#lend4" transform="scale(-3.52,-3.52) "/>
		</marker>
		<g id="lend5">
			<path d="M 2 1 L 0 0 L 1.98117 -0.993387 C 1.67173 -0.364515 1.67301 0.372641 1.98465 1.00043 " style="stroke:none"/>
		</g>
		<marker id="mrkr5-67" class="st5" refX="-6.16" orient="auto" markerUnits="strokeWidth" overflow="visible">
			<use xlink:href="#lend5" transform="scale(-3.52,-3.52) "/>
		</marker>
	</defs>
	<g>
		<title>Page-1</title>
		<g id="shape5-1" transform="translate(1,-1)">
			<title>Sheet.5</title>
			<path d="M0 463.55 A6.25694 5.91792 -180 0 0 6.26 469.47 L547.92 469.47 A6.25694 5.91792 -180 0 0 554.17 463.55 L554.17
						 44.23 A6.25694 5.91792 -180 0 0 547.92 38.31 L6.26 38.31 A6.25694 5.91792 -180 0 0 0 44.23 L0 463.55 Z"
					class="st1"/>
		</g>
		<g id="shape6-3" transform="translate(1,-414.505)">
			<title>Sheet.6</title>
			<desc>STATE_RUNNING</desc>
			<path d="M0 463.58 A5.36309 5.88289 -180 0 0 5.36 469.47 L548.81 469.47 A5.36309 5.88289 -180 0 0 554.17 463.58 L554.17
						 457.7 A5.36309 5.88289 -180 0 0 548.81 451.82 L5.36 451.82 A5.36309 5.88289 -180 0 0 0 457.7 L0 463.58 Z"
					class="st1"/>
			<text x="4" y="464.82" class="st2">STATE_RUNNING</text>		</g>
		<g id="shape7-6" transform="translate(248.444,-451.709)">
			<title>Sheet.7</title>
			<ellipse cx="4.11481" cy="464.564" rx="4.11481" ry="4.90229" class="st3"/>
		</g>
		<g id="shape8-8" transform="translate(253.93,-456.858)">
			<title>Dynamic connector</title>
			<path d="M0 469.47 L29.63 469.47 L29.63 487.42" class="st4"/>
		</g>
		<g id="shape9-14" transform="translate(242.853,-460.481)">
			<title>Sheet.9</title>
			<desc>Start</desc>
			<rect x="0" y="461.231" width="23.8787" height="8.23585" class="st6"/>
			<text x="0" y="467.75" class="st7">Start</text>		</g>
		<g id="shape10-17" transform="translate(8.857,-369.504)">
			<title>Sheet.10</title>
			<desc>entry / backend-&#62;init(); STORAGR_STATS / handle_storage_stats...</desc>
			<rect x="0" y="461.231" width="206.449" height="8.23585" class="st6"/>
			<text x="0" y="438.35" class="st2">entry / backend-&#62;init();  <tspan x="0" dy="2.4em" class="st8">STORAGR_STATS / handle_storage_stats(); </tspan><tspan
						x="0" dy="1.2em" class="st8">STORAGR_</tspan>FLUSH / flush_storage_data(); <tspan x="0" dy="1.2em"
						class="st8">STORAGR_CLEAR / storage_clear(); </tspan><tspan x="0" dy="1.2em" class="st8">STORAGR_</tspan>SET_THRESHOLD / set</text>		</g>
		<g id="shape49-24" transform="translate(89.1714,-202.288)">
			<title>Sheet.49</title>
			<path d="M6.04 468.68 A11.6124 6.42772 -180 0 0 11.61 469.47 L336.75 469.47 A11.6124 6.42772 -180 0 0 342.32 468.68 A8.50394
						 8.50394 -180 0 0 348.36 460.54 L348.36 417.11 A4.25197 4.25197 -180 0 0 347.67 414.79 A11.6124 6.42772 -180
						 0 0 336.75 410.55 L11.61 410.55 A11.6124 6.42772 -180 0 0 6.04 411.34 A8.50394 8.50394 -180 0 0 -0 419.47
						 L-0 460.54 A8.50394 8.50394 -180 0 0 6.04 468.68 Z" class="st1"/>
		</g>
		<g id="shape50-26" transform="translate(89.4594,-244.741)">
			<title>Sheet.50</title>
			<path d="M6.41 468.84 A11.6124 5.88289 -180 0 0 11.61 469.47 L336.75 469.47 A11.6124 5.88289 -180 0 0 347.14 466.21 A4.25197
						 4.25197 -180 0 0 348.36 463.23 L348.36 459.04 A4.25197 4.25197 -180 0 0 347.14 456.05 A11.6124 5.88289 -180
						 0 0 336.75 452.8 L11.61 452.8 A11.6124 5.88289 -180 0 0 1.23 456.05 A4.25197 4.25197 -180 0 0 0 459.04 L0
						 460.6 A8.50394 8.50394 -180 0 0 6.41 468.84 Z" class="st1"/>
		</g>
		<g id="shape51-28" transform="translate(94.5433,-247.001)">
			<title>Sheet.51</title>
			<desc>STATE_BUFFER_IDLE</desc>
			<rect x="0" y="458.878" width="194.882" height="10.5889" class="st9"/>
			<text x="0" y="467.17" class="st2">STATE_BUFFER_IDLE</text>		</g>
		<g id="shape52-31" transform="translate(91.2974,-222.131)">
			<title>Sheet.52</title>
			<desc>STORAGE_BATCH_REQUEST / ;</desc>
			<rect x="0" y="461.231" width="133.64" height="8.23585" class="st6"/>
			<text x="0" y="467.75" class="st7">STORAGE_BATCH_REQUEST / ;</text>		</g>
		<g id="shape53-34" transform="translate(272.124,-162.918)">
			<title>Sheet.53</title>
			<path d="M0 469.47 L8.23 469.47" class="st10"/>
		</g>
		<g id="shape55-37" transform="translate(280.353,776.015) rotate(180)">
			<title>Sheet.55</title>
			<path d="M0 469.47 L8.23 469.47" class="st10"/>
		</g>
		<g id="shape57-40" transform="translate(119.918,-284.707)">
			<title>Dynamic connector.129</title>
			<path d="M0 469.47 L56.49 469.47 L56.49 486.19" class="st4"/>
		</g>
		<g id="shape58-45" transform="translate(119.918,-280.087) scale(-1,1)">
			<title>Sheet.58</title>
			<ellipse cx="4.11481" cy="464.564" rx="4.11481" ry="4.90229" class="st3"/>
		</g>
		<g id="shape59-47" transform="translate(44.937,-52.2656)">
			<title>Sheet.59</title>
			<path d="M-0 456.57 A10.6206 12.8943 -180 0 0 10.62 469.47 L307.99 469.47 A10.6206 12.8943 -180 0 0 318.61 456.57 L318.61
						 364.17 A10.6206 12.8943 -180 0 0 307.99 351.27 L10.62 351.27 A10.6206 12.8943 -180 0 0 0 364.17 L0 456.57
						 Z" class="st1"/>
		</g>
		<g id="shape60-49" transform="translate(44.937,-154.653)">
			<title>Sheet.60</title>
			<path d="M6.65 469.04 A10.6302 5.88289 -180 0 0 10.63 469.47 L308.27 469.47 A10.6302 5.88289 -180 0 0 317.88 466.09 A4.25197
						 4.25197 -180 0 0 318.9 463.34 L318.9 458.93 A4.25197 4.25197 -180 0 0 317.88 456.17 A10.6302 5.88289 -180
						 0 0 308.27 452.8 L10.63 452.8 A10.6302 5.88289 -180 0 0 1.02 456.17 A4.25197 4.25197 -180 0 0 0 458.93 L0
						 460.74 A8.50394 8.50394 -180 0 0 6.65 469.04 Z" class="st1"/>
		</g>
		<g id="shape61-51" transform="translate(86.4691,-157.148)">
			<title>Sheet.61</title>
			<desc>STATE_BUFFER_PIPE_ACTIVE</desc>
			<rect x="0" y="458.878" width="149.806" height="10.5889" class="st9"/>
			<text x="0" y="467.17" class="st2">STATE_BUFFER_PIPE_ACTIVE</text>		</g>
		<g id="shape63-54" transform="translate(264.622,-202.288)">
			<title>Dynamic connector.135</title>
			<path d="M7.09 469.47 L7.09 493.39" class="st4"/>
		</g>
		<g id="shape74-59" transform="translate(152.276,-184.068)">
			<title>Sheet.74</title>
			<desc>STORAGE_BATCH_REQUEST</desc>
			<rect x="0" y="461.231" width="118.534" height="8.23585" class="st6"/>
			<text x="0" y="467.75" class="st7">STORAGE_BATCH_REQUEST</text>		</g>
		<g id="shape88-62" transform="translate(363.547,-114.628)">
			<title>Dynamic connector.88</title>
			<path d="M0 469.47 L134.93 469.47 L134.93 354.42 L80.15 354.42" class="st11"/>
		</g>
		<g id="shape89-68" transform="translate(394.12,-178.001)">
			<title>Sheet.89</title>
			<desc>STORAGE_BATCH_CLOSE</desc>
			<rect x="0" y="461.231" width="104.361" height="8.23585" class="st6"/>
			<text x="0" y="467.75" class="st7">STORAGE_BATCH_CLOSE</text>		</g>
		<g id="shape90-71" transform="translate(50.6063,-96.3367)">
			<title>Sheet.90</title>
			<desc>entry / start_batch_session(); STORAGE_CLEAR / ; STORAGE_BATC...</desc>
			<rect x="0" y="461.231" width="308.688" height="8.23585" class="st6"/>
			<text x="0" y="434.15" class="st7">entry / start_batch_session();  <tspan x="0" dy="2.4em" class="st8">STORAGE_CLEAR / ;  </tspan><tspan
						x="0" dy="1.2em" class="st8">STORAGE_BATCH_CLOSE / reject_if_wrong session id (); </tspan><tspan x="0"
						dy="1.2em" class="st8">STORAGE_BATCH_REQUEST / send_batch_session(); </tspan><tspan x="0" dy="1.2em"
						class="st8">STORAGE_</tspan>BATCH_SESSION_TIMEOUT / send STORAGE_BATCH_CLOSE  <tspan x="0" dy="2.4em"
						class="st8">exit / drain_pipe();</tspan></text>		</g>
	</g>
</svg>
